<svg xmlns="http://www.w3.org/2000/svg" viewBox="0 0 68 68" fill="none">
<path d="M39.4605 4.26181C36.4447 1.24606 31.5553 1.24606 28.5395 4.26181L4.26181 28.5395C1.24606 31.5553 1.24606 36.4447 4.26181 39.4605L28.5395 63.7382C31.5553 66.7539 36.4447 66.7539 39.4605 63.7382L63.7382 39.4605C66.7539 36.4447 66.7539 31.5553 63.7382 28.5395L39.4605 4.26181Z" fill="#EE2E24" stroke="#E6E4E1" stroke-width="4" stroke-linejoin="round"/>
<path fill-rule="evenodd" clip-rule="evenodd" d="M18.0033 35.1701C17.2223 34.3891 17.2223 33.1227 18.0033 32.3417L32.3418 18.0032C33.1229 17.2222 34.3892 17.2222 35.1702 18.0032L49.5087 32.3417C50.2898 33.1227 50.2898 34.3891 49.5087 35.1701L35.1702 49.5086C34.3892 50.2897 33.1229 50.2897 32.3418 49.5086L18.0033 35.1701Z" fill="white"/>
</svg>