<svg xmlns="http://www.w3.org/2000/svg" viewBox="0 0 30 30" fill="none">
  <rect x="7" y="6" width="17" height="19" fill="white"/>
  <path fill-rule="evenodd" clip-rule="evenodd" d="M8.93886 0C8.76494 0 8.5985 0.0707868 8.47786 0.196069L0.178995 8.81412C0.0641567 8.93338 0 9.09249 0 9.25805V21.0682C0 21.238 0.0674284 21.4008 0.187452 21.5208L8.47922 29.8125C8.59924 29.9326 8.76202 30 8.93176 30H21.0611C21.2351 30 21.4015 29.9292 21.5221 29.8039L29.821 21.1859C29.9358 21.0666 30 20.9075 30 20.7419V8.93176C30 8.76202 29.9326 8.59924 29.8125 8.47922L21.5208 0.187452C21.4008 0.0674284 21.238 0 21.0682 0H8.93886ZM7.5935 10.0066C7.34658 10.2576 7.34866 10.6608 7.59816 10.9091L11.957 15.248L7.59623 19.6793C7.34824 19.9313 7.35156 20.3366 7.60365 20.5845L9.73397 22.6794C9.98593 22.9272 10.391 22.9239 10.6389 22.672L15 18.2404L19.3611 22.672C19.609 22.9239 20.0141 22.9272 20.266 22.6794L22.3964 20.5845C22.6484 20.3366 22.6518 19.9313 22.4038 19.6793L18.043 15.248L22.4018 10.9091C22.6513 10.6608 22.6534 10.2576 22.4065 10.0066L20.2613 7.82685C20.0124 7.5739 19.6052 7.5718 19.3537 7.82217L15 12.1559L10.6463 7.82217C10.3948 7.5718 9.98758 7.5739 9.73865 7.82685L7.5935 10.0066Z" fill="#171F26"/>
</svg>