<svg width="404" height="64" viewBox="0 0 404 64" fill="none" xmlns="http://www.w3.org/2000/svg">
    <g clip-path="url(#clip0_734_24047)">
        <rect width="404" height="64" fill="white" />
        <rect width="356" height="64" rx="32" fill="black" />
        <path
            d="M60.08 45.112C58.736 46.84 57.248 48.056 55.616 48.76C53.984 49.432 52.336 49.768 50.672 49.768C48.048 49.768 45.68 49.32 43.568 48.424C41.488 47.496 39.728 46.232 38.288 44.632C36.848 43.032 35.744 41.16 34.976 39.016C34.208 36.84 33.824 34.504 33.824 32.008C33.824 29.448 34.208 27.08 34.976 24.904C35.744 22.696 36.848 20.776 38.288 19.144C39.728 17.512 41.488 16.232 43.568 15.304C45.68 14.376 48.048 13.912 50.672 13.912C52.432 13.912 54.128 14.184 55.76 14.728C57.424 15.24 58.912 16.008 60.224 17.032C61.568 18.056 62.672 19.32 63.536 20.824C64.4 22.328 64.928 24.056 65.12 26.008H57.92C57.472 24.088 56.608 22.648 55.328 21.688C54.048 20.728 52.496 20.248 50.672 20.248C48.976 20.248 47.536 20.584 46.352 21.256C45.168 21.896 44.208 22.776 43.472 23.896C42.736 24.984 42.192 26.232 41.84 27.64C41.52 29.048 41.36 30.504 41.36 32.008C41.36 33.448 41.52 34.856 41.84 36.232C42.192 37.576 42.736 38.792 43.472 39.88C44.208 40.968 45.168 41.848 46.352 42.52C47.536 43.16 48.976 43.48 50.672 43.48C53.168 43.48 55.088 42.856 56.432 41.608C57.808 40.328 58.608 38.488 58.832 36.088H51.248V30.472H65.648V49H60.848L60.08 45.112ZM79.2699 30.232H87.5259C89.2539 30.232 90.5499 29.848 91.4139 29.08C92.2779 28.312 92.7099 27.064 92.7099 25.336C92.7099 23.672 92.2779 22.472 91.4139 21.736C90.5499 20.968 89.2539 20.584 87.5259 20.584H79.2699V30.232ZM71.7339 14.728H90.2139C91.7499 14.728 93.1259 14.984 94.3419 15.496C95.5899 15.976 96.6459 16.648 97.5099 17.512C98.4059 18.376 99.0779 19.384 99.5259 20.536C100.006 21.656 100.246 22.872 100.246 24.184C100.246 26.2 99.8139 27.944 98.9499 29.416C98.1179 30.888 96.7419 32.008 94.8219 32.776V32.872C95.7499 33.128 96.5179 33.528 97.1259 34.072C97.7339 34.584 98.2299 35.208 98.6139 35.944C98.9979 36.648 99.2699 37.432 99.4299 38.296C99.6219 39.16 99.7499 40.024 99.8139 40.888C99.8459 41.432 99.8779 42.072 99.9099 42.808C99.9419 43.544 99.9899 44.296 100.054 45.064C100.15 45.832 100.278 46.568 100.438 47.272C100.63 47.944 100.902 48.52 101.254 49H93.7179C93.3019 47.912 93.0459 46.616 92.9499 45.112C92.8539 43.608 92.7099 42.168 92.5179 40.792C92.2619 39 91.7179 37.688 90.8859 36.856C90.0539 36.024 88.6939 35.608 86.8059 35.608H79.2699V49H71.7339V14.728ZM106.375 14.728H132.007V21.064H113.911V28.408H130.519V34.264H113.911V42.664H132.391V49H106.375V14.728ZM137.5 14.728H163.132V21.064H145.036V28.408H161.644V34.264H145.036V42.664H163.516V49H137.5V14.728ZM168.625 14.728H176.113L190.417 37.72H190.513V14.728H197.569V49H190.033L175.777 26.056H175.681V49H168.625V14.728ZM217.562 14.728H225.098V42.664H241.802V49H217.562V14.728ZM246.015 14.728H253.551V49H246.015V14.728ZM260.171 14.728H267.659L281.963 37.72H282.059V14.728H289.115V49H281.579L267.323 26.056H267.227V49H260.171V14.728ZM295.75 14.728H321.382V21.064H303.286V28.408H319.894V34.264H303.286V42.664H321.766V49H295.75V14.728Z"
            fill="white" />
        <rect x="336" y="-4" width="72" height="72" rx="36" fill="black" stroke="white" stroke-width="8" />
        <rect x="336" y="-4" width="72" height="72" rx="36" fill="black" stroke="white" stroke-width="8" />
        <path
            d="M365.504 43.4413H372.224C373.312 43.4413 374.368 43.2653 375.392 42.9133C376.416 42.5613 377.328 41.9853 378.128 41.1853C378.928 40.3533 379.568 39.2813 380.048 37.9693C380.528 36.6573 380.768 35.0573 380.768 33.1693C380.768 31.4413 380.592 29.8893 380.24 28.5133C379.92 27.1053 379.376 25.9053 378.608 24.9133C377.84 23.9213 376.816 23.1693 375.536 22.6573C374.288 22.1133 372.736 21.8413 370.88 21.8413H365.504V43.4413ZM357.968 15.5053H372.752C374.96 15.5053 377.008 15.8573 378.896 16.5613C380.816 17.2653 382.464 18.3213 383.84 19.7293C385.248 21.1373 386.336 22.8973 387.104 25.0093C387.904 27.1213 388.304 29.6013 388.304 32.4493C388.304 34.9453 387.984 37.2493 387.344 39.3613C386.704 41.4733 385.728 43.2973 384.416 44.8333C383.136 46.3693 381.52 47.5853 379.568 48.4813C377.648 49.3453 375.376 49.7773 372.752 49.7773H357.968V15.5053Z"
            fill="white" />
    </g>
    <defs>
        <clipPath id="clip0_734_24047">
            <rect width="404" height="64" fill="white" />
        </clipPath>
    </defs>
</svg>