<svg width="64" height="64" viewBox="0 0 64 64" fill="none" xmlns="http://www.w3.org/2000/svg">
    <rect width="64" height="64" rx="32" fill="black" />
    <path
        d="M25.9496 29.6V21.584H33.0056C33.6776 21.584 34.3176 21.648 34.9256 21.776C35.5656 21.872 36.1256 22.064 36.6056 22.352C37.0856 22.64 37.4696 23.04 37.7576 23.552C38.0456 24.064 38.1896 24.72 38.1896 25.52C38.1896 26.96 37.7576 28 36.8936 28.64C36.0296 29.28 34.9256 29.6 33.5816 29.6H25.9496ZM18.4136 15.728V50H35.0216C36.5576 50 38.0456 49.808 39.4856 49.424C40.9576 49.04 42.2536 48.448 43.3736 47.648C44.5256 46.848 45.4376 45.824 46.1096 44.576C46.7816 43.296 47.1176 41.792 47.1176 40.064C47.1176 37.92 46.5896 36.096 45.5336 34.592C44.5096 33.056 42.9416 31.984 40.8296 31.376C42.3656 30.64 43.5176 29.696 44.2856 28.544C45.0856 27.392 45.4856 25.952 45.4856 24.224C45.4856 22.624 45.2136 21.28 44.6696 20.192C44.1576 19.104 43.4216 18.24 42.4616 17.6C41.5016 16.928 40.3496 16.448 39.0056 16.16C37.6616 15.872 36.1736 15.728 34.5416 15.728H18.4136ZM25.9496 44.144V34.736H34.1576C35.7896 34.736 37.1016 35.12 38.0936 35.888C39.0856 36.624 39.5816 37.872 39.5816 39.632C39.5816 40.528 39.4216 41.264 39.1016 41.84C38.8136 42.416 38.4136 42.88 37.9016 43.232C37.3896 43.552 36.7976 43.792 36.1256 43.952C35.4536 44.08 34.7496 44.144 34.0136 44.144H25.9496Z"
        fill="white" />
</svg>