<svg preserveAspectRatio="xMinYMin meet" viewBox="0 0 144 74" fill="none" xmlns="http://www.w3.org/2000/svg">
<rect width="143.375" height="74" rx="37" fill="currentColor"/>
<path d="M48.4209 33.725H57.2454C58.7994 33.725 60.0759 33.355 61.0749 32.615C62.0739 31.875 62.5734 30.6725 62.5734 29.0075C62.5734 28.0825 62.4069 27.324 62.0739 26.732C61.7409 26.14 61.2969 25.6775 60.7419 25.3445C60.1869 25.0115 59.5394 24.7895 58.7994 24.6785C58.0964 24.5305 57.3564 24.4565 56.5794 24.4565H48.4209V33.725ZM39.7074 17.6855H58.3554C60.2424 17.6855 61.9629 17.852 63.5169 18.185C65.0709 18.518 66.4029 19.073 67.5129 19.85C68.6229 20.59 69.4739 21.589 70.0659 22.847C70.6949 24.105 71.0094 25.659 71.0094 27.509C71.0094 29.507 70.5469 31.172 69.6219 32.504C68.7339 33.836 67.4019 34.9275 65.6259 35.7785C68.0679 36.4815 69.8809 37.721 71.0649 39.497C72.2859 41.236 72.8964 43.345 72.8964 45.824C72.8964 47.822 72.5079 49.561 71.7309 51.041C70.9539 52.484 69.8994 53.668 68.5674 54.593C67.2724 55.518 65.7739 56.2025 64.0719 56.6465C62.4069 57.0905 60.6864 57.3125 58.9104 57.3125H39.7074V17.6855ZM48.4209 50.5415H57.7449C58.5959 50.5415 59.4099 50.4675 60.1869 50.3195C60.9639 50.1345 61.6484 49.857 62.2404 49.487C62.8324 49.08 63.2949 48.5435 63.6279 47.8775C63.9979 47.2115 64.1829 46.3605 64.1829 45.3245C64.1829 43.2895 63.6094 41.8465 62.4624 40.9955C61.3154 40.1075 59.7984 39.6635 57.9114 39.6635H48.4209V50.5415ZM78.7851 17.6855H87.4986V49.9865H106.813V57.3125H78.7851V17.6855Z" fill="white"/>
</svg>
