<svg viewBox="0 0 316 65" fill="none" xmlns="http://www.w3.org/2000/svg">
    <rect y="0.628906" width="316" height="64" rx="32" fill="currentColor" />
    <path
        d="M42.848 29.2289V21.2129H49.904C50.576 21.2129 51.216 21.2769 51.824 21.4049C52.464 21.5009 53.024 21.6929 53.504 21.9809C53.984 22.2689 54.368 22.6689 54.656 23.1809C54.944 23.6929 55.088 24.3489 55.088 25.1489C55.088 26.5889 54.656 27.6289 53.792 28.2689C52.928 28.9089 51.824 29.2289 50.48 29.2289H42.848ZM35.312 15.3569V49.6289H51.92C53.456 49.6289 54.944 49.4369 56.384 49.0529C57.856 48.6689 59.152 48.0769 60.272 47.2769C61.424 46.4769 62.336 45.4529 63.008 44.2049C63.68 42.9249 64.016 41.4209 64.016 39.6929C64.016 37.5489 63.488 35.7249 62.432 34.2209C61.408 32.6849 59.84 31.6129 57.728 31.0049C59.264 30.2689 60.416 29.3249 61.184 28.1729C61.984 27.0209 62.384 25.5809 62.384 23.8529C62.384 22.2529 62.112 20.9089 61.568 19.8209C61.056 18.7329 60.32 17.8689 59.36 17.2289C58.4 16.5569 57.248 16.0769 55.904 15.7889C54.56 15.5009 53.072 15.3569 51.44 15.3569H35.312ZM42.848 43.7729V34.3649H51.056C52.688 34.3649 54 34.7489 54.992 35.5169C55.984 36.2529 56.48 37.5009 56.48 39.2609C56.48 40.1569 56.32 40.8929 56 41.4689C55.712 42.0449 55.312 42.5089 54.8 42.8609C54.288 43.1809 53.696 43.4209 53.024 43.5809C52.352 43.7089 51.648 43.7729 50.912 43.7729H42.848ZM69.1089 15.3569V49.6289H93.3489V43.2929H76.6449V15.3569H69.1089ZM126.65 36.6689V15.3569H119.114V36.6689C119.114 39.2289 118.602 41.1169 117.578 42.3329C116.554 43.5169 114.698 44.1089 112.01 44.1089C110.474 44.1089 109.242 43.9009 108.314 43.4849C107.418 43.0369 106.714 42.4769 106.202 41.8049C105.69 41.1009 105.354 40.3009 105.194 39.4049C105.034 38.5089 104.954 37.5969 104.954 36.6689V15.3569H97.418V36.6689C97.418 41.3409 98.682 44.7969 101.21 47.0369C103.77 49.2769 107.37 50.3969 112.01 50.3969C116.586 50.3969 120.17 49.2769 122.762 47.0369C125.354 44.7649 126.65 41.3089 126.65 36.6689ZM133.14 15.3569V49.6289H159.156V43.2929H140.676V34.8929H157.284V29.0369H140.676V21.6929H158.772V15.3569H133.14ZM177.625 15.3569V49.6289H201.865V43.2929H185.161V15.3569H177.625ZM206.078 15.3569V49.6289H213.614V15.3569H206.078ZM220.234 15.3569V49.6289H227.29V26.6849H227.386L241.642 49.6289H249.178V15.3569H242.122V38.3489H242.026L227.722 15.3569H220.234ZM255.812 15.3569V49.6289H281.828V43.2929H263.348V34.8929H279.956V29.0369H263.348V21.6929H281.444V15.3569H255.812Z"
        fill="white" />
</svg>