<svg preserveAspectRatio="xMinYMin meet" viewBox="0 0 203 74" fill="none" xmlns="http://www.w3.org/2000/svg">
<g clip-path="url(#clip0_429_1263)">
<path fill-rule="evenodd" clip-rule="evenodd" d="M135.985 67.8246C127.944 60.023 122.946 49.0958 122.946 37C122.946 24.9042 127.944 13.977 135.985 6.17543C130.123 2.27368 123.083 0 115.513 0H37C16.5655 0 0 16.5655 0 37C0 57.4345 16.5654 74 37 74H115.513C123.083 74 130.123 71.7263 135.985 67.8246Z" fill="currentColor"/>
<path d="M66.2107 53.2048L67.1579 58H73.0779V35.1488H55.3179V42.0752H64.6715C64.3952 45.0352 63.4086 47.3045 61.7115 48.8832C60.0539 50.4224 57.6859 51.192 54.6075 51.192C52.5158 51.192 50.7398 50.7973 49.2795 50.008C47.8192 49.1792 46.6352 48.0939 45.7275 46.752C44.8198 45.4101 44.1488 43.9104 43.7147 42.2528C43.32 40.5557 43.1227 38.8192 43.1227 37.0432C43.1227 35.1883 43.32 33.3925 43.7147 31.656C44.1488 29.9195 44.8198 28.3803 45.7275 27.0384C46.6352 25.6571 47.8192 24.5717 49.2795 23.7824C50.7398 22.9536 52.5158 22.5392 54.6075 22.5392C56.8571 22.5392 58.7712 23.1312 60.3499 24.3152C61.9286 25.4992 62.9942 27.2752 63.5467 29.6432H72.4267C72.1899 27.2357 71.5387 25.1045 70.4731 23.2496C69.4075 21.3947 68.0459 19.8357 66.3883 18.5728C64.7702 17.3099 62.935 16.3627 60.8827 15.7312C58.8699 15.0603 56.7782 14.7248 54.6075 14.7248C51.3712 14.7248 48.4507 15.2971 45.8459 16.4416C43.2806 17.5861 41.1099 19.1648 39.3339 21.1776C37.5579 23.1904 36.1963 25.5584 35.2491 28.2816C34.3019 30.9653 33.8283 33.8859 33.8283 37.0432C33.8283 40.1216 34.3019 43.0027 35.2491 45.6864C36.1963 48.3307 37.5579 50.6395 39.3339 52.6128C41.1099 54.5861 43.2806 56.1451 45.8459 57.2896C48.4507 58.3947 51.3712 58.9472 54.6075 58.9472C56.6598 58.9472 58.6923 58.5328 60.7051 57.704C62.7179 56.8357 64.5531 55.336 66.2107 53.2048ZM80.5838 15.7312V58H110.48V50.1856H89.8782V15.7312H80.5838Z" fill="white"/>
</g>
<g clip-path="url(#clip1_429_1263)">
<rect x="129" width="74" height="74" rx="37" fill="currentColor"/>
<path d="M158.538 32.84V22.9536H167.24C168.069 22.9536 168.858 23.0325 169.608 23.1904C170.398 23.3088 171.088 23.5456 171.68 23.9008C172.272 24.256 172.746 24.7493 173.101 25.3808C173.456 26.0123 173.634 26.8213 173.634 27.808C173.634 29.584 173.101 30.8667 172.035 31.656C170.97 32.4453 169.608 32.84 167.951 32.84H158.538ZM149.243 15.7312V58H169.727C171.621 58 173.456 57.7632 175.232 57.2896C177.048 56.816 178.646 56.0859 180.027 55.0992C181.448 54.1125 182.573 52.8496 183.402 51.3104C184.231 49.7317 184.645 47.8768 184.645 45.7456C184.645 43.1013 183.994 40.8517 182.691 38.9968C181.428 37.1024 179.495 35.7803 176.89 35.0304C178.784 34.1227 180.205 32.9584 181.152 31.5376C182.139 30.1168 182.632 28.3408 182.632 26.2096C182.632 24.2363 182.297 22.5787 181.626 21.2368C180.994 19.8949 180.087 18.8293 178.903 18.04C177.719 17.2112 176.298 16.6192 174.64 16.264C172.983 15.9088 171.147 15.7312 169.135 15.7312H149.243ZM158.538 50.7776V39.1744H168.661C170.674 39.1744 172.292 39.648 173.515 40.5952C174.739 41.5029 175.351 43.0421 175.351 45.2128C175.351 46.3179 175.153 47.2256 174.759 47.936C174.403 48.6464 173.91 49.2187 173.279 49.6528C172.647 50.0475 171.917 50.3435 171.088 50.5408C170.259 50.6987 169.391 50.7776 168.483 50.7776H158.538Z" fill="white"/>
</g>
<defs>
<clipPath id="clip0_429_1263">
<rect width="136" height="74" fill="white"/>
</clipPath>
<clipPath id="clip1_429_1263">
<rect width="74" height="74" fill="white" transform="translate(129)"/>
</clipPath>
</defs>
</svg>
