<svg viewBox="0 0 203 74" fill="none" xmlns="http://www.w3.org/2000/svg">
<g clip-path="url(#clip0_429_397)">
<path fill-rule="evenodd" clip-rule="evenodd" d="M135.985 67.8246C127.944 60.023 122.946 49.0958 122.946 37C122.946 24.9042 127.944 13.977 135.985 6.17543C130.123 2.27368 123.083 0 115.513 0H37C16.5655 0 0 16.5655 0 37C0 57.4345 16.5654 74 37 74H115.513C123.083 74 130.123 71.7263 135.985 67.8246Z" fill="currentColor"/>
<path d="M66.2107 53.2048L67.1579 58H73.0779V35.1488H55.3179V42.0752H64.6715C64.3952 45.0352 63.4086 47.3045 61.7115 48.8832C60.0539 50.4224 57.6859 51.192 54.6075 51.192C52.5158 51.192 50.7398 50.7973 49.2795 50.008C47.8192 49.1792 46.6352 48.0939 45.7275 46.752C44.8198 45.4101 44.1488 43.9104 43.7147 42.2528C43.32 40.5557 43.1227 38.8192 43.1227 37.0432C43.1227 35.1883 43.32 33.3925 43.7147 31.656C44.1488 29.9195 44.8198 28.3803 45.7275 27.0384C46.6352 25.6571 47.8192 24.5717 49.2795 23.7824C50.7398 22.9536 52.5158 22.5392 54.6075 22.5392C56.8571 22.5392 58.7712 23.1312 60.3499 24.3152C61.9286 25.4992 62.9942 27.2752 63.5467 29.6432H72.4267C72.1899 27.2357 71.5387 25.1045 70.4731 23.2496C69.4075 21.3947 68.0459 19.8357 66.3883 18.5728C64.7702 17.3099 62.935 16.3627 60.8827 15.7312C58.8699 15.0603 56.7782 14.7248 54.6075 14.7248C51.3712 14.7248 48.4507 15.2971 45.8459 16.4416C43.2806 17.5861 41.1099 19.1648 39.3339 21.1776C37.5579 23.1904 36.1963 25.5584 35.2491 28.2816C34.3019 30.9653 33.8283 33.8859 33.8283 37.0432C33.8283 40.1216 34.3019 43.0027 35.2491 45.6864C36.1963 48.3307 37.5579 50.6395 39.3339 52.6128C41.1099 54.5861 43.2806 56.1451 45.8459 57.2896C48.4507 58.3947 51.3712 58.9472 54.6075 58.9472C56.6598 58.9472 58.6923 58.5328 60.7051 57.704C62.7179 56.8357 64.5531 55.336 66.2107 53.2048ZM80.5838 15.7312V58H110.48V50.1856H89.8782V15.7312H80.5838Z" fill="white"/>
</g>
<g clip-path="url(#clip1_429_397)">
<rect x="129" width="74" height="74" rx="37" fill="currentColor"/>
<path d="M176.324 29.9392H185.323C185.046 27.4923 184.375 25.3216 183.31 23.4272C182.244 21.5328 180.883 19.9541 179.225 18.6912C177.607 17.3888 175.752 16.4021 173.66 15.7312C171.608 15.0603 169.417 14.7248 167.089 14.7248C163.853 14.7248 160.932 15.2971 158.327 16.4416C155.762 17.5861 153.591 19.1648 151.815 21.1776C150.039 23.1904 148.678 25.5584 147.731 28.2816C146.783 30.9653 146.31 33.8859 146.31 37.0432C146.31 40.1216 146.783 43.0027 147.731 45.6864C148.678 48.3307 150.039 50.6395 151.815 52.6128C153.591 54.5861 155.762 56.1451 158.327 57.2896C160.932 58.3947 163.853 58.9472 167.089 58.9472C169.694 58.9472 172.081 58.5525 174.252 57.7632C176.423 56.9739 178.317 55.8293 179.935 54.3296C181.553 52.8299 182.856 51.0144 183.843 48.8832C184.829 46.752 185.441 44.3643 185.678 41.72H176.679C176.324 44.5616 175.337 46.8507 173.719 48.5872C172.141 50.3237 169.931 51.192 167.089 51.192C164.997 51.192 163.221 50.7973 161.761 50.008C160.301 49.1792 159.117 48.0939 158.209 46.752C157.301 45.4101 156.63 43.9104 156.196 42.2528C155.801 40.5557 155.604 38.8192 155.604 37.0432C155.604 35.1883 155.801 33.3925 156.196 31.656C156.63 29.9195 157.301 28.3803 158.209 27.0384C159.117 25.6571 160.301 24.5717 161.761 23.7824C163.221 22.9536 164.997 22.5392 167.089 22.5392C168.233 22.5392 169.319 22.7365 170.345 23.1312C171.411 23.4864 172.358 23.9995 173.187 24.6704C174.015 25.3413 174.706 26.1307 175.259 27.0384C175.811 27.9067 176.166 28.8736 176.324 29.9392Z" fill="white"/>
</g>
<defs>
<clipPath id="clip0_429_397">
<rect width="136" height="74" fill="white"/>
</clipPath>
<clipPath id="clip1_429_397">
<rect width="74" height="74" fill="white" transform="translate(129)"/>
</clipPath>
</defs>
</svg>
