<svg viewBox="0 0 203 74" fill="none" xmlns="http://www.w3.org/2000/svg">
<g clip-path="url(#clip0_429_488)">
<path fill-rule="evenodd" clip-rule="evenodd" d="M135.985 67.8246C127.944 60.023 122.946 49.0958 122.946 37C122.946 24.9042 127.944 13.977 135.985 6.17543C130.123 2.27368 123.083 0 115.513 0H37C16.5655 0 0 16.5655 0 37C0 57.4345 16.5654 74 37 74H115.513C123.083 74 130.123 71.7263 135.985 67.8246Z" fill="currentColor"/>
<path d="M66.2107 53.2048L67.1579 58H73.0779V35.1488H55.3179V42.0752H64.6715C64.3952 45.0352 63.4086 47.3045 61.7115 48.8832C60.0539 50.4224 57.6859 51.192 54.6075 51.192C52.5158 51.192 50.7398 50.7973 49.2795 50.008C47.8192 49.1792 46.6352 48.0939 45.7275 46.752C44.8198 45.4101 44.1488 43.9104 43.7147 42.2528C43.32 40.5557 43.1227 38.8192 43.1227 37.0432C43.1227 35.1883 43.32 33.3925 43.7147 31.656C44.1488 29.9195 44.8198 28.3803 45.7275 27.0384C46.6352 25.6571 47.8192 24.5717 49.2795 23.7824C50.7398 22.9536 52.5158 22.5392 54.6075 22.5392C56.8571 22.5392 58.7712 23.1312 60.3499 24.3152C61.9286 25.4992 62.9942 27.2752 63.5467 29.6432H72.4267C72.1899 27.2357 71.5387 25.1045 70.4731 23.2496C69.4075 21.3947 68.0459 19.8357 66.3883 18.5728C64.7702 17.3099 62.935 16.3627 60.8827 15.7312C58.8699 15.0603 56.7782 14.7248 54.6075 14.7248C51.3712 14.7248 48.4507 15.2971 45.8459 16.4416C43.2806 17.5861 41.1099 19.1648 39.3339 21.1776C37.5579 23.1904 36.1963 25.5584 35.2491 28.2816C34.3019 30.9653 33.8283 33.8859 33.8283 37.0432C33.8283 40.1216 34.3019 43.0027 35.2491 45.6864C36.1963 48.3307 37.5579 50.6395 39.3339 52.6128C41.1099 54.5861 43.2806 56.1451 45.8459 57.2896C48.4507 58.3947 51.3712 58.9472 54.6075 58.9472C56.6598 58.9472 58.6923 58.5328 60.7051 57.704C62.7179 56.8357 64.5531 55.336 66.2107 53.2048ZM80.5838 15.7312V58H110.48V50.1856H89.8782V15.7312H80.5838Z" fill="white"/>
</g>
<g clip-path="url(#clip1_429_488)">
<rect x="129" width="74" height="74" rx="37" fill="currentColor"/>
<path d="M157.439 50.1856V23.5456H164.07C166.359 23.5456 168.273 23.8811 169.812 24.552C171.391 25.1835 172.654 26.1109 173.601 27.3344C174.548 28.5579 175.219 30.0379 175.614 31.7744C176.048 33.4715 176.265 35.3856 176.265 37.5168C176.265 39.8453 175.969 41.8187 175.377 43.4368C174.785 45.0549 173.996 46.3771 173.009 47.4032C172.022 48.3899 170.897 49.1003 169.635 49.5344C168.372 49.9685 167.069 50.1856 165.727 50.1856H157.439ZM148.145 15.7312V58H166.379C169.615 58 172.417 57.4672 174.785 56.4016C177.192 55.2965 179.185 53.7968 180.764 51.9024C182.382 50.008 183.586 47.7584 184.375 45.1536C185.165 42.5488 185.559 39.7072 185.559 36.6288C185.559 33.1163 185.066 30.0576 184.079 27.4528C183.132 24.848 181.79 22.6773 180.054 20.9408C178.357 19.2043 176.324 17.9019 173.956 17.0336C171.628 16.1653 169.102 15.7312 166.379 15.7312H148.145Z" fill="white"/>
</g>
<defs>
<clipPath id="clip0_429_488">
<rect width="136" height="74" fill="white"/>
</clipPath>
<clipPath id="clip1_429_488">
<rect width="74" height="74" fill="white" transform="translate(129)"/>
</clipPath>
</defs>
</svg>
