<svg width="203" height="74" viewBox="0 0 203 74" fill="none" xmlns="http://www.w3.org/2000/svg">
<g clip-path="url(#clip0_442_23569)">
<path fill-rule="evenodd" clip-rule="evenodd" d="M135.985 67.8246C127.944 60.023 122.946 49.0958 122.946 37C122.946 24.9042 127.944 13.977 135.985 6.17543C130.123 2.27368 123.083 0 115.513 0H37C16.5655 0 0 16.5655 0 37C0 57.4345 16.5654 74 37 74H115.513C123.083 74 130.123 71.7263 135.985 67.8246Z" fill="currentColor"/>
<path d="M66.2097 53.2048L67.1569 58H73.0769V35.1488H55.3169V42.0752H64.6705C64.3943 45.0352 63.4076 47.3045 61.7105 48.8832C60.0529 50.4224 57.6849 51.192 54.6065 51.192C52.5148 51.192 50.7388 50.7973 49.2785 50.008C47.8183 49.1792 46.6343 48.0939 45.7265 46.752C44.8188 45.4101 44.1479 43.9104 43.7137 42.2528C43.3191 40.5557 43.1217 38.8192 43.1217 37.0432C43.1217 35.1883 43.3191 33.3925 43.7137 31.656C44.1479 29.9195 44.8188 28.3803 45.7265 27.0384C46.6343 25.6571 47.8183 24.5717 49.2785 23.7824C50.7388 22.9536 52.5148 22.5392 54.6065 22.5392C56.8561 22.5392 58.7703 23.1312 60.3489 24.3152C61.9276 25.4992 62.9932 27.2752 63.5457 29.6432H72.4257C72.1889 27.2357 71.5377 25.1045 70.4721 23.2496C69.4065 21.3947 68.0449 19.8357 66.3873 18.5728C64.7692 17.3099 62.934 16.3627 60.8817 15.7312C58.8689 15.0603 56.7772 14.7248 54.6065 14.7248C51.3703 14.7248 48.4497 15.2971 45.8449 16.4416C43.2796 17.5861 41.1089 19.1648 39.3329 21.1776C37.5569 23.1904 36.1953 25.5584 35.2481 28.2816C34.3009 30.9653 33.8273 33.8859 33.8273 37.0432C33.8273 40.1216 34.3009 43.0027 35.2481 45.6864C36.1953 48.3307 37.5569 50.6395 39.3329 52.6128C41.1089 54.5861 43.2796 56.1451 45.8449 57.2896C48.4497 58.3947 51.3703 58.9472 54.6065 58.9472C56.6588 58.9472 58.6913 58.5328 60.7041 57.704C62.7169 56.8357 64.5521 55.336 66.2097 53.2048ZM80.5828 15.7312V58H110.479V50.1856H89.8772V15.7312H80.5828Z" fill="white"/>
</g>
<g clip-path="url(#clip1_442_23569)">
<rect x="129" width="74" height="74" rx="37" fill="currentColor"/>
<path d="M150.891 15.7312V58H182.977V50.1856H160.185V39.8256H180.669V32.6032H160.185V23.5456H182.504V15.7312H150.891Z" fill="white"/>
</g>
<defs>
<clipPath id="clip0_442_23569">
<rect width="136" height="74" fill="white"/>
</clipPath>
<clipPath id="clip1_442_23569">
<rect width="74" height="74" fill="white" transform="translate(129)"/>
</clipPath>
</defs>
</svg>
