<svg width="801" height="96" viewBox="0 0 801 96" fill="none" xmlns="http://www.w3.org/2000/svg">
<rect x="0.25" width="800.5" height="96" rx="48" fill="#00843D"/>
<path d="M91.163 68.918C89.147 71.51 86.915 73.334 84.467 74.39C82.019 75.398 79.547 75.902 77.051 75.902C73.115 75.902 69.563 75.23 66.395 73.886C63.275 72.494 60.635 70.598 58.475 68.198C56.315 65.798 54.659 62.99 53.507 59.774C52.355 56.51 51.779 53.006 51.779 49.262C51.779 45.422 52.355 41.87 53.507 38.606C54.659 35.294 56.315 32.414 58.475 29.966C60.635 27.518 63.275 25.598 66.395 24.206C69.563 22.814 73.115 22.118 77.051 22.118C79.691 22.118 82.235 22.526 84.683 23.342C87.179 24.11 89.411 25.262 91.379 26.798C93.395 28.334 95.051 30.23 96.347 32.486C97.643 34.742 98.435 37.334 98.723 40.262H87.923C87.251 37.382 85.955 35.222 84.035 33.782C82.115 32.342 79.787 31.622 77.051 31.622C74.507 31.622 72.347 32.126 70.571 33.134C68.795 34.094 67.355 35.414 66.251 37.094C65.147 38.726 64.331 40.598 63.803 42.71C63.323 44.822 63.083 47.006 63.083 49.262C63.083 51.422 63.323 53.534 63.803 55.598C64.331 57.614 65.147 59.438 66.251 61.07C67.355 62.702 68.795 64.022 70.571 65.03C72.347 65.99 74.507 66.47 77.051 66.47C80.795 66.47 83.675 65.534 85.691 63.662C87.755 61.742 88.955 58.982 89.291 55.382H77.915V46.958H99.515V74.75H92.315L91.163 68.918ZM108.644 23.342H119.948V65.246H145.004V74.75H108.644V23.342ZM170.211 50.702H191.883V59.486H170.211V50.702ZM257.874 68.918C255.858 71.51 253.626 73.334 251.178 74.39C248.73 75.398 246.258 75.902 243.762 75.902C239.826 75.902 236.274 75.23 233.106 73.886C229.986 72.494 227.346 70.598 225.186 68.198C223.026 65.798 221.37 62.99 220.218 59.774C219.066 56.51 218.49 53.006 218.49 49.262C218.49 45.422 219.066 41.87 220.218 38.606C221.37 35.294 223.026 32.414 225.186 29.966C227.346 27.518 229.986 25.598 233.106 24.206C236.274 22.814 239.826 22.118 243.762 22.118C246.402 22.118 248.946 22.526 251.394 23.342C253.89 24.11 256.122 25.262 258.09 26.798C260.106 28.334 261.762 30.23 263.058 32.486C264.354 34.742 265.146 37.334 265.434 40.262H254.634C253.962 37.382 252.666 35.222 250.746 33.782C248.826 32.342 246.498 31.622 243.762 31.622C241.218 31.622 239.058 32.126 237.282 33.134C235.506 34.094 234.066 35.414 232.962 37.094C231.858 38.726 231.042 40.598 230.514 42.71C230.034 44.822 229.794 47.006 229.794 49.262C229.794 51.422 230.034 53.534 230.514 55.598C231.042 57.614 231.858 59.438 232.962 61.07C234.066 62.702 235.506 64.022 237.282 65.03C239.058 65.99 241.218 66.47 243.762 66.47C247.506 66.47 250.386 65.534 252.402 63.662C254.466 61.742 255.666 58.982 256.002 55.382H244.626V46.958H266.226V74.75H259.026L257.874 68.918ZM284.427 49.262C284.427 51.422 284.667 53.534 285.147 55.598C285.675 57.614 286.491 59.438 287.595 61.07C288.699 62.702 290.139 64.022 291.915 65.03C293.691 65.99 295.851 66.47 298.395 66.47C300.939 66.47 303.099 65.99 304.875 65.03C306.651 64.022 308.091 62.702 309.195 61.07C310.299 59.438 311.091 57.614 311.571 55.598C312.099 53.534 312.363 51.422 312.363 49.262C312.363 47.006 312.099 44.822 311.571 42.71C311.091 40.598 310.299 38.726 309.195 37.094C308.091 35.414 306.651 34.094 304.875 33.134C303.099 32.126 300.939 31.622 298.395 31.622C295.851 31.622 293.691 32.126 291.915 33.134C290.139 34.094 288.699 35.414 287.595 37.094C286.491 38.726 285.675 40.598 285.147 42.71C284.667 44.822 284.427 47.006 284.427 49.262ZM273.123 49.262C273.123 45.422 273.699 41.87 274.851 38.606C276.003 35.294 277.659 32.414 279.819 29.966C281.979 27.518 284.619 25.598 287.739 24.206C290.907 22.814 294.459 22.118 298.395 22.118C302.379 22.118 305.931 22.814 309.051 24.206C312.171 25.598 314.811 27.518 316.971 29.966C319.131 32.414 320.787 35.294 321.939 38.606C323.091 41.87 323.667 45.422 323.667 49.262C323.667 53.006 323.091 56.51 321.939 59.774C320.787 62.99 319.131 65.798 316.971 68.198C314.811 70.598 312.171 72.494 309.051 73.886C305.931 75.23 302.379 75.902 298.395 75.902C294.459 75.902 290.907 75.23 287.739 73.886C284.619 72.494 281.979 70.598 279.819 68.198C277.659 65.798 276.003 62.99 274.851 59.774C273.699 56.51 273.123 53.006 273.123 49.262ZM355.298 74.75H342.554L325.922 23.342H337.514L348.962 59.486H349.106L360.698 23.342H372.362L355.298 74.75ZM376.673 23.342H386.897V34.358C386.945 35.942 386.705 37.43 386.177 38.822C385.697 40.214 385.001 41.438 384.089 42.494C383.177 43.55 382.073 44.438 380.777 45.158C379.529 45.83 378.161 46.262 376.673 46.454V41.702C378.497 41.078 379.745 40.166 380.417 38.966C381.089 37.718 381.425 36.206 381.425 34.43H376.673V23.342ZM408.16 32.846H392.752V23.342H434.872V32.846H419.464V74.75H408.16V32.846ZM495.111 40.622C494.919 39.326 494.487 38.15 493.815 37.094C493.143 35.99 492.303 35.03 491.295 34.214C490.287 33.398 489.135 32.774 487.839 32.342C486.591 31.862 485.271 31.622 483.879 31.622C481.335 31.622 479.175 32.126 477.399 33.134C475.623 34.094 474.183 35.414 473.079 37.094C471.975 38.726 471.159 40.598 470.631 42.71C470.151 44.822 469.911 47.006 469.911 49.262C469.911 51.422 470.151 53.534 470.631 55.598C471.159 57.614 471.975 59.438 473.079 61.07C474.183 62.702 475.623 64.022 477.399 65.03C479.175 65.99 481.335 66.47 483.879 66.47C487.335 66.47 490.023 65.414 491.943 63.302C493.911 61.19 495.111 58.406 495.543 54.95H506.487C506.199 58.166 505.455 61.07 504.255 63.662C503.055 66.254 501.471 68.462 499.503 70.286C497.535 72.11 495.231 73.502 492.591 74.462C489.951 75.422 487.047 75.902 483.879 75.902C479.943 75.902 476.391 75.23 473.223 73.886C470.103 72.494 467.463 70.598 465.303 68.198C463.143 65.798 461.487 62.99 460.335 59.774C459.183 56.51 458.607 53.006 458.607 49.262C458.607 45.422 459.183 41.87 460.335 38.606C461.487 35.294 463.143 32.414 465.303 29.966C467.463 27.518 470.103 25.598 473.223 24.206C476.391 22.814 479.943 22.118 483.879 22.118C486.711 22.118 489.375 22.526 491.871 23.342C494.415 24.158 496.671 25.358 498.639 26.942C500.655 28.478 502.311 30.398 503.607 32.702C504.903 35.006 505.719 37.646 506.055 40.622H495.111ZM514.206 23.342H552.654V32.846H525.51V43.862H550.422V52.646H525.51V65.246H553.23V74.75H514.206V23.342ZM560.894 23.342H572.126L593.582 57.83H593.726V23.342H604.31V74.75H593.006L571.622 40.334H571.478V74.75H560.894V23.342ZM625.637 32.846H610.229V23.342H652.349V32.846H636.941V74.75H625.637V32.846ZM658.277 23.342H696.725V32.846H669.581V43.862H694.493V52.646H669.581V65.246H697.301V74.75H658.277V23.342ZM716.268 46.598H728.652C731.244 46.598 733.188 46.022 734.484 44.87C735.78 43.718 736.428 41.846 736.428 39.254C736.428 36.758 735.78 34.958 734.484 33.854C733.188 32.702 731.244 32.126 728.652 32.126H716.268V46.598ZM704.964 23.342H732.684C734.988 23.342 737.052 23.726 738.876 24.494C740.748 25.214 742.332 26.222 743.628 27.518C744.972 28.814 745.98 30.326 746.652 32.054C747.372 33.734 747.732 35.558 747.732 37.526C747.732 40.55 747.084 43.166 745.788 45.374C744.54 47.582 742.476 49.262 739.596 50.414V50.558C740.988 50.942 742.14 51.542 743.052 52.358C743.964 53.126 744.708 54.062 745.284 55.166C745.86 56.222 746.268 57.398 746.508 58.694C746.796 59.99 746.988 61.286 747.084 62.582C747.132 63.398 747.18 64.358 747.228 65.462C747.276 66.566 747.348 67.694 747.444 68.846C747.588 69.998 747.78 71.102 748.02 72.158C748.308 73.166 748.716 74.03 749.244 74.75H737.94C737.316 73.118 736.932 71.174 736.788 68.918C736.644 66.662 736.428 64.502 736.14 62.438C735.756 59.75 734.94 57.782 733.692 56.534C732.444 55.286 730.404 54.662 727.572 54.662H716.268V74.75H704.964V23.342Z" fill="white"/>
</svg>
