<svg width="920" height="75" viewBox="0 0 920 75" fill="none" xmlns="http://www.w3.org/2000/svg">
<rect x="0.897461" width="918.205" height="74.0478" rx="37.0239" fill="#00843D"/>
<path d="M71.1157 53.3942C69.5607 55.3935 67.8391 56.8004 65.9509 57.6149C64.0627 58.3924 62.1559 58.7812 60.2307 58.7812C57.1947 58.7812 54.455 58.2628 52.0114 57.2261C49.6048 56.1525 47.5685 54.69 45.9025 52.8388C44.2364 50.9876 42.9591 48.8217 42.0705 46.3411C41.1819 43.8235 40.7376 41.1208 40.7376 38.2329C40.7376 35.271 41.1819 32.5312 42.0705 30.0136C42.9591 27.4589 44.2364 25.2375 45.9025 23.3493C47.5685 21.4611 49.6048 19.9801 52.0114 18.9064C54.455 17.8327 57.1947 17.2959 60.2307 17.2959C62.267 17.2959 64.2293 17.6106 66.1175 18.24C68.0427 18.8324 69.7644 19.7209 71.2823 20.9057C72.8373 22.0905 74.1147 23.5529 75.1143 25.293C76.1139 27.0332 76.7248 29.0325 76.947 31.2909H68.6166C68.0983 29.0695 67.0986 27.4034 65.6177 26.2927C64.1367 25.182 62.3411 24.6266 60.2307 24.6266C58.2684 24.6266 56.6024 25.0154 55.2325 25.7929C53.8626 26.5333 52.7519 27.5515 51.9003 28.8473C51.0488 30.1061 50.4194 31.5501 50.0121 33.1791C49.6419 34.8082 49.4567 36.4928 49.4567 38.2329C49.4567 39.899 49.6419 41.528 50.0121 43.12C50.4194 44.675 51.0488 46.082 51.9003 47.3408C52.7519 48.5996 53.8626 49.6177 55.2325 50.3952C56.6024 51.1357 58.2684 51.506 60.2307 51.506C63.1186 51.506 65.34 50.784 66.895 49.3401C68.487 47.8591 69.4126 45.7302 69.6718 42.9534H60.8971V36.4557H77.5579V57.8926H72.0043L71.1157 53.3942ZM84.5992 18.24H93.3183V50.5618H112.645V57.8926H84.5992V18.24ZM132.088 39.3436H148.804V46.119H132.088V39.3436ZM171.049 18.24H179.712L196.262 44.8417H196.373V18.24H204.537V57.8926H195.818L179.323 31.3464H179.212V57.8926H171.049V18.24ZM219.21 38.2329C219.21 39.899 219.395 41.528 219.765 43.12C220.172 44.675 220.802 46.082 221.653 47.3408C222.505 48.5996 223.616 49.6177 224.986 50.3952C226.355 51.1357 228.022 51.506 229.984 51.506C231.946 51.506 233.612 51.1357 234.982 50.3952C236.352 49.6177 237.463 48.5996 238.314 47.3408C239.166 46.082 239.777 44.675 240.147 43.12C240.554 41.528 240.758 39.899 240.758 38.2329C240.758 36.4928 240.554 34.8082 240.147 33.1791C239.777 31.5501 239.166 30.1061 238.314 28.8473C237.463 27.5515 236.352 26.5333 234.982 25.7929C233.612 25.0154 231.946 24.6266 229.984 24.6266C228.022 24.6266 226.355 25.0154 224.986 25.7929C223.616 26.5333 222.505 27.5515 221.653 28.8473C220.802 30.1061 220.172 31.5501 219.765 33.1791C219.395 34.8082 219.21 36.4928 219.21 38.2329ZM210.491 38.2329C210.491 35.271 210.935 32.5312 211.824 30.0136C212.712 27.4589 213.989 25.2375 215.656 23.3493C217.322 21.4611 219.358 19.9801 221.764 18.9064C224.208 17.8327 226.948 17.2959 229.984 17.2959C233.057 17.2959 235.797 17.8327 238.203 18.9064C240.61 19.9801 242.646 21.4611 244.312 23.3493C245.978 25.2375 247.255 27.4589 248.144 30.0136C249.033 32.5312 249.477 35.271 249.477 38.2329C249.477 41.1208 249.033 43.8235 248.144 46.3411C247.255 48.8217 245.978 50.9876 244.312 52.8388C242.646 54.69 240.61 56.1525 238.203 57.2261C235.797 58.2628 233.057 58.7812 229.984 58.7812C226.948 58.7812 224.208 58.2628 221.764 57.2261C219.358 56.1525 217.322 54.69 215.656 52.8388C213.989 50.9876 212.712 48.8217 211.824 46.3411C210.935 43.8235 210.491 41.1208 210.491 38.2329ZM264.156 36.1781H273.708C275.708 36.1781 277.207 35.7338 278.207 34.8452C279.206 33.9566 279.706 32.5127 279.706 30.5134C279.706 28.5882 279.206 27.1998 278.207 26.3482C277.207 25.4596 275.708 25.0154 273.708 25.0154H264.156V36.1781ZM255.437 18.24H276.818C278.595 18.24 280.187 18.5362 281.594 19.1286C283.038 19.6839 284.26 20.4614 285.26 21.4611C286.296 22.4607 287.074 23.627 287.592 24.9598C288.148 26.2557 288.425 27.6626 288.425 29.1806C288.425 31.5131 287.925 33.5309 286.926 35.234C285.963 36.9371 284.371 38.2329 282.15 39.1215V39.2325C283.223 39.5287 284.112 39.9915 284.815 40.6209C285.519 41.2133 286.093 41.9353 286.537 42.7868C286.981 43.6014 287.296 44.5084 287.481 45.5081C287.703 46.5077 287.851 47.5074 287.925 48.507C287.962 49.1364 288 49.8769 288.037 50.7285C288.074 51.58 288.129 52.4501 288.203 53.3386C288.314 54.2272 288.462 55.0788 288.647 55.8933C288.87 56.6708 289.184 57.3372 289.592 57.8926H280.872C280.391 56.6338 280.095 55.1343 279.984 53.3942C279.873 51.6541 279.706 49.988 279.484 48.396C279.188 46.3226 278.558 44.8046 277.596 43.842C276.633 42.8794 275.06 42.3981 272.875 42.3981H264.156V57.8926H255.437V18.24ZM303.315 25.5707H291.43V18.24H323.918V25.5707H312.034V57.8926H303.315V25.5707ZM328.49 18.24H337.21V33.4568H353.259V18.24H361.979V57.8926H353.259V40.7875H337.21V57.8926H328.49V18.24ZM391.053 44.7306C391.053 46.0634 391.294 47.1927 391.775 48.1183C392.257 49.0439 392.886 49.8029 393.664 50.3952C394.478 50.9506 395.422 51.3764 396.496 51.6726C397.57 51.9317 398.68 52.0613 399.828 52.0613C400.605 52.0613 401.439 52.0058 402.327 51.8947C403.216 51.7466 404.049 51.4874 404.826 51.1172C405.604 50.747 406.252 50.2471 406.77 49.6177C407.288 48.9513 407.547 48.1183 407.547 47.1186C407.547 46.0449 407.196 45.1749 406.492 44.5084C405.826 43.842 404.937 43.2867 403.827 42.8424C402.716 42.3981 401.457 42.0093 400.05 41.6761C398.643 41.3429 397.218 40.9727 395.774 40.5654C394.293 40.1952 392.849 39.7509 391.442 39.2325C390.035 38.6772 388.776 37.9737 387.666 37.1222C386.555 36.2706 385.648 35.2154 384.944 33.9566C384.278 32.6608 383.945 31.1058 383.945 29.2916C383.945 27.2553 384.371 25.4967 385.222 24.0157C386.111 22.4977 387.258 21.2389 388.665 20.2393C390.072 19.2396 391.664 18.4992 393.441 18.0178C395.219 17.5365 396.996 17.2959 398.773 17.2959C400.846 17.2959 402.827 17.5365 404.715 18.0178C406.64 18.4621 408.343 19.2026 409.824 20.2393C411.305 21.2759 412.472 22.6088 413.323 24.2379C414.212 25.8299 414.656 27.7736 414.656 30.0691H406.215C406.141 28.8844 405.881 27.9032 405.437 27.1257C405.03 26.3482 404.474 25.7373 403.771 25.293C403.068 24.8488 402.253 24.5341 401.327 24.3489C400.439 24.1638 399.458 24.0713 398.384 24.0713C397.681 24.0713 396.977 24.1453 396.274 24.2934C395.57 24.4415 394.922 24.7007 394.33 25.0709C393.775 25.4411 393.312 25.9039 392.942 26.4593C392.571 27.0147 392.386 27.7181 392.386 28.5697C392.386 29.3472 392.534 29.9766 392.83 30.4579C393.127 30.9392 393.701 31.3835 394.552 31.7907C395.441 32.198 396.644 32.6053 398.162 33.0125C399.717 33.4198 401.735 33.9381 404.215 34.5675C404.956 34.7156 405.974 34.9933 407.27 35.4006C408.603 35.7708 409.917 36.3817 411.213 37.2332C412.509 38.0848 413.619 39.2325 414.545 40.6765C415.508 42.0834 415.989 43.8975 415.989 46.119C415.989 47.9332 415.637 49.6177 414.934 51.1727C414.23 52.7277 413.175 54.0791 411.768 55.2269C410.398 56.3376 408.677 57.2076 406.603 57.837C404.567 58.4664 402.198 58.7812 399.495 58.7812C397.31 58.7812 395.181 58.5035 393.108 57.9481C391.072 57.4298 389.258 56.5967 387.666 55.449C386.111 54.3013 384.87 52.8388 383.945 51.0617C383.019 49.2845 382.575 47.1742 382.612 44.7306H391.053ZM429.951 25.5707H418.067V18.24H450.555V25.5707H438.671V57.8926H429.951V25.5707ZM460.026 42.5647H470.3L465.302 28.0143H465.191L460.026 42.5647ZM460.859 18.24H469.8L484.628 57.8926H475.576L472.577 49.0624H457.749L454.639 57.8926H445.864L460.859 18.24ZM491.724 25.5707H479.84V18.24H512.328V25.5707H500.443V57.8926H491.724V25.5707ZM516.9 18.24H525.619V57.8926H516.9V18.24ZM540.276 38.2329C540.276 39.899 540.462 41.528 540.832 43.12C541.239 44.675 541.868 46.082 542.72 47.3408C543.572 48.5996 544.682 49.6177 546.052 50.3952C547.422 51.1357 549.088 51.506 551.05 51.506C553.013 51.506 554.679 51.1357 556.049 50.3952C557.418 49.6177 558.529 48.5996 559.381 47.3408C560.232 46.082 560.843 44.675 561.213 43.12C561.621 41.528 561.824 39.899 561.824 38.2329C561.824 36.4928 561.621 34.8082 561.213 33.1791C560.843 31.5501 560.232 30.1061 559.381 28.8473C558.529 27.5515 557.418 26.5333 556.049 25.7929C554.679 25.0154 553.013 24.6266 551.05 24.6266C549.088 24.6266 547.422 25.0154 546.052 25.7929C544.682 26.5333 543.572 27.5515 542.72 28.8473C541.868 30.1061 541.239 31.5501 540.832 33.1791C540.462 34.8082 540.276 36.4928 540.276 38.2329ZM531.557 38.2329C531.557 35.271 532.002 32.5312 532.89 30.0136C533.779 27.4589 535.056 25.2375 536.722 23.3493C538.388 21.4611 540.424 19.9801 542.831 18.9064C545.275 17.8327 548.014 17.2959 551.05 17.2959C554.123 17.2959 556.863 17.8327 559.27 18.9064C561.676 19.9801 563.713 21.4611 565.379 23.3493C567.045 25.2375 568.322 27.4589 569.211 30.0136C570.099 32.5312 570.543 35.271 570.543 38.2329C570.543 41.1208 570.099 43.8235 569.211 46.3411C568.322 48.8217 567.045 50.9876 565.379 52.8388C563.713 54.69 561.676 56.1525 559.27 57.2261C556.863 58.2628 554.123 58.7812 551.05 58.7812C548.014 58.7812 545.275 58.2628 542.831 57.2261C540.424 56.1525 538.388 54.69 536.722 52.8388C535.056 50.9876 533.779 48.8217 532.89 46.3411C532.002 43.8235 531.557 41.1208 531.557 38.2329ZM576.504 18.24H585.167L601.717 44.8417H601.828V18.24H609.992V57.8926H601.273L584.778 31.3464H584.667V57.8926H576.504V18.24ZM655.061 53.9495C653.469 55.5045 651.766 56.6708 649.951 57.4483C648.174 58.2258 646.156 58.6145 643.898 58.6145C642.121 58.6145 640.436 58.3554 638.844 57.837C637.289 57.3187 635.938 56.5597 634.79 55.5601C633.642 54.5234 632.735 53.2831 632.069 51.8392C631.402 50.3582 631.069 48.6736 631.069 46.7854C631.069 45.3785 631.31 44.1012 631.791 42.9534C632.273 41.7687 632.92 40.7135 633.735 39.7879C634.587 38.8253 635.549 37.9737 636.623 37.2332C637.697 36.4928 638.807 35.8449 639.955 35.2895C638.881 33.9937 637.974 32.6978 637.234 31.402C636.53 30.1061 636.179 28.5882 636.179 26.848C636.179 25.4782 636.456 24.2379 637.012 23.1271C637.604 22.0164 638.381 21.0723 639.344 20.2948C640.307 19.4803 641.399 18.8694 642.621 18.4621C643.88 18.0178 645.175 17.7957 646.508 17.7957C648.026 17.7957 649.433 17.9993 650.729 18.4066C652.062 18.8139 653.21 19.4248 654.172 20.2393C655.172 21.0168 655.949 21.9979 656.505 23.1827C657.097 24.3674 657.393 25.7373 657.393 27.2923C657.393 29.6248 656.708 31.5871 655.338 33.1791C654.006 34.7712 652.339 36.104 650.34 37.1777L655.449 43.4533C655.857 42.7128 656.171 41.9538 656.394 41.1763C656.616 40.3618 656.782 39.5472 656.893 38.7327H663.724C663.539 40.5099 663.132 42.2315 662.503 43.8975C661.873 45.5636 661.003 47.1001 659.892 48.507L667.945 57.8926H658.282L655.061 53.9495ZM644.12 40.3988C643.417 40.695 642.732 41.0467 642.065 41.454C641.399 41.8612 640.807 42.3425 640.288 42.8979C639.77 43.4533 639.344 44.0642 639.011 44.7306C638.715 45.397 638.567 46.1375 638.567 46.952C638.567 47.6555 638.715 48.3404 639.011 49.0068C639.344 49.6363 639.77 50.1916 640.288 50.6729C640.807 51.1172 641.399 51.4874 642.065 51.7836C642.769 52.0428 643.491 52.1724 644.231 52.1724C645.638 52.1724 646.86 51.8577 647.897 51.2283C648.97 50.5618 649.97 49.7103 650.896 48.6736L644.12 40.3988ZM650.507 26.848C650.507 25.8114 650.137 24.9228 649.396 24.1823C648.693 23.4418 647.86 23.0716 646.897 23.0716C645.934 23.0716 645.101 23.4048 644.398 24.0713C643.694 24.7007 643.343 25.5337 643.343 26.5704C643.343 27.8292 643.676 28.9029 644.342 29.7914C645.009 30.68 645.712 31.5871 646.453 32.5127C647.563 31.8092 648.508 31.0503 649.285 30.2357C650.1 29.4212 650.507 28.292 650.507 26.848ZM686.599 18.24H695.263L711.812 44.8417H711.923V18.24H720.087V57.8926H711.368L694.874 31.3464H694.763V57.8926H686.599V18.24ZM734.76 38.2329C734.76 39.899 734.945 41.528 735.316 43.12C735.723 44.675 736.352 46.082 737.204 47.3408C738.055 48.5996 739.166 49.6177 740.536 50.3952C741.906 51.1357 743.572 51.506 745.534 51.506C747.496 51.506 749.163 51.1357 750.532 50.3952C751.902 49.6177 753.013 48.5996 753.865 47.3408C754.716 46.082 755.327 44.675 755.697 43.12C756.105 41.528 756.308 39.899 756.308 38.2329C756.308 36.4928 756.105 34.8082 755.697 33.1791C755.327 31.5501 754.716 30.1061 753.865 28.8473C753.013 27.5515 751.902 26.5333 750.532 25.7929C749.163 25.0154 747.496 24.6266 745.534 24.6266C743.572 24.6266 741.906 25.0154 740.536 25.7929C739.166 26.5333 738.055 27.5515 737.204 28.8473C736.352 30.1061 735.723 31.5501 735.316 33.1791C734.945 34.8082 734.76 36.4928 734.76 38.2329ZM726.041 38.2329C726.041 35.271 726.485 32.5312 727.374 30.0136C728.263 27.4589 729.54 25.2375 731.206 23.3493C732.872 21.4611 734.908 19.9801 737.315 18.9064C739.758 17.8327 742.498 17.2959 745.534 17.2959C748.607 17.2959 751.347 17.8327 753.754 18.9064C756.16 19.9801 758.196 21.4611 759.862 23.3493C761.529 25.2375 762.806 27.4589 763.694 30.0136C764.583 32.5312 765.027 35.271 765.027 38.2329C765.027 41.1208 764.583 43.8235 763.694 46.3411C762.806 48.8217 761.529 50.9876 759.862 52.8388C758.196 54.69 756.16 56.1525 753.754 57.2261C751.347 58.2628 748.607 58.7812 745.534 58.7812C742.498 58.7812 739.758 58.2628 737.315 57.2261C734.908 56.1525 732.872 54.69 731.206 52.8388C729.54 50.9876 728.263 48.8217 727.374 46.3411C726.485 43.8235 726.041 41.1208 726.041 38.2329ZM779.707 36.1781H789.259C791.258 36.1781 792.757 35.7338 793.757 34.8452C794.757 33.9566 795.257 32.5127 795.257 30.5134C795.257 28.5882 794.757 27.1998 793.757 26.3482C792.757 25.4596 791.258 25.0154 789.259 25.0154H779.707V36.1781ZM770.987 18.24H792.369C794.146 18.24 795.738 18.5362 797.145 19.1286C798.589 19.6839 799.811 20.4614 800.81 21.4611C801.847 22.4607 802.624 23.627 803.143 24.9598C803.698 26.2557 803.976 27.6626 803.976 29.1806C803.976 31.5131 803.476 33.5309 802.476 35.234C801.514 36.9371 799.922 38.2329 797.7 39.1215V39.2325C798.774 39.5287 799.662 39.9915 800.366 40.6209C801.069 41.2133 801.643 41.9353 802.087 42.7868C802.532 43.6014 802.846 44.5084 803.032 45.5081C803.254 46.5077 803.402 47.5074 803.476 48.507C803.513 49.1364 803.55 49.8769 803.587 50.7285C803.624 51.58 803.68 52.4501 803.754 53.3386C803.865 54.2272 804.013 55.0788 804.198 55.8933C804.42 56.6708 804.735 57.3372 805.142 57.8926H796.423C795.942 56.6338 795.645 55.1343 795.534 53.3942C795.423 51.6541 795.257 49.988 795.034 48.396C794.738 46.3226 794.109 44.8046 793.146 43.842C792.184 42.8794 790.61 42.3981 788.426 42.3981H779.707V57.8926H770.987V18.24ZM818.865 25.5707H806.98V18.24H839.469V25.5707H827.584V57.8926H818.865V25.5707ZM844.041 18.24H852.76V33.4568H868.81V18.24H877.529V57.8926H868.81V40.7875H852.76V57.8926H844.041V18.24Z" fill="white"/>
</svg>
