<svg width="928" height="96" viewBox="0 0 928 96" fill="none" xmlns="http://www.w3.org/2000/svg">
<rect x="0.25" width="927.5" height="96" rx="48" fill="#00843D"/>
<path d="M91.4559 68.918C89.4399 71.51 87.2079 73.334 84.7599 74.39C82.3119 75.398 79.8399 75.902 77.3439 75.902C73.4079 75.902 69.8559 75.23 66.6879 73.886C63.5679 72.494 60.9279 70.598 58.7679 68.198C56.6079 65.798 54.9519 62.99 53.7999 59.774C52.6479 56.51 52.0719 53.006 52.0719 49.262C52.0719 45.422 52.6479 41.87 53.7999 38.606C54.9519 35.294 56.6079 32.414 58.7679 29.966C60.9279 27.518 63.5679 25.598 66.6879 24.206C69.8559 22.814 73.4079 22.118 77.3439 22.118C79.9839 22.118 82.5279 22.526 84.9759 23.342C87.4719 24.11 89.7039 25.262 91.6719 26.798C93.6879 28.334 95.3439 30.23 96.6399 32.486C97.9359 34.742 98.7279 37.334 99.0159 40.262H88.2159C87.5439 37.382 86.2479 35.222 84.3279 33.782C82.4079 32.342 80.0799 31.622 77.3439 31.622C74.7999 31.622 72.6399 32.126 70.8639 33.134C69.0879 34.094 67.6479 35.414 66.5439 37.094C65.4399 38.726 64.6239 40.598 64.0959 42.71C63.6159 44.822 63.3759 47.006 63.3759 49.262C63.3759 51.422 63.6159 53.534 64.0959 55.598C64.6239 57.614 65.4399 59.438 66.5439 61.07C67.6479 62.702 69.0879 64.022 70.8639 65.03C72.6399 65.99 74.7999 66.47 77.3439 66.47C81.0879 66.47 83.9679 65.534 85.9839 63.662C88.0479 61.742 89.2479 58.982 89.5839 55.382H78.2079V46.958H99.8079V74.75H92.6079L91.4559 68.918ZM108.937 23.342H120.241V65.246H145.297V74.75H108.937V23.342ZM167.312 48.974C167.312 51.182 166.568 53.03 165.08 54.518C163.64 56.006 161.792 56.75 159.536 56.75C157.28 56.75 155.408 56.006 153.92 54.518C152.48 53.03 151.76 51.182 151.76 48.974C151.76 46.718 152.48 44.87 153.92 43.43C155.408 41.942 157.28 41.198 159.536 41.198C161.792 41.198 163.64 41.942 165.08 43.43C166.568 44.87 167.312 46.718 167.312 48.974ZM215.06 40.622C214.868 39.326 214.436 38.15 213.764 37.094C213.092 35.99 212.252 35.03 211.244 34.214C210.236 33.398 209.084 32.774 207.788 32.342C206.54 31.862 205.22 31.622 203.828 31.622C201.284 31.622 199.124 32.126 197.348 33.134C195.572 34.094 194.132 35.414 193.028 37.094C191.924 38.726 191.108 40.598 190.58 42.71C190.1 44.822 189.86 47.006 189.86 49.262C189.86 51.422 190.1 53.534 190.58 55.598C191.108 57.614 191.924 59.438 193.028 61.07C194.132 62.702 195.572 64.022 197.348 65.03C199.124 65.99 201.284 66.47 203.828 66.47C207.284 66.47 209.972 65.414 211.892 63.302C213.86 61.19 215.06 58.406 215.492 54.95H226.436C226.148 58.166 225.404 61.07 224.204 63.662C223.004 66.254 221.42 68.462 219.452 70.286C217.484 72.11 215.18 73.502 212.54 74.462C209.9 75.422 206.996 75.902 203.828 75.902C199.892 75.902 196.34 75.23 193.172 73.886C190.052 72.494 187.412 70.598 185.252 68.198C183.092 65.798 181.436 62.99 180.284 59.774C179.132 56.51 178.556 53.006 178.556 49.262C178.556 45.422 179.132 41.87 180.284 38.606C181.436 35.294 183.092 32.414 185.252 29.966C187.412 27.518 190.052 25.598 193.172 24.206C196.34 22.814 199.892 22.118 203.828 22.118C206.66 22.118 209.324 22.526 211.82 23.342C214.364 24.158 216.62 25.358 218.588 26.942C220.604 28.478 222.26 30.398 223.556 32.702C224.852 35.006 225.668 37.646 226.004 40.622H215.06ZM253.043 50.702H274.715V59.486H253.043V50.702ZM337.826 40.622C337.634 39.326 337.202 38.15 336.53 37.094C335.858 35.99 335.018 35.03 334.01 34.214C333.002 33.398 331.85 32.774 330.554 32.342C329.306 31.862 327.986 31.622 326.594 31.622C324.05 31.622 321.89 32.126 320.114 33.134C318.338 34.094 316.898 35.414 315.794 37.094C314.69 38.726 313.874 40.598 313.346 42.71C312.866 44.822 312.626 47.006 312.626 49.262C312.626 51.422 312.866 53.534 313.346 55.598C313.874 57.614 314.69 59.438 315.794 61.07C316.898 62.702 318.338 64.022 320.114 65.03C321.89 65.99 324.05 66.47 326.594 66.47C330.05 66.47 332.738 65.414 334.658 63.302C336.626 61.19 337.826 58.406 338.258 54.95H349.202C348.914 58.166 348.17 61.07 346.97 63.662C345.77 66.254 344.186 68.462 342.218 70.286C340.25 72.11 337.946 73.502 335.306 74.462C332.666 75.422 329.762 75.902 326.594 75.902C322.658 75.902 319.106 75.23 315.938 73.886C312.818 72.494 310.178 70.598 308.018 68.198C305.858 65.798 304.202 62.99 303.05 59.774C301.898 56.51 301.322 53.006 301.322 49.262C301.322 45.422 301.898 41.87 303.05 38.606C304.202 35.294 305.858 32.414 308.018 29.966C310.178 27.518 312.818 25.598 315.938 24.206C319.106 22.814 322.658 22.118 326.594 22.118C329.426 22.118 332.09 22.526 334.586 23.342C337.13 24.158 339.386 25.358 341.354 26.942C343.37 28.478 345.026 30.398 346.322 32.702C347.618 35.006 348.434 37.646 348.77 40.622H337.826ZM356.921 23.342H368.225V65.246H393.281V74.75H356.921V23.342ZM399.601 23.342H438.049V32.846H410.905V43.862H435.817V52.646H410.905V65.246H438.625V74.75H399.601V23.342ZM470.192 74.75H457.448L440.816 23.342H452.408L463.856 59.486H464L475.592 23.342H487.256L470.192 74.75ZM491.64 23.342H530.088V32.846H502.944V43.862H527.856V52.646H502.944V65.246H530.664V74.75H491.64V23.342ZM538.327 23.342H549.631V65.246H574.687V74.75H538.327V23.342ZM593.967 54.878H607.287L600.807 36.014H600.663L593.967 54.878ZM595.047 23.342H606.639L625.863 74.75H614.127L610.239 63.302H591.015L586.983 74.75H575.607L595.047 23.342ZM630.296 23.342H641.528L662.984 57.83H663.128V23.342H673.712V74.75H662.408L641.024 40.334H640.88V74.75H630.296V23.342ZM694.967 65.246H705.047C706.679 65.246 708.263 64.982 709.799 64.454C711.335 63.926 712.703 63.062 713.903 61.862C715.103 60.614 716.063 59.006 716.783 57.038C717.503 55.07 717.863 52.67 717.863 49.838C717.863 47.246 717.599 44.918 717.071 42.854C716.591 40.742 715.775 38.942 714.623 37.454C713.471 35.966 711.935 34.838 710.015 34.07C708.143 33.254 705.815 32.846 703.031 32.846H694.967V65.246ZM683.663 23.342H705.839C709.151 23.342 712.223 23.87 715.055 24.926C717.935 25.982 720.407 27.566 722.471 29.678C724.583 31.79 726.215 34.43 727.367 37.598C728.567 40.766 729.167 44.486 729.167 48.758C729.167 52.502 728.687 55.958 727.727 59.126C726.767 62.294 725.303 65.03 723.335 67.334C721.415 69.638 718.991 71.462 716.063 72.806C713.183 74.102 709.775 74.75 705.839 74.75H683.663V23.342ZM791.342 40.622C791.15 39.326 790.718 38.15 790.046 37.094C789.374 35.99 788.534 35.03 787.526 34.214C786.518 33.398 785.366 32.774 784.07 32.342C782.822 31.862 781.502 31.622 780.11 31.622C777.566 31.622 775.406 32.126 773.63 33.134C771.854 34.094 770.414 35.414 769.31 37.094C768.206 38.726 767.39 40.598 766.862 42.71C766.382 44.822 766.142 47.006 766.142 49.262C766.142 51.422 766.382 53.534 766.862 55.598C767.39 57.614 768.206 59.438 769.31 61.07C770.414 62.702 771.854 64.022 773.63 65.03C775.406 65.99 777.566 66.47 780.11 66.47C783.566 66.47 786.254 65.414 788.174 63.302C790.142 61.19 791.342 58.406 791.774 54.95H802.718C802.43 58.166 801.686 61.07 800.486 63.662C799.286 66.254 797.702 68.462 795.734 70.286C793.766 72.11 791.462 73.502 788.822 74.462C786.182 75.422 783.278 75.902 780.11 75.902C776.174 75.902 772.622 75.23 769.454 73.886C766.334 72.494 763.694 70.598 761.534 68.198C759.374 65.798 757.718 62.99 756.566 59.774C755.414 56.51 754.838 53.006 754.838 49.262C754.838 45.422 755.414 41.87 756.566 38.606C757.718 35.294 759.374 32.414 761.534 29.966C763.694 27.518 766.334 25.598 769.454 24.206C772.622 22.814 776.174 22.118 780.11 22.118C782.942 22.118 785.606 22.526 788.102 23.342C790.646 24.158 792.902 25.358 794.87 26.942C796.886 28.478 798.542 30.398 799.838 32.702C801.134 35.006 801.95 37.646 802.286 40.622H791.342ZM810.437 23.342H821.741V74.75H810.437V23.342ZM842.975 46.598H855.359C857.951 46.598 859.895 46.022 861.191 44.87C862.487 43.718 863.135 41.846 863.135 39.254C863.135 36.758 862.487 34.958 861.191 33.854C859.895 32.702 857.951 32.126 855.359 32.126H842.975V46.598ZM831.671 23.342H859.391C861.695 23.342 863.759 23.726 865.583 24.494C867.455 25.214 869.039 26.222 870.335 27.518C871.679 28.814 872.687 30.326 873.359 32.054C874.079 33.734 874.439 35.558 874.439 37.526C874.439 40.55 873.791 43.166 872.495 45.374C871.247 47.582 869.183 49.262 866.303 50.414V50.558C867.695 50.942 868.847 51.542 869.759 52.358C870.671 53.126 871.415 54.062 871.991 55.166C872.567 56.222 872.975 57.398 873.215 58.694C873.503 59.99 873.695 61.286 873.791 62.582C873.839 63.398 873.887 64.358 873.935 65.462C873.983 66.566 874.055 67.694 874.151 68.846C874.295 69.998 874.487 71.102 874.727 72.158C875.015 73.166 875.423 74.03 875.951 74.75H864.647C864.023 73.118 863.639 71.174 863.495 68.918C863.351 66.662 863.135 64.502 862.847 62.438C862.463 59.75 861.647 57.782 860.399 56.534C859.151 55.286 857.111 54.662 854.279 54.662H842.975V74.75H831.671V23.342Z" fill="white"/>
</svg>
