<svg width="693" height="96" viewBox="0 0 693 96" fill="none" xmlns="http://www.w3.org/2000/svg">
<rect x="0.75" width="691.5" height="96" rx="48" fill="#00843D"/>
<path d="M91.87 68.918C89.854 71.51 87.622 73.334 85.174 74.39C82.726 75.398 80.254 75.902 77.758 75.902C73.822 75.902 70.27 75.23 67.102 73.886C63.982 72.494 61.342 70.598 59.182 68.198C57.022 65.798 55.366 62.99 54.214 59.774C53.062 56.51 52.486 53.006 52.486 49.262C52.486 45.422 53.062 41.87 54.214 38.606C55.366 35.294 57.022 32.414 59.182 29.966C61.342 27.518 63.982 25.598 67.102 24.206C70.27 22.814 73.822 22.118 77.758 22.118C80.398 22.118 82.942 22.526 85.39 23.342C87.886 24.11 90.118 25.262 92.086 26.798C94.102 28.334 95.758 30.23 97.054 32.486C98.35 34.742 99.142 37.334 99.43 40.262H88.63C87.958 37.382 86.662 35.222 84.742 33.782C82.822 32.342 80.494 31.622 77.758 31.622C75.214 31.622 73.054 32.126 71.278 33.134C69.502 34.094 68.062 35.414 66.958 37.094C65.854 38.726 65.038 40.598 64.51 42.71C64.03 44.822 63.79 47.006 63.79 49.262C63.79 51.422 64.03 53.534 64.51 55.598C65.038 57.614 65.854 59.438 66.958 61.07C68.062 62.702 69.502 64.022 71.278 65.03C73.054 65.99 75.214 66.47 77.758 66.47C81.502 66.47 84.382 65.534 86.398 63.662C88.462 61.742 89.662 58.982 89.998 55.382H78.622V46.958H100.222V74.75H93.022L91.87 68.918ZM109.351 23.342H120.655V65.246H145.711V74.75H109.351V23.342ZM167.727 48.974C167.727 51.182 166.983 53.03 165.495 54.518C164.055 56.006 162.207 56.75 159.951 56.75C157.695 56.75 155.823 56.006 154.335 54.518C152.895 53.03 152.175 51.182 152.175 48.974C152.175 46.718 152.895 44.87 154.335 43.43C155.823 41.942 157.695 41.198 159.951 41.198C162.207 41.198 164.055 41.942 165.495 43.43C166.983 44.87 167.727 46.718 167.727 48.974ZM181.202 23.342H219.65V32.846H192.506V43.862H217.418V52.646H192.506V65.246H220.226V74.75H181.202V23.342ZM246.777 50.702H268.449V59.486H246.777V50.702ZM297.288 23.342H308.592V43.07H329.4V23.342H340.704V74.75H329.4V52.574H308.592V74.75H297.288V23.342ZM350.656 23.342H389.104V32.846H361.96V43.862H386.872V52.646H361.96V65.246H389.68V74.75H350.656V23.342ZM410.303 54.878H423.623L417.143 36.014H416.999L410.303 54.878ZM411.383 23.342H422.975L442.199 74.75H430.463L426.575 63.302H407.351L403.319 74.75H391.943L411.383 23.342ZM451.399 32.846H435.991V23.342H478.111V32.846H462.703V74.75H451.399V32.846ZM484.038 23.342H495.342V43.07H516.15V23.342H527.454V74.75H516.15V52.574H495.342V74.75H484.038V23.342ZM565.149 57.686C565.149 59.414 565.461 60.878 566.085 62.078C566.709 63.278 567.525 64.262 568.533 65.03C569.589 65.75 570.813 66.302 572.205 66.686C573.597 67.022 575.037 67.19 576.525 67.19C577.533 67.19 578.613 67.118 579.765 66.974C580.917 66.782 581.997 66.446 583.005 65.966C584.013 65.486 584.853 64.838 585.525 64.022C586.197 63.158 586.533 62.078 586.533 60.782C586.533 59.39 586.077 58.262 585.165 57.398C584.301 56.534 583.149 55.814 581.709 55.238C580.269 54.662 578.637 54.158 576.813 53.726C574.989 53.294 573.141 52.814 571.269 52.286C569.349 51.806 567.477 51.23 565.653 50.558C563.829 49.838 562.197 48.926 560.757 47.822C559.317 46.718 558.141 45.35 557.229 43.718C556.365 42.038 555.933 40.022 555.933 37.67C555.933 35.03 556.485 32.75 557.589 30.83C558.741 28.862 560.229 27.23 562.053 25.934C563.877 24.638 565.941 23.678 568.245 23.054C570.549 22.43 572.853 22.118 575.157 22.118C577.845 22.118 580.413 22.43 582.861 23.054C585.357 23.63 587.565 24.59 589.485 25.934C591.405 27.278 592.917 29.006 594.021 31.118C595.173 33.182 595.749 35.702 595.749 38.678H584.805C584.709 37.142 584.373 35.87 583.797 34.862C583.269 33.854 582.549 33.062 581.637 32.486C580.725 31.91 579.669 31.502 578.469 31.262C577.317 31.022 576.045 30.902 574.653 30.902C573.741 30.902 572.829 30.998 571.917 31.19C571.005 31.382 570.165 31.718 569.397 32.198C568.677 32.678 568.077 33.278 567.597 33.998C567.117 34.718 566.877 35.63 566.877 36.734C566.877 37.742 567.069 38.558 567.453 39.182C567.837 39.806 568.581 40.382 569.685 40.91C570.837 41.438 572.397 41.966 574.365 42.494C576.381 43.022 578.997 43.694 582.213 44.51C583.173 44.702 584.493 45.062 586.173 45.59C587.901 46.07 589.605 46.862 591.285 47.966C592.965 49.07 594.405 50.558 595.605 52.43C596.853 54.254 597.477 56.606 597.477 59.486C597.477 61.838 597.021 64.022 596.109 66.038C595.197 68.054 593.829 69.806 592.005 71.294C590.229 72.734 587.997 73.862 585.309 74.678C582.669 75.494 579.597 75.902 576.093 75.902C573.261 75.902 570.501 75.542 567.813 74.822C565.173 74.15 562.821 73.07 560.757 71.582C558.741 70.094 557.133 68.198 555.933 65.894C554.733 63.59 554.157 60.854 554.205 57.686H565.149ZM615.578 32.846H600.17V23.342H642.29V32.846H626.882V74.75H615.578V32.846Z" fill="white"/>
</svg>
