<svg width="932" height="93" viewBox="0 0 932 93" fill="none" xmlns="http://www.w3.org/2000/svg">
<rect x="0.0673828" width="931.866" height="92.4217" rx="46.2109" fill="#00843D"/>
<path d="M87.9822 66.9948C86.0414 69.4901 83.8926 71.2462 81.5358 72.2628C79.1791 73.2332 76.7992 73.7184 74.3962 73.7184C70.6069 73.7184 67.1873 73.0715 64.1374 71.7776C61.1337 70.4375 58.5921 68.6121 56.5126 66.3016C54.4331 63.991 52.8389 61.2877 51.7298 58.1916C50.6207 55.0492 50.0662 51.6759 50.0662 48.0714C50.0662 44.3745 50.6207 40.9549 51.7298 37.8126C52.8389 34.624 54.4331 31.8514 56.5126 29.4946C58.5921 27.1379 61.1337 25.2895 64.1374 23.9493C67.1873 22.6092 70.6069 21.9392 74.3962 21.9392C76.9378 21.9392 79.387 22.332 81.7438 23.1175C84.1467 23.8569 86.2955 24.966 88.1902 26.4447C90.131 27.9235 91.7253 29.7488 92.973 31.9207C94.2207 34.0926 94.9832 36.588 95.2604 39.4069H84.863C84.216 36.6342 82.9683 34.5547 81.1199 33.1684C79.2715 31.7821 77.0302 31.0889 74.3962 31.0889C71.9471 31.0889 69.8676 31.5741 68.1578 32.5446C66.448 33.4688 65.0616 34.7396 63.9988 36.357C62.9359 37.9281 62.1503 39.7303 61.642 41.7636C61.1799 43.7969 60.9489 45.8995 60.9489 48.0714C60.9489 50.1509 61.1799 52.1842 61.642 54.1712C62.1503 56.1121 62.9359 57.8681 63.9988 59.4393C65.0616 61.0104 66.448 62.2812 68.1578 63.2517C69.8676 64.1759 71.9471 64.638 74.3962 64.638C78.0007 64.638 80.7733 63.7369 82.7142 61.9347C84.7013 60.0862 85.8565 57.4291 86.18 53.9633H75.228V45.8533H96.0229V72.6094H89.0913L87.9822 66.9948ZM104.811 23.1175H115.694V63.4596H139.816V72.6094H104.811V23.1175ZM161.011 47.7941C161.011 49.9198 160.295 51.699 158.862 53.1315C157.476 54.564 155.697 55.2803 153.525 55.2803C151.353 55.2803 149.551 54.564 148.118 53.1315C146.732 51.699 146.039 49.9198 146.039 47.7941C146.039 45.6222 146.732 43.8431 148.118 42.4568C149.551 41.0242 151.353 40.308 153.525 40.308C155.697 40.308 157.476 41.0242 158.862 42.4568C160.295 43.8431 161.011 45.6222 161.011 47.7941ZM173.985 23.1175H211V32.2673H184.868V42.8727H208.851V51.3293H184.868V63.4596H211.554V72.6094H173.985V23.1175ZM237.115 49.4577H257.979V57.9143H237.115V49.4577ZM285.744 23.1175H301.063L312.639 57.1518H312.777L323.729 23.1175H339.048V72.6094H328.859V37.5353H328.72L316.59 72.6094H308.202L296.072 37.8819H295.933V72.6094H285.744V23.1175ZM348.629 23.1175H385.644V32.2673H359.512V42.8727H383.496V51.3293H359.512V63.4596H386.199V72.6094H348.629V23.1175ZM404.459 63.4596H414.164C415.735 63.4596 417.26 63.2055 418.739 62.6971C420.217 62.1888 421.534 61.357 422.69 60.2018C423.845 59.0003 424.769 57.4522 425.462 55.5576C426.155 53.6629 426.502 51.3524 426.502 48.6259C426.502 46.1306 426.248 43.8893 425.739 41.9023C425.277 39.869 424.492 38.1361 423.383 36.7035C422.274 35.271 420.795 34.185 418.946 33.4457C417.144 32.6601 414.903 32.2673 412.223 32.2673H404.459V63.4596ZM393.577 23.1175H414.926C418.115 23.1175 421.072 23.6259 423.799 24.6425C426.571 25.6591 428.951 27.1841 430.938 29.2174C432.971 31.2507 434.543 33.7923 435.652 36.8422C436.807 39.8921 437.385 43.4734 437.385 47.5862C437.385 51.1906 436.922 54.5178 435.998 57.5677C435.074 60.6177 433.665 63.2517 431.77 65.4698C429.922 67.6879 427.588 69.4439 424.769 70.7378C421.996 71.9855 418.715 72.6094 414.926 72.6094H393.577V23.1175ZM444.955 23.1175H479.751V32.2673H455.837V43.7045H476.563V52.1611H455.837V72.6094H444.955V23.1175ZM494.777 48.0714C494.777 50.1509 495.008 52.1842 495.471 54.1712C495.979 56.1121 496.764 57.8681 497.827 59.4393C498.89 61.0104 500.276 62.2812 501.986 63.2517C503.696 64.1759 505.776 64.638 508.225 64.638C510.674 64.638 512.753 64.1759 514.463 63.2517C516.173 62.2812 517.559 61.0104 518.622 59.4393C519.685 57.8681 520.448 56.1121 520.91 54.1712C521.418 52.1842 521.672 50.1509 521.672 48.0714C521.672 45.8995 521.418 43.7969 520.91 41.7636C520.448 39.7303 519.685 37.9281 518.622 36.357C517.559 34.7396 516.173 33.4688 514.463 32.5446C512.753 31.5741 510.674 31.0889 508.225 31.0889C505.776 31.0889 503.696 31.5741 501.986 32.5446C500.276 33.4688 498.89 34.7396 497.827 36.357C496.764 37.9281 495.979 39.7303 495.471 41.7636C495.008 43.7969 494.777 45.8995 494.777 48.0714ZM483.895 48.0714C483.895 44.3745 484.449 40.9549 485.558 37.8126C486.667 34.624 488.262 31.8514 490.341 29.4946C492.421 27.1379 494.962 25.2895 497.966 23.9493C501.016 22.6092 504.435 21.9392 508.225 21.9392C512.06 21.9392 515.48 22.6092 518.484 23.9493C521.487 25.2895 524.029 27.1379 526.108 29.4946C528.188 31.8514 529.782 34.624 530.891 37.8126C532 40.9549 532.555 44.3745 532.555 48.0714C532.555 51.6759 532 55.0492 530.891 58.1916C529.782 61.2877 528.188 63.991 526.108 66.3016C524.029 68.6121 521.487 70.4375 518.484 71.7776C515.48 73.0715 512.06 73.7184 508.225 73.7184C504.435 73.7184 501.016 73.0715 497.966 71.7776C494.962 70.4375 492.421 68.6121 490.341 66.3016C488.262 63.991 486.667 61.2877 485.558 58.1916C484.449 55.0492 483.895 51.6759 483.895 48.0714ZM550.876 45.5067H562.799C565.294 45.5067 567.166 44.9522 568.414 43.8431C569.661 42.7341 570.285 40.9318 570.285 38.4364C570.285 36.0335 569.661 34.3006 568.414 33.2377C567.166 32.1287 565.294 31.5741 562.799 31.5741H550.876V45.5067ZM539.994 23.1175H566.681C568.899 23.1175 570.886 23.4872 572.642 24.2266C574.444 24.9198 575.969 25.8902 577.217 27.1379C578.511 28.3856 579.481 29.8412 580.128 31.5048C580.821 33.1222 581.168 34.8782 581.168 36.7729C581.168 39.6841 580.544 42.2026 579.296 44.3283C578.095 46.454 576.108 48.0714 573.335 49.1805V49.3191C574.675 49.6888 575.784 50.2664 576.662 51.052C577.54 51.7914 578.256 52.6925 578.811 53.7553C579.365 54.772 579.758 55.9041 579.989 57.1518C580.267 58.3995 580.451 59.6472 580.544 60.8949C580.59 61.6805 580.636 62.6047 580.682 63.6676C580.729 64.7304 580.798 65.8164 580.89 66.9254C581.029 68.0345 581.214 69.0973 581.445 70.114C581.722 71.0844 582.115 71.9162 582.623 72.6094H571.741C571.14 71.0382 570.77 69.1667 570.632 66.9948C570.493 64.8228 570.285 62.7434 570.008 60.7563C569.638 58.1685 568.853 56.2738 567.651 55.0724C566.45 53.8709 564.486 53.2701 561.759 53.2701H550.876V72.6094H539.994V23.1175ZM600.901 63.4596H610.605C612.176 63.4596 613.701 63.2055 615.18 62.6971C616.659 62.1888 617.976 61.357 619.131 60.2018C620.286 59.0003 621.21 57.4522 621.903 55.5576C622.597 53.6629 622.943 51.3524 622.943 48.6259C622.943 46.1306 622.689 43.8893 622.181 41.9023C621.719 39.869 620.933 38.1361 619.824 36.7035C618.715 35.271 617.236 34.185 615.388 33.4457C613.586 32.6601 611.344 32.2673 608.664 32.2673H600.901V63.4596ZM590.018 23.1175H611.367C614.556 23.1175 617.513 23.6259 620.24 24.6425C623.013 25.6591 625.392 27.1841 627.379 29.2174C629.413 31.2507 630.984 33.7923 632.093 36.8422C633.248 39.8921 633.826 43.4734 633.826 47.5862C633.826 51.1906 633.364 54.5178 632.44 57.5677C631.515 60.6177 630.106 63.2517 628.211 65.4698C626.363 67.6879 624.029 69.4439 621.21 70.7378C618.438 71.9855 615.157 72.6094 611.367 72.6094H590.018V23.1175ZM655.19 21.9392H663.092L643.753 73.7184H635.92L655.19 21.9392ZM678.071 32.2673H663.237V23.1175H703.787V32.2673H688.953V72.6094H678.071V32.2673ZM751.499 53.894C751.499 60.5946 749.628 65.5853 745.885 68.8663C742.142 72.1011 736.966 73.7184 730.358 73.7184C723.657 73.7184 718.459 72.1011 714.762 68.8663C711.111 65.6315 709.286 60.6408 709.286 53.894V23.1175H720.169V53.894C720.169 55.2341 720.284 56.5511 720.515 57.845C720.746 59.1389 721.231 60.2942 721.971 61.3108C722.71 62.2812 723.727 63.0899 725.021 63.7369C726.361 64.3376 728.14 64.638 730.358 64.638C734.24 64.638 736.92 63.7831 738.399 62.0733C739.877 60.3173 740.617 57.5908 740.617 53.894V23.1175H751.499V53.894ZM760.872 23.1175H795.669V32.2673H771.754V43.7045H792.48V52.1611H771.754V72.6094H760.872V23.1175ZM812.913 32.2673H798.079V23.1175H838.629V32.2673H823.795V72.6094H812.913V32.2673ZM851.753 56.1814C851.753 57.845 852.053 59.2544 852.654 60.4097C853.254 61.565 854.04 62.5123 855.01 63.2517C856.027 63.9448 857.205 64.4763 858.546 64.846C859.886 65.1694 861.272 65.3312 862.704 65.3312C863.675 65.3312 864.715 65.2618 865.824 65.1232C866.933 64.9384 867.973 64.6149 868.943 64.1528C869.913 63.6907 870.722 63.0668 871.369 62.2812C872.016 61.4495 872.339 60.4097 872.339 59.162C872.339 57.8219 871.9 56.7359 871.022 55.9041C870.191 55.0724 869.082 54.3792 867.695 53.8247C866.309 53.2701 864.738 52.7849 862.982 52.369C861.226 51.9531 859.447 51.491 857.644 50.9827C855.796 50.5206 853.994 49.9661 852.238 49.3191C850.482 48.6259 848.911 47.7479 847.524 46.6851C846.138 45.6222 845.006 44.3052 844.128 42.7341C843.296 41.1167 842.88 39.1758 842.88 36.9115C842.88 34.3699 843.411 32.1749 844.474 30.3264C845.583 28.4318 847.016 26.8606 848.772 25.6129C850.528 24.3652 852.515 23.441 854.733 22.8403C856.951 22.2395 859.169 21.9392 861.387 21.9392C863.975 21.9392 866.448 22.2395 868.804 22.8403C871.207 23.3948 873.333 24.319 875.181 25.6129C877.03 26.9068 878.486 28.5704 879.548 30.6037C880.657 32.5908 881.212 35.0168 881.212 37.8819H870.676C870.583 36.4032 870.26 35.1786 869.705 34.2081C869.197 33.2377 868.504 32.4752 867.626 31.9207C866.748 31.3662 865.731 30.9734 864.576 30.7423C863.467 30.5113 862.242 30.3958 860.902 30.3958C860.024 30.3958 859.146 30.4882 858.268 30.673C857.39 30.8579 856.582 31.1813 855.842 31.6434C855.149 32.1056 854.571 32.6832 854.109 33.3764C853.647 34.0695 853.416 34.9475 853.416 36.0104C853.416 36.9808 853.601 37.7664 853.971 38.3671C854.34 38.9679 855.057 39.5224 856.119 40.0307C857.229 40.539 858.73 41.0474 860.625 41.5557C862.566 42.064 865.084 42.7109 868.18 43.4965C869.105 43.6814 870.376 44.028 871.993 44.5363C873.656 44.9984 875.297 45.7609 876.914 46.8237C878.532 47.8866 879.918 49.3191 881.073 51.1213C882.275 52.8773 882.876 55.1417 882.876 57.9143C882.876 60.1787 882.437 62.2812 881.559 64.2221C880.681 66.163 879.364 67.8497 877.608 69.2822C875.898 70.6685 873.749 71.7545 871.161 72.5401C868.619 73.3256 865.662 73.7184 862.289 73.7184C859.562 73.7184 856.905 73.3719 854.317 72.6787C851.776 72.0317 849.511 70.992 847.524 69.5595C845.583 68.1269 844.035 66.3016 842.88 64.0835C841.725 61.8653 841.17 59.2313 841.216 56.1814H851.753Z" fill="white"/>
</svg>
