<svg viewBox="0 0 64 64" fill="none" xmlns="http://www.w3.org/2000/svg">
    <rect width="64" height="64" rx="32" fill="currentColor" />
    <path
        d="M40.3709 27.248H47.6669C47.4429 25.264 46.8989 23.504 46.0349 21.968C45.1709 20.432 44.0669 19.152 42.7229 18.128C41.4109 17.072 39.9069 16.272 38.2109 15.728C36.5469 15.184 34.7709 14.912 32.8829 14.912C30.2589 14.912 27.8909 15.376 25.7789 16.304C23.6989 17.232 21.9389 18.512 20.4989 20.144C19.0589 21.776 17.9549 23.696 17.1869 25.904C16.4189 28.08 16.0349 30.448 16.0349 33.008C16.0349 35.504 16.4189 37.84 17.1869 40.016C17.9549 42.16 19.0589 44.032 20.4989 45.632C21.9389 47.232 23.6989 48.496 25.7789 49.424C27.8909 50.32 30.2589 50.768 32.8829 50.768C34.9949 50.768 36.9309 50.448 38.6909 49.808C40.4509 49.168 41.9869 48.24 43.2989 47.024C44.6109 45.808 45.6669 44.336 46.4669 42.608C47.2669 40.88 47.7629 38.944 47.9549 36.8H40.6589C40.3709 39.104 39.5709 40.96 38.2589 42.368C36.9789 43.776 35.1869 44.48 32.8829 44.48C31.1869 44.48 29.7469 44.16 28.5629 43.52C27.3789 42.848 26.4189 41.968 25.6829 40.88C24.9469 39.792 24.4029 38.576 24.0509 37.232C23.7309 35.856 23.5709 34.448 23.5709 33.008C23.5709 31.504 23.7309 30.048 24.0509 28.64C24.4029 27.232 24.9469 25.984 25.6829 24.896C26.4189 23.776 27.3789 22.896 28.5629 22.256C29.7469 21.584 31.1869 21.248 32.8829 21.248C33.8109 21.248 34.6909 21.408 35.5229 21.728C36.3869 22.016 37.1549 22.432 37.8269 22.976C38.4989 23.52 39.0589 24.16 39.5069 24.896C39.9549 25.6 40.2429 26.384 40.3709 27.248Z"
        fill="white" />
</svg>