<svg viewBox="0 0 64 64" fill="none" xmlns="http://www.w3.org/2000/svg">
    <rect width="64" height="64" rx="32" fill="currentColor" />
    <path
        d="M25.0589 43.664V22.064H30.4349C32.2909 22.064 33.8429 22.336 35.0909 22.88C36.3709 23.392 37.3949 24.144 38.1629 25.136C38.9309 26.128 39.4749 27.328 39.7949 28.736C40.1469 30.112 40.3229 31.664 40.3229 33.392C40.3229 35.28 40.0829 36.88 39.6029 38.192C39.1229 39.504 38.4829 40.576 37.6829 41.408C36.8829 42.208 35.9709 42.784 34.9469 43.136C33.9229 43.488 32.8669 43.664 31.7789 43.664H25.0589ZM17.5229 15.728V50H32.3069C34.9309 50 37.2029 49.568 39.1229 48.704C41.0749 47.808 42.6909 46.592 43.9709 45.056C45.2829 43.52 46.2589 41.696 46.8989 39.584C47.5389 37.472 47.8589 35.168 47.8589 32.672C47.8589 29.824 47.4589 27.344 46.6589 25.232C45.8909 23.12 44.8029 21.36 43.3949 19.952C42.0189 18.544 40.3709 17.488 38.4509 16.784C36.5629 16.08 34.5149 15.728 32.3069 15.728H17.5229Z"
        fill="white" />
</svg>