<svg width="785" height="97" viewBox="0 0 785 97" fill="none" xmlns="http://www.w3.org/2000/svg">
<rect y="0.800781" width="784.5" height="96" rx="48" fill="#ED8B00"/>
<path d="M64.7822 50.0628C64.7822 52.2228 65.0222 54.3348 65.5022 56.3988C66.0302 58.4148 66.8462 60.2388 67.9502 61.8708C69.0542 63.5028 70.4942 64.8228 72.2702 65.8308C74.0462 66.7908 76.2062 67.2708 78.7502 67.2708C81.2942 67.2708 83.4542 66.7908 85.2302 65.8308C87.0062 64.8228 88.4462 63.5028 89.5502 61.8708C90.6542 60.2388 91.4462 58.4148 91.9262 56.3988C92.4542 54.3348 92.7182 52.2228 92.7182 50.0628C92.7182 47.8068 92.4542 45.6228 91.9262 43.5108C91.4462 41.3988 90.6542 39.5268 89.5502 37.8948C88.4462 36.2148 87.0062 34.8948 85.2302 33.9348C83.4542 32.9268 81.2942 32.4228 78.7502 32.4228C76.2062 32.4228 74.0462 32.9268 72.2702 33.9348C70.4942 34.8948 69.0542 36.2148 67.9502 37.8948C66.8462 39.5268 66.0302 41.3988 65.5022 43.5108C65.0222 45.6228 64.7822 47.8068 64.7822 50.0628ZM53.4782 50.0628C53.4782 46.2228 54.0542 42.6708 55.2062 39.4068C56.3582 36.0948 58.0142 33.2148 60.1742 30.7668C62.3342 28.3188 64.9742 26.3988 68.0942 25.0068C71.2622 23.6148 74.8142 22.9188 78.7502 22.9188C82.7342 22.9188 86.2862 23.6148 89.4062 25.0068C92.5262 26.3988 95.1662 28.3188 97.3262 30.7668C99.4862 33.2148 101.142 36.0948 102.294 39.4068C103.446 42.6708 104.022 46.2228 104.022 50.0628C104.022 53.8068 103.446 57.3108 102.294 60.5748C101.142 63.7908 99.4862 66.5988 97.3262 68.9988C95.1662 71.3988 92.5262 73.2948 89.4062 74.6868C86.2862 76.0308 82.7342 76.7028 78.7502 76.7028C74.8142 76.7028 71.2622 76.0308 68.0942 74.6868C64.9742 73.2948 62.3342 71.3988 60.1742 68.9988C58.0142 66.5988 56.3582 63.7908 55.2062 60.5748C54.0542 57.3108 53.4782 53.8068 53.4782 50.0628ZM111.749 24.1428H123.053V66.0468H148.109V75.5508H111.749V24.1428ZM173.316 51.5028H194.988V60.2868H173.316V51.5028ZM223.827 24.1428H259.971V33.6468H235.131V45.5268H256.659V54.3108H235.131V75.5508H223.827V24.1428ZM275.579 50.0628C275.579 52.2228 275.819 54.3348 276.299 56.3988C276.827 58.4148 277.643 60.2388 278.747 61.8708C279.851 63.5028 281.291 64.8228 283.067 65.8308C284.843 66.7908 287.003 67.2708 289.547 67.2708C292.091 67.2708 294.251 66.7908 296.027 65.8308C297.803 64.8228 299.243 63.5028 300.347 61.8708C301.451 60.2388 302.243 58.4148 302.723 56.3988C303.251 54.3348 303.515 52.2228 303.515 50.0628C303.515 47.8068 303.251 45.6228 302.723 43.5108C302.243 41.3988 301.451 39.5268 300.347 37.8948C299.243 36.2148 297.803 34.8948 296.027 33.9348C294.251 32.9268 292.091 32.4228 289.547 32.4228C287.003 32.4228 284.843 32.9268 283.067 33.9348C281.291 34.8948 279.851 36.2148 278.747 37.8948C277.643 39.5268 276.827 41.3988 276.299 43.5108C275.819 45.6228 275.579 47.8068 275.579 50.0628ZM264.275 50.0628C264.275 46.2228 264.851 42.6708 266.003 39.4068C267.155 36.0948 268.811 33.2148 270.971 30.7668C273.131 28.3188 275.771 26.3988 278.891 25.0068C282.059 23.6148 285.611 22.9188 289.547 22.9188C293.531 22.9188 297.083 23.6148 300.203 25.0068C303.323 26.3988 305.963 28.3188 308.123 30.7668C310.283 33.2148 311.939 36.0948 313.091 39.4068C314.243 42.6708 314.819 46.2228 314.819 50.0628C314.819 53.8068 314.243 57.3108 313.091 60.5748C311.939 63.7908 310.283 66.5988 308.123 68.9988C305.963 71.3988 303.323 73.2948 300.203 74.6868C297.083 76.0308 293.531 76.7028 289.547 76.7028C285.611 76.7028 282.059 76.0308 278.891 74.6868C275.771 73.2948 273.131 71.3988 270.971 68.9988C268.811 66.5988 267.155 63.7908 266.003 60.5748C264.851 57.3108 264.275 53.8068 264.275 50.0628ZM333.85 47.3988H346.234C348.826 47.3988 350.77 46.8228 352.066 45.6708C353.362 44.5188 354.01 42.6468 354.01 40.0548C354.01 37.5588 353.362 35.7588 352.066 34.6548C350.77 33.5028 348.826 32.9268 346.234 32.9268H333.85V47.3988ZM322.546 24.1428H350.266C352.57 24.1428 354.634 24.5268 356.458 25.2948C358.33 26.0148 359.914 27.0228 361.21 28.3188C362.554 29.6148 363.562 31.1268 364.234 32.8548C364.954 34.5348 365.314 36.3588 365.314 38.3268C365.314 41.3508 364.666 43.9668 363.37 46.1748C362.122 48.3828 360.058 50.0628 357.178 51.2148V51.3588C358.57 51.7428 359.722 52.3428 360.634 53.1588C361.546 53.9268 362.29 54.8628 362.866 55.9668C363.442 57.0228 363.85 58.1988 364.09 59.4948C364.378 60.7908 364.57 62.0868 364.666 63.3828C364.714 64.1988 364.762 65.1588 364.81 66.2628C364.858 67.3668 364.93 68.4948 365.026 69.6468C365.17 70.7988 365.362 71.9028 365.602 72.9588C365.89 73.9668 366.298 74.8308 366.826 75.5508H355.522C354.898 73.9188 354.514 71.9748 354.37 69.7188C354.226 67.4628 354.01 65.3028 353.722 63.2388C353.338 60.5508 352.522 58.5828 351.274 57.3348C350.026 56.0868 347.986 55.4628 345.154 55.4628H333.85V75.5508H322.546V24.1428ZM374.507 24.1428H412.955V33.6468H385.811V44.6628H410.723V53.4468H385.811V66.0468H413.531V75.5508H374.507V24.1428ZM428.899 58.4868C428.899 60.2148 429.211 61.6788 429.835 62.8788C430.459 64.0788 431.275 65.0628 432.283 65.8308C433.339 66.5508 434.563 67.1028 435.955 67.4868C437.347 67.8228 438.787 67.9908 440.275 67.9908C441.283 67.9908 442.363 67.9188 443.515 67.7748C444.667 67.5828 445.747 67.2468 446.755 66.7668C447.763 66.2868 448.603 65.6388 449.275 64.8228C449.947 63.9588 450.283 62.8788 450.283 61.5828C450.283 60.1908 449.827 59.0628 448.915 58.1988C448.051 57.3348 446.899 56.6148 445.459 56.0388C444.019 55.4628 442.387 54.9588 440.563 54.5268C438.739 54.0948 436.891 53.6148 435.019 53.0868C433.099 52.6068 431.227 52.0308 429.403 51.3588C427.579 50.6388 425.947 49.7268 424.507 48.6228C423.067 47.5188 421.891 46.1508 420.979 44.5188C420.115 42.8388 419.683 40.8228 419.683 38.4708C419.683 35.8308 420.235 33.5508 421.339 31.6308C422.491 29.6628 423.979 28.0308 425.803 26.7348C427.627 25.4388 429.691 24.4788 431.995 23.8548C434.299 23.2308 436.603 22.9188 438.907 22.9188C441.595 22.9188 444.163 23.2308 446.611 23.8548C449.107 24.4308 451.315 25.3908 453.235 26.7348C455.155 28.0788 456.667 29.8068 457.771 31.9188C458.923 33.9828 459.499 36.5028 459.499 39.4788H448.555C448.459 37.9428 448.123 36.6708 447.547 35.6628C447.019 34.6548 446.299 33.8628 445.387 33.2868C444.475 32.7108 443.419 32.3028 442.219 32.0628C441.067 31.8228 439.795 31.7028 438.403 31.7028C437.491 31.7028 436.579 31.7988 435.667 31.9908C434.755 32.1828 433.915 32.5188 433.147 32.9988C432.427 33.4788 431.827 34.0788 431.347 34.7988C430.867 35.5188 430.627 36.4308 430.627 37.5348C430.627 38.5428 430.819 39.3588 431.203 39.9828C431.587 40.6068 432.331 41.1828 433.435 41.7108C434.587 42.2388 436.147 42.7668 438.115 43.2948C440.131 43.8228 442.747 44.4948 445.963 45.3108C446.923 45.5028 448.243 45.8628 449.923 46.3908C451.651 46.8708 453.355 47.6628 455.035 48.7668C456.715 49.8708 458.155 51.3588 459.355 53.2308C460.603 55.0548 461.227 57.4068 461.227 60.2868C461.227 62.6388 460.771 64.8228 459.859 66.8388C458.947 68.8548 457.579 70.6068 455.755 72.0948C453.979 73.5348 451.747 74.6628 449.059 75.4788C446.419 76.2948 443.347 76.7028 439.843 76.7028C437.011 76.7028 434.251 76.3428 431.563 75.6228C428.923 74.9508 426.571 73.8708 424.507 72.3828C422.491 70.8948 420.883 68.9988 419.683 66.6948C418.483 64.3908 417.907 61.6548 417.955 58.4868H428.899ZM479.328 33.6468H463.92V24.1428H506.04V33.6468H490.632V75.5508H479.328V33.6468ZM532.007 24.1428H543.311V43.8708H564.119V24.1428H575.423V75.5508H564.119V53.3748H543.311V75.5508H532.007V24.1428ZM585.374 24.1428H596.678V75.5508H585.374V24.1428ZM606.609 24.1428H617.913V66.0468H642.969V75.5508H606.609V24.1428ZM649.288 24.1428H660.592V66.0468H685.648V75.5508H649.288V24.1428ZM699.672 58.4868C699.672 60.2148 699.984 61.6788 700.608 62.8788C701.232 64.0788 702.048 65.0628 703.056 65.8308C704.112 66.5508 705.336 67.1028 706.728 67.4868C708.12 67.8228 709.56 67.9908 711.048 67.9908C712.056 67.9908 713.136 67.9188 714.288 67.7748C715.44 67.5828 716.52 67.2468 717.528 66.7668C718.536 66.2868 719.376 65.6388 720.048 64.8228C720.72 63.9588 721.056 62.8788 721.056 61.5828C721.056 60.1908 720.6 59.0628 719.688 58.1988C718.824 57.3348 717.672 56.6148 716.232 56.0388C714.792 55.4628 713.16 54.9588 711.336 54.5268C709.512 54.0948 707.664 53.6148 705.792 53.0868C703.872 52.6068 702 52.0308 700.176 51.3588C698.352 50.6388 696.72 49.7268 695.28 48.6228C693.84 47.5188 692.664 46.1508 691.752 44.5188C690.888 42.8388 690.456 40.8228 690.456 38.4708C690.456 35.8308 691.008 33.5508 692.112 31.6308C693.264 29.6628 694.752 28.0308 696.576 26.7348C698.4 25.4388 700.464 24.4788 702.768 23.8548C705.072 23.2308 707.376 22.9188 709.68 22.9188C712.368 22.9188 714.936 23.2308 717.384 23.8548C719.88 24.4308 722.088 25.3908 724.008 26.7348C725.928 28.0788 727.44 29.8068 728.544 31.9188C729.696 33.9828 730.272 36.5028 730.272 39.4788H719.328C719.232 37.9428 718.896 36.6708 718.32 35.6628C717.792 34.6548 717.072 33.8628 716.16 33.2868C715.248 32.7108 714.192 32.3028 712.992 32.0628C711.84 31.8228 710.568 31.7028 709.176 31.7028C708.264 31.7028 707.352 31.7988 706.44 31.9908C705.528 32.1828 704.688 32.5188 703.92 32.9988C703.2 33.4788 702.6 34.0788 702.12 34.7988C701.64 35.5188 701.4 36.4308 701.4 37.5348C701.4 38.5428 701.592 39.3588 701.976 39.9828C702.36 40.6068 703.104 41.1828 704.208 41.7108C705.36 42.2388 706.92 42.7668 708.888 43.2948C710.904 43.8228 713.52 44.4948 716.736 45.3108C717.696 45.5028 719.016 45.8628 720.696 46.3908C722.424 46.8708 724.128 47.6628 725.808 48.7668C727.488 49.8708 728.928 51.3588 730.128 53.2308C731.376 55.0548 732 57.4068 732 60.2868C732 62.6388 731.544 64.8228 730.632 66.8388C729.72 68.8548 728.352 70.6068 726.528 72.0948C724.752 73.5348 722.52 74.6628 719.832 75.4788C717.192 76.2948 714.12 76.7028 710.616 76.7028C707.784 76.7028 705.024 76.3428 702.336 75.6228C699.696 74.9508 697.344 73.8708 695.28 72.3828C693.264 70.8948 691.656 68.9988 690.456 66.6948C689.256 64.3908 688.68 61.6548 688.728 58.4868H699.672Z" fill="white"/>
</svg>
