<svg width="395" height="65" viewBox="0 0 395 65" fill="none" xmlns="http://www.w3.org/2000/svg">
    <rect y="0.628906" width="395" height="64" rx="32" fill="currentColor" />
    <path
        d="M41.36 32.6369C41.36 31.1329 41.52 29.6769 41.84 28.2689C42.192 26.8609 42.736 25.6129 43.472 24.5249C44.208 23.4049 45.168 22.5249 46.352 21.8849C47.536 21.2129 48.976 20.8769 50.672 20.8769C52.368 20.8769 53.808 21.2129 54.992 21.8849C56.176 22.5249 57.136 23.4049 57.872 24.5249C58.608 25.6129 59.136 26.8609 59.456 28.2689C59.808 29.6769 59.984 31.1329 59.984 32.6369C59.984 34.0769 59.808 35.4849 59.456 36.8609C59.136 38.2049 58.608 39.4209 57.872 40.5089C57.136 41.5969 56.176 42.4769 54.992 43.1489C53.808 43.7889 52.368 44.1089 50.672 44.1089C48.976 44.1089 47.536 43.7889 46.352 43.1489C45.168 42.4769 44.208 41.5969 43.472 40.5089C42.736 39.4209 42.192 38.2049 41.84 36.8609C41.52 35.4849 41.36 34.0769 41.36 32.6369ZM33.824 32.6369C33.824 35.1329 34.208 37.4689 34.976 39.6449C35.744 41.7889 36.848 43.6609 38.288 45.2609C39.728 46.8609 41.488 48.1249 43.568 49.0529C45.68 49.9489 48.048 50.3969 50.672 50.3969C53.328 50.3969 55.696 49.9489 57.776 49.0529C59.856 48.1249 61.616 46.8609 63.056 45.2609C64.496 43.6609 65.6 41.7889 66.368 39.6449C67.136 37.4689 67.52 35.1329 67.52 32.6369C67.52 30.0769 67.136 27.7089 66.368 25.5329C65.6 23.3249 64.496 21.4049 63.056 19.7729C61.616 18.1409 59.856 16.8609 57.776 15.9329C55.696 15.0049 53.328 14.5409 50.672 14.5409C48.048 14.5409 45.68 15.0049 43.568 15.9329C41.488 16.8609 39.728 18.1409 38.288 19.7729C36.848 21.4049 35.744 23.3249 34.976 25.5329C34.208 27.7089 33.824 30.0769 33.824 32.6369ZM80.2074 30.8609V21.2129H88.4634C90.1914 21.2129 91.4874 21.5969 92.3514 22.3649C93.2154 23.1009 93.6474 24.3009 93.6474 25.9649C93.6474 27.6929 93.2154 28.9409 92.3514 29.7089C91.4874 30.4769 90.1914 30.8609 88.4634 30.8609H80.2074ZM72.6714 15.3569V49.6289H80.2074V36.2369H87.7434C89.6314 36.2369 90.9914 36.6529 91.8234 37.4849C92.6554 38.3169 93.1994 39.6289 93.4554 41.4209C93.6474 42.7969 93.7914 44.2369 93.8874 45.7409C93.9834 47.2449 94.2394 48.5409 94.6554 49.6289H102.191C101.839 49.1489 101.567 48.5729 101.375 47.9009C101.215 47.1969 101.087 46.4609 100.991 45.6929C100.927 44.9249 100.879 44.1729 100.847 43.4369C100.815 42.7009 100.783 42.0609 100.751 41.5169C100.687 40.6529 100.559 39.7889 100.367 38.9249C100.207 38.0609 99.9354 37.2769 99.5514 36.5729C99.1674 35.8369 98.6714 35.2129 98.0634 34.7009C97.4554 34.1569 96.6874 33.7569 95.7594 33.5009V33.4049C97.6794 32.6369 99.0554 31.5169 99.8874 30.0449C100.751 28.5729 101.183 26.8289 101.183 24.8129C101.183 23.5009 100.943 22.2849 100.463 21.1649C100.015 20.0129 99.3434 19.0049 98.4474 18.1409C97.5834 17.2769 96.5274 16.6049 95.2794 16.1249C94.0634 15.6129 92.6874 15.3569 91.1514 15.3569H72.6714ZM115.952 36.3809L120.416 23.8049H120.512L124.832 36.3809H115.952ZM116.672 15.3569L103.712 49.6289H111.296L113.984 41.9969H126.8L129.392 49.6289H137.216L124.4 15.3569H116.672ZM140.171 15.3569V49.6289H147.227V26.6849H147.323L161.579 49.6289H169.115V15.3569H162.059V38.3489H161.963L147.659 15.3569H140.171ZM200.518 45.7409L201.286 49.6289H206.086V31.1009H191.686V36.7169H199.27C199.046 39.1169 198.246 40.9569 196.87 42.2369C195.526 43.4849 193.606 44.1089 191.11 44.1089C189.414 44.1089 187.974 43.7889 186.79 43.1489C185.606 42.4769 184.646 41.5969 183.91 40.5089C183.174 39.4209 182.63 38.2049 182.278 36.8609C181.958 35.4849 181.798 34.0769 181.798 32.6369C181.798 31.1329 181.958 29.6769 182.278 28.2689C182.63 26.8609 183.174 25.6129 183.91 24.5249C184.646 23.4049 185.606 22.5249 186.79 21.8849C187.974 21.2129 189.414 20.8769 191.11 20.8769C192.934 20.8769 194.486 21.3569 195.766 22.3169C197.046 23.2769 197.91 24.7169 198.358 26.6369H205.558C205.366 24.6849 204.838 22.9569 203.974 21.4529C203.11 19.9489 202.006 18.6849 200.661 17.6609C199.35 16.6369 197.862 15.8689 196.198 15.3569C194.566 14.8129 192.87 14.5409 191.11 14.5409C188.486 14.5409 186.118 15.0049 184.006 15.9329C181.926 16.8609 180.166 18.1409 178.726 19.7729C177.286 21.4049 176.182 23.3249 175.414 25.5329C174.646 27.7089 174.262 30.0769 174.262 32.6369C174.262 35.1329 174.646 37.4689 175.414 39.6449C176.182 41.7889 177.286 43.6609 178.726 45.2609C180.166 46.8609 181.926 48.1249 184.006 49.0529C186.118 49.9489 188.486 50.3969 191.11 50.3969C192.774 50.3969 194.422 50.0609 196.054 49.3889C197.686 48.6849 199.174 47.4689 200.518 45.7409ZM212.171 15.3569V49.6289H238.187V43.2929H219.707V34.8929H236.315V29.0369H219.707V21.6929H237.803V15.3569H212.171ZM256.656 15.3569V49.6289H280.896V43.2929H264.192V15.3569H256.656ZM285.109 15.3569V49.6289H292.645V15.3569H285.109ZM299.265 15.3569V49.6289H306.321V26.6849H306.417L320.673 49.6289H328.209V15.3569H321.153V38.3489H321.057L306.753 15.3569H299.265ZM334.843 15.3569V49.6289H360.859V43.2929H342.379V34.8929H358.987V29.0369H342.379V21.6929H360.475V15.3569H334.843Z"
        fill="white" />
</svg>