<svg viewBox="0 0 289 65" fill="none" xmlns="http://www.w3.org/2000/svg">
    <rect y="0.628906" width="289" height="64" rx="32" fill="currentColor" />
    <path
        d="M42.848 30.8609V21.2129H51.104C52.832 21.2129 54.128 21.5969 54.992 22.3649C55.856 23.1009 56.288 24.3009 56.288 25.9649C56.288 27.6929 55.856 28.9409 54.992 29.7089C54.128 30.4769 52.832 30.8609 51.104 30.8609H42.848ZM35.312 15.3569V49.6289H42.848V36.2369H50.384C52.272 36.2369 53.632 36.6529 54.464 37.4849C55.296 38.3169 55.84 39.6289 56.096 41.4209C56.288 42.7969 56.432 44.2369 56.528 45.7409C56.624 47.2449 56.88 48.5409 57.296 49.6289H64.832C64.48 49.1489 64.208 48.5729 64.016 47.9009C63.856 47.1969 63.728 46.4609 63.632 45.6929C63.568 44.9249 63.52 44.1729 63.488 43.4369C63.456 42.7009 63.424 42.0609 63.392 41.5169C63.328 40.6529 63.2 39.7889 63.008 38.9249C62.848 38.0609 62.576 37.2769 62.192 36.5729C61.808 35.8369 61.312 35.2129 60.704 34.7009C60.096 34.1569 59.328 33.7569 58.4 33.5009V33.4049C60.32 32.6369 61.696 31.5169 62.528 30.0449C63.392 28.5729 63.824 26.8289 63.824 24.8129C63.824 23.5009 63.584 22.2849 63.104 21.1649C62.656 20.0129 61.984 19.0049 61.088 18.1409C60.224 17.2769 59.168 16.6049 57.92 16.1249C56.704 15.6129 55.328 15.3569 53.792 15.3569H35.312ZM69.9526 15.3569V49.6289H95.9686V43.2929H77.4886V34.8929H94.0966V29.0369H77.4886V21.6929H95.5846V15.3569H69.9526ZM108.614 43.2929V21.6929H113.99C115.846 21.6929 117.398 21.9649 118.646 22.5089C119.926 23.0209 120.95 23.7729 121.718 24.7649C122.486 25.7569 123.03 26.9569 123.35 28.3649C123.702 29.7409 123.878 31.2929 123.878 33.0209C123.878 34.9089 123.638 36.5089 123.158 37.8209C122.678 39.1329 122.038 40.2049 121.238 41.0369C120.438 41.8369 119.526 42.4129 118.502 42.7649C117.478 43.1169 116.422 43.2929 115.334 43.2929H108.614ZM101.078 15.3569V49.6289H115.862C118.486 49.6289 120.758 49.1969 122.678 48.3329C124.63 47.4369 126.246 46.2209 127.526 44.6849C128.838 43.1489 129.814 41.3249 130.454 39.2129C131.094 37.1009 131.414 34.7969 131.414 32.3009C131.414 29.4529 131.014 26.9729 130.214 24.8609C129.446 22.7489 128.358 20.9889 126.95 19.5809C125.574 18.1729 123.926 17.1169 122.006 16.4129C120.118 15.7089 118.07 15.3569 115.862 15.3569H101.078ZM150.015 15.3569V49.6289H174.255V43.2929H157.551V15.3569H150.015ZM178.468 15.3569V49.6289H186.004V15.3569H178.468ZM192.625 15.3569V49.6289H199.681V26.6849H199.777L214.033 49.6289H221.569V15.3569H214.513V38.3489H214.417L200.113 15.3569H192.625ZM228.203 15.3569V49.6289H254.219V43.2929H235.739V34.8929H252.347V29.0369H235.739V21.6929H253.835V15.3569H228.203Z"
        fill="white" />
</svg>