<svg width="64" height="72" viewBox="0 0 64 72" fill="none" xmlns="http://www.w3.org/2000/svg">
  <path d="M22.042 3.375C22.042 1.50469 20.5373 0 18.667 0C16.7967 0 15.292 1.50469 15.292 3.375V9H9.66699C4.70293 9 0.666992 13.0359 0.666992 18V20.25V27V63C0.666992 67.9641 4.70293 72 9.66699 72H54.667C59.6311 72 63.667 67.9641 63.667 63V27V20.25V18C63.667 13.0359 59.6311 9 54.667 9H49.042V3.375C49.042 1.50469 47.5373 0 45.667 0C43.7967 0 42.292 1.50469 42.292 3.375V9H22.042V3.375ZM7.41699 27H18.667V34.875H7.41699V27ZM7.41699 41.625H18.667V50.625H7.41699V41.625ZM25.417 41.625H38.917V50.625H25.417V41.625ZM45.667 41.625H56.917V50.625H45.667V41.625ZM56.917 34.875H45.667V27H56.917V34.875ZM56.917 57.375V63C56.917 64.2375 55.9045 65.25 54.667 65.25H45.667V57.375H56.917ZM38.917 57.375V65.25H25.417V57.375H38.917ZM18.667 57.375V65.25H9.66699C8.42949 65.25 7.41699 64.2375 7.41699 63V57.375H18.667ZM38.917 34.875H25.417V27H38.917V34.875Z" fill="#737373"/>
</svg>
