<svg width="132" height="132" viewBox="0 0 132 132" fill="none" xmlns="http://www.w3.org/2000/svg">
    <path
        d="M20.625 118.38V50.4605C20.625 43.6997 25.828 38.0605 32.9938 38.0605H101.069C107.985 38.0605 113.438 43.6062 113.438 50.4605V118.38V118.411C113.438 125.639 107.923 130.717 101.131 130.717H32.9938C26.233 130.686 20.625 125.327 20.625 118.38Z"
        fill="#171F26" />
    <path d="M104.107 49.2334H29.9878V119.672H104.107V49.2334Z" fill="#E6E4E1" />
    <path
        d="M97.0556 88.3081C97.0556 89.5257 96.0645 90.4036 94.9885 90.4036C94.9885 90.4036 81.34 90.4036 81.3117 90.4036C80.2357 90.4036 79.2446 89.5257 79.2446 88.3081V73.4421C79.2446 71.7431 80.6038 70.5822 82.1046 70.5822H94.2239C95.8663 70.5822 97.0839 71.8847 97.0839 73.4421V88.3081H97.0556Z"
        fill="#171F26" />
    <path d="M93.6907 89.8241H88.4805V109.929C88.4805 113.497 93.6907 113.497 93.6907 109.929V89.8241Z"
        fill="#171F26" />
    <path d="M87.7092 89.8243H82.499V109.929C82.499 113.468 87.7092 113.468 87.7092 109.929V89.8243Z" fill="#171F26" />
    <path
        d="M88.204 69.3564C90.3622 69.3564 92.1117 67.6069 92.1117 65.4488C92.1117 63.2906 90.3622 61.5411 88.204 61.5411C86.0459 61.5411 84.2964 63.2906 84.2964 65.4488C84.2964 67.6069 86.0459 69.3564 88.204 69.3564Z"
        fill="#171F26" />
    <path
        d="M75.8105 88.3081C75.8105 89.5257 74.8194 90.4036 73.7434 90.4036C73.7434 90.4036 60.0949 90.4036 60.0666 90.4036C58.9906 90.4036 57.9995 89.5257 57.9995 88.3081V73.4421C57.9995 71.7431 59.3587 70.5822 60.8595 70.5822H72.9788C74.6212 70.5822 75.8388 71.8847 75.8388 73.4421V88.3081H75.8105Z"
        fill="#171F26" />
    <path d="M72.4373 89.8243H67.2271V109.929C67.2271 113.497 72.4373 113.497 72.4373 109.929V89.8243Z"
        fill="#171F26" />
    <path d="M66.4578 89.8243H61.2476V109.929C61.2476 113.468 66.4578 113.468 66.4578 109.929V89.8243Z"
        fill="#171F26" />
    <path
        d="M66.9526 69.3564C69.1107 69.3564 70.8602 67.6069 70.8602 65.4488C70.8602 63.2906 69.1107 61.5411 66.9526 61.5411C64.7944 61.5411 63.0449 63.2906 63.0449 65.4488C63.0449 67.6069 64.7944 69.3564 66.9526 69.3564Z"
        fill="#171F26" />
    <path
        d="M54.5155 88.3081C54.5155 89.5257 53.5245 90.4036 52.4484 90.4036C52.4484 90.4036 38.8 90.4036 38.7717 90.4036C37.6957 90.4036 36.7046 89.5257 36.7046 88.3081V73.4421C36.7046 71.7431 38.0638 70.5822 39.5645 70.5822H51.6839C53.3263 70.5822 54.5438 71.8847 54.5438 73.4421V88.3081H54.5155Z"
        fill="#171F26" />
    <path d="M51.1575 89.8246H45.9473V109.929C45.9473 113.497 51.1575 113.497 51.1575 109.929V89.8246Z"
        fill="#171F26" />
    <path d="M45.1775 89.8243H39.9673V109.929C39.9673 113.468 45.1775 113.468 45.1775 109.929V89.8243Z"
        fill="#171F26" />
    <path
        d="M45.6645 69.3564C47.8226 69.3564 49.5721 67.6069 49.5721 65.4488C49.5721 63.2906 47.8226 61.5411 45.6645 61.5411C43.5063 61.5411 41.7568 63.2906 41.7568 65.4488C41.7568 67.6069 43.5063 69.3564 45.6645 69.3564Z"
        fill="#171F26" />
    <path fill-rule="evenodd" clip-rule="evenodd"
        d="M48.2373 2.80383L31.5564 19.4847L37.3585 25.2868L44.1345 18.5107L44.1346 32.4363L52.34 32.4363L52.3397 18.5103L59.1161 25.2868L64.9182 19.4847L48.2373 2.80383Z"
        fill="#171F26" stroke="#E6E4E1" stroke-width="0.959479" />
    <path fill-rule="evenodd" clip-rule="evenodd"
        d="M87.4736 33.7352L104.155 17.0543L98.3525 11.2523L91.5764 18.0284L91.5763 4.10272H83.371L83.3712 18.0287L76.5948 11.2523L70.7928 17.0543L87.4736 33.7352Z"
        fill="#171F26" stroke="#E6E4E1" stroke-width="0.959479" />
</svg>