<svg viewBox="0 0 155 128" fill="none" xmlns="http://www.w3.org/2000/svg">
    <path fill-rule="evenodd" clip-rule="evenodd"
        d="M92.0654 16L84.6863 23.3791C78.4379 29.6275 78.4379 39.7582 84.6863 46.0065L108.712 70.0327C109.718 71.0387 110.825 71.8828 112 72.5648V110C112 111.105 111.105 112 110 112H18C16.8954 112 16 111.105 16 110V18C16 16.8954 16.8954 16 18 16H92.0654Z"
        fill="#165C96" />
    <path fill-rule="evenodd" clip-rule="evenodd"
        d="M88.2254 86.0492L95.6115 83.3924L97.6547 88.241L84.4558 93.4007L74.4022 69.9261L49.8916 69.9198L48.4364 49.505L47.5128 36.5473C46.9915 35.586 46.6777 34.4411 46.6777 33.3227C46.6777 29.6563 49.6778 26.6665 53.3568 26.6665C57.0342 26.6665 60.0358 29.6563 60.0358 33.3227C60.0358 36.7293 57.401 39.6413 54.0092 39.9524L54.7663 53.3424L71.8923 53.3502V59.6019L55.3937 59.5957L55.709 63.8221L78.4964 63.6681L88.2254 86.0492ZM38.7087 76.8384C38.7087 86.6445 46.7347 94.6431 56.5746 94.6431C65.5777 94.6431 73.2557 87.7567 74.3 78.9259L78.6595 87.8143C74.5232 95.9637 65.8649 101.333 56.6292 101.333C43.0635 101.333 32 90.3078 32 76.787C32 67.2967 37.7722 58.4752 46.3867 54.5646L46.9439 61.815C41.8492 65.0147 38.7087 70.7873 38.7087 76.8384Z"
        fill="white" />
    <path fill-rule="evenodd" clip-rule="evenodd"
        d="M112.458 3.12761L88.4609 27.1243C84.2953 31.2899 84.2953 38.0436 88.4609 42.2092L112.458 66.2059C116.623 70.3715 123.377 70.3715 127.542 66.2059L151.539 42.2092C155.705 38.0436 155.705 31.2899 151.539 27.1243L127.542 3.12762C123.377 -1.03798 116.623 -1.03798 112.458 3.12761ZM114.982 22.2507C114.801 19.3526 117.103 16.9026 120.007 16.9026C122.91 16.9026 125.212 19.3526 125.031 22.2507L124.147 36.3958C124.01 38.5821 122.197 40.2853 120.007 40.2853C117.816 40.2853 116.003 38.5821 115.866 36.3958L114.982 22.2507ZM115.623 49.5402C115.623 47.1189 117.586 45.1559 120.008 45.1559C122.429 45.1559 124.392 47.1189 124.392 49.5402C124.392 51.9616 122.429 53.9245 120.008 53.9245C117.586 53.9245 115.623 51.9616 115.623 49.5402Z"
        fill="#192026" />
</svg>