<?xml version="1.0" encoding="UTF-8"?>
<svg viewBox="0 0 128 128" version="1.1" xmlns="http://www.w3.org/2000/svg" xmlns:xlink="http://www.w3.org/1999/xlink">
    <title>Icon/Bus 2</title>
    <desc>Family=Alerts, Icon=Bus, Style=Circle (No White)</desc>
    <g id="Icon/Bus-2" stroke="none" stroke-width="1" fill="none" fill-rule="evenodd">
      <path id="Icon" d="M63.6484 0.00195312C98.9877 -0.184503 127.01 28.3265 127.978 63.6592C128.916 97.9313 100.182 127.078 64.332 127.998C28.9926 128.187 0.191197 99.6876 0.00195312 64.3428C-0.187041 28.9976 28.3086 0.190976 63.6484 0.00195312ZM64.0283 16C55.8886 16.1563 47.8322 17.6233 40.1895 20.3398C35.5919 22.3227 32.4621 24.2873 31.5156 29.2256L28 56.5947V94.459H34.1719V101.054C34.1803 103.763 36.4468 105.956 39.2441 105.964C42.0412 105.956 44.3069 103.762 44.3154 101.054V94.459H83.8691V101.054C83.8559 102.816 84.8195 104.451 86.3936 105.336C87.968 106.221 89.9119 106.221 91.4863 105.336C93.0606 104.451 94.0239 102.817 94.0107 101.054V94.459H100L99.999 56.5947L96.502 29.2256C95.6135 24.2874 92.4837 22.3608 87.8281 20.3398C80.1993 17.6217 72.1555 16.1546 64.0283 16ZM39.2236 72.291C42.2054 72.2855 44.6277 74.6213 44.6338 77.5088C44.6375 78.8959 44.0715 80.2282 43.0605 81.2109C42.0496 82.1936 40.6765 82.7464 39.2441 82.748C36.2622 82.7533 33.8406 80.4169 33.835 77.5293C33.8294 74.6418 36.2419 72.2967 39.2236 72.291ZM88.9375 72.291C91.9166 72.2891 94.3347 74.6239 94.3408 77.5088C94.3445 78.8995 93.7753 80.2345 92.7598 81.2178C91.7442 82.2011 90.3658 82.7519 88.9297 82.748C85.9513 82.7423 83.54 80.4007 83.542 77.5156C83.5442 74.6308 85.9585 72.293 88.9375 72.291ZM88.2344 31.8457C89.6579 31.8313 90.8794 32.8236 91.1123 34.1836L94.0088 55.791C94.0476 56.0389 94.0476 56.2911 94.0088 56.5391V56.6885C94.0123 57.4318 93.7075 58.1459 93.1631 58.6699C92.6187 59.1937 91.8797 59.4846 91.1123 59.4766H37.1572C36.3883 59.443 35.6648 59.1135 35.1465 58.5625C34.6282 58.0114 34.3574 57.2836 34.3945 56.5391C34.356 56.2911 34.356 56.039 34.3945 55.791L37.291 34.1836C37.5327 32.8213 38.7602 31.8308 40.1875 31.8457H88.2344ZM78.9619 22.9219C80.2207 22.922 81.241 23.91 81.2412 25.1289C81.2412 26.348 80.2208 27.3368 78.9619 27.3369H49.2109C47.9521 27.3367 46.9316 26.348 46.9316 25.1289C46.9319 23.91 47.9523 22.9221 49.2109 22.9219H78.9619Z" fill="#171F26"/>
    </g>
</svg>
