<svg viewBox="0 0 280 236" fill="none" xmlns="http://www.w3.org/2000/svg">
  <!-- FIXME: assumes/hard-codes a background color of #E6E4E1 -->
  <path d="M63.5312 32.0312C63.5312 26.4723 59.059 22 53.5 22C47.941 22 43.4688 26.4723 43.4688 32.0312V48.75H26.75C11.9957 48.75 0 60.7457 0 75.5V82.1875V102.25V209.25C0 224.004 11.9957 236 26.75 236H160.5C175.254 236 187.25 224.004 187.25 209.25V102.25V82.1875V75.5C187.25 60.7457 175.254 48.75 160.5 48.75H143.781V32.0312C143.781 26.4723 139.309 22 133.75 22C128.191 22 123.719 26.4723 123.719 32.0312V48.75H63.5312V32.0312ZM20.0625 102.25H53.5V125.656H20.0625V102.25ZM20.0625 145.719H53.5V172.469H20.0625V145.719ZM73.5625 145.719H113.688V172.469H73.5625V145.719ZM133.75 145.719H167.188V172.469H133.75V145.719ZM167.188 125.656H133.75V102.25H167.188V125.656ZM167.188 192.531V209.25C167.188 212.928 164.178 215.938 160.5 215.938H133.75V192.531H167.188ZM113.688 192.531V215.938H73.5625V192.531H113.688ZM53.5 192.531V215.938H26.75C23.0719 215.938 20.0625 212.928 20.0625 209.25V192.531H53.5ZM113.688 125.656H73.5625V102.25H113.688V125.656Z" fill="#737373"/>
  <mask id="path-2-outside-1_3398_765" maskUnits="userSpaceOnUse" x="122" y="0" width="158" height="158" fill="black">
    <rect fill="white" x="122" width="158" height="158"/>
    <path fill-rule="evenodd" clip-rule="evenodd" d="M186.269 18.0212L140.021 64.2693C131.993 72.2975 131.993 85.3139 140.021 93.3421L186.269 139.59C194.298 147.618 207.314 147.618 215.342 139.59L261.59 93.3421C269.618 85.3139 269.618 72.2975 261.59 64.2693L215.342 18.0212C207.314 9.99295 194.298 9.99294 186.269 18.0212ZM191.135 54.877C190.786 49.2916 195.222 44.5698 200.819 44.5698C206.415 44.5698 210.851 49.2916 210.502 54.877L208.798 82.1384C208.535 86.352 205.04 89.6346 200.819 89.6346C196.597 89.6346 193.103 86.352 192.839 82.1384L191.135 54.877ZM192.371 107.471C192.371 102.805 196.154 99.0216 200.82 99.0216C205.487 99.0216 209.27 102.805 209.27 107.471C209.27 112.138 205.487 115.921 200.82 115.921C196.154 115.921 192.371 112.138 192.371 107.471Z"/>
  </mask>
  <path fill-rule="evenodd" clip-rule="evenodd" d="M186.269 18.0212L140.021 64.2693C131.993 72.2975 131.993 85.3139 140.021 93.3421L186.269 139.59C194.298 147.618 207.314 147.618 215.342 139.59L261.59 93.3421C269.618 85.3139 269.618 72.2975 261.59 64.2693L215.342 18.0212C207.314 9.99295 194.298 9.99294 186.269 18.0212ZM191.135 54.877C190.786 49.2916 195.222 44.5698 200.819 44.5698C206.415 44.5698 210.851 49.2916 210.502 54.877L208.798 82.1384C208.535 86.352 205.04 89.6346 200.819 89.6346C196.597 89.6346 193.103 86.352 192.839 82.1384L191.135 54.877ZM192.371 107.471C192.371 102.805 196.154 99.0216 200.82 99.0216C205.487 99.0216 209.27 102.805 209.27 107.471C209.27 112.138 205.487 115.921 200.82 115.921C196.154 115.921 192.371 112.138 192.371 107.471Z" fill="#171F26"/>
  <path d="M140.021 64.2693L131.536 55.784L131.536 55.784L140.021 64.2693ZM186.269 18.0212L194.755 26.5065V26.5064L186.269 18.0212ZM140.021 93.3421L131.536 101.827H131.536L140.021 93.3421ZM186.269 139.59L194.755 131.105L186.269 139.59ZM215.342 139.59L206.857 131.105V131.105L215.342 139.59ZM261.59 93.3421L253.105 84.8568L253.105 84.8568L261.59 93.3421ZM261.59 64.2693L270.076 55.784L270.076 55.784L261.59 64.2693ZM215.342 18.0212L223.827 9.5359V9.5359L215.342 18.0212ZM191.135 54.877L179.159 55.6256V55.6256L191.135 54.877ZM210.502 54.877L222.478 55.6256V55.6256L210.502 54.877ZM208.798 82.1384L196.821 81.3899V81.3899L208.798 82.1384ZM192.839 82.1384L204.816 81.3899V81.3899L192.839 82.1384ZM148.506 72.7546L194.755 26.5065L177.784 9.53589L131.536 55.784L148.506 72.7546ZM148.506 84.8568C145.165 81.5149 145.165 76.0965 148.506 72.7546L131.536 55.784C118.821 68.4985 118.821 89.1128 131.536 101.827L148.506 84.8568ZM194.755 131.105L148.506 84.8568L131.536 101.827L177.784 148.075L194.755 131.105ZM206.857 131.105C203.515 134.447 198.097 134.447 194.755 131.105L177.784 148.075C190.499 160.79 211.113 160.79 223.827 148.075L206.857 131.105ZM253.105 84.8568L206.857 131.105L223.827 148.075L270.075 101.827L253.105 84.8568ZM253.105 72.7546C256.447 76.0965 256.447 81.5149 253.105 84.8568L270.075 101.827C282.79 89.1129 282.79 68.4985 270.076 55.784L253.105 72.7546ZM206.857 26.5065L253.105 72.7546L270.076 55.784L223.827 9.5359L206.857 26.5065ZM194.755 26.5064C198.097 23.1645 203.515 23.1645 206.857 26.5065L223.827 9.5359C211.113 -3.17861 190.499 -3.17865 177.784 9.53589L194.755 26.5064ZM200.819 32.5698C188.3 32.5698 178.378 43.1317 179.159 55.6256L203.112 54.1285C203.195 55.4514 202.144 56.5698 200.819 56.5698V32.5698ZM222.478 55.6256C223.259 43.1317 213.337 32.5698 200.819 32.5698V56.5698C199.493 56.5698 198.442 55.4514 198.525 54.1285L222.478 55.6256ZM220.775 82.887L222.478 55.6256L198.525 54.1285L196.821 81.3899L220.775 82.887ZM200.819 101.635C211.377 101.635 220.116 93.425 220.775 82.887L196.821 81.3899C196.953 79.279 198.704 77.6346 200.819 77.6346V101.635ZM180.863 82.887C181.521 93.425 190.26 101.635 200.819 101.635V77.6346C202.934 77.6346 204.684 79.279 204.816 81.3899L180.863 82.887ZM179.159 55.6256L180.863 82.887L204.816 81.3899L203.112 54.1285L179.159 55.6256ZM200.82 87.0216C189.526 87.0216 180.371 96.1772 180.371 107.471H204.371C204.371 109.432 202.781 111.022 200.82 111.022V87.0216ZM221.27 107.471C221.27 96.1772 212.114 87.0216 200.82 87.0216V111.022C198.86 111.022 197.27 109.432 197.27 107.471H221.27ZM200.82 127.921C212.114 127.921 221.27 118.765 221.27 107.471H197.27C197.27 105.51 198.86 103.921 200.82 103.921V127.921ZM180.371 107.471C180.371 118.765 189.526 127.921 200.82 127.921V103.921C202.781 103.921 204.371 105.51 204.371 107.471H180.371Z" fill="#E6E4E1" mask="url(#path-2-outside-1_3398_765)"/>
</svg>
