<svg viewBox="0 0 192 192" fill="none" xmlns="http://www.w3.org/2000/svg">
<path fill-rule="evenodd" clip-rule="evenodd" d="M96 0C42.9807 0 0 42.9807 0 96C0 149.019 42.9807 192 96 192C149.019 192 192 149.019 192 96C191.943 43.0044 148.996 0.0573188 96 0ZM142.856 124.121C140.492 127.786 135.687 128.984 131.88 126.857L91.8797 102.857C89.5551 101.332 88.11 98.7783 87.9997 96.0005V48.0005C87.9997 43.5823 91.5814 40.0005 95.9997 40.0005C100.418 40.0005 104 43.5823 104 48.0005V91.4725L140.12 113.145C143.906 115.42 145.13 120.334 142.856 124.121Z" fill="currentColor"/>
</svg>
