<svg width="128" height="128" viewBox="0 0 128 128" fill="none" xmlns="http://www.w3.org/2000/svg">
    <path
        d="M19 112.885V47.0242C19 40.4683 24.0453 35 30.994 35H97.006C103.713 35 109 40.3776 109 47.0242V112.885V112.915C109 119.924 103.653 124.849 97.0665 124.849H30.994C24.4381 124.819 19 119.622 19 112.885Z"
        fill="#171F26" />
    <path d="M98.951 45.7412H27.0781V114.045H98.951V45.7412Z" fill="#E6E4E1" />
    <path
        d="M18 114.75V47.312C18 40.5992 23.1574 35 30.2605 35H97.7395C104.596 35 110 40.5064 110 47.312V114.75V114.781C110 121.958 104.534 127 97.8013 127H30.2605C23.5589 126.969 18 121.648 18 114.75Z"
        fill="#171F26" />
    <path d="M100.751 46.0938H27.2809V116.033H100.751V46.0938Z" fill="#E6E4E1" />
    <path
        d="M72.973 84.8857C72.973 86.1143 72.0286 87 71.0032 87C71.0032 87 57.9968 87 57.9698 87C56.9444 87 56 86.1143 56 84.8857V69.8857C56 68.1714 57.2952 67 58.7254 67H70.2746C71.8397 67 73 68.3143 73 69.8857V84.8857H72.973Z"
        fill="#171F26" />
    <path d="M64 87H59V107.317C59 110.894 64 110.894 64 107.317V87Z" fill="#171F26" />
    <path d="M70 87H65V107.317C65 110.894 70 110.894 70 107.317V87Z" fill="#171F26" />
    <path
        d="M64 66C66.2091 66 68 64.2091 68 62C68 59.7909 66.2091 58 64 58C61.7909 58 60 59.7909 60 62C60 64.2091 61.7909 66 64 66Z"
        fill="#171F26" />
    <path
        d="M49.973 84.8857C49.973 86.1143 49.0286 87 48.0032 87C48.0032 87 34.9968 87 34.9698 87C33.9444 87 33 86.1143 33 84.8857V69.8857C33 68.1714 34.2952 67 35.7254 67H47.2746C48.8397 67 50 68.3143 50 69.8857V84.8857H49.973Z"
        fill="#171F26" />
    <path d="M41 87H36V107.317C36 110.894 41 110.894 41 107.317V87Z" fill="#171F26" />
    <path d="M47 87H42V107.317C42 110.894 47 110.894 47 107.317V87Z" fill="#171F26" />
    <path
        d="M41 66C43.2091 66 45 64.2091 45 62C45 59.7909 43.2091 58 41 58C38.7909 58 37 59.7909 37 62C37 64.2091 38.7909 66 41 66Z"
        fill="#171F26" />
    <path
        d="M95.973 84.8857C95.973 86.1143 95.0286 87 94.0032 87C94.0032 87 80.9968 87 80.9698 87C79.9444 87 79 86.1143 79 84.8857V69.8857C79 68.1714 80.2952 67 81.7254 67H93.2746C94.8397 67 96 68.3143 96 69.8857V84.8857H95.973Z"
        fill="#171F26" />
    <path d="M87 87H82V107.317C82 110.894 87 110.894 87 107.317V87Z" fill="#171F26" />
    <path d="M93 87H88V107.317C88 110.894 93 110.894 93 107.317V87Z" fill="#171F26" />
    <path
        d="M87 66C89.2091 66 91 64.2091 91 62C91 59.7909 89.2091 58 87 58C84.7909 58 83 59.7909 83 62C83 64.2091 84.7909 66 87 66Z"
        fill="#171F26" />
    <g clip-path="url(#clip0_2419_44153)">
        <path
            d="M97 16.0074L81.9926 31L67 16.0074L70.7704 12.237L79.3355 20.7872V1H84.6645V20.7872L93.2147 12.237L97 16.0074Z"
            fill="#171F26" />
    </g>
    <g clip-path="url(#clip1_2419_44153)">
        <path
            d="M31 15.9926L46.0074 1L61 15.9926L57.2296 19.763L48.6645 11.2128V31H43.3355V11.2128L34.7853 19.763L31 15.9926Z"
            fill="#171F26" />
    </g>
    <defs>
        <clipPath id="clip0_2419_44153">
            <rect width="30" height="30" fill="white" transform="translate(67 1)" />
        </clipPath>
        <clipPath id="clip1_2419_44153">
            <rect width="30" height="30" fill="white" transform="translate(31 1)" />
        </clipPath>
    </defs>
</svg>