<svg viewBox="0 0 128 128" fill="none" xmlns="http://www.w3.org/2000/svg">
    <g clip-path="url(#clip0_2087_5031)">
        <path fill-rule="evenodd" clip-rule="evenodd"
            d="M0 64C0 99.3458 28.6533 128 64 128C99.3466 128 128 99.3458 128 64C128 28.6533 99.3466 0 64 0C28.6533 0 0 28.6533 0 64ZM17.5878 73.6313C16.8595 73.0261 16.7632 71.9437 17.3731 71.2194L27.9707 58.6348C28.5765 57.9154 29.6502 57.8217 30.3715 58.4254L53.6 77.8667L91.2399 28.5454C91.8084 27.8005 92.871 27.6533 93.6206 28.2155L106.863 38.1471C107.632 38.7238 107.773 39.8214 107.175 40.574L56.8186 103.967C56.2232 104.717 55.1277 104.83 54.3914 104.218L17.5878 73.6313Z" />
    </g>
    <defs>
        <clipPath id="clip0_2087_5031">
            <rect width="128" height="128" fill="white" />
        </clipPath>
    </defs>
</svg>