<?xml version="1.0" encoding="UTF-8"?>
<svg width="128px" height="128px" viewBox="0 0 128 128" version="1.1" xmlns="http://www.w3.org/2000/svg" xmlns:xlink="http://www.w3.org/1999/xlink">
    <!-- Generator: Sketch 62 (91390) - https://sketch.com -->
    <title>Icon/Accessible</title>
    <desc>Created with Sketch.</desc>
    <g id="Icon/Accessible" stroke="none" stroke-width="1" fill="none" fill-rule="evenodd">
        <path d="M63.6480098,0.000902503616 C98.9874445,-0.184847449 127.009811,28.3258008 127.977635,63.6586531 C128.916397,97.9310025 100.182693,127.078166 64.3324188,127.999074 C28.9926265,128.187163 0.190854488,99.687443 0.000925514254,64.3422337 C-0.187134038,28.9970242 28.3082177,0.190837094 63.6480098,0.000902503616 Z M43.5309045,50.0013712 C33.0342186,54.7674466 26.0009255,65.5186054 26.0009255,77.0849641 C26.0009255,93.5633758 39.4817209,107.000903 56.011291,107.000903 C67.2649403,107.000903 77.8148799,100.456554 82.8549628,90.5243866 L82.8549628,90.5243866 L77.5429056,79.6917078 L77.4980392,80.0456501 C76.0647113,90.6376844 66.794435,98.8470083 55.9447238,98.8470083 C43.9550322,98.8470083 34.1753694,89.0987348 34.1753694,77.147526 C34.1753694,69.7728111 38.0020286,62.7374469 44.2098893,58.8377584 L44.2098893,58.8377584 Z M52.0244903,16.0009025 C47.5416694,16.0009025 43.8861828,19.6446562 43.8861828,24.1130888 C43.8861828,25.4761788 44.2684683,26.8714976 44.903709,28.0431104 C45.4038969,35.0618693 45.7790378,40.3259385 46.0291318,43.8353179 C46.4231541,49.3643351 47.0141875,57.6578609 47.8022321,68.7158951 L47.8022321,68.7158951 L77.6680518,68.7234783 L89.9183062,97.3332011 L106.000926,91.0447875 L103.511315,85.1355365 L94.5114384,88.3735861 L82.6567829,61.0966203 L54.8906808,61.2843058 L54.5064934,56.1333803 L74.6097675,56.1409635 L74.6097675,48.5216887 L53.7419223,48.5122097 L52.819492,32.1930463 L53.0713528,32.1658935 C57.0820612,31.6687769 60.1627978,28.1801893 60.1627978,24.1130888 C60.1627978,19.6446562 56.5054093,16.0009025 52.0244903,16.0009025 Z" id="Accessible" fill="#FFFFFF"></path>
    </g>
</svg>