<svg height="104" viewBox="0 0 118 104" width="118" xmlns="http://www.w3.org/2000/svg"><g fill="none" fill-rule="evenodd" transform="translate(8.888889 8)"><path d="m47.9603984-3.7163296c2.0583708-.55122028 4.3267157-.31604711 6.3170851.83664844 1.2609649.73027081 2.3085476 1.77932946 3.0375648 3.04253842l45.7909037 79.34446834c1.148128 1.9894255 1.382824 4.2566995.833759 6.3142031-.549525 2.059227-1.883852 3.9078555-3.871323 5.0588727-1.2665691.7335161-2.7037563 1.1195986-4.1667323 1.1195986h-91.58180809c-2.29826117 0-4.37926307-.9326499-5.88549176-2.4415139-1.50370016-1.5063311-2.43435585-3.5871431-2.43435585-5.8858918 0-1.4625066.38485159-2.8991449 1.11555097-4.1652687l45.79090403-79.34446834c1.1497994-1.99232191 2.9972998-3.32842913 5.0539434-3.87918686z" fill="#fff" stroke="#e6e4e1" stroke-width="8"/><path d="m46.1650323.58174008c.6560047.37933802 1.2008985.92435428 1.5801512 1.58050653l45.8607072 79.34446839c1.1959132 2.0690717.4884554 4.716083-1.5801512 5.9122651-.658218.3806179-1.4050925.5810199-2.1653923.5810199h-91.72141446c-2.38942282 0-4.32643274-1.9374455-4.32643274-4.3274057 0-.7604708.20035694-1.5075133.58088922-2.1658793l45.86070728-79.34446839c1.1959131-2.06907177 3.8423293-2.77668865 5.9109358-1.58050653zm2.5325453 66.85478962h-9.3034886c-.8512952 0-1.5414064.6901111-1.5414064 1.5414064v9.3034886c0 .8512952.6901112 1.5414064 1.5414064 1.5414064h9.3034886c.8512953 0 1.5414064-.6901112 1.5414064-1.5414064v-9.3034886c0-.8512953-.6901111-1.5414064-1.5414064-1.5414064zm1.2769102-39.9114155-11.9054075.0007506-.0480517.0022511c-.8496374.0531024-1.4953567.7849175-1.4422544 1.6345549l1.8717078 29.9473242c.0507734.812375.7244445 1.4452561 1.5384046 1.4452561h8.1138934c.8139602 0 1.4876312-.6328811 1.5384047-1.4452561l1.8717077-29.9473242c.0020007-.032011.0030018-.0640767.0030018-.0961503 0-.8512952-.6901111-1.5414063-1.5414064-1.5414063z" fill="#171f26" transform="translate(6.111111)"/></g></svg>