<svg height="104" viewBox="0 0 117 104" width="119" xmlns="http://www.w3.org/2000/svg"><g fill="none" fill-rule="evenodd" transform="translate(8 8)"><path d="m78.0673441-4 27.5444609 48.0018267-27.5445525 47.9981733h-55.134505l-27.54455291-47.9981733 27.54446131-48.0018267z" fill="#171f26" stroke="#171f26" stroke-linejoin="round" stroke-width="8"/><path d="m43.5274687 47.6124865h-11.054177l-5.5267084-9.6119111 5.5267084-9.6126747h11.054177l5.5267084 9.6126747zm35.5350313-11.902643h-9.7356146l4.8674271-8.4673087c.6303854-1.0957335.2562604-2.4961342-.8349375-3.1291398-1.0919583-.6330056-2.4850417-.256562-3.1154271.8384079l-6.1852291 10.7580406h-11.0541771l-5.5267084-9.6126747 5.5267084-9.6126747h12.3704583c1.2607708 0 2.28125-1.0254843 2.28125-2.2907319 0-1.264484-1.0204792-2.2907319-2.28125-2.2907319h-9.7356146l4.8674271-8.46654516c.6303854-1.09573343.2562604-2.49689778-.8349375-3.12913979-1.0904375-.63300559-2.4850417-.25656198-3.1154271.83840788l-4.8689479 8.46730873-4.8681875-8.46730873c-.629625-1.09496986-2.0227083-1.47064989-3.1161875-.83840788-1.0904375.63224201-1.4645625 2.03340636-.8341771 3.12913979l6.1852292 10.75727706-5.5267083 9.6126747h-11.0541771l-5.5267084-9.6126747 6.1852292-10.75727706c.6303854-1.09573343.2562604-2.49689778-.8349375-3.12913979-1.0911979-.63300559-2.4850417-.25656198-3.1154271.83840788l-4.8689479 8.46730873-4.8681875-8.46730873c-.629625-1.09496986-2.0234687-1.47064989-3.1161875-.83840788-1.0904375.63224201-1.4645625 2.03340636-.8341771 3.12913979l4.8674271 8.46654516h-9.736375c-1.26001042 0-2.28125 1.0262479-2.28125 2.2907319 0 1.2652476 1.02123958 2.2907319 2.28125 2.2907319h12.3712188l5.5267083 9.6126747-5.5267083 9.6126747h-11.0541771l-6.1852292-10.7580406c-.629625-1.0949699-2.02270833-1.4698864-3.1161875-.8384079-1.0904375.6330056-1.4645625 2.0334063-.83417708 3.1291398l4.86742708 8.4673087h-9.736375c-1.26001042 0-2.28125 1.0254843-2.28125 2.2907319 0 1.264484 1.02123958 2.2907319 2.28125 2.2907319h9.736375l-4.86742708 8.4665452c-.63038542 1.0957334-.25626042 2.4968978.83417708 3.1291398.35967708.2084566.75205208.3069581 1.13910417.3069581.78855208 0 1.55429166-.4108046 1.97708333-1.145366l6.1852292-10.7572771h11.0541771l5.5267083 9.6119112-5.5267083 9.6119111h-12.3712188c-1.26001042 0-2.28125 1.0262479-2.28125 2.2907319 0 1.2652476 1.02123958 2.2907319 2.28125 2.2907319h9.7371354l-4.8681875 8.4673087c-.6303854 1.0957335-.2562604 2.4961342.8341771 3.1291398.3596771.2084566.7520521.3069581 1.1391042.3069581.7885521 0 1.5542916-.4108046 1.9770833-1.145366l4.8681875-8.4673087 4.8689479 8.4673087c.4220313.7345614 1.1885313 1.145366 1.9770834 1.145366.387052 0 .779427-.099265 1.1383437-.3069581 1.0911979-.6330056 1.4653229-2.0334063.8349375-3.1291398l-6.1852292-10.7580406 5.5267084-9.6119111h11.0541771l5.5267083 9.6119111-6.1852292 10.7580406c-.6303854 1.0957335-.2562604 2.4961342.8341771 3.1291398.3596771.2084566.7520521.3069581 1.1391042.3069581.7885521 0 1.5542916-.4108046 1.9770833-1.145366l4.8681875-8.4673087 4.8689479 8.4673087c.4220313.7345614 1.1885313 1.145366 1.9770834 1.145366.387052 0 .779427-.099265 1.1383437-.3069581 1.0911979-.6330056 1.4653229-2.0334063.8349375-3.1291398l-4.8681875-8.4673087h9.736375c1.2607708 0 2.28125-1.0254843 2.28125-2.2907319 0-1.264484-1.0204792-2.2907319-2.28125-2.2907319h-12.3704583l-5.5267084-9.6119111 5.5267084-9.6119112h11.0541771l6.1852291 10.7572771c.4220313.7345614 1.1885313 1.145366 1.9770833 1.145366.3870521 0 .7794271-.0985015 1.1383438-.3069581 1.0911979-.632242 1.4653229-2.0334064.8349375-3.1291398l-4.8674271-8.4665452h9.7356146c1.2607708 0 2.28125-1.0262479 2.28125-2.2907319 0-1.2652476-1.0204792-2.2907319-2.28125-2.2907319z" fill="#fff" transform="translate(13 6)"/></g></svg>
