<svg height="192" viewBox="0 0 212 192" width="212" xmlns="http://www.w3.org/2000/svg"><g fill="none" fill-rule="evenodd" transform="translate(24 24)"><path d="m77.0696723-11.3501567c4.718693-1.2636398 9.9187804-.7246766 14.4816216 1.9178313 2.8897044 1.67353329 5.2905466 4.07750525 6.9612225 6.97237907l74.9305706 129.83640233c2.630229 4.557546 3.16805 9.751613 1.910195 14.465156-1.259235 4.718713-4.317271 8.954419-8.871418 11.591892-2.903502 1.681524-6.198148 2.566496-9.551882 2.566496h-149.86114046c-5.26811126 0-10.03844163-2.137457-13.49112045-5.596177-3.44509322-3.45112-5.57772109-8.218305-5.57772109-13.485032 0-3.350514.8817566-6.641735 2.5557369-9.542335l74.9305702-129.83640233c2.6352439-4.56623496 6.869854-7.62795827 11.5833652-8.89021037z" fill="#000" stroke="#000" stroke-width="24"/><path d="m75.5427802.95193831c1.0734622.62073494 1.9651065 1.51257973 2.5857019 2.58628341l75.0447939 129.83640328c1.956949 3.385753.79929 7.717226-2.585702 9.674615-1.077084.622829-2.299243.95076-3.543369.95076h-150.08958779c-3.90996462 0-7.07961721-3.170365-7.07961721-7.081209 0-1.244407.32785681-2.46684.950546-3.544166l75.0447936-129.83640328c1.9569489-3.3857538 6.287448-4.54367233 9.6724406-2.58628341zm4.144165 109.39874669h-15.2238904c-1.3930286 0-2.5223014 1.129273-2.5223014 2.522301v15.223891c0 1.393028 1.1292728 2.522301 2.5223014 2.522301h15.2238904c1.3930286 0 2.5223014-1.129273 2.5223014-2.522301v-15.223891c0-1.393028-1.1292728-2.522301-2.5223014-2.522301zm2.0894894-65.3095891h-19.4028692c-.0524839 0-.1049551.0016381-.1573368.004912-1.3903158.0868947-2.4469473 1.2844104-2.3600526 2.6747262l3.0627945 49.0047123c.0830838 1.3293409 1.1854547 2.3649646 2.5173894 2.3649646h13.2772802c1.3319347 0 2.4343056-1.0356237 2.5173894-2.3649646l3.0627945-49.0047123c.0032738-.0523817.004912-.1048529.004912-.1573368 0-1.3930286-1.1292728-2.5223014-2.5223014-2.5223014z" fill="#fff" transform="translate(10)"/></g></svg>