<svg height="192" viewBox="0 0 214 192" width="219" xmlns="http://www.w3.org/2000/svg"><g fill="none" fill-rule="evenodd" transform="translate(24 24)"><path d="m131.435659-12 48.414864 84.0030978-48.415139 83.9969022h-96.8707681l-48.4151389-83.9969022 48.4148638-84.0030978z" fill="#000" stroke="#000" stroke-linejoin="round" stroke-width="24"/><path d="m82.4730987 90.2131324h-20.9447566l-10.4716579-18.2120421 10.4716579-18.2134889h20.9447566l10.4716579 18.2134889zm67.3295333-22.5523763h-18.446428l9.222493-16.0433218c1.194415-2.0761265.485546-4.7295174-1.581986-5.9288964-2.068974-1.199379-4.7085-.4861175-5.902915 1.5885623l-11.719382 20.3836559h-20.944756l-10.471658-18.2134889 10.471658-18.2134889h23.438763c2.388829 0 4.322368-1.9430229 4.322368-4.3403341 0-2.3958645-1.933539-4.3403342-4.322368-4.3403342h-18.446428l9.222494-16.04187499c1.194414-2.07612651.485546-4.73096423-1.581987-5.92889646-2.066092-1.199379-4.7085-.48611742-5.902914 1.5885623l-9.2253755 16.04332185-9.2239342-16.04332185c-1.1929737-2.07467972-3.8325-2.78649453-5.9043552-1.5885623-2.0660922 1.19793223-2.7749606 3.85276995-1.5805461 5.92889646l11.7193816 20.38220919-10.4716579 18.2134889h-20.9447566l-10.4716579-18.2134889 11.7193816-20.38220919c1.1944145-2.07612651.485546-4.73096423-1.5819869-5.92889646-2.0675328-1.199379-4.7085-.48611742-5.9029144 1.5885623l-9.225375 16.04332185-9.2239342-16.04332185c-1.1929737-2.07467972-3.8339408-2.78649453-5.9043553-1.5885623-2.0660921 1.19793223-2.7749605 3.85276995-1.5805461 5.92889646l9.2224935 16.04187499h-18.4478685c-2.3873881 0-4.3223684 1.9444697-4.3223684 4.3403342 0 2.3973112 1.9349803 4.3403341 4.3223684 4.3403341h23.440204l10.4716579 18.2134889-10.4716579 18.2134889h-20.9447566l-11.7193816-20.3836559c-1.19297365-2.0746798-3.83249996-2.7850478-5.90435523-1.5885623-2.0660921 1.199379-2.77496052 3.8527699-1.58054605 5.9288964l9.22249338 16.0433218h-18.44786838c-2.38738816 0-4.32236842 1.9430229-4.32236842 4.3403342 0 2.3958644 1.93498026 4.3403341 4.32236842 4.3403341h18.44786838l-9.22249338 16.0418751c-1.19441447 2.0761265-.48554605 4.7309642 1.58054605 5.9288964.68149342.3949704 1.42494079.5816048 2.15830264.5816048 1.49409868 0 2.94497369-.7783666 3.74605259-2.1701671l11.7193816-20.3822092h20.9447566l10.4716579 18.2120421-10.4716579 18.2120425h-23.440204c-2.3873881 0-4.3223684 1.944469-4.3223684 4.340334 0 2.397311 1.9349803 4.340334 4.3223684 4.340334h18.4493093l-9.2239343 16.043322c-1.1944144 2.076126-.485546 4.729517 1.5805461 5.928896.6814934.394971 1.4249408.581605 2.1583026.581605 1.4940987 0 2.9449737-.778367 3.7460527-2.170167l9.2239342-16.043322 9.225375 16.043322c.7996381 1.3918 2.2519539 2.170167 3.7460526 2.170167.7333618 0 1.4768092-.188081 2.1568618-.581605 2.0675329-1.199379 2.7764014-3.85277 1.5819869-5.928896l-11.7193816-20.383656 10.4716579-18.2120423h20.9447566l10.4716579 18.2120423-11.7193816 20.383656c-1.1944145 2.076126-.4855461 4.729517 1.5805461 5.928896.6814934.394971 1.4249407.581605 2.1583026.581605 1.4940987 0 2.9449737-.778367 3.7460526-2.170167l9.2239342-16.043322 9.2253755 16.043322c.799638 1.3918 2.251953 2.170167 3.746052 2.170167.733362 0 1.476809-.188081 2.156862-.581605 2.067533-1.199379 2.776401-3.85277 1.581987-5.928896l-9.223934-16.043322h18.447868c2.388829 0 4.322368-1.943023 4.322368-4.340334 0-2.395865-1.933539-4.340334-4.322368-4.340334h-23.438763l-10.471658-18.2120425 10.471658-18.2120421h20.944756l11.719382 20.3822092c.799638 1.3918005 2.251954 2.1701671 3.746053 2.1701671.733362 0 1.476809-.1866344 2.156862-.5816048 2.067532-1.1979322 2.776401-3.8527699 1.581986-5.9288964l-9.222493-16.0418751h18.446428c2.388829 0 4.322368-1.9444697 4.322368-4.3403341 0-2.3973113-1.933539-4.3403342-4.322368-4.3403342z" fill="#fff" transform="translate(11)"/></g></svg>
