<svg width="163" height="163" viewBox="0 0 163 163" fill="none" xmlns="http://www.w3.org/2000/svg">
<circle cx="81.5" cy="81.5" r="81.5" fill="#E5E4E1"/>
<g clip-path="url(#clip0_3201_19631)">
<path d="M82 18C117.346 18 146 46.6538 146 82C146 117.346 117.346 146 82 146C46.6538 146 18 117.346 18 82C18 46.6538 46.6538 18 82 18ZM75 68.0156C73.8954 68.0156 73 68.9111 73 70.0156V119.016C73 120.12 73.8954 121.016 75 121.016H89C90.1046 121.016 91 120.12 91 119.016V70.0156C91 68.9111 90.1046 68.0156 89 68.0156H75ZM75 43.0156C73.8954 43.0156 73 43.9111 73 45.0156V57.0156C73 58.1202 73.8954 59.0156 75 59.0156H89C90.1046 59.0156 91 58.1202 91 57.0156V45.0156C91 43.9111 90.1046 43.0156 89 43.0156H75Z" fill="#171F26"/>
</g>
<defs>
<clipPath id="clip0_3201_19631">
<rect width="128" height="128" fill="white" transform="translate(18 18)"/>
</clipPath>
</defs>
</svg>
