<svg height="104" viewBox="0 0 104 104" width="104" xmlns="http://www.w3.org/2000/svg">
  <g fill="none" fill-rule="evenodd" transform="translate(8 8)">
    <path id="dark-area" d="m62.0107654-4c1.4239179 0 2.7895158.56564917 3.7963778 1.57251115l24.6203457 24.62034565c1.0068619 1.006862 1.5725111 2.3724599 1.5725111 3.7963778v35.0588226c0 1.388852-.538204 2.7236669-1.5015697 3.7240851l-24.6355334 25.583054c-1.0120576 1.0509828-2.4082697 1.6448037-3.8673192 1.6448037h-36.0063431c-1.4239179 0-2.7895158-.5656492-3.7963778-1.5725111l-24.62034565-24.6203457c-1.00686198-1.006862-1.57251115-2.3724599-1.57251115-3.7963778v-35.0588226c0-1.388852.53820401-2.7236669 1.5015697-3.7240851l24.6355334-25.58305396c1.0120576-1.05098287 2.4082697-1.64480374 3.8673192-1.64480374z" fill="#171f26" stroke="#171f26" stroke-width="8"/>
    <path id="light-area" d="m62.0107654 0c.3630519 0 .7112342.14422181.9679507.40093827l24.6203456 24.62034563c.2567165.2567165.4009383.6048988.4009383.9679507v35.0588226c0 .3541113-.1372242.6944449-.3828506.9495184l-24.6355334 25.5830539c-.2580411.2679658-.614029.4193705-.9860383.4193705h-36.0063431c-.3630519 0-.7112342-.1442218-.9679507-.4009383l-24.62034563-24.6203456c-.25671646-.2567165-.40093827-.6048988-.40093827-.9679507v-35.0588226c0-.3541113.1372242-.6944449.38285055-.9495184l24.63553345-25.58305391c.2580411-.26796583.614029-.41937049.9860383-.41937049zm-31.1495404 22.5787705c-.5388502-.5302842-1.4055549-.5233401-1.9358391.0155101l-7.0057081 7.1188751c-.5281428.5366741-.523697 1.3991354.0099503 1.9303363l13.1443034 13.0840462-13.1487825 13.3611819c-.0004799-.0002351-.0005984-.0001146-.0007169.0000059l-.0988538.1119811c-.4278971.5411281-.3880055 1.3290824.1154363 1.8234907l6.9740082 6.8580611c.539261.5295841 1.4056879.5224818 1.9361947-.0158716l13.1487825-13.3611818 13.1487825 13.3611818c.5305068.5383534 1.3969337.5454557 1.9361947.0158716l6.9740082-6.8580611c.0004759.0002429.0005964.0001244.0007169.0000058l.1006762-.1103455c.4367105-.5340406.4097417-1.322543-.0855275-1.825138l-13.1487825-13.3611819 13.1443034-13.0840462c.5336473-.5312009.5380931-1.3936622.0099503-1.9303363l-7.0057081-7.1188751c-.0018289-.0018585-.0036632-.0037118-.0055027-.0055598-.5333548-.5358111-1.4000851-.5378023-1.9358962-.0044475l-13.1332152 13.0730088-13.1332152-13.0730088c-.0018481-.0018396-.0037013-.0036738-.0055598-.0055028z" fill="#e6e4e1"/>
  </g>
</svg>