<svg height="104" viewBox="0 0 104 104" width="104" xmlns="http://www.w3.org/2000/svg"><g fill="none" fill-rule="evenodd"><circle cx="52" cy="52" fill="#fff" r="48" stroke="#e6e4e1" stroke-width="8"/><path d="m43.7580068.00062047c24.2958613-.12770309 43.5612382 19.47336753 44.2266172 43.76470353.645399 23.5622402-19.1090223 43.6009151-43.7560861 44.2340396-24.2961072.1293109-44.09732544-19.4642465-44.22790161-43.7640779-.12929094-24.2998316 19.46126341-44.1040852 43.75737051-44.23466523zm.2616236 10.99937953c-5.5960972.1074701-11.1347509 1.1156859-16.389167 2.9833635-3.1609894 1.3632515-5.3124609 2.7137692-5.963181 6.1089824l-2.4172824 18.8168373v26.0316653h4.2433938v4.533621c.0057792 1.8624062 1.5636939 3.3706541 3.486913 3.3757486 1.9231025-.0054945 3.4806754-1.5138178 3.4863494-3.3761122v-4.5336213h27.1934879v4.5336213c-.0091876 1.2120406.653272 2.3358387 1.7356983 2.944442 1.082426.6086028 2.4186882.6086028 3.5011141 0 1.0824264-.6086033 1.7448859-1.7324014 1.7356984-2.944442v-4.5336213h4.1173451l-.0005634-26.0313014-2.4045087-18.8162916c-.6107075-3.3952131-2.7619912-4.7200812-5.9628051-6.1095281-5.2448641-1.8687788-10.7749461-2.8770753-16.3624924-2.9833635zm-17.0532191 38.6998692c2.0500837-.0038119 3.7152312 1.6024099 3.719293 3.5876708.0025315.9536637-.386589 1.8691756-1.0816296 2.5447986-.6950407.6756226-1.6389622 1.0559111-2.6237679 1.0570731-2.0500841.0036067-3.7150597-1.6027822-3.7189034-3.5880434-.0038303-1.9852608 1.6549242-3.5976738 3.7050079-3.6014991zm34.1782084.0000005c2.0482531-.0013047 3.7105386 1.6041852 3.7146097 3.5876703.0025289.9561245-.3886006 1.8737933-1.0868138 2.5498265-.6982129.6760335-1.6459046 1.0546565-2.6332483 1.052066-2.047686-.0039454-3.7055989-1.6136701-3.7042515-3.5971584.0013503-1.9834879 1.6614508-3.5910969 3.7097039-3.5924044zm-.4835363-27.806341c.9786838-.0097829 1.81873.6726511 1.9788352 1.6076738l1.9912336 14.8549671c.0266752.17051.0266752.3439384 0 .5144484v.1027802c.0024463.5110515-.2069537 1.0016849-.581271 1.3619437s-.8822496.5600157-1.4099626.5546149h-37.0946149c-.5286483-.0232047-1.0260608-.249126-1.3823981-.6279863-.3563372-.3788602-.5422871-.8794945-.5167879-1.3913525-.026488-.1705239-.026488-.3439249 0-.5144484l1.9912336-14.8549671c.1661605-.9365962 1.0099432-1.6177977 1.9912335-1.6076738zm-6.374953-6.1348821c.8655687 0 1.567251.6794953 1.567251 1.5176952 0 .8382-.7016823 1.5176952-1.567251 1.5176952h-20.4533502c-.8655689 0-1.5672511-.6794952-1.5672511-1.5176952 0-.8381999.7016822-1.5176952 1.5672511-1.5176952z" fill="#171f26" transform="translate(8 8)"/></g></svg>