<svg height="192" viewBox="0 0 192 192" width="192" xmlns="http://www.w3.org/2000/svg"><g fill="none" fill-rule="evenodd"><circle cx="96" cy="96" fill="#000" r="84" stroke="#000" stroke-width="24"/><path d="m71.6040111.00101532c39.7568639-.2089687 71.2820259 31.86551058 72.3708279 71.61496938 1.056108 38.5563933-31.269309 71.3469523-71.6008679 72.3829743-39.7572663.211599-72.1592598-31.850586-72.3729299-71.6139461-.21156699-39.7633607 31.8457037-72.17032117 71.6029699-72.38399758zm.4281113 17.99898468c-9.1572499.1758602-18.2205015 1.8256678-26.8186369 4.8818675-5.172528 2.2307753-8.6931178 4.4407133-9.7579325 9.9965167l-3.955553 30.7911883v42.5972705h6.9437354v7.418652c.0094567 3.047574 2.5587718 5.515616 5.7058576 5.523953 3.1468949-.008991 5.6956507-2.477157 5.7049354-5.524547v-7.418654h44.4984347v7.418654c-.0150342 1.983339 1.0689906 3.822281 2.8402336 4.818177 1.7712425.995896 3.9578533.995896 5.7290963 0s2.855267-2.834838 2.840233-4.818177v-7.418654h6.737474l-.000922-42.5966745-3.934651-30.7902953c-.999339-5.5558033-4.519621-7.7237692-9.757317-9.9974097-8.5825048-3.0580016-17.6317299-4.7079413-26.7749876-4.8818675zm-27.9052675 63.3270588c3.3546824-.0062378 6.0794692 2.6221252 6.0861158 5.8707339.0041425 1.5605406-.6326002 3.0586511-1.7699394 4.1642159-1.1373393 1.1055643-2.6819382 1.7278545-4.2934383 1.729756-3.3546831.0059019-6.0791887-2.6227345-6.0854783-5.8713438-.0062678-3.2486086 2.7080577-5.8871026 6.0627402-5.893362zm55.9279771.0000007c3.351687-.0021349 6.071791 2.6250304 6.078453 5.8707332.004138 1.5645674-.635892 3.0662073-1.778423 4.1724434-1.14253 1.1062366-2.693299 1.7258015-4.308952 1.7215625-3.3507589-.006456-6.0637072-2.640551-6.0615024-5.8862591.0022096-3.2457076 2.7187377-5.8763404 6.0704244-5.87848zm-.791241-45.5012853c1.601483-.0160084 2.976104 1.1007018 3.238094 2.6307389l3.258382 24.308128c.043651.2790164.043651.5628083 0 .8418247v.1681858c.004003.836266-.338651 1.6391207-.951171 2.2286352-.612519.5895144-1.443681.9163893-2.307211.9075515h-60.7002789c-.865061-.0379713-1.6790087-.4076606-2.262106-1.0276138-.5830973-.6199531-.8873789-1.4391728-.8456529-2.2767587-.043344-.279039-.043344-.5627862 0-.8418247l3.2583822-24.308128c.271899-1.5326118 1.6526344-2.6473052 3.2583821-2.6307389zm-10.4317413-10.0388979c1.4163852 0 2.5645927 1.1119014 2.5645927 2.4835013 0 1.3715998-1.1482075 2.4835012-2.5645927 2.4835012h-33.4691184c-1.4163855 0-2.5645928-1.1119014-2.5645928-2.4835012 0-1.3715999 1.1482073-2.4835013 2.5645928-2.4835013z" fill="#fff" transform="translate(24 24)"/></g></svg>