<?xml version="1.0" encoding="UTF-8"?>
<svg width="128px" height="128px" viewBox="0 0 128 128" version="1.1" xmlns="http://www.w3.org/2000/svg" xmlns:xlink="http://www.w3.org/1999/xlink">
    <g id="Icon/Alert" stroke="none" stroke-width="1" fill="none" fill-rule="evenodd">
        <path d="M67.1491379,0.846167388 C68.1033266,1.39793178 68.8958993,2.1906827 69.4475396,3.14508598 L136.154023,118.555222 C137.893533,121.564781 136.864503,125.414979 133.855621,127.15488 C132.898213,127.708506 131.81185,128 130.70596,128 L-2.70700692,128 C-6.18253103,128 -9,125.181897 -9,121.705592 C-9,120.599452 -8.70857172,119.512845 -8.15507022,118.555222 L58.551413,3.14508598 C60.2909231,0.135527038 64.1402556,-0.893733873 67.1491379,0.846167388 Z M71.1531324,98.0894977 L56.9802009,98.0894977 C55.9188458,98.0894977 55.0584475,98.949896 55.0584475,100.011251 L55.0584475,100.011251 L55.0584475,114.184183 C55.0584475,115.245538 55.9188458,116.105936 56.9802009,116.105936 L56.9802009,116.105936 L71.1531324,116.105936 C72.2144875,116.105936 73.0748858,115.245538 73.0748858,114.184183 L73.0748858,114.184183 L73.0748858,100.011251 C73.0748858,98.949896 72.2144875,98.0894977 71.1531324,98.0894977 L71.1531324,98.0894977 Z M73.0310995,40.0365297 L55.0422667,40.0374655 L54.9823581,40.0402721 C53.9230699,40.1064777 53.1180173,41.0188706 53.1842228,42.0781588 L53.1842228,42.0781588 L55.9467434,86.2784876 C56.0100453,87.2913187 56.8499469,88.0803653 57.8647543,88.0803653 L57.8647543,88.0803653 L70.268579,88.0803653 C71.2833864,88.0803653 72.123288,87.2913187 72.18659,86.2784876 L72.18659,86.2784876 L74.9491105,42.0781588 C74.9516049,42.0382489 74.952853,41.9982709 74.952853,41.9582831 C74.952853,40.896928 74.0924547,40.0365297 73.0310995,40.0365297 L73.0310995,40.0365297 Z" id="Alert" fill="#FFFFFF"></path>
    </g>
</svg>
