<svg height="192" viewBox="0 0 192 192" width="192" xmlns="http://www.w3.org/2000/svg"><g fill="none" fill-rule="evenodd" transform="translate(24 24)"><path d="m101.472162-12c3.776682 0 7.398682 1.5002814 10.0692 4.17079944l40.287839 40.28783836c2.670518 2.670518 4.170799 6.2925178 4.170799 10.0692006v57.3689824c0 3.6836772-1.427488 7.2240302-3.98264 9.8774572l-40.312691 41.86318c-2.684299 2.78754-6.387497 4.362542-10.25736 4.362542h-58.9194706c-3.7766828 0-7.3986826-1.500281-10.0692006-4.170799l-40.28783836-40.287839c-2.67051804-2.670518-4.17079944-6.292518-4.17079944-10.0692v-57.3689828c0-3.6836772 1.4274881-7.2240305 3.98264016-9.8774577l40.31269104-41.86317912c2.6842984-2.78754068 6.3874967-4.36254238 10.2573599-4.36254238z" fill="#000" stroke="#000" stroke-width="24"/><path d="m101.472162 0c.594085 0 1.163837.23599932 1.583919.65608081l40.287838 40.28783839c.420082.4200815.656081.9898342.656081 1.5839192v57.3689824c0 .5794552-.224549 1.1363642-.626483 1.5537572l-40.312691 41.863179c-.422249.43849-1.004775.686243-1.613517.686243h-58.9194706c-.594085 0-1.1638377-.235999-1.5839192-.656081l-40.28783839-40.287838c-.42008149-.420082-.65608081-.989834-.65608081-1.583919v-57.3689828c0-.5794549.2245487-1.1363644.62648272-1.5537574l40.31269108-41.86317918c.4222492-.43848954 1.0047747-.68624262 1.6135173-.68624262zm-4.8136161 36.9633613c-.8727624-.8767818-2.2910482-.8800402-3.1678301-.0072778l-21.4907158 21.3921963-21.4907158-21.3921963-.0090979-.0090045c-.8817548-.8677378-2.2999988-.8563748-3.1677367.0253801l-11.463886 11.6490684c-.8642335.878194-.8569587 2.2894943.0162823 3.1587322l21.5088602 21.4102574-21.5161896 21.8637522c-.0007852-.0003848-.0009792-.0001876-.0011731.0000096l-.1179351.1295408c-.7463693.8863555-.6955563 2.2120523.1450702 3.0375948l11.4120134 11.2222815c.8824271.866593 2.3002165.854971 3.1683186-.025971l21.5161895-21.8637524 21.5161895 21.8637524c.8681021.880942 2.2858915.892564 3.1683186.025971l11.4120139-11.2222815c.000778.0003976.000975.0002036.001173.0000096l.120043-.12759c.760799-.8740008.731726-2.2003524-.095255-3.0395648l-21.5161891-21.8637522 21.5088601-21.4102574c.873241-.8692379.880516-2.2805382.016282-3.1587322l-11.4638856-11.6490684c-.0029929-.0030412-.0059944-.0060738-.0090045-.0090978z" fill="#fff"/></g></svg>