<?xml version="1.0" encoding="UTF-8"?>
<svg width="128px" height="128px" viewBox="0 0 128 128" version="1.1" xmlns="http://www.w3.org/2000/svg" xmlns:xlink="http://www.w3.org/1999/xlink">
    <title>Icon/Bike</title>
    <g id="Icon/Bike" stroke="none" stroke-width="1" fill="none" fill-rule="evenodd">
        <path d="M84.1818038,31.0001572 C84.0158767,30.9984314 83.8499397,31.0108929 83.686905,31.0386919 L73.5949575,31.0789517 C72.8573973,31.069366 72.1466985,31.35598 71.622041,31.8745767 C71.0983656,32.3931735 70.8048785,33.100603 70.8077513,33.83775 C70.8106287,34.5748971 71.1098811,35.2804125 71.6383444,35.795181 C72.1668077,36.3099496 72.8794462,36.5908061 73.6170065,36.5745118 L82.2576012,36.5400016 L86.0690289,46.4699776 L52.1926726,46.4699776 L52.1926726,44.1588318 L56.7168862,44.1588318 L56.7159269,44.1597903 C57.4534871,44.1722518 58.1651435,43.8885043 58.6917162,43.3718462 C59.2182643,42.8551635 59.5146487,42.1486911 59.5146487,41.411544 C59.5146487,40.674397 59.2182888,39.9679245 58.6917162,39.4502848 C58.165168,38.9336022 57.4534871,38.6498745 56.7159269,38.6632977 L49.8908122,38.6632977 C49.5963675,38.6144098 49.2951952,38.6144098 48.999793,38.6632977 L42.1680489,38.6632977 C41.4304887,38.6498777 40.7188323,38.9336267 40.1922596,39.4502848 C39.6657115,39.9679245 39.3693271,40.674397 39.3693271,41.411544 C39.3693271,42.1486911 39.6656869,42.8551635 40.1922596,43.3718462 C40.7188077,43.8885289 41.4304887,44.1722565 42.1680489,44.1597903 L46.6922624,44.1597903 L46.6922624,48.1283452 L38.1454618,55.8919594 C34.6822016,53.6124452 30.5530526,52.2838923 26.1191957,52.2838923 C13.9095156,52.2838923 4,62.3490818 4,74.6341295 C4,86.9316925 13.9104977,96.9988452 26.1191957,96.9988452 C37.4051761,96.9988452 46.7249185,88.3964651 48.070446,77.3823267 L61.9075269,77.3823267 L61.9075269,77.3832853 C63.08533,77.5634997 64.2448899,76.9663072 64.7810139,75.9032489 L89.2480078,53.6776732 L90.4958127,56.1345845 C84.6260717,60.1644885 80.7616086,66.9666386 80.7616086,74.6352843 C80.7616086,86.9348105 90.6836464,97 102.880804,97 C115.090484,97 125,86.9330927 125,74.6352843 C125,62.3502366 115.090484,52.2850471 102.880804,52.2850471 C100.249905,52.2850471 97.7245857,52.7538038 95.3814526,53.6117105 L92.5845723,48.1028008 L86.8729553,33.2226834 C86.729087,32.5401862 86.3320189,31.9381791 85.7603907,31.5384525 C85.7239436,31.511611 85.6865389,31.4857315 85.6481742,31.4608065 C85.6357057,31.4531379 85.6232377,31.4454692 85.6107695,31.4378006 C85.1839573,31.1626864 84.6890586,31.0112276 84.1807291,31.0001572 L84.1818038,31.0001572 Z M54.0302016,51.9665487 L82.9541327,51.9665487 L63.0744546,70.0243076 L54.0302016,51.9665487 Z M48.7436043,53.6910247 L57.857098,71.8866964 L48.0693674,71.8866964 C47.4890963,67.1417066 45.4249638,62.8433386 42.3597146,59.4902386 L48.7436043,53.6917609 L48.7436043,53.6910247 Z M26.1181171,57.7803147 C28.9388142,57.7803147 31.5908293,58.4858301 33.9148107,59.733893 L19.7504326,72.6010216 L19.7504326,72.6019804 C18.9102391,73.3650167 18.6263524,74.5670678 19.0358789,75.6262488 C19.44543,76.6845219 20.4640042,77.383338 21.6004839,77.383338 L42.520736,77.383338 C41.2355116,85.427686 34.3979729,91.5032166 26.1188046,91.5032166 C16.919865,91.5032166 9.49908431,84.0034038 9.49908431,74.6351408 C9.49908431,65.2833194 16.919865,57.781298 26.1188046,57.781298 L26.1181171,57.7803147 Z M102.87948,57.7803147 C112.07842,57.7803147 119.4992,65.2820907 119.4992,74.6341575 C119.4992,84.0024205 112.07842,91.5022333 102.87948,91.5022333 C93.6960093,91.5022333 86.2597599,84.0004573 86.2597599,74.6341575 C86.2597599,69.0533466 88.9098107,64.1299533 92.9994287,61.067403 L100.509338,75.863104 L100.510297,75.8640625 C100.833519,76.5264372 101.409002,77.0306537 102.107227,77.2645412 C102.805478,77.4984337 103.568917,77.4428366 104.225918,77.1102088 C104.882918,76.7766166 105.377817,76.1947566 105.60226,75.4930939 C105.825735,74.7914067 105.757636,74.0293519 105.414274,73.3784618 L97.8881589,58.5511046 C99.4639975,58.0507163 101.140505,57.7813689 102.879378,57.7813689 L102.87948,57.7803147 Z M38.3162571,63.1628451 C40.4829002,65.5324443 41.9830651,68.539486 42.5190663,71.8859603 L28.7134138,71.8859603 L38.3162571,63.1628451 Z" id="Shape" fill="#FFFFFF" fill-rule="nonzero"></path>
    </g>
</svg>