<?xml version="1.0" encoding="UTF-8"?>
<svg width="462px" height="69px" viewBox="0 0 462 69" version="1.1" xmlns="http://www.w3.org/2000/svg" xmlns:xlink="http://www.w3.org/1999/xlink">
    <title>BlueBikes Logo</title>
    <g id="BlueBikes-Logo" stroke="none" stroke-width="1" fill="none" fill-rule="evenodd">
        <g id="Bluebikes_Logo-Copy" transform="translate(-0.000000, 0.000000)" fill-rule="nonzero">
            <g id="Group">
                <g transform="translate(0.000000, 0.786292)" fill="#171F26">
                    <path d="M0,0.00909687423 L31.0057803,0.00909687423 C42.5335705,-0.189750388 55.0551356,2.79295855 55.0551356,16.7122669 C55.0551356,22.6776848 51.4775456,27.4500191 46.3099155,30.2338807 C53.4650956,32.2223534 57.8377056,38.3866185 57.8377056,45.9428145 C57.8377056,61.8505954 46.1111605,66.6229297 31.9995554,66.6229297 L0,66.6229297 L0,0.00909687423 Z M17.2916852,26.2569355 L30.8070253,26.2569355 C33.7883504,26.2569355 37.9622054,24.6661574 37.9622054,19.8938231 C37.9622054,15.1214888 34.5833704,13.5307107 30.8070253,13.5307107 L17.2916852,13.5307107 L17.2916852,26.2569355 Z M17.2916852,52.7036214 L31.2045353,52.7036214 C36.7696754,52.7036214 40.5460205,50.7151487 40.5460205,45.1474254 C40.5460205,39.1820075 36.3721654,37.3923822 31.2045353,37.3923822 L17.2916852,37.3923822 L17.2916852,52.7036214 Z" id="Shape"></path>
                    <polygon id="Path" points="63.9991107 0.00909687423 81.2907959 0.00909687423 81.2907959 51.7093851 112.296576 51.7093851 112.296576 66.6229297 63.9991107 66.6229297"></polygon>
                    <path d="M173.115607,39.1820075 C173.115607,58.470192 164.171632,68.2137078 144.097377,68.2137078 C124.023121,68.2137078 115.079146,58.6690392 115.079146,39.1820075 L115.079146,0.00909687423 L132.370831,0.00909687423 L132.370831,40.1762438 C132.370831,48.7266761 135.550912,53.1013159 144.097377,53.1013159 C152.643842,53.1013159 155.823922,48.7266761 155.823922,40.1762438 L155.823922,0.00909687423 L173.115607,0.00909687423 L173.115607,39.1820075 L173.115607,39.1820075 Z" id="Path"></path>
                    <polygon id="Path" points="181.860827 0.00909687423 234.928413 0.00909687423 234.928413 13.9284052 199.152512 13.9284052 199.152512 25.4615464 231.748333 25.4615464 231.748333 38.9831603 199.152512 38.9831603 199.152512 51.7093851 235.723433 51.7093851 235.723433 66.6229297 181.860827 66.6229297"></polygon>
                    <path d="M244.071143,0.00909687423 L254.605158,0.00909687423 L254.605158,24.6661574 L254.803913,24.6661574 C257.785238,20.0926704 263.747888,17.1099614 269.114273,17.1099614 C284.219653,17.1099614 291.772343,28.6431026 291.772343,42.7612583 C291.772343,55.6863303 285.213428,68.0148606 270.903068,68.0148606 C264.344153,68.0148606 257.387728,66.4240825 254.207648,60.0609701 L254.008893,60.0609701 L254.008893,66.6229297 L243.872388,66.6229297 L243.872388,0.00909687423 L244.071143,0.00909687423 Z M267.921743,25.4615464 C258.977768,25.4615464 254.406403,32.2223534 254.406403,42.562411 C254.406403,52.3059268 259.375278,59.4644283 267.921743,59.4644283 C277.660738,59.4644283 281.238328,50.913996 281.238328,42.562411 C281.238328,33.8131315 276.666963,25.4615464 267.921743,25.4615464" id="Shape"></path>
                    <rect id="Rectangle" x="297.138728" y="18.303045" width="10.5340151" height="48.3198847"></rect>
                    <polygon id="Path" points="315.225434 0.00909687423 325.759449 0.00909687423 325.759449 37.7900767 345.038684 18.303045 357.957759 18.303045 339.672299 36.0004513 359.746554 66.6229297 346.827479 66.6229297 332.119609 43.1589528 325.759449 49.3232179 325.759449 66.6229297 315.225434 66.6229297"></polygon>
                    <path d="M366.901734,45.3462727 C366.901734,52.9024686 371.075589,59.6632755 379.820809,59.6632755 C385.982214,59.6632755 389.758559,56.8794139 391.547354,51.7093851 L401.683859,51.7093851 C399.298799,62.24829 390.354824,68.2137078 379.820809,68.2137078 C364.715429,68.2137078 356.168964,57.6748029 356.168964,42.7612583 C356.168964,29.0407972 365.112939,17.3088087 379.423299,17.3088087 C394.528679,17.3088087 403.870165,31.0292698 402.081369,45.5451199 L366.901734,45.5451199 L366.901734,45.3462727 Z M391.746109,38.1877712 C391.348599,31.4269643 386.777234,25.4615464 379.622054,25.4615464 C372.268119,25.4615464 367.299244,31.0292698 366.901734,38.1877712 L391.746109,38.1877712 L391.746109,38.1877712 Z" id="Shape"></path>
                    <path d="M414.80169,50.913996 C415.397955,57.0782611 419.96932,59.265581 425.733215,59.265581 C429.708315,59.265581 436.66474,58.470192 436.465985,52.9024686 C436.26723,47.3347453 428.515785,46.7382035 420.76434,44.9485781 C413.012895,43.3578 405.26145,40.3750911 405.26145,30.6315753 C405.26145,20.0926704 416.590485,16.9111142 425.335705,16.9111142 C435.273455,16.9111142 444.21743,21.0869067 445.40996,31.8246588 L434.27968,31.8246588 C433.285905,26.8534773 429.11205,25.4615464 424.540685,25.4615464 C421.55936,25.4615464 415.795465,26.2569355 415.795465,30.432728 C415.795465,35.6027568 423.54691,36.3981459 431.49711,38.1877712 C439.248555,39.9773966 447,42.7612583 447,52.3059268 C447,63.8390681 435.47221,68.0148606 425.53446,68.0148606 C413.410405,68.0148606 404.46643,62.6459845 404.267675,51.1128433 L414.80169,51.1128433 L414.80169,50.913996 Z" id="Path"></path>
                </g>
                <ellipse id="Oval" fill="#FF8F1C" cx="302.505113" cy="6.16426513" rx="6.16140507" ry="6.16426513"></ellipse>
            </g>
            <g id="Group" transform="translate(450.000000, 61.000000)" fill="#171F26">
                <path d="M0.983606557,4.87878788 C0.983606557,5.09090909 1.18032787,5.51515152 1.18032787,5.51515152 C1.37704918,5.72727273 1.7704918,5.93939394 2.36065574,5.93939394 C2.75409836,5.93939394 2.95081967,5.93939394 3.14754098,5.72727273 C3.54098361,5.51515152 3.73770492,5.3030303 3.73770492,4.87878788 C3.73770492,4.66666667 3.73770492,4.45454545 3.54098361,4.45454545 C3.3442623,4.24242424 3.14754098,4.24242424 2.75409836,4.24242424 L2.16393443,4.03030303 C1.57377049,3.81818182 0.983606557,3.60606061 0.786885246,3.60606061 C0.393442623,3.39393939 0.196721311,2.75757576 0.196721311,2.12121212 C0.196721311,1.48484848 0.393442623,1.06060606 0.786885246,0.636363636 C1.18032787,0.212121212 1.7704918,0 2.55737705,0 C3.14754098,0 3.73770492,0.212121212 4.32786885,0.636363636 C4.72131148,1.06060606 5.1147541,1.48484848 5.1147541,2.33333333 L3.93442623,2.33333333 C3.93442623,1.90909091 3.73770492,1.6969697 3.3442623,1.48484848 C3.14754098,1.27272727 2.95081967,1.27272727 2.55737705,1.27272727 C2.16393443,1.27272727 1.96721311,1.27272727 1.7704918,1.48484848 C1.57377049,1.6969697 1.37704918,1.90909091 1.37704918,2.12121212 C1.37704918,2.33333333 1.57377049,2.54545455 1.7704918,2.75757576 C1.96721311,2.75757576 2.16393443,2.96969697 2.55737705,2.96969697 L3.73770492,3.18181818 C4.13114754,3.39393939 4.52459016,3.39393939 4.72131148,3.60606061 C5.1147541,3.81818182 5.31147541,4.45454545 5.31147541,4.87878788 C5.31147541,5.51515152 5.1147541,5.93939394 4.72131148,6.36363636 C4.32786885,6.78787879 3.73770492,7 2.75409836,7 C1.96721311,7 1.37704918,6.78787879 0.786885246,6.36363636 C0.393442623,5.93939394 0,5.51515152 0,4.66666667 L0.983606557,4.66666667 L0.983606557,4.87878788 Z" id="Path"></path>
                <path d="M10.0327869,0.212121212 L12,0.212121212 L12,7 L10.6229508,7 L10.6229508,2.54545455 C10.6229508,2.33333333 10.6229508,2.33333333 10.6229508,1.90909091 C10.6229508,1.6969697 10.6229508,1.48484848 10.6229508,1.27272727 L9.44262295,7 L8.26229508,7 L7.08196721,1.27272727 C7.08196721,1.48484848 7.08196721,1.48484848 7.08196721,1.90909091 C7.08196721,2.12121212 7.08196721,2.33333333 7.08196721,2.54545455 L7.08196721,7 L5.90163934,7 L5.90163934,0.212121212 L7.86885246,0.212121212 L9.04918033,5.51515152 L10.0327869,0.212121212 Z" id="Path"></path>
            </g>
        </g>
    </g>
</svg>