<?xml version="1.0" encoding="UTF-8"?>
<svg width="128px" height="128px" viewBox="0 0 128 128" version="1.1" xmlns="http://www.w3.org/2000/svg" xmlns:xlink="http://www.w3.org/1999/xlink">
    <!-- Generator: Sketch 62 (91390) - https://sketch.com -->
    <title>Icon/Bus 2</title>
    <desc>Created with Sketch.</desc>
    <g id="Icon/Bus-2" stroke="none" stroke-width="1" fill="none" fill-rule="evenodd">
        <path d="M111.998907,58.1269008 L107.335618,21.6346989 C106.151215,15.0500431 101.979029,12.480602 95.7713897,9.78591704 C85.5995321,6.16161887 74.8745245,4.20613473 64.038071,4 C53.1850341,4.20842687 42.4434026,6.16375445 32.2530198,9.78591704 C26.1226163,12.4297988 21.9500655,15.0489847 20.6880628,21.6336405 L16,58.1269008 L16,108.612555 L24.2296123,108.612555 L24.2296123,117.405032 C24.2408203,121.016971 27.2622307,123.942058 30.9921102,123.951938 C34.7217635,123.941282 37.742511,121.016049 37.7535151,117.404327 L37.7535151,108.611849 L90.4924007,108.611849 L90.4924007,117.404327 C90.4745824,119.754951 91.7593525,121.934438 93.8586035,123.114759 C95.9578539,124.29508 98.5493927,124.29508 100.648643,123.114759 C102.747894,121.934438 104.032664,119.754951 104.014846,117.404327 L104.014846,108.611849 L112,108.611849 L111.998907,58.1269008 Z M44.2817556,13.2288904 L83.9488589,13.2288904 C85.6275376,13.2288904 86.9883761,14.5466995 86.9883761,16.1722993 C86.9883761,17.7978992 85.6275376,19.1157082 83.9488589,19.1157082 L44.2817556,19.1157082 C42.6030765,19.1157082 41.2422383,17.7978992 41.2422383,16.1722993 C41.2422383,14.5466995 42.6030765,13.2288904 44.2817556,13.2288904 Z M24.525804,57.0543895 L28.3875904,28.2447563 C28.7098411,26.4283274 30.3462682,25.1072094 32.2493766,25.1268435 L96.3124042,25.1268435 C98.2104576,25.1078706 99.8396382,26.431379 100.150145,28.2447563 L104.011932,57.0543895 C104.063665,57.3850756 104.063665,57.7214215 104.011932,58.0521076 L104.011932,58.2514389 C104.016676,59.242569 103.610567,60.1941006 102.884618,60.8927843 C102.158669,61.5914681 101.173589,61.9788754 100.150145,61.968401 L28.2090739,61.968401 C27.1838164,61.923398 26.2191377,61.4852476 25.5280594,60.7504883 C24.8369811,60.015729 24.476351,59.044802 24.525804,58.0521076 C24.4744334,57.7213947 24.4744334,57.3851017 24.525804,57.0543895 Z M30.9921102,92.997647 C27.0161895,93.0046418 23.7871459,89.8892208 23.7796915,86.0390173 C23.772263,82.1888145 26.9892414,79.0617105 30.9651613,79.0542919 C34.9410813,79.0468989 38.1704582,82.1619959 38.1783356,86.0121987 C38.1832452,87.8617284 37.4285873,89.6372667 36.0806297,90.9475658 C34.7326721,92.2578641 32.9020363,92.9953933 30.9921102,92.997647 Z M90.0555942,86.0213801 C90.058213,82.1746156 93.2778019,79.0568286 97.2501715,79.0542928 C101.222541,79.0517625 104.446368,82.1654399 104.454263,86.0121987 C104.459168,87.8665008 103.700613,89.6462222 102.346503,90.9573168 C100.992393,92.2684121 99.1544455,93.0027112 97.2395971,92.9976872 C93.2683273,92.9900357 90.0529811,89.8681453 90.0555942,86.0213801 Z" id="Icon" fill="#FFFFFF"></path>
    </g>
</svg>