<?xml version="1.0" encoding="UTF-8"?>
<svg width="128px" height="128px" viewBox="0 0 128 128" version="1.1" xmlns="http://www.w3.org/2000/svg" xmlns:xlink="http://www.w3.org/1999/xlink">
    <g id="Icon/Bus" stroke="none" stroke-width="1" fill="none" fill-rule="evenodd">
        <path d="M63.6480098,0.000902503618 C98.9874445,-0.184847449 127.009811,28.3258008 127.977635,63.6586531 C128.916397,97.9310025 100.182693,127.078166 64.3324188,127.999074 C28.9926265,128.187163 0.190854488,99.687443 0.000925514254,64.3422337 C-0.187134038,28.9970242 28.3082177,0.190837094 63.6480098,0.000902503618 Z M64.0285533,16 C55.8887756,16.1563202 47.8325519,17.6228158 40.1897649,20.3394378 C35.5919622,22.3223491 32.4625491,24.2867385 31.5160471,29.2252304 L28,56.5951756 L28,94.4594161 L34.1722092,94.4594161 L34.1722092,101.053774 C34.1806152,103.762728 36.4466731,105.956543 39.2440827,105.963954 C42.0413226,105.955962 44.3068833,103.762037 44.3151363,101.053245 L44.3151363,94.4588866 L83.8693005,94.4588866 L83.8693005,101.053245 C83.8559368,102.816213 84.8195144,104.450829 86.3939526,105.33607 C87.9683904,106.22131 89.9120445,106.22131 91.4864822,105.33607 C93.0609205,104.450829 94.0244981,102.816213 94.0111344,101.053245 L94.0111344,94.4588866 L100,94.4588866 L99.9991805,56.5951756 L96.5017133,29.2260242 C95.6134115,24.2875323 92.4842716,22.3604515 87.8285423,20.3394378 C80.1996491,17.6212142 72.1558934,16.154601 64.0285533,16 Z M39.223871,72.2907189 C42.205811,72.2851742 44.6278437,74.6214969 44.6337517,77.509149 C44.6374339,78.8962963 44.0714404,80.22795 43.0604722,81.2106743 C42.049504,82.1933981 40.6765272,82.746545 39.2440827,82.7482352 C36.2621421,82.7534813 33.8403594,80.4169156 33.8347687,77.529263 C33.8291973,74.6416109 36.241931,72.2962828 39.223871,72.2907189 Z M88.9376286,72.2907196 C91.9169058,72.2888218 94.3347757,74.6240799 94.3406974,77.509149 C94.3443757,78.8998756 93.7754601,80.2346667 92.7598772,81.2179876 C91.7442949,82.2013091 90.3658341,82.7520334 88.9296979,82.7482654 C85.9512455,82.7425267 83.5397358,80.401109 83.5416957,77.5160351 C83.5436598,74.6309617 85.9583514,72.2926214 88.9376286,72.2907196 Z M88.2343031,31.8451326 C89.6578432,31.8309029 90.8797286,32.8235342 91.1126089,34.1835672 L94.0089487,55.7907921 C94.047749,56.0388067 94.047749,56.2910661 94.0089487,56.5390807 L94.0089487,56.6885792 C94.012507,57.4319268 93.707925,58.1455754 93.1634636,58.6695882 C92.6190021,59.1936011 91.8801915,59.4841565 91.1126089,59.4763007 L37.1568054,59.4763007 C36.3878623,59.4425485 35.6643533,59.1139357 35.1460445,58.5628662 C34.6277358,58.0117968 34.3572632,57.2836015 34.394353,56.5390807 C34.3558251,56.291046 34.3558251,56.0388263 34.394353,55.7907921 L37.2906928,34.1835672 C37.5323808,32.8212456 38.7597011,31.830407 40.1870325,31.8451326 L88.2343031,31.8451326 Z M78.9616442,22.9216678 C80.2206532,22.9216678 81.2412821,23.9100246 81.2412821,25.1292245 C81.2412821,26.3484244 80.2206532,27.3367811 78.9616442,27.3367811 L49.2113167,27.3367811 C47.9523074,27.3367811 46.9316787,26.3484244 46.9316787,25.1292245 C46.9316787,23.9100246 47.9523074,22.9216678 49.2113167,22.9216678 L78.9616442,22.9216678 Z" id="Bus" fill="#ffdd00"></path>
    </g>
</svg>
