<?xml version="1.0" encoding="UTF-8"?>
<svg width="128px" height="128px" viewBox="0 0 128 128" version="1.1" xmlns="http://www.w3.org/2000/svg" xmlns:xlink="http://www.w3.org/1999/xlink">
    <title>Icon/Delay</title>
    <g id="Icon/Delay" stroke="none" stroke-width="1" fill="none" fill-rule="evenodd">
        <path d="M64,0 C28.653776,0 0,28.653776 0,64 C0,99.346224 28.653776,128 64,128 C99.346224,128 128,99.346224 128,64 C127.961787,28.6696163 99.3303837,0.0382125206 64,0 Z M95.2373333,82.7466667 C93.6616713,85.1902902 90.458287,85.9888015 87.92,84.5706667 L61.2533333,68.5706667 C59.703641,67.5541806 58.7402492,65.8518574 58.6666667,64 L58.6666667,32 C58.6666667,29.0544813 61.0544813,26.6666667 64,26.6666667 C66.9455187,26.6666667 69.3333333,29.0544813 69.3333333,32 L69.3333333,60.9813333 L93.4133333,75.4293333 C95.9372251,76.9465845 96.7537616,80.2222804 95.2373333,82.7466667 Z" id="Delay" fill="#FFFFFF"></path>
    </g>
</svg>