<svg width="40px" height="40px" viewBox="0 0 40 40" version="1.1" xmlns="http://www.w3.org/2000/svg" xmlns:xlink="http://www.w3.org/1999/xlink">
    <title>Icon/Minimal/No-Service</title>
    <g id="Icon/Minimal/No-Service" stroke="none" stroke-width="1" fill="none" fill-rule="evenodd">
        <g id="Group-3">
            <path d="M5.12393071,7.31187119 L7.2538787,5.15440369 C8.49791445,3.89429467 10.5279249,3.8812647 11.7880339,5.12530045 C11.7899564,5.12719838 11.7918764,5.12909874 11.7937941,5.13100152 L19.999709,13.2733077 L19.999709,13.2733077 L28.2056239,5.13100152 C29.4625843,3.88378453 31.4926212,3.89168313 32.7398382,5.14864354 C32.741741,5.15056119 32.7436414,5.15248124 32.7455393,5.15440369 L34.8754873,7.31187119 C36.1173001,8.56972851 36.1068585,10.595337 34.8521442,11.8403253 L26.6347233,19.9940483 L26.6347233,19.9940483 L34.8617744,28.327395 C36.1058101,29.5875041 36.0927802,31.6175145 34.8326711,32.8615502 C34.8299659,32.8642209 34.827256,32.8668868 34.8245413,32.8695478 L32.7688096,34.8846695 C31.5074629,36.1210988 29.4836922,36.1045095 28.2427842,34.8475686 L19.999709,26.4979907 L19.999709,26.4979907 L11.7566338,34.8475686 C10.5157258,36.1045095 8.49195513,36.1210988 7.23060841,34.8846695 L5.17487666,32.8695478 C3.91035069,31.630002 3.89010026,29.6000508 5.12964605,28.3355248 C5.13230709,28.3328101 5.13497295,28.3301002 5.13764363,28.327395 L13.3646947,19.9940483 L13.3646947,19.9940483 L5.1472738,11.8403253 C3.89255947,10.595337 3.88211794,8.56972851 5.12393071,7.31187119 Z" id="No-service" fill="#B3B1AF"></path>
            <rect id="Spacer" x="0" y="0" width="40" height="40"></rect>
        </g>
    </g>
</svg>