<svg width="40px" height="40px" viewBox="0 0 40 40" version="1.1" xmlns="http://www.w3.org/2000/svg" xmlns:xlink="http://www.w3.org/1999/xlink">
    <title>Icon/Minimal/Service</title>
    <g id="Icon/Minimal/Service" stroke="none" stroke-width="1" fill="none" fill-rule="evenodd">
        <g id="Group-4">
            <path d="M3.13520838,24.7325778 L14.7530707,34.3004426 C16.1199417,35.4261263 18.1405565,35.2306052 19.2662401,33.8637342 C19.2752129,33.8528389 19.2841137,33.8418844 19.2929418,33.8308716 L37.3288765,11.3315452 C38.4364106,9.94992724 38.2142217,7.93207079 36.8326037,6.82453668 C36.802089,6.8000754 36.7711292,6.77617449 36.73974,6.75284596 L35.1930152,5.60331752 C33.7889878,4.55984203 31.8076886,4.83439896 30.7403166,6.22034662 L16.3614984,24.8907714 L16.3614984,24.8907714 L8.4566924,18.3347627 C7.10526306,17.2139278 5.10370802,17.3885228 3.96675298,18.7264187 L2.73027938,20.1814217 C1.58361626,21.5307414 1.7479019,23.5541353 3.09722163,24.7007984 C3.10980187,24.7114892 3.1224645,24.7220826 3.13520838,24.7325778 Z" id="Normal" stroke="#ED8B00" fill="#ED8B00"></path>
            <rect id="Spacer" x="0" y="0" width="40" height="40"></rect>
        </g>
    </g>
</svg>