<svg width="85" height="71" viewBox="0 0 85 71" fill="none" xmlns="http://www.w3.org/2000/svg">
<path d="M12.0548 16.4365C16.8096 16.4365 20.6642 12.7571 20.6642 8.21836C20.6642 3.67962 16.8096 0.000244141 12.0548 0.000244141C7.2999 0.000244141 3.44531 3.67962 3.44531 8.21836C3.44531 12.7571 7.2999 16.4365 12.0548 16.4365Z" fill="black"/>
<path fill-rule="evenodd" clip-rule="evenodd" d="M12.0532 21.3674C18.7101 21.3674 24.1065 26.7638 24.1065 33.4207V46.642V64.6495C24.1065 67.9779 21.4083 70.6761 18.0798 70.6761H6.02662C2.69821 70.6761 0 67.9779 0 64.6495V47.0108V33.4207C0 26.7638 5.39642 21.3674 12.0532 21.3674Z" fill="black"/>
<path d="M49.297 8.21811C49.297 11.8634 46.1805 14.9362 42.1876 14.9362C38.1946 14.9362 35.0781 11.8634 35.0781 8.21811C35.0781 4.5728 38.1946 1.5 42.1876 1.5C46.1805 1.5 49.297 4.5728 49.297 8.21811Z" fill="black" stroke="black" stroke-width="3"/>
<path d="M42.186 22.8672C48.0144 22.8672 52.7393 27.592 52.7393 33.4204V46.6417V64.6492C52.7393 67.1492 50.7126 69.1759 48.2127 69.1759H36.1594C33.6594 69.1759 31.6328 67.1492 31.6328 64.6492V47.0105V33.4204C31.6328 27.592 36.3577 22.8672 42.186 22.8672Z" fill="black" stroke="black" stroke-width="3"/>
<path d="M72.3204 16.4362C77.0753 16.4362 80.9298 12.7569 80.9298 8.21811C80.9298 3.67937 77.0753 0 72.3204 0C67.5655 0 63.7109 3.67937 63.7109 8.21811C63.7109 12.7569 67.5655 16.4362 72.3204 16.4362Z" fill="#CCCCCC"/>
<path fill-rule="evenodd" clip-rule="evenodd" d="M72.3189 21.3672C78.9757 21.3672 84.3721 26.7636 84.3721 33.4204V46.6417V64.6492C84.3721 67.9776 81.6739 70.6759 78.3455 70.6759H66.2922C62.9638 70.6759 60.2656 67.9776 60.2656 64.6492V47.0105V33.4204C60.2656 26.7636 65.662 21.3672 72.3189 21.3672Z" fill="#CCCCCC"/>
</svg>
