<svg width="85" height="71" viewBox="0 0 85 71" fill="none" xmlns="http://www.w3.org/2000/svg">
<path d="M12.0548 16.4365C16.8096 16.4365 20.6642 12.7571 20.6642 8.21836C20.6642 3.67962 16.8096 0.000244141 12.0548 0.000244141C7.2999 0.000244141 3.44531 3.67962 3.44531 8.21836C3.44531 12.7571 7.2999 16.4365 12.0548 16.4365Z" fill="black"/>
<path fill-rule="evenodd" clip-rule="evenodd" d="M12.0532 21.3674C18.7101 21.3674 24.1065 26.7638 24.1065 33.4207V46.642V64.6495C24.1065 67.9779 21.4083 70.6761 18.0798 70.6761H6.02662C2.69821 70.6761 0 67.9779 0 64.6495V47.0108V33.4207C0 26.7638 5.39642 21.3674 12.0532 21.3674Z" fill="black"/>
<path d="M42.1876 16.4362C46.9424 16.4362 50.797 12.7569 50.797 8.21811C50.797 3.67937 46.9424 0 42.1876 0C37.4327 0 33.5781 3.67937 33.5781 8.21811C33.5781 12.7569 37.4327 16.4362 42.1876 16.4362Z" fill="#CCCCCC"/>
<path fill-rule="evenodd" clip-rule="evenodd" d="M42.186 21.3672C48.8429 21.3672 54.2393 26.7636 54.2393 33.4204V46.6417V64.6492C54.2393 67.9776 51.5411 70.6759 48.2127 70.6759H36.1594C32.831 70.6759 30.1328 67.9776 30.1328 64.6492V47.0105V33.4204C30.1328 26.7636 35.5292 21.3672 42.186 21.3672Z" fill="#CCCCCC"/>
<path d="M72.3204 16.4362C77.0753 16.4362 80.9298 12.7569 80.9298 8.21811C80.9298 3.67937 77.0753 0 72.3204 0C67.5655 0 63.7109 3.67937 63.7109 8.21811C63.7109 12.7569 67.5655 16.4362 72.3204 16.4362Z" fill="#CCCCCC"/>
<path fill-rule="evenodd" clip-rule="evenodd" d="M72.3189 21.3672C78.9757 21.3672 84.3721 26.7636 84.3721 33.4204V46.6417V64.6492C84.3721 67.9776 81.6739 70.6759 78.3455 70.6759H66.2922C62.9638 70.6759 60.2656 67.9776 60.2656 64.6492V47.0105V33.4204C60.2656 26.7636 65.662 21.3672 72.3189 21.3672Z" fill="#CCCCCC"/>
</svg>
