<svg width="85" height="71" viewBox="0 0 85 71" fill="none" xmlns="http://www.w3.org/2000/svg">
<path d="M12.0548 16.4365C16.8096 16.4365 20.6642 12.7571 20.6642 8.21836C20.6642 3.67962 16.8096 0.000244141 12.0548 0.000244141C7.2999 0.000244141 3.44531 3.67962 3.44531 8.21836C3.44531 12.7571 7.2999 16.4365 12.0548 16.4365Z" fill="black"/>
<path fill-rule="evenodd" clip-rule="evenodd" d="M12.0532 21.3674C18.7101 21.3674 24.1065 26.7638 24.1065 33.4207V46.642V64.6495C24.1065 67.9779 21.4083 70.6761 18.0798 70.6761H6.02662C2.69821 70.6761 0 67.9779 0 64.6495V47.0108V33.4207C0 26.7638 5.39642 21.3674 12.0532 21.3674Z" fill="black"/>
<path d="M49.297 8.21811C49.297 11.8634 46.1805 14.9362 42.1876 14.9362C38.1946 14.9362 35.0781 11.8634 35.0781 8.21811C35.0781 4.5728 38.1946 1.5 42.1876 1.5C46.1805 1.5 49.297 4.5728 49.297 8.21811Z" fill="black" stroke="black" stroke-width="3"/>
<path d="M42.186 22.8672C48.0144 22.8672 52.7393 27.592 52.7393 33.4204V46.6417V64.6492C52.7393 67.1492 50.7126 69.1759 48.2127 69.1759H36.1594C33.6594 69.1759 31.6328 67.1492 31.6328 64.6492V47.0105V33.4204C31.6328 27.592 36.3577 22.8672 42.186 22.8672Z" fill="black" stroke="black" stroke-width="3"/>
<path d="M79.4298 8.21811C79.4298 11.8634 76.3134 14.9362 72.3204 14.9362C68.3274 14.9362 65.2109 11.8634 65.2109 8.21811C65.2109 4.5728 68.3274 1.5 72.3204 1.5C76.3134 1.5 79.4298 4.5728 79.4298 8.21811Z" fill="black" stroke="black" stroke-width="3"/>
<path d="M72.3189 22.8672C78.1472 22.8672 82.8721 27.592 82.8721 33.4204V46.6417V64.6492C82.8721 67.1492 80.8455 69.1759 78.3455 69.1759H66.2922C63.7923 69.1759 61.7656 67.1492 61.7656 64.6492V47.0105V33.4204C61.7656 27.592 66.4905 22.8672 72.3189 22.8672Z" fill="black" stroke="black" stroke-width="3"/>
</svg>
