<svg width="110" height="92" viewBox="0 0 110 92" fill="none" xmlns="http://www.w3.org/2000/svg">
<path d="M15.6773 21.4481C21.8612 21.4481 26.8742 16.663 26.8742 10.7602C26.8742 4.85741 21.8612 0.0722656 15.6773 0.0722656C9.49348 0.0722656 4.48047 4.85741 4.48047 10.7602C4.48047 16.663 9.49348 21.4481 15.6773 21.4481Z" fill="#D72823"/>
<path fill-rule="evenodd" clip-rule="evenodd" d="M15.6756 27.8608C24.333 27.8608 31.3512 34.8791 31.3512 43.5365V60.7312V84.1505C31.3512 88.4792 27.8421 91.9883 23.5134 91.9883H7.83781C3.50911 91.9883 0 88.4792 0 84.1505V61.2108V43.5365C0 34.8791 7.01821 27.8608 15.6756 27.8608Z" fill="#D72823"/>
<path d="M54.8668 21.4481C61.0506 21.4481 66.0637 16.663 66.0637 10.7602C66.0637 4.85741 61.0506 0.0722656 54.8668 0.0722656C48.6829 0.0722656 43.6699 4.85741 43.6699 10.7602C43.6699 16.663 48.6829 21.4481 54.8668 21.4481Z" fill="#D72823"/>
<path fill-rule="evenodd" clip-rule="evenodd" d="M54.8651 27.8608C63.5225 27.8608 70.5407 34.8791 70.5407 43.5365V60.7312V84.1505C70.5407 88.4792 67.0316 91.9883 62.7029 91.9883H47.0273C42.6986 91.9883 39.1895 88.4792 39.1895 84.1505V61.2108V43.5365C39.1895 34.8791 46.2077 27.8608 54.8651 27.8608Z" fill="#D72823"/>
<path d="M94.0533 21.4481C100.237 21.4481 105.25 16.663 105.25 10.7602C105.25 4.85741 100.237 0.0722656 94.0533 0.0722656C87.8695 0.0722656 82.8564 4.85741 82.8564 10.7602C82.8564 16.663 87.8695 21.4481 94.0533 21.4481Z" fill="#D72823"/>
<path fill-rule="evenodd" clip-rule="evenodd" d="M94.0516 27.8608C102.709 27.8608 109.727 34.8791 109.727 43.5365V60.7312V84.1505C109.727 88.4792 106.218 91.9883 101.889 91.9883H86.2138C81.8851 91.9883 78.376 88.4792 78.376 84.1505V61.2108V43.5365C78.376 34.8791 85.3942 27.8608 94.0516 27.8608Z" fill="#D72823"/>
</svg>
