<?xml version="1.0" encoding="UTF-8"?>
<svg width="50px" height="44px" viewBox="0 0 50 44" version="1.1" xmlns="http://www.w3.org/2000/svg" xmlns:xlink="http://www.w3.org/1999/xlink">
    <title>Alert icon - gray</title>
    <g id="Alert-icon---gray" stroke="none" stroke-width="1" fill="none" fill-rule="evenodd">
        <path d="M26.0784719,0.29087004 C26.4052488,0.480539049 26.6766778,0.753047179 26.8655958,1.0811233 L49.7102818,40.7533575 C50.3060044,41.7878934 49.9535971,43.111399 48.9231579,43.7094901 C48.5952785,43.899799 48.2232364,44 47.8445067,44 L2.15513462,44 C0.964886633,44 -2.08721929e-14,43.0312772 -2.08721929e-14,41.8362971 C-2.08721929e-14,41.4560618 0.0998042051,41.0825405 0.289359513,40.7533575 L23.1340456,1.0811233 C23.7297682,0.0465874192 25.0480328,-0.307221019 26.0784719,0.29087004 Z M26.4744671,33.8421053 L24.5255538,33.8421053 C23.4641987,33.8421053 22.6038004,34.7025036 22.6038004,35.7638587 L22.6038004,35.7638587 L22.6038004,38.0782466 C22.6038004,39.1396017 23.4641987,40 24.5255538,40 L24.5255538,40 L26.4744671,40 C27.5358223,40 28.3962206,39.1396017 28.3962206,38.0782466 L28.3962206,38.0782466 L28.3962206,35.7638587 C28.3962206,34.7025036 27.5358223,33.8421053 26.4744671,33.8421053 L26.4744671,33.8421053 Z M27.0017701,14 L23.9418334,14.0008283 L23.9418334,14.0008283 L23.8854646,14.0033125 C22.8259389,14.0656027 22.0175198,14.975014 22.07981,16.0345397 L22.07981,16.0345397 L22.8192513,28.6120855 C22.8789704,29.6278788 23.7201449,30.4210526 24.7376922,30.4210526 L24.7376922,30.4210526 L26.2623288,30.4210526 C27.2798761,30.4210526 28.1210506,29.6278788 28.1807697,28.6120855 L28.1807697,28.6120855 L28.920211,16.0345397 C28.9224189,15.9969848 28.9235235,15.9593732 28.9235235,15.9217534 C28.9235235,14.8603983 28.0631252,14 27.0017701,14 L27.0017701,14 Z" id="Alert" fill="#737373"></path>
    </g>
</svg>