<?xml version="1.0" encoding="UTF-8"?>
<svg width="44px" height="44px" viewBox="0 0 44 44" version="1.1" xmlns="http://www.w3.org/2000/svg" xmlns:xlink="http://www.w3.org/1999/xlink">
    <title>CR Circle</title>
    <g id="CR-Circle" stroke="none" stroke-width="1" fill="none" fill-rule="evenodd">
        <rect id="Pill" fill="#80276C" x="0" y="0" width="44" height="44" rx="22"></rect>
        <path d="M29.2642064,14.9156951 C28.965791,14.7186643 28.7880013,14.3833518 28.7923039,14.0256843 L28.7923039,11.2473028 C28.7730933,10.439247 28.2044472,9.74892653 27.4152768,9.57563032 C25.7578739,9.09120002 24.0737181,8.70358473 22.3713351,8.41474668 C22.1083336,8.35925663 21.8363911,8.36189791 21.5745161,8.42248591 C20.0659752,8.75527255 18.5496983,9.04936307 17.0566296,9.46728118 C16.1747134,9.70719713 15.2463806,10.1947683 15.2463806,11.2473028 L15.2463806,14.0024666 C15.2548958,14.3651469 15.0729004,14.7057917 14.766742,14.9002166 C14.227338,15.2328863 13.8992764,15.821877 13.9002956,16.4558007 L13.9002956,28.1729862 C13.9057065,28.7206151 14.1553802,29.2371936 14.5810754,29.581525 L17.5440044,31.7485078 L15.1535473,36.1908226 L17.1030463,36.1908226 L17.443435,35.5794238 L26.5952495,35.5794238 L26.9433743,36.1908226 L28.8774011,36.1908226 L26.5024162,31.7485078 L26.5101523,31.7485078 L29.4111924,29.6047427 C29.8453986,29.2562743 30.0985413,28.7298667 30.0997061,28.1729862 L30.0997061,16.4558007 C30.0999591,15.8339925 29.7854998,15.2543387 29.2642064,14.9156951 L29.2642064,14.9156951 Z M23.4234456,10.5817295 C23.4234456,10.4061785 23.5030483,10.2401055 23.6399285,10.1302562 C23.7768087,10.020407 23.9561351,9.97866001 24.1274314,10.0167661 L26.989791,10.6204256 C27.2559314,10.6724492 27.4475395,10.9063703 27.446228,11.1776497 L27.446228,12.8802791 C27.4463709,13.0534262 27.3694586,13.2176517 27.2363744,13.3283506 C27.1032901,13.4390495 26.927851,13.4847288 26.7577077,13.4529817 L23.8953482,12.8957575 C23.6223096,12.8407713 23.4252977,12.6016769 23.4234456,12.3230549 L23.4234456,10.5817295 Z M25.0248198,32.754607 L18.9983925,32.754607 L19.5089755,31.8259001 L24.5065006,31.8259001 L25.0248198,32.754607 Z M22.000002,16.5873639 C23.1557195,16.5852324 24.0943442,17.5207725 24.0964835,18.6769557 C24.0986154,19.8331389 23.1634532,20.7721429 22.0077357,20.7742843 C20.8520182,20.7764185 19.9133913,19.8408805 19.9112472,18.6846973 C19.9099386,18.1293892 20.1293333,17.5963342 20.5211121,17.2029459 C20.912891,16.8095576 21.4449165,16.5881054 22.000002,16.5873639 L22.000002,16.5873639 Z M16.7317131,11.1776497 C16.7278746,10.9028008 16.9249531,10.6662114 17.1958796,10.6204256 L20.050503,10.0167661 C20.2209642,9.97899203 20.3993385,10.0211025 20.5349347,10.1311305 C20.670531,10.2411584 20.7485252,10.407075 20.7467822,10.5817295 L20.7467822,12.3230549 C20.7484127,12.6002876 20.5540658,12.8400786 20.2825862,12.8957575 L17.4202267,13.4529817 C17.2500834,13.4847288 17.0746443,13.4390495 16.94156,13.3283506 C16.8084758,13.2176517 16.7315635,13.0534262 16.7317131,12.8802791 L16.7317131,11.1776497 Z M17.3506017,29.6821398 C16.7194144,29.6836999 16.1495798,29.304326 15.9073117,28.721248 C15.6650436,28.1381701 15.7981641,27.4664838 16.2444823,27.0199858 C16.6908005,26.5734877 17.3622162,26.4403136 17.9450593,26.6826793 C18.5279024,26.925045 18.9071235,27.4951092 18.905564,28.1265509 C18.905564,28.9856762 18.209381,29.6821398 17.3506017,29.6821398 Z M17.954018,34.6429777 L18.4878094,33.6833139 L25.543139,33.6833139 L26.0769303,34.6429777 L17.954018,34.6429777 Z M26.63393,29.6821398 C26.0027427,29.6836999 25.4329082,29.304326 25.1906401,28.721248 C24.948372,28.1381701 25.0814924,27.4664838 25.5278107,27.0199858 C25.9741289,26.5734877 26.6455445,26.4403136 27.2283876,26.6826793 C27.8112307,26.925045 28.1904518,27.4951092 28.1888924,28.1265509 C28.1888924,28.9856762 27.4927093,29.6821398 26.63393,29.6821398 Z" id="Icon" fill="#FFFFFF" fill-rule="nonzero"></path>
    </g>
</svg>