<svg width="75px" height="58px" viewBox="0 0 75 58" version="1.1" xmlns="http://www.w3.org/2000/svg" xmlns:xlink="http://www.w3.org/1999/xlink">
    <title>Elevator Icon</title>
    <defs>
        <path d="M0,0 L0,14.7095438 C0.0247825386,17.315124 3.91694544,17.315124 3.91498966,14.7095438 L3.91498966,14.7095438 L3.91498966,0 L0,0 Z" id="path-1"></path>
        <path d="M0,0 L0,14.72243 C0.0156521296,17.3112581 3.90911938,17.3112581 3.91498892,14.72243 L3.91498892,14.72243 L3.91498892,0 L0,0 Z" id="path-3"></path>
        <path d="M2.19588269,0.00579876891 C1.04610334,-0.00708738423 -0.00519803848,0.838888569 0,2.07273773 L0,2.07273773 L0,12.8539378 C-0.00389369435,13.7179543 0.768278034,14.34551 1.56914533,14.3326238 L1.56914533,14.3326238 C1.60892783,14.34551 12.1336807,14.3326238 12.1336807,14.3326238 L12.1336807,14.3326238 C12.9528088,14.3448657 13.7165023,13.725686 13.7015023,12.8539378 L13.7015023,12.8539378 L13.700198,12.8539378 L13.700198,2.07273773 C13.7151979,0.934246103 12.7617224,-0.00708738423 11.5036824,0.00579876891 L11.5036824,0.00579876891 C11.5036824,0.00579876891 7.36108547,0 4.60304979,0 L4.60304979,0 C3.22435804,0 2.19196966,0.00193292297 2.19588269,0.00579876891 L2.19588269,0.00579876891 Z" id="path-5"></path>
        <path d="M0,3.11909337 C0.019565162,4.80395789 1.42173511,6.18793074 3.1591215,6.18793074 L3.1591215,6.18793074 C4.87498621,6.18793074 6.27650398,4.80395789 6.26280837,3.11909337 L6.26280837,3.11909337 C6.27780833,1.388483 4.87498621,0.00386584594 3.1591215,0 L3.1591215,0 C1.42173511,0.0045101536 0.019565162,1.38977162 0,3.11909337 L0,3.11909337 Z" id="path-7"></path>
        <path d="M0,0 L0,14.7095438 C0.0254347107,17.315124 3.91694544,17.315124 3.91498966,14.7095438 L3.91498966,14.7095438 L3.91498966,0 L0,0 Z" id="path-9"></path>
        <path d="M0,0 L0,14.72243 C0.0149999576,17.3112581 3.9084672,17.3112581 3.91433675,14.72243 L3.91433675,14.72243 L3.91433675,0 L0,0 Z" id="path-11"></path>
        <path d="M2.1958835,0.00579876891 C1.04545197,-0.00708738423 -0.00519723382,0.838888569 0,2.07273773 L0,2.07273773 L0,12.8539378 C-0.00454506175,13.7179543 0.767626667,14.34551 1.56849397,14.3326238 L1.56849397,14.3326238 C1.60892863,14.34551 12.1330293,14.3326238 12.1330293,14.3326238 L12.1330293,14.3326238 C12.9521574,14.3448657 13.7158509,13.725686 13.7008509,12.8539378 L13.7008509,12.8539378 L13.7001988,12.8539378 L13.7001988,2.07273773 C13.7151987,0.934246103 12.761071,-0.00708738423 11.5036833,0.00579876891 L11.5036833,0.00579876891 C11.5036833,0.00579876891 7.36108627,0 4.60239843,0 L4.60239843,0 C3.22370667,0 2.19131829,0.00193292297 2.1958835,0.00579876891 L2.1958835,0.00579876891 Z" id="path-13"></path>
        <path d="M0,3.11909337 C0.01891299,4.80395789 1.42108294,6.18793074 3.1591215,6.18793074 L3.1591215,6.18793074 C4.87433404,6.18793074 6.27585181,4.80395789 6.26280837,3.11909337 L6.26280837,3.11909337 C6.27715615,1.388483 4.87433404,0.00386584594 3.1591215,0 L3.1591215,0 C1.42108294,0.0045101536 0.01891299,1.38977162 0,3.11909337 L0,3.11909337 Z" id="path-15"></path>
    </defs>
    <g id="Elevator-Icon" stroke="none" stroke-width="1" fill="none" fill-rule="evenodd">
        <g id="Group-34" transform="translate(1.000000, 1.000000)">
            <g id="Group-3" transform="translate(35.794464, 31.036300)">
                <mask id="mask-2" fill="white">
                    <use xlink:href="#path-1"></use>
                </mask>
                <g id="Clip-2"></g>
                <polygon id="Fill-1" fill="#161E25" mask="url(#mask-2)" points="-2.08629845 18.7248691 6.00128737 18.7248691 6.00128737 -2.0617845 -2.08629845 -2.0617845"></polygon>
            </g>
            <g id="Group-6" transform="translate(30.705565, 31.036300)">
                <mask id="mask-4" fill="white">
                    <use xlink:href="#path-3"></use>
                </mask>
                <g id="Clip-5"></g>
                <polygon id="Fill-4" fill="#161E25" mask="url(#mask-4)" points="-2.08629845 18.7248691 6.0006352 18.7248691 6.0006352 -2.0617845 -2.08629845 -2.0617845"></polygon>
            </g>
            <g id="Group-9" transform="translate(27.965119, 17.085106)">
                <mask id="mask-6" fill="white">
                    <use xlink:href="#path-5"></use>
                </mask>
                <g id="Clip-8"></g>
                <polygon id="Fill-7" fill="#161E25" mask="url(#mask-6)" points="-2.08627911 16.3995628 15.7878008 16.3995628 15.7878008 -2.0617845 -2.08627911 -2.0617845"></polygon>
            </g>
            <g id="Group-12" transform="translate(31.880127, 9.277386)">
                <mask id="mask-8" fill="white">
                    <use xlink:href="#path-7"></use>
                </mask>
                <g id="Clip-11"></g>
                <polygon id="Fill-10" fill="#161E25" mask="url(#mask-8)" points="-2.08629845 7.73877927 8.34975899 7.73877927 8.34975899 -2.83817523 -2.08629845 -2.83817523"></polygon>
            </g>
            <g id="Group-15" transform="translate(17.937341, 31.036300)">
                <mask id="mask-10" fill="white">
                    <use xlink:href="#path-9"></use>
                </mask>
                <g id="Clip-14"></g>
                <polygon id="Fill-13" fill="#161E25" mask="url(#mask-10)" points="-2.08629845 18.7248691 6.00128737 18.7248691 6.00128737 -2.0617845 -2.08629845 -2.0617845"></polygon>
            </g>
            <g id="Group-18" transform="translate(12.849094, 31.036300)">
                <mask id="mask-12" fill="white">
                    <use xlink:href="#path-11"></use>
                </mask>
                <g id="Clip-17"></g>
                <polygon id="Fill-16" fill="#161E25" mask="url(#mask-12)" points="-2.08695062 18.7248691 6.0006352 18.7248691 6.0006352 -2.0617845 -2.08695062 -2.0617845"></polygon>
            </g>
            <g id="Group-21" transform="translate(10.108647, 17.085106)">
                <mask id="mask-14" fill="white">
                    <use xlink:href="#path-13"></use>
                </mask>
                <g id="Clip-20"></g>
                <polygon id="Fill-19" fill="#161E25" mask="url(#mask-14)" points="-2.08693047 16.3995628 15.7871494 16.3995628 15.7871494 -2.0617845 -2.08693047 -2.0617845"></polygon>
            </g>
            <g id="Group-24" transform="translate(14.023656, 9.277386)">
                <mask id="mask-16" fill="white">
                    <use xlink:href="#path-15"></use>
                </mask>
                <g id="Clip-23"></g>
                <polygon id="Fill-22" fill="#161E25" mask="url(#mask-16)" points="-2.08695062 8.38308692 8.34910681 8.38308692 8.34910681 -2.19386757 -2.08695062 -2.19386757"></polygon>
            </g>
            <g id="Group-33" fill="#161E25">
                <path d="M5.21737654,50.8455387 L46.1385651,50.8455387 L46.1385651,5.15381695 L5.21737654,5.15381695 L5.21737654,50.8455387 Z M48.7479056,56 L2.60868827,56 C1.16804017,56 0,54.846045 0,53.4227694 L0,2.57723063 C0,1.15395501 1.16804017,0 2.60868827,0 L48.7479056,0 C50.1885537,0 51.3565938,1.15395501 51.3565938,2.57723063 L51.3565938,53.4227694 C51.3565938,54.846045 50.1885537,56 48.7479056,56 L48.7479056,56 Z" id="Fill-25"></path>
                <path d="M64.2679051,52.0675326 C63.0066044,52.0675326 61.9853029,51.0579025 61.9853029,49.8124558 L61.9853029,35.4940068 C61.9853029,34.2485601 63.0066044,33.23893 64.2679051,33.23893 C65.5285537,33.23893 66.5505074,34.2485601 66.5505074,35.4940068 L66.5505074,49.8124558 C66.5505074,51.0579025 65.5285537,52.0675326 64.2679051,52.0675326" id="Fill-27"></path>
                <path d="M64.219514,25.4888753 C62.9588654,25.4888753 61.9369117,24.4792452 61.9369117,23.2337985 L61.9369117,8.91534948 C61.9369117,7.66990278 62.9588654,6.66027268 64.219514,6.66027268 C65.4808148,6.66027268 66.5021162,7.66990278 66.5021162,8.91534948 L66.5021162,23.2337985 C66.5021162,24.4792452 65.4808148,25.4888753 64.219514,25.4888753" id="Fill-28"></path>
                <path d="M64.2679051,52.0675326 C63.683559,52.0675326 63.0992128,51.8471794 62.6531271,51.4071173 L56.2037975,45.0349146 C55.3129305,44.154146 55.3129305,42.7263602 56.2037975,41.8455917 C57.0953167,40.9654674 58.54053,40.9654674 59.4320493,41.8455917 L65.882031,48.2177944 C66.7735502,49.098563 66.7735502,50.5263487 65.882031,51.4071173 C65.4359453,51.8471794 64.8522513,52.0675326 64.2679051,52.0675326" id="Fill-29"></path>
                <path d="M64.2679051,52.0675326 C63.683559,52.0675326 63.0992128,51.8471794 62.6531271,51.4071173 C61.7622601,50.5263487 61.7622601,49.098563 62.6531271,48.2177944 L69.1031089,41.8455917 C69.9946281,40.9654674 71.4398414,40.9654674 72.3313606,41.8455917 C73.2228798,42.7263602 73.2228798,44.154146 72.3313606,45.0349146 L65.882031,51.4071173 C65.4359453,51.8471794 64.8522513,52.0675326 64.2679051,52.0675326" id="Fill-30"></path>
                <path d="M57.77038,16.8797653 C57.1860339,16.8797653 56.6016877,16.6594121 56.1562542,16.2193499 C55.264735,15.3385814 55.264735,13.9107956 56.155602,13.030027 L62.6055838,6.65846862 C63.497103,5.77770005 64.9423163,5.77770005 65.8331833,6.65782431 C66.7247025,7.53859288 66.7247025,8.96637865 65.8338355,9.84714721 L59.3845059,16.2193499 C58.9384202,16.6594121 58.3547262,16.8797653 57.77038,16.8797653" id="Fill-31"></path>
                <path d="M70.6692349,16.8797653 C70.0848887,16.8797653 69.5005425,16.6594121 69.0544568,16.2193499 L62.6057794,9.84714721 C61.7142602,8.96637865 61.7142602,7.53859288 62.6057794,6.65782431 C63.4972986,5.77770005 64.9425119,5.77834436 65.8340311,6.65846862 L72.2833607,13.030027 C73.1748799,13.9107956 73.1748799,15.3385814 72.2833607,16.2193499 C71.837275,16.6594121 71.253581,16.8797653 70.6692349,16.8797653" id="Fill-32"></path>
            </g>
        </g>
    </g>
</svg>