<?xml version="1.0" encoding="UTF-8"?>
<svg width="43px" height="44px" viewBox="0 0 43 44" version="1.1" xmlns="http://www.w3.org/2000/svg" xmlns:xlink="http://www.w3.org/1999/xlink">
    <title>Outage icon - red</title>
    <g id="Outage-icon---red" stroke="none" stroke-width="1" fill="none" fill-rule="evenodd">
        <path d="M29.8708533,0 C30.3234894,-7.63266448e-15 30.7575868,0.179809008 31.0776489,0.499871093 L42.5001289,11.9223511 C42.820191,12.2424132 43,12.6765106 43,13.1291467 L43,29.4118635 C43,29.8533529 42.8289153,30.2776649 42.5226798,30.5956786 L31.0812644,42.4771485 C30.7595508,42.8112357 30.3157218,43 29.8519179,43 L13.1291467,43 C12.6765106,43 12.2424132,42.820191 11.9223511,42.5001289 L0.499871093,31.0776489 C0.179809008,30.7575868 5.60654706e-15,30.3234894 0,29.8708533 L0,13.5881365 C-8.90277421e-16,13.1466471 0.17108472,12.7223351 0.477320169,12.4043214 L11.9187356,0.522851521 C12.2404492,0.188764251 12.6842782,-7.70830377e-16 13.1480821,0 L29.8708533,0 Z M16.2465342,11.8248055 C15.5757319,11.1626463 14.495153,11.169653 13.8329938,11.8404554 L13.8329938,11.8404554 L11.8245472,13.8751183 C11.1636326,14.5446599 11.16919,15.6227742 11.8369719,16.2854667 L11.8369719,16.2854667 L17.5936544,21.9982745 L11.8318452,27.8352928 L11.8318452,27.8352928 C11.1678877,28.5125278 11.1785962,29.5930763 11.8516631,30.2529335 L11.8516631,30.2529335 L13.8206036,32.1832314 C14.4920406,32.8414907 15.5694202,32.8326592 16.2299759,32.1634812 L16.2299759,32.1634812 L22,26.3181408 L27.7700241,32.1634812 C28.4305798,32.8326592 29.5079594,32.8414907 30.1793964,32.1832314 L30.1793964,32.1832314 L32.1483369,30.2529335 L32.1483369,30.2529335 C32.8233073,29.586674 32.830314,28.5060952 32.1681548,27.8352928 L32.1681548,27.8352928 L26.4063456,21.9982745 L32.1630281,16.2854667 C32.83081,15.6227742 32.8363674,14.5446599 32.1754528,13.8751183 L32.1754528,13.8751183 L30.1670062,11.8404554 C30.1659436,11.8393789 30.1648796,11.8383039 30.1638141,11.8372302 C29.4998738,11.1681908 28.4192801,11.1640572 27.7502406,11.8279975 L27.7502406,11.8279975 L22,17.5344127 L16.2497594,11.8279975 L16.2497594,11.8279975 Z" id="No-service" fill="#BA190E"></path>
    </g>
</svg>