<?xml version="1.0" encoding="UTF-8"?>
<svg width="44px" height="44px" viewBox="0 0 44 44" version="1.1" xmlns="http://www.w3.org/2000/svg" xmlns:xlink="http://www.w3.org/1999/xlink">
    <title>RL Circle</title>
    <g id="RL-Circle" stroke="none" stroke-width="1" fill="none" fill-rule="evenodd">
        <rect id="Pill" fill="#DA291C" x="7.10542736e-15" y="0" width="44" height="44" rx="22"></rect>
        <g id="Line" transform="translate(7.876000, 13.633518)" fill="#FFFFFF" fill-rule="nonzero">
            <path d="M3.768,7.752 L3.768,2.928 L7.896,2.928 C8.76,2.928 9.408,3.116 9.84,3.492 C10.272,3.868 10.488,4.472 10.488,5.304 C10.488,6.168 10.272,6.792 9.84,7.176 C9.408,7.56 8.76,7.752 7.896,7.752 L3.768,7.752 Z M0,0 L0,17.136 L3.768,17.136 L3.768,10.44 L7.536,10.44 C8.48,10.44 9.16,10.648 9.576,11.064 C9.992,11.48 10.264,12.136 10.392,13.032 C10.488,13.72 10.56,14.44 10.608,15.192 C10.656,15.944 10.784,16.592 10.992,17.136 L14.76,17.136 C14.584,16.896 14.452,16.604 14.364,16.26 C14.276,15.916 14.212,15.552 14.172,15.168 C14.132,14.784 14.104,14.408 14.088,14.04 C14.072,13.672 14.056,13.352 14.04,13.08 C14.008,12.648 13.948,12.216 13.86,11.784 C13.772,11.352 13.632,10.956 13.44,10.596 C13.248,10.236 13,9.924 12.696,9.66 C12.392,9.396 12.008,9.2 11.544,9.072 L11.544,9.024 C12.504,8.64 13.196,8.08 13.62,7.344 C14.044,6.608 14.256,5.736 14.256,4.728 C14.256,4.072 14.14,3.46 13.908,2.892 C13.676,2.324 13.34,1.824 12.9,1.392 C12.46,0.96 11.932,0.62 11.316,0.372 C10.7,0.124 10.008,0 9.24,0 L0,0 Z" id="Shape"></path>
            <polygon id="Path" points="17.328 0 17.328 17.136 29.448 17.136 29.448 13.968 21.096 13.968 21.096 0"></polygon>
        </g>
    </g>
</svg>