<?xml version="1.0" encoding="UTF-8"?>
<svg width="44px" height="44px" viewBox="0 0 44 44" version="1.1" xmlns="http://www.w3.org/2000/svg" xmlns:xlink="http://www.w3.org/1999/xlink">
    <title>BL Circle</title>
    <g id="BL-Circle" stroke="none" stroke-width="1" fill="none" fill-rule="evenodd">
        <rect id="Pill" fill="#003DA5" x="7.10542736e-15" y="0" width="44" height="44" rx="22"></rect>
        <g id="Line" transform="translate(8.092000, 13.633518)" fill="#FFFFFF" fill-rule="nonzero">
            <path d="M3.768,6.936 L3.768,2.928 L7.296,2.928 C7.632,2.928 7.956,2.956 8.268,3.012 C8.58,3.068 8.856,3.168 9.096,3.312 C9.336,3.456 9.528,3.656 9.672,3.912 C9.816,4.168 9.888,4.496 9.888,4.896 C9.888,5.616 9.672,6.136 9.24,6.456 C8.808,6.776 8.256,6.936 7.584,6.936 L3.768,6.936 Z M0,0 L0,17.136 L8.304,17.136 C9.072,17.136 9.82,17.04 10.548,16.848 C11.276,16.656 11.924,16.36 12.492,15.96 C13.06,15.56 13.512,15.044 13.848,14.412 C14.184,13.78 14.352,13.032 14.352,12.168 C14.352,11.096 14.092,10.18 13.572,9.42 C13.052,8.66 12.264,8.128 11.208,7.824 C11.976,7.456 12.556,6.984 12.948,6.408 C13.34,5.832 13.536,5.112 13.536,4.248 C13.536,3.448 13.404,2.776 13.14,2.232 C12.876,1.688 12.504,1.252 12.024,0.924 C11.544,0.596 10.968,0.36 10.296,0.216 C9.624,0.072 8.88,0 8.064,0 L0,0 Z M3.768,14.208 L3.768,9.504 L7.872,9.504 C8.688,9.504 9.344,9.692 9.84,10.068 C10.336,10.444 10.584,11.072 10.584,11.952 C10.584,12.4 10.508,12.768 10.356,13.056 C10.204,13.344 10,13.572 9.744,13.74 C9.488,13.908 9.192,14.028 8.856,14.1 C8.52,14.172 8.168,14.208 7.8,14.208 L3.768,14.208 Z" id="Shape"></path>
            <polygon id="Path" points="16.896 0 16.896 17.136 29.016 17.136 29.016 13.968 20.664 13.968 20.664 0"></polygon>
        </g>
    </g>
</svg>