<?xml version="1.0" encoding="UTF-8"?>
<svg width="44px" height="44px" viewBox="0 0 44 44" version="1.1" xmlns="http://www.w3.org/2000/svg" xmlns:xlink="http://www.w3.org/1999/xlink">
    <title>Bus Circle</title>
    <g id="Bus-Circle" stroke="none" stroke-width="1" fill="none" fill-rule="evenodd">
        <rect id="Bus-pill" fill="#FFC72C" x="0" y="0" width="44" height="44" rx="22"></rect>
        <path d="M32.2651199,20.86895 L31.2914181,13.2493236 C31.0441131,11.8744376 30.1729543,11.3379344 28.8767899,10.7752802 C26.7528908,10.0185213 24.5134932,9.61021325 22.2508255,9.56717201 C19.9846951,9.61069185 17.7418263,10.0189672 15.6140592,10.7752802 C14.3340217,11.3273266 13.4627869,11.8742166 13.1992788,13.2491026 L12.2204043,20.86895 L12.2204043,31.4104302 L13.9387597,31.4104302 L13.9387597,33.2463125 C13.9410999,34.0004909 14.5719749,34.6112534 15.3507793,34.6133164 C16.1295365,34.6110914 16.7602731,34.0002984 16.7625708,33.2461653 L16.7625708,31.4102828 L27.7745291,31.4102828 L27.7745291,33.2461653 C27.7708086,33.7369791 28.0390706,34.1920594 28.4773973,34.4385122 C28.9157239,34.684965 29.4568411,34.684965 29.8951677,34.4385122 C30.3334945,34.1920594 30.6017564,33.7369791 30.5980359,33.2461653 L30.5980359,31.4102828 L32.2653481,31.4102828 L32.2651199,20.86895 Z M18.1256772,11.4941782 L26.4082278,11.4941782 C26.7587384,11.4941782 27.0428836,11.7693387 27.0428836,12.1087663 C27.0428836,12.448194 26.7587384,12.7233545 26.4082278,12.7233545 L18.1256772,12.7233545 C17.7751665,12.7233545 17.4910214,12.448194 17.4910214,12.1087663 C17.4910214,11.7693387 17.7751665,11.4941782 18.1256772,11.4941782 Z M14.0006049,20.645008 L14.8069517,14.6295134 C14.8742381,14.2502404 15.2159266,13.9743889 15.6132985,13.9784886 L28.9897546,13.9784886 C29.386071,13.974527 29.7262463,14.2508775 29.7910807,14.6295134 L30.5974274,20.645008 C30.6082295,20.7140558 30.6082295,20.7842853 30.5974274,20.8533331 L30.5974274,20.8949537 C30.5984181,21.1019032 30.5136219,21.3005844 30.3620427,21.4464706 C30.2104635,21.5923568 30.0047772,21.673248 29.7910807,21.671061 L14.7696772,21.671061 C14.5556019,21.6616643 14.3541755,21.5701778 14.2098773,21.416759 C14.0655792,21.2633401 13.9902791,21.0606091 14.0006049,20.8533331 C13.9898787,20.7842797 13.9898787,20.7140612 14.0006049,20.645008 Z M15.3507793,28.150014 C14.5206011,28.1514746 13.846372,27.50097 13.8448155,26.6970417 C13.8432644,25.8931136 14.5149743,25.2401696 15.3451524,25.2386206 C16.1753304,25.2370769 16.8496292,25.8875138 16.851274,26.691442 C16.8522991,27.0776265 16.6947254,27.4483616 16.4132698,27.721954 C16.1318143,27.9955463 15.7495748,28.1495435 15.3507793,28.150014 Z M29.183582,28.150017 C28.3541468,28.1484248 27.6827777,27.4965694 27.6833236,26.6933591 C27.6838701,25.8901489 28.3561251,25.2391503 29.1855618,25.2386211 C30.0149985,25.2380924 30.6881383,25.888233 30.689782,26.691442 C30.690811,27.078623 30.5324238,27.4502315 30.2496835,27.72399 C29.9669433,27.9977487 29.5831771,28.1510714 29.1833539,28.150017 L29.183582,28.150017 Z" id="Bus" fill="#000000" fill-rule="nonzero"></path>
    </g>
</svg>