<?xml version="1.0" encoding="UTF-8"?>
<svg width="44px" height="44px" viewBox="0 0 44 44" version="1.1" xmlns="http://www.w3.org/2000/svg" xmlns:xlink="http://www.w3.org/1999/xlink">
    <title>OL Circle</title>
    <g id="OL-Circle" stroke="none" stroke-width="1" fill="none" fill-rule="evenodd">
        <rect id="Pill" fill="#ED8B00" x="7.10542736e-15" y="0" width="44" height="44" rx="22"></rect>
        <g id="Line" transform="translate(6.042397, 13.160088)" fill="#FFFFFF" fill-rule="nonzero">
            <path d="M3.768,9.048 C3.768,8.296 3.852,7.568 4.02,6.864 C4.188,6.16 4.456,5.532 4.824,4.98 C5.192,4.428 5.672,3.988 6.264,3.66 C6.856,3.332 7.576,3.168 8.424,3.168 C9.272,3.168 9.992,3.332 10.584,3.66 C11.176,3.988 11.656,4.428 12.024,4.98 C12.392,5.532 12.66,6.16 12.828,6.864 C12.996,7.568 13.08,8.296 13.08,9.048 C13.08,9.768 12.996,10.468 12.828,11.148 C12.66,11.828 12.392,12.44 12.024,12.984 C11.656,13.528 11.176,13.964 10.584,14.292 C9.992,14.62 9.272,14.784 8.424,14.784 C7.576,14.784 6.856,14.62 6.264,14.292 C5.672,13.964 5.192,13.528 4.824,12.984 C4.456,12.44 4.188,11.828 4.02,11.148 C3.852,10.468 3.768,9.768 3.768,9.048 Z M0,9.048 C0,10.296 0.192,11.46 0.576,12.54 C0.96,13.62 1.512,14.56 2.232,15.36 C2.952,16.16 3.836,16.788 4.884,17.244 C5.932,17.7 7.112,17.928 8.424,17.928 C9.752,17.928 10.936,17.7 11.976,17.244 C13.016,16.788 13.896,16.16 14.616,15.36 C15.336,14.56 15.888,13.62 16.272,12.54 C16.656,11.46 16.848,10.296 16.848,9.048 C16.848,7.768 16.656,6.58 16.272,5.484 C15.888,4.388 15.336,3.432 14.616,2.616 C13.896,1.8 13.016,1.16 11.976,0.696 C10.936,0.232 9.752,0 8.424,0 C7.112,0 5.932,0.232 4.884,0.696 C3.836,1.16 2.952,1.8 2.232,2.616 C1.512,3.432 0.96,4.388 0.576,5.484 C0.192,6.58 0,7.768 0,9.048 Z" id="Shape"></path>
            <polygon id="Path" points="19.416 0.408 19.416 17.544 31.536 17.544 31.536 14.376 23.184 14.376 23.184 0.408"></polygon>
        </g>
    </g>
</svg>