<?xml version="1.0" encoding="UTF-8"?>
<svg width="44px" height="44px" viewBox="0 0 44 44" version="1.1" xmlns="http://www.w3.org/2000/svg" xmlns:xlink="http://www.w3.org/1999/xlink">
    <title>SL Circle</title>
    <g id="SL-Circle" stroke="none" stroke-width="1" fill="none" fill-rule="evenodd">
        <rect id="Pill" fill="#7C878E" x="7.10542736e-15" y="0" width="44" height="44" rx="22"></rect>
        <g id="Line" transform="translate(7.253474, 13.160088)" fill="#FFFFFF" fill-rule="nonzero">
            <path d="M3.64892308,11.856 L0.000923076923,11.856 C-0.0150769231,12.912 0.176923077,13.824 0.576923077,14.592 C0.976923077,15.36 1.51692308,15.992 2.19692308,16.488 C2.87692308,16.984 3.66092308,17.348 4.54892308,17.58 C5.43692308,17.812 6.35292308,17.928 7.29692308,17.928 C8.46492308,17.928 9.49292308,17.792 10.3809231,17.52 C11.2689231,17.248 12.0129231,16.868 12.6129231,16.38 C13.2129231,15.892 13.6649231,15.312 13.9689231,14.64 C14.2729231,13.968 14.4249231,13.24 14.4249231,12.456 C14.4249231,11.496 14.2209231,10.708 13.8129231,10.092 C13.4049231,9.476 12.9209231,8.984 12.3609231,8.616 C11.8009231,8.248 11.2369231,7.98 10.6689231,7.812 C10.1009231,7.644 9.65692308,7.528 9.33692308,7.464 C8.26492308,7.192 7.39692308,6.968 6.73292308,6.792 C6.06892308,6.616 5.54892308,6.44 5.17292308,6.264 C4.79692308,6.088 4.54492308,5.896 4.41692308,5.688 C4.28892308,5.48 4.22492308,5.208 4.22492308,4.872 C4.22492308,4.504 4.30492308,4.2 4.46492308,3.96 C4.62492308,3.72 4.82892308,3.52 5.07692308,3.36 C5.32492308,3.2 5.60092308,3.088 5.90492308,3.024 C6.20892308,2.96 6.51292308,2.928 6.81692308,2.928 C7.28092308,2.928 7.70892308,2.968 8.10092308,3.048 C8.49292308,3.128 8.84092308,3.264 9.14492308,3.456 C9.44892308,3.648 9.69292308,3.912 9.87692308,4.248 C10.0609231,4.584 10.1689231,5.008 10.2009231,5.52 L13.8489231,5.52 C13.8489231,4.528 13.6609231,3.684 13.2849231,2.988 C12.9089231,2.292 12.4009231,1.72 11.7609231,1.272 C11.1209231,0.824 10.3889231,0.5 9.56492308,0.3 C8.74092308,0.1 7.88092308,0 6.98492308,0 C6.21692308,0 5.44892308,0.104 4.68092308,0.312 C3.91292308,0.52 3.22492308,0.84 2.61692308,1.272 C2.00892308,1.704 1.51692308,2.244 1.14092308,2.892 C0.764923077,3.54 0.576923077,4.304 0.576923077,5.184 C0.576923077,5.968 0.724923077,6.636 1.02092308,7.188 C1.31692308,7.74 1.70492308,8.2 2.18492308,8.568 C2.66492308,8.936 3.20892308,9.236 3.81692308,9.468 C4.42492308,9.7 5.04892308,9.896 5.68892308,10.056 C6.31292308,10.232 6.92892308,10.392 7.53692308,10.536 C8.14492308,10.68 8.68892308,10.848 9.16892308,11.04 C9.64892308,11.232 10.0369231,11.472 10.3329231,11.76 C10.6289231,12.048 10.7769231,12.424 10.7769231,12.888 C10.7769231,13.32 10.6649231,13.676 10.4409231,13.956 C10.2169231,14.236 9.93692308,14.456 9.60092308,14.616 C9.26492308,14.776 8.90492308,14.884 8.52092308,14.94 C8.13692308,14.996 7.77692308,15.024 7.44092308,15.024 C6.94492308,15.024 6.46492308,14.964 6.00092308,14.844 C5.53692308,14.724 5.13292308,14.54 4.78892308,14.292 C4.44492308,14.044 4.16892308,13.72 3.96092308,13.32 C3.75292308,12.92 3.64892308,12.432 3.64892308,11.856 Z" id="Path"></path>
            <polygon id="Path" points="16.6569231 0.408 16.6569231 17.544 28.7769231 17.544 28.7769231 14.376 20.4249231 14.376 20.4249231 0.408"></polygon>
        </g>
    </g>
</svg>