<?xml version="1.0" encoding="UTF-8"?>
<svg width="190px" height="96px" viewBox="0 0 190 96" version="1.1" xmlns="http://www.w3.org/2000/svg" xmlns:xlink="http://www.w3.org/1999/xlink">
    <title>Group 16 Copy 10</title>
    <g id="Icon-Sketche" stroke="none" stroke-width="1" fill="none" fill-rule="evenodd">
        <g id="Group-16-Copy-10">
            <g id="Group">
                <polygon id="Fill-1" fill="#008EAA" opacity="0" points="0 96 95 96 95 0 0 0"></polygon>
                <polygon id="Fill-2" fill="#231F20" points="57.2711818 8.13692121 57.2711818 18.0608 51.8686566 12.7255273 48.5561313 15.9681939 59.6241111 26.902497 70.6901717 15.9681939 67.3795657 12.7255273 61.9616869 18.0608 61.9616869 8.13692121"></polygon>
                <polygon id="Fill-3" fill="#231F20" points="37.7178788 26.902497 37.7178788 16.9650424 43.1491919 22.3216485 46.4463636 19.0421333 35.380303 8.13692121 24.3123232 19.0421333 27.6248485 22.3216485 33.0273737 16.9650424 33.0273737 26.902497"></polygon>
                <g id="Group-8" transform="translate(19.089626, 31.594085)" fill="#231F20">
                    <path d="M28.3694949,19.4366061 C29.7417172,19.4366061 30.8471717,18.3350303 30.8471717,16.9735758 C30.8471717,15.6121212 29.7417172,14.5105455 28.3694949,14.5105455 C26.9953535,14.5105455 25.8745455,15.6121212 25.8745455,16.9735758 C25.8745455,18.3350303 26.9953535,19.4366061 28.3694949,19.4366061 L28.3694949,19.4366061 Z M14.729798,19.4366061 C16.1039394,19.4366061 17.2093939,18.3350303 17.2093939,16.9735758 C17.2093939,15.6121212 16.1039394,14.5105455 14.729798,14.5105455 C13.3575758,14.5105455 12.2521212,15.6121212 12.2521212,16.9735758 C12.2521212,18.3350303 13.3575758,19.4366061 14.729798,19.4366061 L14.729798,19.4366061 Z M18.9673737,32.3393939 C19.7715152,32.3393939 20.4240404,31.7052121 20.4240404,30.9178182 L20.4240404,21.7464242 C20.4240404,20.9590303 19.7715152,20.3170909 18.9673737,20.3170909 L10.4941414,20.3170909 C9.69,20.3170909 9.03747475,20.9590303 9.03747475,21.7464242 L9.03747475,30.9178182 C9.03747475,31.7052121 9.69,32.3393939 10.4941414,32.3393939 L11.2982828,32.3393939 L11.2982828,44.7941818 C11.2982828,45.6746667 12.0007071,46.3515152 12.8720202,46.3515152 C13.7433333,46.3515152 14.4457576,45.6746667 14.4457576,44.7941818 L14.4457576,32.3393939 L15.0157576,32.3393939 L15.0157576,44.7941818 C15.0157576,45.6746667 15.7181818,46.3515152 16.5894949,46.3515152 C17.4608081,46.3515152 18.1632323,45.6746667 18.1632323,44.7941818 L18.1632323,32.3393939 L18.9673737,32.3393939 Z M41.940101,19.4366061 C43.3142424,19.4366061 44.419697,18.3350303 44.419697,16.9735758 C44.419697,15.6121212 43.3142424,14.5105455 41.940101,14.5105455 C40.5678788,14.5105455 39.4624242,15.6121212 39.4624242,16.9735758 C39.4624242,18.3350303 40.5678788,19.4366061 41.940101,19.4366061 L41.940101,19.4366061 Z M37.7025253,32.3393939 L38.5085859,32.3393939 L38.5085859,44.7941818 C38.5085859,45.6746667 39.2110101,46.3515152 40.080404,46.3515152 C40.9517172,46.3515152 41.6560606,45.6746667 41.6560606,44.7941818 L41.6560606,32.3393939 L42.2260606,32.3393939 L42.2260606,44.7941818 C42.2260606,45.6746667 42.9284848,46.3515152 43.799798,46.3515152 C44.6691919,46.3515152 45.3735354,45.6746667 45.3735354,44.7941818 L45.3735354,32.3393939 L46.1776768,32.3393939 C46.9818182,32.3393939 47.6343434,31.7052121 47.6343434,30.9178182 L47.6343434,21.7464242 C47.6343434,20.9590303 46.9818182,20.3170909 46.1776768,20.3170909 L37.7025253,20.3170909 C36.900303,20.3170909 36.2458586,20.9590303 36.2458586,21.7464242 L36.2458586,30.9178182 C36.2458586,31.7052121 36.900303,32.3393939 37.7025253,32.3393939 L37.7025253,32.3393939 Z M5.7,50.6453333 L51.1234343,50.6453333 L51.1234343,5.62424242 L5.7,5.62424242 L5.7,50.6453333 Z M47.8128283,56.2676364 C52.7854545,56.2676364 56.8215152,52.2763636 56.8215152,47.350303 L56.8215152,8.91927273 C56.8215152,3.99321212 52.7854545,0 47.8128283,0 L8.99333333,0 C4.03606061,0 0,3.99321212 0,8.91927273 L0,47.350303 C0,52.2763636 4.03606061,56.2676364 8.99333333,56.2676364 L47.8128283,56.2676364 Z" id="Fill-4"></path>
                    <path d="M32.606303,32.4495515 C33.4104444,32.4495515 34.0476162,31.8153697 34.0476162,31.0182788 L34.0476162,21.8565818 C34.0476162,21.0691879 33.4104444,20.4253091 32.606303,20.4253091 L24.1330707,20.4253091 C23.3289293,20.4253091 22.676404,21.0691879 22.676404,21.8565818 L22.676404,31.0182788 C22.676404,31.8153697 23.3289293,32.4495515 24.1330707,32.4495515 L24.9352929,32.4495515 L24.9352929,44.9140364 C24.9352929,45.7770667 25.6396364,46.4713697 26.5109495,46.4713697 C27.3803434,46.4713697 28.0846869,45.7770667 28.0846869,44.9140364 L28.0846869,32.4495515 L28.6527677,32.4495515 L28.6527677,44.9140364 C28.6527677,45.7770667 29.3571111,46.4713697 30.2284242,46.4713697 C31.0997374,46.4713697 31.8021616,45.7770667 31.8021616,44.9140364 L31.8021616,32.4495515 L32.606303,32.4495515 Z" id="Fill-6"></path>
                </g>
            </g>
            <g id="Group-2" transform="translate(95.000000, 0.000000)">
                <polygon id="Fill-9" fill="#008EAA" opacity="0" points="0 96 95 96 95 0 0 0"></polygon>
                <g id="Group-14" transform="translate(11.872313, 7.991855)" fill="#231F20">
                    <path d="M23.9048788,14.2390303 C27.5628586,13.9229091 30.4550808,10.8101818 30.4550808,7.17381818 C30.4550808,3.21163636 27.1694242,0.032969697 23.2120505,0 C19.1894242,0.032969697 15.9459899,3.21163636 15.9459899,7.17381818 C15.9459899,8.3529697 16.256899,9.58836364 16.8326566,10.5929697 L19.4235657,46.3418182 L46.0082121,46.3418182 L56.9207374,71.5209697 L71.257101,65.9956364 L69.0596263,60.7980606 L61.0162929,63.6586667 L50.4453838,39.6916364 L25.7396263,39.8448485 L25.4095253,35.3027879 L43.2656869,35.3027879 L43.2656869,28.608 L24.7051818,28.598303 L23.9048788,14.2390303 Z" id="Fill-10"></path>
                    <path d="M50.6263636,65.5150545 C46.1469697,74.2500848 36.7582828,80.015903 26.7535354,80.015903 C12.010303,80.015903 0,68.2224485 0,53.7448727 C0,43.5456 6.30454545,34.1337212 15.6260606,29.9194182 L16.2248485,37.6925091 C10.6764646,41.0786909 7.28525253,47.3022061 7.27373737,53.8108121 C7.28525253,64.2699636 16.000303,72.8537212 26.6671717,72.8537212 C36.4608081,72.8537212 44.749798,65.4723879 45.9224242,55.9926303 L50.6263636,65.5150545 Z" id="Fill-12"></path>
                </g>
            </g>
            <polygon id="Stroke-15" fill="#231F20" fill-rule="nonzero" points="96.2141492 8 96.2141492 88 92.9114263 88 92.9114263 8"></polygon>
        </g>
    </g>
</svg>