<?xml version="1.0" encoding="UTF-8"?>
<svg width="44px" height="44px" viewBox="0 0 44 44" version="1.1" xmlns="http://www.w3.org/2000/svg" xmlns:xlink="http://www.w3.org/1999/xlink">
    <title>GL Circle</title>
    <g id="GL-Circle" stroke="none" stroke-width="1" fill="none" fill-rule="evenodd">
        <rect id="Pill" fill="#00843D" x="7.10542736e-15" y="0" width="44" height="44" rx="22"></rect>
        <g id="Line" transform="translate(6.270397, 13.160088)" fill="#FFFFFF" fill-rule="nonzero">
            <path d="M13.128,15.6 L13.512,17.544 L15.912,17.544 L15.912,8.28 L8.712,8.28 L8.712,11.088 L12.504,11.088 C12.392,12.288 11.996,13.204 11.316,13.836 C10.636,14.468 9.672,14.784 8.424,14.784 C7.576,14.784 6.856,14.62 6.264,14.292 C5.672,13.964 5.192,13.528 4.824,12.984 C4.456,12.44 4.188,11.828 4.02,11.148 C3.852,10.468 3.768,9.768 3.768,9.048 C3.768,8.296 3.852,7.568 4.02,6.864 C4.188,6.16 4.456,5.532 4.824,4.98 C5.192,4.428 5.672,3.988 6.264,3.66 C6.856,3.332 7.576,3.168 8.424,3.168 C9.336,3.168 10.112,3.408 10.752,3.888 C11.392,4.368 11.824,5.088 12.048,6.048 L15.648,6.048 C15.552,5.072 15.288,4.208 14.856,3.456 C14.424,2.704 13.876,2.072 13.212,1.56 C12.548,1.048 11.804,0.66 10.98,0.396 C10.156,0.132 9.304,0 8.424,0 C7.112,0 5.932,0.232 4.884,0.696 C3.836,1.16 2.952,1.8 2.232,2.616 C1.512,3.432 0.96,4.388 0.576,5.484 C0.192,6.58 0,7.768 0,9.048 C0,10.296 0.192,11.46 0.576,12.54 C0.96,13.62 1.512,14.56 2.232,15.36 C2.952,16.16 3.836,16.788 4.884,17.244 C5.932,17.7 7.112,17.928 8.424,17.928 C9.256,17.928 10.08,17.756 10.896,17.412 C11.712,17.068 12.456,16.464 13.128,15.6 Z" id="Path"></path>
            <polygon id="Path" points="18.96 0.408 18.96 17.544 31.08 17.544 31.08 14.376 22.728 14.376 22.728 0.408"></polygon>
        </g>
    </g>
</svg>