<?xml version="1.0" encoding="UTF-8"?>
<svg width="128px" height="128px" viewBox="0 0 128 128" version="1.1" xmlns="http://www.w3.org/2000/svg" xmlns:xlink="http://www.w3.org/1999/xlink">
    <!-- Generator: Sketch 62 (91390) - https://sketch.com -->
    <title>Icon/Ferry 2</title>
    <desc>Created with Sketch.</desc>
    <g id="Icon/Ferry-2" stroke="none" stroke-width="1" fill="none" fill-rule="evenodd">
        <path d="M50.5708316,22.3970945 L50.5708316,30.9023443 L41.5342591,30.9023443 L41.5342591,37.4966848 L64.4817858,27.4926301 L87.4313178,37.4966848 L87.4313178,30.9023443 L78.3553091,30.9023443 L78.3553091,22.3970945 L50.5708316,22.3970945 Z M71.9810147,104.377844 C67.3910759,107.237566 61.5724957,107.237566 56.9825569,104.377844 C52.9509004,102.083759 47.9753887,102.228296 44.08391,104.752546 C39.5346109,107.36374 33.9072144,107.219174 29.4981956,104.377844 C25.6477921,102.101616 20.8623613,102.101616 17.0119578,104.377844 C14.940001,105.713322 12.5399977,106.452803 10.0751962,106.515178 L10.0751962,95.2728055 C12.3751354,95.2580513 14.6380533,94.6927969 16.6744106,93.6243874 C25.8236102,88.2289572 30.0980938,94.7110876 35.1599647,94.6733504 L35.1599647,68.4456018 L27.4358158,49.5241928 C26.8668595,48.3200284 26.7999328,46.9393285 27.2497599,45.6858536 C27.699587,44.4323786 28.6293173,43.408815 29.834406,42.8403515 C29.9694248,42.7764541 30.1073401,42.7187906 30.2481519,42.6673611 L34.9724756,40.6439078 L34.9724756,24.1587245 L43.85899,24.1587245 L43.85899,15.5402628 L56.6075788,15.5402628 L56.6075788,4 L72.3559928,4 L72.3559928,15.5402628 L85.1045817,15.5402628 L85.1045817,24.1587245 L94.1411541,24.1587245 L94.1411541,40.5323657 L98.865812,42.555485 C101.470729,43.511088 102.807313,46.3957876 101.851266,48.9988764 C101.799576,49.1391388 101.74187,49.2769523 101.678148,49.4123167 L93.9148973,68.3330578 L93.9148973,94.5611404 C98.9393372,94.5611404 103.026666,88.0042032 112.400451,93.3996334 C114.432118,94.4850208 116.69631,95.0633971 119,95.0854549 L119,106.326157 C116.541279,106.227497 114.15062,105.490894 112.063238,104.188824 C108.202063,101.952276 103.438176,101.952276 99.5770006,104.188824 C95.1678549,107.030138 89.5403739,107.174702 84.9909519,104.563525 C81.0343325,102.061736 76.0075234,101.989992 71.9810147,104.377844 L71.9810147,104.377844 Z M71.9810147,121.688239 C67.2182963,124.409338 61.3702972,124.409338 56.6075788,121.688239 C52.6777177,119.241655 47.6593098,119.404355 43.8964209,122.100343 C39.3471606,124.711691 33.7196787,124.567123 29.3107065,121.725642 C25.4503263,119.453695 20.630426,119.584683 16.8993307,122.06294 C14.8328629,123.345656 12.431212,123.985034 10,123.89971 L10,112.133692 C12.3171905,112.278347 14.6224247,111.703135 16.5995487,110.486943 C21.3613033,107.37679 25.6735521,107.976579 31.5980064,111.273749 C35.7390032,113.03569 40.4645812,112.772543 44.3840262,110.56175 C49.6708171,107.639281 52.5580153,108.350946 58.1074914,110.973855 C62.0094064,112.99997 66.6543832,112.99997 70.5562982,110.973855 C76.1041034,108.350946 79.1430306,107.639281 84.4298215,110.56175 C88.3209778,112.776856 93.0264588,113.040427 97.1409794,111.273749 C103.140296,107.976245 107.489975,107.526737 112.139437,110.486943 C114.099628,111.742672 116.417713,112.321706 118.738652,112.135362 L118.738652,123.898709 C116.209286,124.07196 113.689771,123.442576 111.539539,122.100343 C107.857718,119.640173 103.089918,119.509015 99.2782212,121.763045 C94.8691921,124.604737 89.2414974,124.749307 84.6921725,122.137746 C80.9170762,119.488731 75.9340649,119.312516 71.9810147,121.688239 L71.9810147,121.688239 Z" id="Icon" fill="#FFFFFF" fill-rule="nonzero"></path>
    </g>
</svg>