<?xml version="1.0" encoding="UTF-8"?>
<svg width="128px" height="128px" viewBox="0 0 128 128" version="1.1" xmlns="http://www.w3.org/2000/svg" xmlns:xlink="http://www.w3.org/1999/xlink">
    <title>Icon/Free</title>
    <g id="Icon/Free" stroke="none" stroke-width="1" fill="none" fill-rule="evenodd">
        <g transform="translate(4.000000, 4.000000)" fill="#00843d" fill-rule="nonzero">
            <path d="M56.899319,41.628965 L65.100681,41.628965 C68.7037685,41.628965 71.5624072,44.6490304 71.5624072,48.172178 L81.8759622,48.172178 C81.8759622,39.1126557 74.917641,31.8144825 66.0947586,31.1851243 L66.0947586,22 L55.7812036,22 L55.7812036,31.1851243 C46.9583212,31.8144375 40,39.112431 40,48.172178 C40,57.6091804 47.5798416,65.284609 56.899319,65.284609 L65.100681,65.284609 C68.7037685,65.284609 71.5624072,68.3046745 71.5624072,71.827822 C71.5624072,75.4763469 68.5799526,78.371035 65.100681,78.371035 L56.899319,78.371035 C53.2962315,78.371035 50.4375928,75.3509696 50.4375928,71.827822 L40.1240378,71.827822 C40.1240378,80.8873443 47.082359,88.1855175 55.9052414,88.8148757 L55.9052414,98 L66.2187964,98 L66.2187964,88.8148757 C75.0416788,88.1855625 82,80.887569 82,71.827822 C82,62.3908196 74.4201584,54.715391 65.100681,54.715391 L56.899319,54.715391 C53.2962315,54.715391 50.4375928,51.6953255 50.4375928,48.172178 C50.4375928,44.5236531 53.2962315,41.628965 56.899319,41.628965 Z" id="Path"></path>
            <path d="M60,0 C26.9052632,0 0,26.9052632 0,60 C0,93.0947368 26.9052632,120 60,120 C93.0947368,120 120,93.0947368 120,60 C120,26.9052632 93.0947368,0 60,0 Z M98.5263158,91.0736842 L88.7997744,81.3471429 L81.3473684,88.7995489 L91.0739098,98.5260902 C82.6107519,105.346692 71.747594,109.515338 60.0002256,109.515338 C32.716015,109.515338 10.4844361,87.283985 10.4844361,59.9995489 C10.4844361,48.2526316 14.6528571,37.3890226 21.4736842,28.9258647 L31.2002256,38.652406 L38.6526316,31.2 L28.9260902,21.4734586 C37.3892481,14.6528571 48.252406,10.4842105 59.9997744,10.4842105 C87.283985,10.4842105 109.515564,32.7155639 109.515564,60 C109.515564,71.7469173 105.347143,82.6105263 98.5263158,91.0736842 L98.5263158,91.0736842 Z" id="Shape"></path>
        </g>
    </g>
</svg>