<?xml version="1.0" encoding="UTF-8"?>
<svg width="128px" height="128px" viewBox="0 0 128 128" version="1.1" xmlns="http://www.w3.org/2000/svg" xmlns:xlink="http://www.w3.org/1999/xlink">
    <!-- Generator: Sketch 63.1 (92452) - https://sketch.com -->
    <title>GL-B</title>
    <desc>Created with Sketch.</desc>
    <g id="Live-maps" stroke="none" stroke-width="1" fill="none" fill-rule="evenodd">
        <g id="GL-B" fill="#FFFFFF">
            <path d="M64,0 C99.346224,0 128,28.653776 128,64 C128,99.346224 99.346224,128 64,128 C28.653776,128 0,99.346224 0,64 C0,28.653776 28.653776,0 64,0 Z M69.664,32.168 L40.096,32.168 L40.096,95 L70.544,95 C74.768,95 74.768,95 78.772,93.944 C82.776,92.888 82.776,92.888 85.9,90.688 C89.024,88.488 89.024,88.488 90.872,85.012 C92.72,81.536 92.72,81.536 92.72,76.784 C92.72,70.888 92.72,70.888 89.86,66.708 C87,62.528 87,62.528 81.192,60.856 C85.416,58.832 85.416,58.832 87.572,55.664 C89.728,52.496 89.728,52.496 89.728,47.744 C89.728,43.344 89.728,43.344 88.276,40.352 C86.824,37.36 86.824,37.36 84.184,35.556 C81.544,33.752 81.544,33.752 77.848,32.96 C74.152,32.168 74.152,32.168 69.664,32.168 Z M68.96,67.016 C73.448,67.016 73.448,67.016 76.176,69.084 C78.904,71.152 78.904,71.152 78.904,75.992 C78.904,78.456 78.904,78.456 78.068,80.04 C77.232,81.624 77.232,81.624 75.824,82.548 C74.416,83.472 74.416,83.472 72.568,83.868 C70.72,84.264 70.72,84.264 68.696,84.264 L53.912,84.264 L53.912,67.016 L68.96,67.016 Z M66.848,42.904 C68.696,42.904 68.696,42.904 70.412,43.212 C72.128,43.52 72.128,43.52 73.448,44.312 C74.768,45.104 74.768,45.104 75.56,46.512 C76.352,47.92 76.352,47.92 76.352,50.12 C76.352,54.08 76.352,54.08 73.976,55.84 C71.6,57.6 71.6,57.6 67.904,57.6 L53.912,57.6 L53.912,42.904 L66.848,42.904 Z" id="Combined-Shape"></path>
        </g>
    </g>
</svg>