<?xml version="1.0" encoding="UTF-8"?>
<svg width="140px" height="139px" viewBox="0 0 140 139" version="1.1" xmlns="http://www.w3.org/2000/svg" xmlns:xlink="http://www.w3.org/1999/xlink">
    <title>B-Icon</title>
    <g id="Master-screens-and-symbols" stroke="none" stroke-width="1" fill="none" fill-rule="evenodd">
        <g id="B-Icon" fill-rule="nonzero">
            <rect id="Pill-Copy" fill="#00843D" x="0" y="0" width="139" height="139" rx="69.5"></rect>
            <path d="M78.7143333,109.77322 C82.2983333,109.77322 85.789,109.32522 89.1863333,108.42922 C92.5836667,107.53322 95.6076667,106.151887 98.2583333,104.28522 C100.909,102.418553 103.018333,100.010553 104.586333,97.0612199 C106.154333,94.1118866 106.938333,90.6212199 106.938333,86.5892199 C106.938333,81.5865533 105.725,77.3118866 103.298333,73.7652199 C100.871667,70.2185533 97.1943333,67.7358866 92.2663333,66.3172199 C95.8503333,64.5998866 98.557,62.3972199 100.386333,59.7092199 C102.215667,57.0212199 103.130333,53.6612199 103.130333,49.6292199 C103.130333,45.8958866 102.514333,42.7598866 101.282333,40.2212199 C100.050333,37.6825533 98.3143333,35.6478866 96.0743333,34.1172199 C93.8343333,32.5865533 91.1463333,31.4852199 88.0103333,30.8132199 C84.8743333,30.1412199 81.4023333,29.8052199 77.5943333,29.8052199 L39.9623333,29.8052199 L39.9623333,109.77322 L78.7143333,109.77322 Z M75.3543333,62.1732199 L57.5463333,62.1732199 L57.5463333,43.4692199 L74.0103333,43.4692199 C75.5783333,43.4692199 77.0903333,43.5998866 78.5463333,43.8612199 C80.0023333,44.1225533 81.2903333,44.5892199 82.4103333,45.2612199 C83.5303333,45.9332199 84.4263333,46.8665533 85.0983333,48.0612199 C85.7703333,49.2558866 86.1063333,50.7865533 86.1063333,52.6532199 C86.1063333,56.0132199 85.0983333,58.4398866 83.0823333,59.9332199 C81.0663333,61.4265533 78.4903333,62.1732199 75.3543333,62.1732199 Z M76.3623333,96.1092199 L57.5463333,96.1092199 L57.5463333,74.1572199 L76.6983333,74.1572199 C80.5063333,74.1572199 83.5676667,75.0345533 85.8823333,76.7892199 C88.197,78.5438866 89.3543333,81.4745533 89.3543333,85.5812199 C89.3543333,87.6718866 88.9996667,89.3892199 88.2903333,90.7332199 C87.581,92.0772199 86.629,93.1412199 85.4343333,93.9252199 C84.2396667,94.7092199 82.8583333,95.2692199 81.2903333,95.6052199 C79.7223333,95.9412199 78.0796667,96.1092199 76.3623333,96.1092199 Z" id="B" fill="#FFFFFF"></path>
        </g>
    </g>
</svg>