<?xml version="1.0" encoding="UTF-8"?>
<svg width="128px" height="128px" viewBox="0 0 128 128" version="1.1" xmlns="http://www.w3.org/2000/svg" xmlns:xlink="http://www.w3.org/1999/xlink">
    <!-- Generator: Sketch 63.1 (92452) - https://sketch.com -->
    <title>GL-C</title>
    <desc>Created with Sketch.</desc>
    <g id="Live-maps" stroke="none" stroke-width="1" fill="none" fill-rule="evenodd">
        <g id="GL-C" fill="#FFFFFF">
            <path d="M64,0 C99.346224,0 128,28.653776 128,64 C128,99.346224 99.346224,128 64,128 C28.653776,128 0,99.346224 0,64 C0,28.653776 28.653776,0 64,0 Z M65.628,30.672 C58.412,30.672 58.412,30.672 52.648,33.224 C46.884,35.776 46.884,35.776 42.924,40.264 C38.964,44.752 38.964,44.752 36.852,50.78 C34.74,56.808 34.74,56.808 34.74,63.848 C34.74,70.712 34.74,70.712 36.852,76.652 C38.964,82.592 38.964,82.592 42.924,86.992 C46.884,91.392 46.884,91.392 52.648,93.9 C58.412,96.408 58.412,96.408 65.628,96.408 C71.436,96.408 71.436,96.408 76.276,94.648 C81.116,92.888 81.116,92.888 84.724,89.544 C88.332,86.2 88.332,86.2 90.532,81.448 C92.732,76.696 92.732,76.696 93.26,70.8 L79.884,70.8 C79.092,77.136 79.092,77.136 75.528,81.008 C71.964,84.88 71.964,84.88 65.628,84.88 C60.964,84.88 60.964,84.88 57.708,83.076 C54.452,81.272 54.452,81.272 52.428,78.28 C50.404,75.288 50.404,75.288 49.48,71.548 C48.556,67.808 48.556,67.808 48.556,63.848 C48.556,59.712 48.556,59.712 49.48,55.84 C50.404,51.968 50.404,51.968 52.428,48.932 C54.452,45.896 54.452,45.896 57.708,44.092 C60.964,42.288 60.964,42.288 65.628,42.288 C68.18,42.288 68.18,42.288 70.512,43.124 C72.844,43.96 72.844,43.96 74.692,45.456 C76.54,46.952 76.54,46.952 77.772,48.932 C79.004,50.912 79.004,50.912 79.356,53.288 L92.732,53.288 C92.116,47.832 92.116,47.832 89.74,43.608 C87.364,39.384 87.364,39.384 83.712,36.524 C80.06,33.664 80.06,33.664 75.44,32.168 C70.82,30.672 70.82,30.672 65.628,30.672 Z" id="Combined-Shape"></path>
        </g>
    </g>
</svg>