<?xml version="1.0" encoding="UTF-8"?>
<svg width="140px" height="140px" viewBox="0 0 140 140" version="1.1" xmlns="http://www.w3.org/2000/svg" xmlns:xlink="http://www.w3.org/1999/xlink">
    <title>Icon/D Copy 2</title>
    <g id="Master-screens-and-symbols" stroke="none" stroke-width="1" fill="none" fill-rule="evenodd">
        <g id="Icon/D-Copy-2" fill-rule="nonzero">
            <rect id="Pill-Copy" fill="#00843D" x="0" y="0" width="140" height="140" rx="69.7378218"></rect>
            <path d="M71.2391847,111.360653 C76.2026379,111.360653 80.75247,110.608615 84.8886811,109.104538 C89.0248921,107.600461 92.6346763,105.41955 95.7180336,102.561804 C98.8013909,99.7040584 101.283118,96.2446819 103.163213,92.1836747 C105.043309,88.1226675 106.208969,83.5728354 106.660192,78.5341783 L89.513717,78.5341783 C88.8368825,83.9488546 86.9755875,88.3106771 83.9298321,91.619646 C80.8840767,94.9286148 76.6538609,96.5830992 71.2391847,96.5830992 C67.2533813,96.5830992 63.8692086,95.8122599 61.0866667,94.2705812 C58.3041247,92.7289026 56.0480096,90.679598 54.3183213,88.1226675 C52.5886331,85.5657371 51.3289688,82.6891903 50.5393285,79.4930273 C49.7496882,76.2968642 49.3548681,73.0066963 49.3548681,69.6225237 C49.3548681,66.0879433 49.7496882,62.6661687 50.5393285,59.3571999 C51.3289688,56.0482311 52.5886331,53.0964805 54.3183213,50.5019481 C56.0480096,47.9074158 58.3041247,45.8393102 61.0866667,44.2976316 C63.8692086,42.7559529 67.2533813,41.9851136 71.2391847,41.9851136 C73.4200959,41.9851136 75.5070024,42.3423318 77.4999041,43.0567683 C79.4928058,43.7712047 81.2788969,44.7676556 82.8581775,46.0461208 C84.437458,47.324586 85.7535252,48.8098618 86.8063789,50.5019481 C87.8592326,52.1940345 88.5360671,54.0553294 88.8368825,56.085833 L105.983357,56.085833 C105.45693,51.4231951 104.178465,47.2869841 102.147962,43.6771999 C100.117458,40.0674158 97.5417266,37.0404613 94.4207674,34.5963366 C91.2998082,32.1522119 87.7652278,30.2909169 83.8170264,29.0124517 C79.8688249,27.7339865 75.676211,27.0947539 71.2391847,27.0947539 C65.07247,27.0947539 59.5261871,28.1852095 54.6003357,30.3661208 C49.6744844,32.5470321 45.5194724,35.5551855 42.1352998,39.3905812 C38.7511271,43.2259769 36.1565947,47.7194062 34.3517026,52.870869 C32.5468106,58.0223318 31.6443645,63.6062167 31.6443645,69.6225237 C31.6443645,75.4884229 32.5468106,80.9595021 34.3517026,86.0357611 C36.1565947,91.1120201 38.7511271,95.5302455 42.1352998,99.2904373 C45.5194724,103.050629 49.6744844,106.00238 54.6003357,108.145689 C59.5261871,110.288998 65.07247,111.360653 71.2391847,111.360653 Z" id="C" fill="#FFFFFF"></path>
        </g>
    </g>
</svg>