<?xml version="1.0" encoding="UTF-8"?>
<svg width="139px" height="139px" viewBox="0 0 139 139" version="1.1" xmlns="http://www.w3.org/2000/svg" xmlns:xlink="http://www.w3.org/1999/xlink">
    <title>D-Icon</title>
    <g id="Master-screens-and-symbols" stroke="none" stroke-width="1" fill="none" fill-rule="evenodd">
        <g id="D-Icon" fill-rule="nonzero">
            <rect id="Pill-Copy" fill="#00843D" x="0" y="0" width="139" height="139" rx="69.5"></rect>
            <path d="M74.3863333,108.77322 C80.509,108.77322 85.829,107.746553 90.3463333,105.69322 C94.8636667,103.639887 98.6343333,100.82122 101.658333,97.2372199 C104.682333,93.6532199 106.941,89.3972199 108.434333,84.4692199 C109.927667,79.5412199 110.674333,74.1652199 110.674333,68.3412199 C110.674333,61.6958866 109.759667,55.9092199 107.930333,50.9812199 C106.101,46.0532199 103.562333,41.9465533 100.314333,38.6612199 C97.0663333,35.3758866 93.221,32.9118866 88.7783333,31.2692199 C84.3356667,29.6265533 79.5383333,28.8052199 74.3863333,28.8052199 L39.8903333,28.8052199 L39.8903333,108.77322 L74.3863333,108.77322 Z M73.1543333,93.9892199 L57.4743333,93.9892199 L57.4743333,43.5892199 L70.0183333,43.5892199 C74.349,43.5892199 77.989,44.2052199 80.9383333,45.4372199 C83.8876667,46.6692199 86.2583333,48.4425533 88.0503333,50.7572199 C89.8423333,53.0718866 91.1303333,55.8532199 91.9143333,59.1012199 C92.6983333,62.3492199 93.0903333,65.9892199 93.0903333,70.0212199 C93.0903333,74.4265533 92.5303333,78.1598866 91.4103333,81.2212199 C90.2903333,84.2825533 88.797,86.7652199 86.9303333,88.6692199 C85.0636667,90.5732199 82.9356667,91.9358866 80.5463333,92.7572199 C78.157,93.5785533 75.693,93.9892199 73.1543333,93.9892199 Z" id="D" fill="#FFFFFF"></path>
        </g>
    </g>
</svg>