<?xml version="1.0" encoding="UTF-8"?>
<svg width="128px" height="128px" viewBox="0 0 128 128" version="1.1" xmlns="http://www.w3.org/2000/svg" xmlns:xlink="http://www.w3.org/1999/xlink">
    <!-- Generator: Sketch 63.1 (92452) - https://sketch.com -->
    <title>GL-D</title>
    <desc>Created with Sketch.</desc>
    <g id="Live-maps" stroke="none" stroke-width="1" fill="none" fill-rule="evenodd">
        <g id="GL-D" fill="#FFFFFF">
            <path d="M64,0 C99.346224,0 128,28.653776 128,64 C128,99.346224 99.346224,128 64,128 C28.653776,128 0,99.346224 0,64 C0,28.653776 28.653776,0 64,0 Z M66.572,32.168 L39.468,32.168 L39.468,95 L66.572,95 C73.788,95 73.788,95 79.112,92.58 C84.436,90.16 84.436,90.16 88,85.936 C91.564,81.712 91.564,81.712 93.324,75.904 C95.084,70.096 95.084,70.096 95.084,63.232 C95.084,55.4 95.084,55.4 92.928,49.592 C90.772,43.784 90.772,43.784 86.944,39.912 C83.116,36.04 83.116,36.04 77.88,34.104 C72.644,32.168 72.644,32.168 66.572,32.168 Z M63.14,43.784 C68.244,43.784 68.244,43.784 71.72,45.236 C75.196,46.688 75.196,46.688 77.308,49.416 C79.42,52.144 79.42,52.144 80.344,55.972 C81.268,59.8 81.268,59.8 81.268,64.552 C81.268,69.744 81.268,69.744 79.948,73.352 C78.628,76.96 78.628,76.96 76.428,79.204 C74.228,81.448 74.228,81.448 71.412,82.416 C68.596,83.384 68.596,83.384 65.604,83.384 L53.284,83.384 L53.284,43.784 L63.14,43.784 Z" id="Combined-Shape"></path>
        </g>
    </g>
</svg>