<svg width="52" height="123" viewBox="0 0 52 123" fill="none" xmlns="http://www.w3.org/2000/svg">
<path fill-rule="evenodd" clip-rule="evenodd" d="M11.4277 3.36218C16.0731 1.71098 20.9697 0.819623 25.9172 0.724609C30.8571 0.818578 35.7462 1.71001 40.3832 3.36218C43.213 4.59058 45.1149 5.76189 45.6549 8.76357L47.7807 25.3989L47.7812 48.413H44.1411V52.4212C44.1492 53.4927 43.5635 54.4863 42.6065 55.0243C41.6496 55.5624 40.4682 55.5624 39.5112 55.0243C38.5543 54.4863 37.9686 53.4927 37.9767 52.4212V48.413H13.9351V52.4212C13.9301 54.0676 12.5531 55.4011 10.8529 55.406C9.15256 55.4015 7.77522 54.068 7.77011 52.4215V48.4133H4.01855V25.3989L6.15566 8.76309C6.73095 5.76141 8.63306 4.56742 11.4277 3.36218ZM14.1288 38.1107C14.1252 36.3556 12.653 34.9355 10.8406 34.9389C9.02812 34.9423 7.56162 36.3678 7.56501 38.123C7.56841 39.8781 9.0404 41.2983 10.8529 41.2951C11.7235 41.2941 12.558 40.9579 13.1725 40.3606C13.787 39.7633 14.131 38.9539 14.1288 38.1107ZM44.3414 38.1107C44.3378 36.3572 42.8682 34.9377 41.0573 34.9389C39.2465 34.9401 37.7788 36.3613 37.7776 38.1149C37.7764 39.8685 39.2421 41.2917 41.0525 41.2951C41.9254 41.2974 42.7632 40.9627 43.3805 40.365C43.9978 39.7673 44.3436 38.956 44.3414 38.1107ZM42.3793 11.7768C42.2377 10.9502 41.4951 10.3469 40.6298 10.3555H11.426C10.5585 10.3466 9.81247 10.9488 9.66557 11.7768L7.90513 24.91C7.88171 25.0608 7.88171 25.2141 7.90513 25.3648C7.88259 25.8174 8.04699 26.26 8.36202 26.5949C8.67706 26.9299 9.11682 27.1296 9.58419 27.1501H42.3793C42.8458 27.1549 43.2949 26.9783 43.6258 26.6598C43.9568 26.3413 44.1419 25.9075 44.1397 25.4557V25.3648C44.1633 25.2141 44.1633 25.0608 44.1397 24.91L42.3793 11.7768Z" fill="#171F26"/>
<path fill-rule="evenodd" clip-rule="evenodd" d="M27.4142 105.414C26.6332 106.195 25.3668 106.195 24.5858 105.414L12.5858 93.4142C11.8047 92.6332 11.8047 91.3668 12.5858 90.5858C13.3668 89.8047 14.6332 89.8047 15.4142 90.5858L26 101.172L36.5858 90.5858C37.3668 89.8047 38.6332 89.8047 39.4142 90.5858C40.1953 91.3668 40.1953 92.6332 39.4142 93.4142L27.4142 105.414Z" fill="#171F26"/>
<path fill-rule="evenodd" clip-rule="evenodd" d="M52 97C52 111.355 40.3546 123 26 123C11.6454 123 1.01808e-06 111.355 2.27299e-06 97C3.52791e-06 82.6454 11.6454 71 26 71C40.3546 71 52 82.6454 52 97ZM26 119C38.1454 119 48 109.145 48 97C48 84.8546 38.1454 75 26 75C13.8546 75 4 84.8546 4 97C4 109.145 13.8546 119 26 119Z" fill="#171F26"/>
</svg>
