<svg width="48" height="82" viewBox="0 0 48 82" fill="none" xmlns="http://www.w3.org/2000/svg">
<g clip-path="url(#clip0)">
<path fill-rule="evenodd" clip-rule="evenodd" d="M19.5346 0.4311C20.603 0.201285 21.6714 -0.0285174 22.7384 -0.264876C23.5149 -0.445257 24.3212 -0.453121 25.101 -0.287917C30.1486 0.572003 35.1421 1.726 40.0563 3.16823C42.3962 3.68417 44.0822 5.73937 44.1392 8.14509V16.4168C44.1264 17.4816 44.6536 18.4799 45.5384 19.0665C47.084 20.0747 48.0164 21.8005 48.0156 23.6517V58.5358C48.0122 60.1937 47.2616 61.7609 45.9742 62.7984L37.3726 69.1807H37.3497L44.3915 82.4062H38.6571L37.6249 80.586H10.4898L9.48054 82.4062H3.70027L10.788 69.1807L2.0029 62.7292C0.74071 61.7041 0.00042537 60.1662 -0.015618 58.5358V23.6517C-0.0186401 21.7644 0.954062 20.0109 2.55339 19.0204C3.46115 18.4416 4.00077 17.4275 3.97552 16.3477V8.14509C3.97552 5.01151 6.72803 3.55993 9.34291 2.84566C12.7138 1.89827 16.1245 1.16462 19.5346 0.4311ZM36.0881 77.798L34.5054 74.941H13.5864L12.0037 77.798H36.0881ZM32.9686 72.176L31.4318 69.4111H16.6141L15.1002 72.176H32.9686ZM14.825 58.3975C14.8296 56.5176 13.7052 54.8204 11.9771 54.0989C10.249 53.3773 8.25823 53.7738 6.9349 55.1031C5.61156 56.4324 5.21686 58.4321 5.93518 60.168C6.65351 61.904 8.34307 63.0334 10.2145 63.0288C12.7608 63.0288 14.825 60.9553 14.825 58.3975ZM42.3501 58.3975C42.3547 56.5176 41.2303 54.8204 39.5022 54.0989C37.774 53.3773 35.7833 53.7738 34.46 55.1031C33.1366 56.4324 32.7419 58.4321 33.4602 60.168C34.1786 61.904 35.8681 63.0334 37.7396 63.0288C40.2859 63.0288 42.3501 60.9553 42.3501 58.3975ZM30.2161 30.2645C30.2097 26.8223 27.4267 24.037 24 24.0434C22.3542 24.0456 20.7767 24.7049 19.6151 25.8761C18.4535 27.0473 17.803 28.6343 17.8069 30.2875C17.8132 33.7297 20.5962 36.5149 24.0229 36.5086C27.4496 36.5022 30.2224 33.7066 30.2161 30.2645ZM38.7947 6.27877L30.3078 4.48157C29.7999 4.36812 29.2682 4.49241 28.8624 4.81945C28.4565 5.14649 28.2205 5.64092 28.2205 6.16356V11.3478C28.226 12.1773 28.8102 12.8891 29.6197 13.0528L38.1066 14.7118C38.6111 14.8063 39.1313 14.6703 39.5258 14.3407C39.9204 14.0112 40.1485 13.5222 40.1481 13.0067V7.93772C40.152 7.13008 39.5838 6.43365 38.7947 6.27877ZM20.2842 6.16356C20.2894 5.64359 20.0581 5.14963 19.6561 4.82205C19.254 4.49448 18.7252 4.36911 18.2197 4.48157L9.75579 6.27877C8.95249 6.41508 8.36815 7.11945 8.37953 7.93772V13.0067C8.37909 13.5222 8.60714 14.0112 9.00173 14.3407C9.39633 14.6703 9.9165 14.8063 10.421 14.7118L18.9079 13.0528C19.7128 12.8871 20.289 12.1732 20.2842 11.3478V6.16356Z" fill="#171F26"/>
</g>
<defs>
<clipPath id="clip0">
<rect width="48" height="82" fill="white"/>
</clipPath>
</defs>
</svg>
