<svg width="124" height="124" viewBox="0 0 124 124" fill="none" xmlns="http://www.w3.org/2000/svg">
<path fill-rule="evenodd" clip-rule="evenodd" d="M124 62C124 96.2417 96.2417 124 62 124C27.7583 124 0 96.2417 0 62C0 27.7583 27.7583 0 62 0C96.2417 0 124 27.7583 124 62ZM53.2812 26.2344C53.2812 25.1298 54.1767 24.2344 55.2812 24.2344H68.7188C69.8233 24.2344 70.7188 25.1298 70.7188 26.2344V37.7344C70.7188 38.8389 69.8233 39.7344 68.7188 39.7344H55.2812C54.1767 39.7344 53.2812 38.8389 53.2812 37.7344V26.2344ZM55.2812 48.4531C54.1767 48.4531 53.2812 49.3486 53.2812 50.4531V97.7969C53.2812 98.9014 54.1767 99.7969 55.2812 99.7969H68.7188C69.8233 99.7969 70.7188 98.9014 70.7188 97.7969V50.4531C70.7188 49.3486 69.8233 48.4531 68.7188 48.4531H55.2812Z" fill="#171F26"/>
</svg>
