<?xml version="1.0" encoding="UTF-8"?>
<svg width="200px" height="200px" viewBox="0 0 200 200" version="1.1" xmlns="http://www.w3.org/2000/svg" xmlns:xlink="http://www.w3.org/1999/xlink">
    <title>Icon/Accessible Blue</title>
    <g id="-PNGs-and-SVGs-for-Export" stroke="none" stroke-width="1" fill="none" fill-rule="evenodd">
        <g id="Icon/Accessible-Blue">
            <rect id="Rectangle" fill="#165C96" x="0" y="0" width="200" height="200" rx="16"></rect>
            <path d="M59.4352804,79.4651228 L60.6480144,95.2443855 C49.5601599,102.208115 42.7253673,114.771265 42.7253673,127.940399 C42.7253673,149.281843 60.1928145,166.689475 81.6075924,166.689475 C101.201571,166.689475 117.911484,151.702391 120.184086,132.483581 L120.184086,132.483581 L129.671947,151.82765 C120.669859,169.563663 101.826621,181.25 81.7264879,181.25 C52.203037,181.25 28.125,157.254417 28.125,127.828681 C28.125,107.17447 40.6871587,87.9759716 59.4352804,79.4651228 L59.4352804,79.4651228 Z M74.6056666,18.75 C82.6090322,18.75 89.1414906,25.2567031 89.1414906,33.236047 C89.1414906,40.6500323 83.4073305,46.9874663 76.0256185,47.6645426 L76.0256185,47.6645426 L77.6731705,76.8059057 L114.945211,76.8228326 L114.945211,90.4286804 L79.0387702,90.4151389 L79.7249671,99.6132202 L129.317978,99.2780674 L150.491568,147.986935 L166.566239,142.204704 L171.012931,152.756937 L142.287779,163.986248 L120.40761,112.897457 L67.064295,112.883915 C65.6567691,93.1374257 64.6011248,78.3275582 63.8973619,68.4543133 C63.4506693,62.1875642 62.7806304,52.7874407 61.8872452,40.2539427 C60.7526425,38.161777 60.0698426,35.6701362 60.0698426,33.236047 C60.0698426,25.2567031 66.598904,18.75 74.6056666,18.75 Z" id="Accessible" fill="#FFFFFF" fill-rule="nonzero"></path>
        </g>
    </g>
</svg>