<?xml version="1.0" encoding="UTF-8"?>
<svg width="128px" height="128px" viewBox="0 0 128 128" version="1.1" xmlns="http://www.w3.org/2000/svg" xmlns:xlink="http://www.w3.org/1999/xlink">
    <!-- Generator: Sketch 63.1 (92452) - https://sketch.com -->
    <title>Icon/Nearby 2</title>
    <desc>Created with Sketch.</desc>
    <g id="Icon/Nearby-2" stroke="none" stroke-width="1" fill="none" fill-rule="evenodd">
        <path d="M75.1658886,29.8995388 C75.1658886,29.8995388 78.1488681,35.9399597 84.1148272,48.0208015 L94.2213196,55.8382492 C96.3895226,58.2060868 96.6683693,61.5235404 94.5423333,63.5385454 C92.7155474,65.2696304 89.2184018,64.0981159 87.47595,62.2746879 L78.6970399,55.4991991 C76.9668302,54.444836 72.9840832,46.0554136 72.9840832,46.0554136 L70.2935527,63.8045481 C69.8433173,65.9904564 70.9423813,67.3907609 70.9423813,67.3907609 L84.7446126,89.8011451 L88.592697,115.508309 C89.4972485,119.724383 87.6500592,122.749647 84.4440023,123.589003 C81.0665567,124.475219 77.9081078,122.418867 77.0783689,119.047661 L73.6628369,96.3120094 L64.4717778,80.8052916 L58.0025345,99.1360486 L45.2000706,118.89054 C43.1162017,122.480888 40.6786735,124.749491 37.2304961,123.77231 C33.7823186,122.802021 31.3937587,118.929131 32.9838649,115.469718 L46.0610948,93.503131 L51.7604492,72.442056 C52.0977857,70.5069896 50.9062262,67.3907609 50.9062262,67.3907609 C49.7840382,63.0547788 50.547126,60.478825 50.547126,60.478825 L53.932733,40.7698156 L45.5156435,48.1751658 L42.0579444,63.1333392 C41.5165738,66.2633504 39.8434936,68.5953535 36.9788539,68.620162 C34.1114938,68.6449706 31.7610202,66.0690168 32.0194634,63.3524813 L36.4701287,44.7722606 C37.0196608,41.1350525 39.0559217,39.9249469 39.0559217,39.9249469 L57.4774866,26.5448725 C64.6186824,23.7644779 70.5148164,24.8827001 75.1658886,29.8995388 Z M72.1428571,4 C77.4290112,4 81.7142857,8.3264791 81.7142857,13.6634615 C81.7142857,19.000444 77.4290112,23.3269231 72.1428571,23.3269231 C66.8567031,23.3269231 62.5714286,19.000444 62.5714286,13.6634615 C62.5714286,8.3264791 66.8567031,4 72.1428571,4 Z" id="noun_Walk_709032_000000" fill="#FFFFFF"></path>
    </g>
</svg>