<?xml version="1.0" encoding="UTF-8"?>
<svg width="128px" height="128px" viewBox="0 0 128 128" version="1.1" xmlns="http://www.w3.org/2000/svg" xmlns:xlink="http://www.w3.org/1999/xlink">
    <g id="Icon/Nearby" stroke="none" stroke-width="1" fill="none" fill-rule="evenodd">
        <path d="M64,0 C99.346224,0 128,28.653776 128,64 C128,99.346224 99.346224,128 64,128 C28.653776,128 0,99.346224 0,64 C0,28.653776 28.653776,0 64,0 Z M72.3834633,37.4293322 C68.8947231,33.6662328 64.4720698,32.8274614 59.1155034,34.9130179 L59.1155034,34.9130179 L45.2976028,44.9493281 C45.2976028,44.9493281 43.7702162,45.8570208 43.3580156,48.5852678 L43.3580156,48.5852678 L40.0195994,62.5221753 C39.8257427,64.5598316 41.5888183,66.4920384 43.7396072,66.4734297 C45.8883555,66.4548209 47.1433225,64.7056 47.5494013,62.3577981 L47.5494013,62.3577981 L50.1429997,51.1377658 L56.4566059,45.5830589 L53.9170833,60.3666637 C53.9170833,60.3666637 53.3446959,62.2988705 54.1864421,65.5512635 C54.1864421,65.5512635 55.0802234,67.8887272 54.8271894,69.3402084 L54.8271894,69.3402084 L50.5521393,85.1379892 L40.7429909,101.614989 C39.5502622,104.209873 41.3419061,107.114903 43.9283624,107.842711 C46.5148187,108.575689 48.3431934,106.874024 49.9062905,104.180926 L49.9062905,104.180926 L59.5093386,89.3632055 L64.3618776,75.6134192 L71.2560336,87.2449113 L73.8180027,104.298782 C74.4403847,106.827502 76.8095175,108.369959 79.3429183,107.705214 C81.7477616,107.075618 83.1333267,104.806386 82.4548283,101.643936 L82.4548283,101.643936 L79.5684043,82.3611526 L69.2154369,65.5512635 C69.2154369,65.5512635 68.3910358,64.5009039 68.7287545,62.8612678 L68.7287545,62.8612678 L70.7469047,49.5477529 C70.7469047,49.5477529 73.7343383,55.8406062 75.0321578,56.6314774 L75.0321578,56.6314774 L81.6171634,61.7137292 C82.9241656,63.0814711 85.5473526,63.9602168 86.9176133,62.6617408 C88.5123397,61.1502981 88.3031785,58.6618969 86.6768229,56.8857967 L86.6768229,56.8857967 L79.0960061,51.0219781 C74.6209775,41.9602142 72.3834633,37.4293322 72.3834633,37.4293322 Z M70.1159062,18.00225 C66.1507951,18.00225 62.9364375,21.2475149 62.9364375,25.2507521 C62.9364375,29.2539893 66.1507951,32.4992542 70.1159062,32.4992542 C74.0810174,32.4992542 77.295375,29.2539893 77.295375,25.2507521 C77.295375,21.2475149 74.0810174,18.00225 70.1159062,18.00225 Z" id="Nearby" fill="#000000"></path>
    </g>
</svg>
