<?xml version="1.0" encoding="UTF-8"?>
<svg width="128px" height="128px" viewBox="0 0 128 128" version="1.1" xmlns="http://www.w3.org/2000/svg" xmlns:xlink="http://www.w3.org/1999/xlink">
    <g id="Icon/No-Service" stroke="none" stroke-width="1" fill="none" fill-rule="evenodd">
        <path d="M90.3152977,0 C90.7679339,-8.32221194e-15 91.2020312,0.179809008 91.5220933,0.499871093 L127.500129,36.4779067 C127.820191,36.7979688 128,37.2320661 128,37.6847023 L128,88.9118635 C128,89.3533529 127.828915,89.7776649 127.52268,90.0956786 L91.5257089,127.477148 C91.2039952,127.811236 90.7601662,128 90.2963624,128 L37.6847023,128 C37.2320661,128 36.7979688,127.820191 36.4779067,127.500129 L0.499871093,91.5220933 C0.179809008,91.2020312 -7.93817384e-15,90.7679339 0,90.3152977 L0,39.0881365 C7.49544971e-15,38.6466471 0.17108472,38.2223351 0.477320169,37.9043214 L36.4742911,0.522851521 C36.7960048,0.188764251 37.2398338,3.63791306e-15 37.7036376,0 L90.3152977,0 Z M85.7191928,32.653577 C85.0542309,31.9855528 83.9736322,31.9830702 83.305608,32.648032 L83.305608,32.648032 L64,51.8651376 L44.694392,32.648032 L44.694392,32.648032 C44.0156471,31.9800379 42.9350802,31.9886954 42.2739467,32.6605087 L42.2739467,32.6605087 L31.6847898,43.4207179 C31.0263262,44.0898181 31.0318689,45.1650945 31.6971954,45.827371 L31.6971954,45.827371 L51.0166276,65.0582374 L31.6916111,84.6954214 C31.6910128,84.6951283 31.6908651,84.6952785 31.6907173,84.6954287 L31.5810437,84.8180991 C31.0331939,85.4931582 31.0784493,86.4868994 31.7113916,87.1084844 L31.7113916,87.1084844 L42.2610265,97.4827252 C42.9333519,98.142986 44.0135724,98.1341311 44.6749835,97.4629374 L44.6749835,97.4629374 L64,77.8257534 L83.3250165,97.4629374 C83.9864276,98.1341311 85.0666481,98.142986 85.7389735,97.4827252 L85.7389735,97.4827252 L96.2886084,87.1084844 C96.2892018,87.1087873 96.289352,87.1086395 96.2895022,87.1084917 L96.401172,86.9876358 C96.9600147,86.3216486 96.9310562,85.3272989 96.3083889,84.6954214 L96.3083889,84.6954214 L76.9833724,65.0582374 L96.3028046,45.827371 C96.9681311,45.1650945 96.9736738,44.0898181 96.3152102,43.4207179 L96.3152102,43.4207179 L85.7260533,32.6605087 C85.7237731,32.6581916 85.7214862,32.655881 85.7191928,32.653577 Z" id="No-service" fill="#FFFFFF"></path>
    </g>
</svg>
