<svg width="86" height="70" viewBox="0 0 86 70" fill="none" xmlns="http://www.w3.org/2000/svg">
    <path fill-rule="evenodd" clip-rule="evenodd"
        d="M13.9392 0.967588C12.8349 -0.023367 11.1355 0.0120242 10.0737 1.07376C8.97539 2.17211 8.97539 3.95289 10.0737 5.05124L15.2082 10.1857C10.5531 12.7487 6.17712 16.0034 2.23085 19.9496C-0.515021 22.6955 -0.515021 27.1474 2.23085 29.8933C4.97673 32.6392 9.42867 32.6392 12.1745 29.8933C16.1904 25.8775 20.7948 22.8089 25.7101 20.6876L33.9512 28.9287C28.7078 30.416 23.7599 33.2235 19.6323 37.3511C16.8864 40.097 16.8864 44.5489 19.6323 47.2948C22.3782 50.0406 26.8301 50.0406 29.576 47.2948C34.3666 42.5042 41.0804 40.8091 47.232 42.2095L71.9487 66.9262L72.0608 67.0324C73.1651 68.0234 74.8645 67.988 75.9262 66.9262C77.0246 65.8279 77.0246 64.0471 75.9262 62.9488L14.0512 1.07376L13.9392 0.967588ZM46.4543 27.8518L66.127 47.5245C66.2086 47.4502 66.2888 47.3736 66.3677 47.2948C69.1135 44.5489 69.1135 40.097 66.3677 37.3511C60.7947 31.7781 53.7264 28.6117 46.4543 27.8518ZM24.6497 6.04723L36.2501 17.6477C49.5338 15.577 63.591 19.6589 73.8254 29.8933C76.5713 32.6392 81.0232 32.6392 83.7691 29.8933C86.515 27.1474 86.515 22.6955 83.7691 19.9496C67.778 3.95851 44.7306 -0.675617 24.6497 6.04723ZM51.4375 60.7188C51.4375 65.3787 47.6599 69.1562 43 69.1562C38.3401 69.1562 34.5625 65.3787 34.5625 60.7188C34.5625 56.0588 38.3401 52.2812 43 52.2812C47.6599 52.2812 51.4375 56.0588 51.4375 60.7188Z"
        fill="#171F26" />
</svg>