<?xml version="1.0" encoding="UTF-8"?>
<svg width="128px" height="128px" viewBox="0 0 128 128" version="1.1" xmlns="http://www.w3.org/2000/svg" xmlns:xlink="http://www.w3.org/1999/xlink">
    <!-- Generator: Sketch 62 (91390) - https://sketch.com -->
    <title>Icon/Normal Service</title>
    <desc>Created with Sketch.</desc>
    <g id="Icon/Normal-Service" stroke="none" stroke-width="1" fill="none" fill-rule="evenodd">
        <path d="M64,-3.69482223e-13 C99.346652,-3.69482223e-13 128,28.6533172 128,64 C128,99.3457778 99.346652,128 64,128 C28.6533222,128 0,99.3457778 0,64 C0,28.6533172 28.6533222,-3.69482223e-13 64,-3.69482223e-13 Z M91.2399056,28.5454125 L53.6,77.8666706 L30.3714827,58.4254106 C29.6502161,57.8217418 28.576501,57.915408 27.9706567,58.6348482 L17.3731443,71.2193948 C16.7660038,71.9403741 16.8582885,73.0170279 17.5792678,73.6241683 C17.5820898,73.6265448 17.5849196,73.6289121 17.587757,73.6312702 L54.3914256,104.218104 C55.1163272,104.820556 56.1923598,104.721291 56.7948118,103.99639 C56.8028544,103.986713 56.8107897,103.976947 56.8186163,103.967094 L107.175211,40.5740173 C107.761483,39.8359689 107.638444,38.7623948 106.900396,38.1761225 C106.888018,38.1662896 106.875503,38.1566292 106.862856,38.147144 L93.6206225,28.2154683 C92.8710276,27.6532721 91.8083546,27.8005483 91.2399056,28.5454125 Z" id="Normal" fill="#FFFFFF"></path>
    </g>
</svg>