<svg width="30" height="27" viewBox="0 0 30 27" fill="none" xmlns="http://www.w3.org/2000/svg">
<path fill-rule="evenodd" clip-rule="evenodd" d="M29.1138 24.4268L15.7344 1.46177C15.6237 1.27185 15.4648 1.11411 15.2734 1.00431C14.6699 0.658096 13.8978 0.862906 13.5489 1.46177L0.169469 24.4268C0.0584524 24.6174 0 24.8336 0 25.0537C0 25.7455 0.565106 26.3062 1.2622 26.3062H28.0211C28.2429 26.3062 28.4608 26.2482 28.6529 26.1381C29.2564 25.7918 29.4627 25.0257 29.1138 24.4268ZM12.4735 9.26405C12.4578 9.0141 12.6563 8.80273 12.9067 8.80273H16.3989C16.6493 8.80273 16.8478 9.0141 16.832 9.26405L16.2844 17.9561C16.27 18.1847 16.0804 18.3628 15.8513 18.3628H13.4543C13.2252 18.3628 13.0355 18.1847 13.0211 17.9561L12.4735 9.26405ZM12.8438 20.7856C12.8438 20.5459 13.0381 20.3516 13.2778 20.3516H16.0233C16.263 20.3516 16.4573 20.5459 16.4573 20.7856V23.5026C16.4573 23.7423 16.263 23.9366 16.0233 23.9366H13.2778C13.0381 23.9366 12.8438 23.7423 12.8438 23.5026V20.7856Z" fill="white"/>
</svg>
