<svg width="31" height="27" viewBox="0 0 31 27" fill="none" xmlns="http://www.w3.org/2000/svg">
<path fill-rule="evenodd" clip-rule="evenodd" d="M29.9928 24.4268L16.6133 1.46177C16.5027 1.27185 16.3437 1.11411 16.1523 1.00431C15.5488 0.658096 14.7767 0.862906 14.4278 1.46177L1.04838 24.4268C0.937359 24.6174 0.878906 24.8336 0.878906 25.0537C0.878906 25.7455 1.44401 26.3062 2.14111 26.3062H28.9C29.1218 26.3062 29.3397 26.2482 29.5318 26.1381C30.1353 25.7918 30.3417 25.0257 29.9928 24.4268ZM13.3524 9.26405C13.3367 9.0141 13.5352 8.80273 13.7856 8.80273H17.2778C17.5282 8.80273 17.7267 9.0141 17.7109 9.26405L17.1634 17.9561C17.1489 18.1847 16.9593 18.3628 16.7302 18.3628H14.3332C14.1041 18.3628 13.9144 18.1847 13.9 17.9561L13.3524 9.26405ZM13.7227 20.7856C13.7227 20.5459 13.917 20.3516 14.1567 20.3516H16.9022C17.1419 20.3516 17.3363 20.5459 17.3363 20.7856V23.5026C17.3363 23.7423 17.1419 23.9366 16.9022 23.9366H14.1567C13.917 23.9366 13.7227 23.7423 13.7227 23.5026V20.7856Z" fill="#171F26"/>
</svg>
