<svg width="26" height="30" viewBox="0 0 26 30" fill="none" xmlns="http://www.w3.org/2000/svg">
<path fill-rule="evenodd" clip-rule="evenodd" d="M12.2812 22.7289C12.6744 22.5013 13.1594 22.5013 13.5527 22.7289L17.3528 24.9281C17.9595 25.2792 18.1667 26.0557 17.8156 26.6624C17.4644 27.2692 16.688 27.4764 16.0812 27.1252L12.9169 25.294L9.75262 27.1252C9.14589 27.4764 8.3694 27.2692 8.01827 26.6624C7.66715 26.0557 7.87436 25.2792 8.48108 24.9281L12.2812 22.7289Z" fill="#171F26"/>
<path fill-rule="evenodd" clip-rule="evenodd" d="M8.01827 3.399C8.3694 2.79228 9.14589 2.58507 9.75262 2.93619L12.9169 4.76744L16.0812 2.93619C16.688 2.58507 17.4644 2.79228 17.8156 3.399C18.1667 4.00573 17.9595 4.78222 17.3528 5.13335L13.5527 7.33252C13.1594 7.56013 12.6744 7.56013 12.2812 7.33252L8.48108 5.13335C7.87436 4.78222 7.66715 4.00573 8.01827 3.399Z" fill="#171F26"/>
<path fill-rule="evenodd" clip-rule="evenodd" d="M12.9183 0.566406C13.6193 0.566406 14.1875 1.13468 14.1875 1.83569V28.2258C14.1875 28.9268 13.6193 29.4951 12.9183 29.4951C12.2173 29.4951 11.649 28.9268 11.649 28.2258V1.83569C11.649 1.13468 12.2173 0.566406 12.9183 0.566406Z" fill="#171F26"/>
<path fill-rule="evenodd" clip-rule="evenodd" d="M20.4887 4.96484C21.1897 4.96484 21.758 5.53312 21.758 6.23412V9.90053L24.9245 11.7331C25.5312 12.0842 25.7385 12.8607 25.3873 13.4674C25.0362 14.0742 24.2597 14.2814 23.653 13.9302L19.8529 11.7311C19.4608 11.5042 19.2194 11.0855 19.2194 10.6325V6.23412C19.2194 5.53312 19.7877 4.96484 20.4887 4.96484Z" fill="#171F26"/>
<path fill-rule="evenodd" clip-rule="evenodd" d="M0.414068 16.5964C0.765193 15.9897 1.54168 15.7825 2.14841 16.1336L5.94848 18.3328C6.34056 18.5597 6.58199 18.9783 6.58199 19.4313V23.8297C6.58199 24.5307 6.01372 25.099 5.31272 25.099C4.61171 25.099 4.04344 24.5307 4.04344 23.8297V20.1633L0.876875 18.3307C0.270149 17.9796 0.0629427 17.2031 0.414068 16.5964Z" fill="#171F26"/>
<path fill-rule="evenodd" clip-rule="evenodd" d="M25.387 7.79706C25.7384 8.40363 25.5316 9.18022 24.925 9.53162L2.14892 22.7267C1.54236 23.0781 0.765769 22.8713 0.414363 22.2647C0.0629564 21.6581 0.269802 20.8815 0.876366 20.5301L23.6524 7.33506C24.259 6.98365 25.0356 7.1905 25.387 7.79706Z" fill="#171F26"/>
<path fill-rule="evenodd" clip-rule="evenodd" d="M5.31175 4.966C6.01275 4.966 6.58103 5.53427 6.58103 6.23528V10.6336C6.58103 11.0866 6.3396 11.5053 5.94752 11.7322L2.14745 13.9314C1.54072 14.2825 0.764227 14.0753 0.413102 13.4686C0.0619767 12.8619 0.269183 12.0854 0.875909 11.7342L4.04247 9.90169V6.23528C4.04247 5.53427 4.61075 4.966 5.31175 4.966Z" fill="#171F26"/>
<path fill-rule="evenodd" clip-rule="evenodd" d="M25.3903 16.5956C25.7414 17.2023 25.5342 17.9788 24.9275 18.3299L21.7609 20.1625V23.8289C21.7609 24.5299 21.1926 25.0982 20.4916 25.0982C19.7906 25.0982 19.2223 24.5299 19.2223 23.8289V19.4306C19.2223 18.9775 19.4638 18.5589 19.8558 18.332L23.6559 16.1328C24.2626 15.7817 25.0391 15.9889 25.3903 16.5956Z" fill="#171F26"/>
<path fill-rule="evenodd" clip-rule="evenodd" d="M0.413102 7.79873C0.764227 7.192 1.54072 6.9848 2.14745 7.33592L9.74759 11.7343C10.3543 12.0854 10.5615 12.8619 10.2104 13.4686C9.85927 14.0753 9.08278 14.2826 8.47605 13.9314L0.875909 9.53307C0.269183 9.18195 0.0619767 8.40546 0.413102 7.79873Z" fill="#171F26"/>
<path fill-rule="evenodd" clip-rule="evenodd" d="M0.413102 7.79873C0.764227 7.192 1.54072 6.9848 2.14745 7.33592L24.924 20.5313C25.5306 20.8827 25.7374 21.6593 25.386 22.2658C25.0346 22.8724 24.258 23.0793 23.6515 22.7279L0.875909 9.53307C0.269183 9.18195 0.0619767 8.40546 0.413102 7.79873Z" fill="#171F26"/>
</svg>
