<?xml version="1.0" encoding="UTF-8"?>
<svg width="128px" height="128px" viewBox="0 0 128 128" version="1.1" xmlns="http://www.w3.org/2000/svg" xmlns:xlink="http://www.w3.org/1999/xlink">
    <!-- Generator: Sketch 62 (91390) - https://sketch.com -->
    <title>Icon/Subway</title>
    <desc>Created with Sketch.</desc>
    <g id="Icon/Subway" stroke="none" stroke-width="1" fill="none" fill-rule="evenodd">
        <path d="M63.6480098,0.000902503617 C98.9874445,-0.184847449 127.009811,28.3258008 127.977635,63.6586531 C128.916397,97.9310025 100.182693,127.078166 64.3324188,127.999074 C28.9926265,128.187163 0.190854488,99.687443 0.000925514254,64.3422337 C-0.187134038,28.9970242 28.3082177,0.190837094 63.6480098,0.000902503617 Z M46.9795292,16.8874184 L46.6710069,16.8924109 C39.5939767,17.0875726 33.8472936,22.8059996 33.6897486,29.9559413 L33.6897486,29.9559413 L33.6897486,78.3701832 L33.6957866,78.6889201 C33.8821204,84.7299684 38.136248,89.90126 44.0600736,91.2291995 L44.0600736,91.2291995 L28.4452532,114.665931 L37.5118543,114.665931 L48.6821735,98.2808321 L79.4966174,98.2808321 L90.6669366,114.665931 L99.5556723,114.665931 L83.8816523,91.2291995 L84.1918834,91.1557806 C90.05649,89.6940023 94.20935,84.4409123 94.252244,78.3701832 L94.252244,78.3701832 L94.252244,29.9855409 L94.2423801,29.671604 C93.9374647,22.5770542 88.1225241,16.9544817 81.0211598,16.8888021 L81.0211598,16.8888021 L47.2896503,16.8894613 L46.9795292,16.8874184 Z M42.71358,74.0316637 C44.408409,72.3367704 46.9573471,71.8297139 49.1718081,72.746938 C51.3862691,73.6641621 52.8301435,75.8250314 52.8301435,78.2219186 C52.8301435,81.4946808 50.177105,84.1478201 46.9043197,84.1479673 C44.5074156,84.1479673 42.3464661,82.7043082 41.4291359,80.4899041 C40.5118056,78.2755 41.018751,75.726557 42.71358,74.0316637 Z M80.8596742,72.236745 C84.1431068,72.236745 86.8071498,74.8941275 86.8153649,78.1775268 C86.823542,81.460926 84.172799,84.1315753 80.8894073,84.1479673 L80.8894073,84.1479673 L80.8299411,84.1479673 L80.6070776,84.1427606 C77.4274344,84.0098656 74.8959922,81.3863033 74.9039835,78.1775268 C74.9121986,74.8941275 77.5762416,72.236745 80.8596742,72.236745 Z M80.5546372,30.3918736 L80.8411167,30.3961028 C82.4605191,30.456119 84.0060028,31.1266033 85.1593231,32.2849689 C86.4483282,33.5796128 87.1257635,35.3614491 87.0224296,37.1854381 L87.0224296,37.1854381 L87.0224296,45.8965137 L87.0296296,46.1998427 L87.0296296,46.1998427 L87.0224296,46.5034383 C86.9419979,48.2146094 86.1850686,49.823737 84.9181701,50.9768051 C83.6512715,52.1298733 81.9781899,52.7324206 80.2670118,52.6518838 L80.2670118,52.6518838 L47.6747141,52.6518838 L47.3712497,52.6590837 L47.3712497,52.6590837 L47.0677852,52.6518838 C45.3566021,52.5714527 43.7474631,51.8145288 42.5943868,50.5476391 C41.4413106,49.2807495 40.8387589,47.6076797 40.9192963,45.8965137 L40.9192963,45.8965137 L40.9192963,37.1854381 L40.9093918,36.8978396 C40.8886105,35.1751237 41.5607891,33.5111737 42.7820264,32.2845941 C44.0711101,30.9898712 45.8501843,30.3047673 47.6747141,30.4004683 L47.6747141,30.4004683 L80.2670118,30.4004683 L80.5546372,30.3918736 Z M70.6670812,19.7635529 C71.8653202,19.7783775 72.8420325,20.7290624 72.8891985,21.926456 L72.8891985,21.926456 L72.8891985,25.778401 L72.8875985,25.8687997 L72.8756754,26.0271529 C72.7482393,27.1762176 71.7513017,28.0473633 70.5782819,28.0005026 L70.5782819,28.0005026 L57.4525101,27.970903 L57.256991,27.9649439 C56.7385942,27.9262561 56.2477576,27.7066531 55.872337,27.3411484 C55.4499888,26.9299557 55.2083243,26.3678025 55.2005264,25.778401 L55.2005264,25.778401 L55.2005264,21.926456 L55.2120749,21.7702816 C55.3352465,20.6364032 56.2953407,19.7626482 57.4525101,19.7635529 L57.4525101,19.7635529 Z M59.052943,7.99972163 C56.9745916,7.99962345 55.2896203,9.6842645 55.2893251,11.7626012 C55.2887596,12.7611333 55.685104,13.7189464 56.3910779,14.4251153 C57.0970518,15.1312843 58.0547592,15.5278973 59.0524985,15.5265474 L59.0524985,15.5265474 L59.0532985,15.5265474 L59.2469512,15.5216237 C61.2352954,15.4205588 62.8162997,13.7763454 62.8162046,11.7629568 C62.8161064,9.68462006 61.1312943,7.99981982 59.052943,7.99972163 Z M69.037493,8.00078824 C66.9592973,8.00078824 65.2745869,9.68548682 65.2745869,11.7636678 C65.2745869,12.7616672 65.6709413,13.7188115 66.3766385,14.4245036 C67.0823356,15.1301958 68.0394866,15.5265474 69.037493,15.5265474 C71.1156887,15.5265474 72.8003991,13.8418488 72.8003991,11.7636678 C72.8003991,9.68548682 71.1156887,8.00078824 69.037493,8.00078824 Z" id="Subway" fill="#FFFFFF"></path>
    </g>
</svg>