<svg width="64" height="64" viewBox="0 0 64 64" fill="none" xmlns="http://www.w3.org/2000/svg">
<path d="M49.56 6.44658C46.4832 3.3687 42.5625 1.27247 38.294 0.423085C34.0255 -0.426297 29.6008 0.0093385 25.58 1.67488C21.5591 3.34042 18.1226 6.16102 15.7053 9.77983C13.288 13.3986 11.9986 17.653 12 22.0048V38.133H2L18.52 64L35.05 38.133H24V22.0048C24 19.3529 25.0536 16.8097 26.9289 14.9345C28.8043 13.0594 31.3478 12.0059 34 12.0059C36.6522 12.0059 39.1957 13.0594 41.0711 14.9345C42.9464 16.8097 44 19.3529 44 22.0048V64H56V22.0048C56.0064 19.1149 55.4407 16.2523 54.3354 13.582C53.2301 10.9118 51.6071 8.48667 49.56 6.44658Z" fill="#231F20"/>
</svg>
