<svg width="132" height="100" viewBox="0 0 132 100" fill="none" xmlns="http://www.w3.org/2000/svg">
<mask id="path-1-inside-1_1682_318789" fill="white">
<rect width="132" height="100" rx="3.02018"/>
</mask>
<rect width="132" height="100" rx="3.02018" fill="#A6A6A6" stroke="black" stroke-opacity="0.2" stroke-width="12" mask="url(#path-1-inside-1_1682_318789)"/>
<g opacity="0.85">
<path fill-rule="evenodd" clip-rule="evenodd" d="M40.4323 24.6984C38.9678 23.234 36.5935 23.234 35.129 24.6984C33.6645 26.1629 33.6645 28.5373 35.129 30.0018L48.2739 43.1467C46.5133 43.1191 34.8344 43.4402 34.8344 56.8143C34.8344 62.1715 40.1915 68.3321 48.4951 68.3321L73.4594 68.3321L83.8791 78.7518C85.3435 80.2163 87.7179 80.2163 89.1824 78.7518C90.6469 77.2874 90.6469 74.913 89.1824 73.4485L83.9756 68.2418C83.9941 68.2395 84.0125 68.2372 84.0309 68.2348L50.6653 34.8693C50.6577 34.8824 50.6501 34.8956 50.6426 34.9087L40.4323 24.6984ZM95.3702 56.8142C95.3702 59.8997 93.4154 63.2517 90.4271 65.5397L55.0955 30.2081C57.4603 28.6931 60.625 27.6836 64.8344 27.6178C78.5487 27.4035 82.513 38.0642 82.513 43.1535C82.513 43.1535 95.3702 42.3499 95.3702 56.8142Z" fill="#171F26"/>
</g>
</svg>
