<svg width="132" height="100" viewBox="0 0 132 100" fill="none" xmlns="http://www.w3.org/2000/svg">
<mask id="path-1-inside-1_1682_318788" fill="white">
<rect width="132" height="100" rx="3.02018"/>
</mask>
<rect width="132" height="100" rx="3.02018" fill="#C28C00" stroke="black" stroke-opacity="0.2" stroke-width="12" mask="url(#path-1-inside-1_1682_318788)"/>
<g filter="url(#filter0_d_1682_318788)">
<path fill-rule="evenodd" clip-rule="evenodd" d="M43.5 50.4512C43.5 45.4806 47.5294 41.4512 52.5 41.4512V41.4512C57.4706 41.4512 61.5 45.4806 61.5 50.4512V72.0512C61.5 74.2879 59.6868 76.1012 57.45 76.1012H47.55C45.3132 76.1012 43.5 74.2879 43.5 72.0512V50.4512Z" fill="white"/>
<path fill-rule="evenodd" clip-rule="evenodd" d="M70.5 50.4512C70.5 45.4806 74.5294 41.4512 79.5 41.4512V41.4512C84.4706 41.4512 88.5 45.4806 88.5 50.4512V72.0512C88.5 74.2879 86.6868 76.1012 84.45 76.1012H74.55C72.3132 76.1012 70.5 74.2879 70.5 72.0512V50.4512Z" fill="white"/>
<circle cx="52.4016" cy="29.968" r="6.3" fill="white"/>
<circle cx="79.4016" cy="29.968" r="6.3" fill="white"/>
</g>
<defs>
<filter id="filter0_d_1682_318788" x="40.8" y="22.768" width="50.4" height="57.8331" filterUnits="userSpaceOnUse" color-interpolation-filters="sRGB">
<feFlood flood-opacity="0" result="BackgroundImageFix"/>
<feColorMatrix in="SourceAlpha" type="matrix" values="0 0 0 0 0 0 0 0 0 0 0 0 0 0 0 0 0 0 127 0" result="hardAlpha"/>
<feOffset dy="1.8"/>
<feGaussianBlur stdDeviation="1.35"/>
<feComposite in2="hardAlpha" operator="out"/>
<feColorMatrix type="matrix" values="0 0 0 0 0 0 0 0 0 0 0 0 0 0 0 0 0 0 0.3 0"/>
<feBlend mode="normal" in2="BackgroundImageFix" result="effect1_dropShadow_1682_318788"/>
<feBlend mode="normal" in="SourceGraphic" in2="effect1_dropShadow_1682_318788" result="shape"/>
</filter>
</defs>
</svg>
