<svg width="132" height="100" viewBox="0 0 132 100" fill="none" xmlns="http://www.w3.org/2000/svg">
<mask id="path-1-inside-1_1682_318790" fill="white">
<rect width="132" height="100" rx="3.02018"/>
</mask>
<rect width="132" height="100" rx="3.02018" fill="#171F26" stroke="black" stroke-opacity="0.2" stroke-width="12" mask="url(#path-1-inside-1_1682_318790)"/>
<path fill-rule="evenodd" clip-rule="evenodd" d="M54.7729 23.7151C54.9053 23.5776 55.0878 23.5 55.2786 23.5H76.7292C76.9154 23.5 77.094 23.574 77.2256 23.7056L91.8944 38.3744C92.0261 38.506 92.1 38.6846 92.1 38.8708V59.7569C92.1 59.9385 92.0296 60.1131 91.9037 60.2439L77.2271 75.4849C77.0948 75.6224 76.9122 75.7 76.7215 75.7H55.2708C55.0846 75.7 54.9061 75.626 54.7744 75.4944L40.1056 60.8256C39.974 60.694 39.9 60.5154 39.9 60.3292V39.4431C39.9 39.2615 39.9704 39.0869 40.0964 38.9561L54.7729 23.7151Z" fill="white"/>
<path fill-rule="evenodd" clip-rule="evenodd" d="M50.5813 40.4541C50.3076 40.1816 50.3053 39.7393 50.5762 39.4641L55.7767 34.1796C56.0497 33.9022 56.4964 33.8999 56.7723 34.1745L66.0486 43.4084L75.325 34.1745C75.6009 33.8999 76.0476 33.9022 76.3206 34.1796L81.5211 39.4641C81.792 39.7393 81.7897 40.1816 81.516 40.4541L72.2339 49.6936L81.5181 59.1277C81.7901 59.4041 81.7865 59.8487 81.51 60.1206L76.3257 65.2187C76.0494 65.4905 75.6051 65.4868 75.3332 65.2106L66.0486 55.776L56.7641 65.2106C56.4922 65.4868 56.0479 65.4905 55.7715 65.2187L50.5873 60.1206C50.3108 59.8487 50.3071 59.4041 50.5792 59.1277L59.8633 49.6936L50.5813 40.4541Z" fill="#171F26"/>
</svg>
