<svg xmlns="http://www.w3.org/2000/svg" viewBox="0 0 69 69" fill="none">
  <ellipse cx="34.5" cy="34" rx="18.5" ry="20" fill="#E6E4E1"/>
  <path d="M49.1731 2.96694L47.7656 4.37451L49.1731 2.96693C48.554 2.34782 47.7143 2 46.8387 2H22.1757C21.2785 2 20.42 2.36514 19.7977 3.01139L2.92332 20.5348L4.36396 21.922L2.92331 20.5348C2.33094 21.1499 2 21.9707 2 22.8247V46.8387C2 47.7143 2.34782 48.554 2.96693 49.1731L4.38115 47.7589L2.96694 49.1731L19.8269 66.0331C20.446 66.6522 21.2857 67 22.1613 67H46.8243C47.7215 67 48.58 66.6348 49.2023 65.9886L66.0767 48.4652C66.6691 47.8501 67 47.0293 67 46.1753V22.1613C67 21.2857 66.6522 20.446 66.0331 19.8269L49.1731 2.96694ZM29.7381 36.4072L31.133 34.9898L29.7236 33.5869L21.3529 25.2545L24.7346 21.8183L33.089 30.1344L34.5 31.5389L35.911 30.1344L44.2654 21.8183L47.6471 25.2545L39.2764 33.5869L37.867 34.9898L39.2619 36.4072L47.6386 44.9192L44.3032 48.1991L35.9255 39.686L34.5 38.2375L33.0745 39.686L24.6968 48.1991L21.3614 44.9192L29.7381 36.4072ZM20.8712 45.4173L20.8725 45.416C20.8721 45.4164 20.8716 45.4169 20.8712 45.4173L20.3732 44.9273L20.8712 45.4173Z" fill="currentColor" stroke="#E6E4E1" stroke-width="4"/>
</svg>