<svg viewBox="0 0 69 69" fill="none" xmlns="http://www.w3.org/2000/svg">
<g id="Group 647">
<ellipse id="Ellipse 26" cx="34.5" cy="34" rx="18.5" ry="20" fill="#E6E4E1"/>
<g id="No service">
<mask id="path-2-outside-1_1695_2444" maskUnits="userSpaceOnUse" x="0" y="0" width="69" height="69" fill="black">
<rect fill="white" width="69" height="69"/>
<path fill-rule="evenodd" clip-rule="evenodd" d="M22.1757 4C21.822 4 21.4836 4.14393 21.2383 4.39867L4.36396 21.922C4.13045 22.1645 4 22.4881 4 22.8247V46.8387C4 47.1839 4.1371 47.5149 4.38115 47.7589L21.2411 64.6188C21.4851 64.8629 21.8161 65 22.1613 65H46.8243C47.178 65 47.5164 64.8561 47.7617 64.6013L64.636 47.078C64.8695 46.8355 65 46.5119 65 46.1753V22.1613C65 21.8161 64.8629 21.4851 64.6188 21.2411L47.7589 4.38115C47.5149 4.1371 47.1839 4 46.8387 4H22.1757ZM19.4401 24.3468C18.938 24.857 18.9423 25.6769 19.4496 26.1819L28.3126 35.0043L19.4457 44.0145C18.9414 44.5269 18.9482 45.3511 19.4608 45.8551L23.7924 50.1148C24.3047 50.6186 25.1284 50.6118 25.6324 50.0997L34.5 41.0888L43.3676 50.0997C43.8716 50.6118 44.6953 50.6186 45.2076 50.1148L49.5392 45.8551C50.0518 45.3511 50.0586 44.5269 49.5543 44.0145L40.6874 35.0043L49.5504 26.1819C50.0577 25.6769 50.062 24.857 49.5599 24.3468L45.1981 19.9146C44.6919 19.4003 43.8639 19.396 43.3525 19.9051L34.5 28.717L25.6475 19.9051C25.1361 19.396 24.3081 19.4003 23.8019 19.9146L19.4401 24.3468Z"/>
</mask>
<path fill-rule="evenodd" clip-rule="evenodd" d="M22.1757 4C21.822 4 21.4836 4.14393 21.2383 4.39867L4.36396 21.922C4.13045 22.1645 4 22.4881 4 22.8247V46.8387C4 47.1839 4.1371 47.5149 4.38115 47.7589L21.2411 64.6188C21.4851 64.8629 21.8161 65 22.1613 65H46.8243C47.178 65 47.5164 64.8561 47.7617 64.6013L64.636 47.078C64.8695 46.8355 65 46.5119 65 46.1753V22.1613C65 21.8161 64.8629 21.4851 64.6188 21.2411L47.7589 4.38115C47.5149 4.1371 47.1839 4 46.8387 4H22.1757ZM19.4401 24.3468C18.938 24.857 18.9423 25.6769 19.4496 26.1819L28.3126 35.0043L19.4457 44.0145C18.9414 44.5269 18.9482 45.3511 19.4608 45.8551L23.7924 50.1148C24.3047 50.6186 25.1284 50.6118 25.6324 50.0997L34.5 41.0888L43.3676 50.0997C43.8716 50.6118 44.6953 50.6186 45.2076 50.1148L49.5392 45.8551C50.0518 45.3511 50.0586 44.5269 49.5543 44.0145L40.6874 35.0043L49.5504 26.1819C50.0577 25.6769 50.062 24.857 49.5599 24.3468L45.1981 19.9146C44.6919 19.4003 43.8639 19.396 43.3525 19.9051L34.5 28.717L25.6475 19.9051C25.1361 19.396 24.3081 19.4003 23.8019 19.9146L19.4401 24.3468Z" fill="#171F26"/>
<path fill-rule="evenodd" clip-rule="evenodd" d="M22.1757 4C21.822 4 21.4836 4.14393 21.2383 4.39867L4.36396 21.922C4.13045 22.1645 4 22.4881 4 22.8247V46.8387C4 47.1839 4.1371 47.5149 4.38115 47.7589L21.2411 64.6188C21.4851 64.8629 21.8161 65 22.1613 65H46.8243C47.178 65 47.5164 64.8561 47.7617 64.6013L64.636 47.078C64.8695 46.8355 65 46.5119 65 46.1753V22.1613C65 21.8161 64.8629 21.4851 64.6188 21.2411L47.7589 4.38115C47.5149 4.1371 47.1839 4 46.8387 4H22.1757ZM19.4401 24.3468C18.938 24.857 18.9423 25.6769 19.4496 26.1819L28.3126 35.0043L19.4457 44.0145C18.9414 44.5269 18.9482 45.3511 19.4608 45.8551L23.7924 50.1148C24.3047 50.6186 25.1284 50.6118 25.6324 50.0997L34.5 41.0888L43.3676 50.0997C43.8716 50.6118 44.6953 50.6186 45.2076 50.1148L49.5392 45.8551C50.0518 45.3511 50.0586 44.5269 49.5543 44.0145L40.6874 35.0043L49.5504 26.1819C50.0577 25.6769 50.062 24.857 49.5599 24.3468L45.1981 19.9146C44.6919 19.4003 43.8639 19.396 43.3525 19.9051L34.5 28.717L25.6475 19.9051C25.1361 19.396 24.3081 19.4003 23.8019 19.9146L19.4401 24.3468Z" stroke="#E6E4E1" stroke-width="8" mask="url(#path-2-outside-1_1695_2444)"/>
</g>
</g>
</svg>