<svg width="856" height="96" viewBox="0 0 856 96" fill="none" xmlns="http://www.w3.org/2000/svg">
<rect x="0.75" width="854.5" height="96" rx="48" fill="#00843D"/>
<path d="M91.9442 68.918C89.9282 71.51 87.6962 73.334 85.2482 74.39C82.8002 75.398 80.3282 75.902 77.8322 75.902C73.8962 75.902 70.3442 75.23 67.1762 73.886C64.0562 72.494 61.4162 70.598 59.2562 68.198C57.0962 65.798 55.4402 62.99 54.2882 59.774C53.1362 56.51 52.5602 53.006 52.5602 49.262C52.5602 45.422 53.1362 41.87 54.2882 38.606C55.4402 35.294 57.0962 32.414 59.2562 29.966C61.4162 27.518 64.0562 25.598 67.1762 24.206C70.3442 22.814 73.8962 22.118 77.8322 22.118C80.4722 22.118 83.0162 22.526 85.4642 23.342C87.9602 24.11 90.1922 25.262 92.1602 26.798C94.1762 28.334 95.8322 30.23 97.1282 32.486C98.4242 34.742 99.2162 37.334 99.5042 40.262H88.7042C88.0322 37.382 86.7362 35.222 84.8162 33.782C82.8962 32.342 80.5682 31.622 77.8322 31.622C75.2882 31.622 73.1282 32.126 71.3522 33.134C69.5762 34.094 68.1362 35.414 67.0322 37.094C65.9282 38.726 65.1122 40.598 64.5842 42.71C64.1042 44.822 63.8642 47.006 63.8642 49.262C63.8642 51.422 64.1042 53.534 64.5842 55.598C65.1122 57.614 65.9282 59.438 67.0322 61.07C68.1362 62.702 69.5762 64.022 71.3522 65.03C73.1282 65.99 75.2882 66.47 77.8322 66.47C81.5762 66.47 84.4562 65.534 86.4722 63.662C88.5362 61.742 89.7362 58.982 90.0722 55.382H78.6962V46.958H100.296V74.75H93.0962L91.9442 68.918ZM109.425 23.342H120.729V65.246H145.785V74.75H109.425V23.342ZM170.992 50.702H192.664V59.486H170.992V50.702ZM255.775 40.622C255.583 39.326 255.151 38.15 254.479 37.094C253.807 35.99 252.967 35.03 251.959 34.214C250.951 33.398 249.799 32.774 248.503 32.342C247.255 31.862 245.935 31.622 244.543 31.622C241.999 31.622 239.839 32.126 238.063 33.134C236.287 34.094 234.847 35.414 233.743 37.094C232.639 38.726 231.823 40.598 231.295 42.71C230.815 44.822 230.575 47.006 230.575 49.262C230.575 51.422 230.815 53.534 231.295 55.598C231.823 57.614 232.639 59.438 233.743 61.07C234.847 62.702 236.287 64.022 238.063 65.03C239.839 65.99 241.999 66.47 244.543 66.47C247.999 66.47 250.687 65.414 252.607 63.302C254.575 61.19 255.775 58.406 256.207 54.95H267.151C266.863 58.166 266.119 61.07 264.919 63.662C263.719 66.254 262.135 68.462 260.167 70.286C258.199 72.11 255.895 73.502 253.255 74.462C250.615 75.422 247.711 75.902 244.543 75.902C240.607 75.902 237.055 75.23 233.887 73.886C230.767 72.494 228.127 70.598 225.967 68.198C223.807 65.798 222.151 62.99 220.999 59.774C219.847 56.51 219.271 53.006 219.271 49.262C219.271 45.422 219.847 41.87 220.999 38.606C222.151 35.294 223.807 32.414 225.967 29.966C228.127 27.518 230.767 25.598 233.887 24.206C237.055 22.814 240.607 22.118 244.543 22.118C247.375 22.118 250.039 22.526 252.535 23.342C255.079 24.158 257.335 25.358 259.303 26.942C261.319 28.478 262.975 30.398 264.271 32.702C265.567 35.006 266.383 37.646 266.719 40.622H255.775ZM283.942 49.262C283.942 51.422 284.182 53.534 284.662 55.598C285.19 57.614 286.006 59.438 287.11 61.07C288.214 62.702 289.654 64.022 291.43 65.03C293.206 65.99 295.366 66.47 297.91 66.47C300.454 66.47 302.614 65.99 304.39 65.03C306.166 64.022 307.606 62.702 308.71 61.07C309.814 59.438 310.606 57.614 311.086 55.598C311.614 53.534 311.878 51.422 311.878 49.262C311.878 47.006 311.614 44.822 311.086 42.71C310.606 40.598 309.814 38.726 308.71 37.094C307.606 35.414 306.166 34.094 304.39 33.134C302.614 32.126 300.454 31.622 297.91 31.622C295.366 31.622 293.206 32.126 291.43 33.134C289.654 34.094 288.214 35.414 287.11 37.094C286.006 38.726 285.19 40.598 284.662 42.71C284.182 44.822 283.942 47.006 283.942 49.262ZM272.638 49.262C272.638 45.422 273.214 41.87 274.366 38.606C275.518 35.294 277.174 32.414 279.334 29.966C281.494 27.518 284.134 25.598 287.254 24.206C290.422 22.814 293.974 22.118 297.91 22.118C301.894 22.118 305.446 22.814 308.566 24.206C311.686 25.598 314.326 27.518 316.486 29.966C318.646 32.414 320.302 35.294 321.454 38.606C322.606 41.87 323.182 45.422 323.182 49.262C323.182 53.006 322.606 56.51 321.454 59.774C320.302 62.99 318.646 65.798 316.486 68.198C314.326 70.598 311.686 72.494 308.566 73.886C305.446 75.23 301.894 75.902 297.91 75.902C293.974 75.902 290.422 75.23 287.254 73.886C284.134 72.494 281.494 70.598 279.334 68.198C277.174 65.798 275.518 62.99 274.366 59.774C273.214 56.51 272.638 53.006 272.638 49.262ZM342.213 47.534H350.997C352.293 47.534 353.541 47.438 354.741 47.246C355.941 47.054 356.997 46.694 357.909 46.166C358.821 45.59 359.541 44.798 360.069 43.79C360.645 42.782 360.933 41.462 360.933 39.83C360.933 38.198 360.645 36.878 360.069 35.87C359.541 34.862 358.821 34.094 357.909 33.566C356.997 32.99 355.941 32.606 354.741 32.414C353.541 32.222 352.293 32.126 350.997 32.126H342.213V47.534ZM330.909 23.342H354.093C357.309 23.342 360.045 23.822 362.301 24.782C364.557 25.694 366.381 26.918 367.773 28.454C369.213 29.99 370.245 31.742 370.869 33.71C371.541 35.678 371.877 37.718 371.877 39.83C371.877 41.894 371.541 43.934 370.869 45.95C370.245 47.918 369.213 49.67 367.773 51.206C366.381 52.742 364.557 53.99 362.301 54.95C360.045 55.862 357.309 56.318 354.093 56.318H342.213V74.75H330.909V23.342ZM378.933 23.342H390.237V65.246H415.293V74.75H378.933V23.342ZM421.613 23.342H460.061V32.846H432.917V43.862H457.829V52.646H432.917V65.246H460.637V74.75H421.613V23.342ZM481.62 54.734L462.756 23.342H475.428L487.452 43.646L499.404 23.342H512.004L492.924 55.022V74.75H481.62V54.734ZM564.803 69.638C562.739 71.654 560.531 73.166 558.179 74.174C555.875 75.182 553.259 75.686 550.331 75.686C548.027 75.686 545.843 75.35 543.779 74.678C541.763 74.006 540.011 73.022 538.523 71.726C537.035 70.382 535.859 68.774 534.995 66.902C534.131 64.982 533.699 62.798 533.699 60.35C533.699 58.526 534.011 56.87 534.635 55.382C535.259 53.846 536.099 52.478 537.155 51.278C538.259 50.03 539.507 48.926 540.899 47.966C542.291 47.006 543.731 46.166 545.219 45.446C543.827 43.766 542.651 42.086 541.691 40.406C540.779 38.726 540.323 36.758 540.323 34.502C540.323 32.726 540.683 31.118 541.403 29.678C542.171 28.238 543.179 27.014 544.427 26.006C545.675 24.95 547.091 24.158 548.675 23.63C550.307 23.054 551.987 22.766 553.715 22.766C555.683 22.766 557.507 23.03 559.187 23.558C560.915 24.086 562.403 24.878 563.651 25.934C564.947 26.942 565.955 28.214 566.675 29.75C567.443 31.286 567.827 33.062 567.827 35.078C567.827 38.102 566.939 40.646 565.163 42.71C563.435 44.774 561.275 46.502 558.683 47.894L565.307 56.03C565.835 55.07 566.243 54.086 566.531 53.078C566.819 52.022 567.035 50.966 567.179 49.91H576.035C575.795 52.214 575.267 54.446 574.451 56.606C573.635 58.766 572.507 60.758 571.067 62.582L581.507 74.75H568.979L564.803 69.638ZM550.619 52.07C549.707 52.454 548.819 52.91 547.955 53.438C547.091 53.966 546.323 54.59 545.651 55.31C544.979 56.03 544.427 56.822 543.995 57.686C543.611 58.55 543.419 59.51 543.419 60.566C543.419 61.478 543.611 62.366 543.995 63.23C544.427 64.046 544.979 64.766 545.651 65.39C546.323 65.966 547.091 66.446 547.955 66.83C548.867 67.166 549.803 67.334 550.763 67.334C552.587 67.334 554.171 66.926 555.515 66.11C556.907 65.246 558.203 64.142 559.403 62.798L550.619 52.07ZM558.899 34.502C558.899 33.158 558.419 32.006 557.459 31.046C556.547 30.086 555.467 29.606 554.219 29.606C552.971 29.606 551.891 30.038 550.979 30.902C550.067 31.718 549.611 32.798 549.611 34.142C549.611 35.774 550.043 37.166 550.907 38.318C551.771 39.47 552.683 40.646 553.643 41.846C555.083 40.934 556.307 39.95 557.315 38.894C558.371 37.838 558.899 36.374 558.899 34.502ZM654.651 74.75H643.419L634.707 39.758H634.563L625.995 74.75H614.547L600.939 23.342H612.243L620.379 58.334H620.523L629.451 23.342H640.035L648.819 58.766H648.963L657.387 23.342H668.475L654.651 74.75ZM673.683 23.342H712.131V32.846H684.987V43.862H709.899V52.646H684.987V65.246H712.707V74.75H673.683V23.342ZM728.074 57.686C728.074 59.414 728.386 60.878 729.01 62.078C729.634 63.278 730.45 64.262 731.458 65.03C732.514 65.75 733.738 66.302 735.13 66.686C736.522 67.022 737.962 67.19 739.45 67.19C740.458 67.19 741.538 67.118 742.69 66.974C743.842 66.782 744.922 66.446 745.93 65.966C746.938 65.486 747.778 64.838 748.45 64.022C749.122 63.158 749.458 62.078 749.458 60.782C749.458 59.39 749.002 58.262 748.09 57.398C747.226 56.534 746.074 55.814 744.634 55.238C743.194 54.662 741.562 54.158 739.738 53.726C737.914 53.294 736.066 52.814 734.194 52.286C732.274 51.806 730.402 51.23 728.578 50.558C726.754 49.838 725.122 48.926 723.682 47.822C722.242 46.718 721.066 45.35 720.154 43.718C719.29 42.038 718.858 40.022 718.858 37.67C718.858 35.03 719.41 32.75 720.514 30.83C721.666 28.862 723.154 27.23 724.978 25.934C726.802 24.638 728.866 23.678 731.17 23.054C733.474 22.43 735.778 22.118 738.082 22.118C740.77 22.118 743.338 22.43 745.786 23.054C748.282 23.63 750.49 24.59 752.41 25.934C754.33 27.278 755.842 29.006 756.946 31.118C758.098 33.182 758.674 35.702 758.674 38.678H747.73C747.634 37.142 747.298 35.87 746.722 34.862C746.194 33.854 745.474 33.062 744.562 32.486C743.65 31.91 742.594 31.502 741.394 31.262C740.242 31.022 738.97 30.902 737.578 30.902C736.666 30.902 735.754 30.998 734.842 31.19C733.93 31.382 733.09 31.718 732.322 32.198C731.602 32.678 731.002 33.278 730.522 33.998C730.042 34.718 729.802 35.63 729.802 36.734C729.802 37.742 729.994 38.558 730.378 39.182C730.762 39.806 731.506 40.382 732.61 40.91C733.762 41.438 735.322 41.966 737.29 42.494C739.306 43.022 741.922 43.694 745.138 44.51C746.098 44.702 747.418 45.062 749.098 45.59C750.826 46.07 752.53 46.862 754.21 47.966C755.89 49.07 757.33 50.558 758.53 52.43C759.778 54.254 760.402 56.606 760.402 59.486C760.402 61.838 759.946 64.022 759.034 66.038C758.122 68.054 756.754 69.806 754.93 71.294C753.154 72.734 750.922 73.862 748.234 74.678C745.594 75.494 742.522 75.902 739.018 75.902C736.186 75.902 733.426 75.542 730.738 74.822C728.098 74.15 725.746 73.07 723.682 71.582C721.666 70.094 720.058 68.198 718.858 65.894C717.658 63.59 717.082 60.854 717.13 57.686H728.074ZM778.504 32.846H763.096V23.342H805.216V32.846H789.808V74.75H778.504V32.846Z" fill="white"/>
</svg>
