<svg width="927" height="88" viewBox="0 0 927 88" fill="none" xmlns="http://www.w3.org/2000/svg">
<rect width="926.574" height="87.7015" rx="43.8507" fill="#00843D"/>
<path d="M82.0553 61.7177C80.2084 64.0923 78.1636 65.7633 75.9209 66.7307C73.6783 67.6542 71.4136 68.1159 69.127 68.1159C65.5211 68.1159 62.267 67.5003 59.3648 66.269C56.5065 64.9938 54.0879 63.2568 52.1091 61.0581C50.1302 58.8594 48.6131 56.2869 47.5578 53.3407C46.5024 50.3505 45.9747 47.1404 45.9747 43.7104C45.9747 40.1925 46.5024 36.9384 47.5578 33.9482C48.6131 30.914 50.1302 28.2756 52.1091 26.0329C54.0879 23.7902 56.5065 22.0313 59.3648 20.7561C62.267 19.4808 65.5211 18.8432 69.127 18.8432C71.5455 18.8432 73.8761 19.217 76.1188 19.9645C78.4054 20.6681 80.4502 21.7235 82.2532 23.1306C84.1001 24.5378 85.6172 26.2748 86.8045 28.3415C87.9918 30.4083 88.7173 32.7829 88.9812 35.4653H79.087C78.4714 32.8269 77.2841 30.8481 75.5252 29.5288C73.7662 28.2096 71.6335 27.55 69.127 27.55C66.7963 27.55 64.8175 28.0117 63.1905 28.9352C61.5635 29.8147 60.2442 31.024 59.2328 32.563C58.2214 34.0582 57.4739 35.7731 56.9902 37.708C56.5504 39.6428 56.3306 41.6436 56.3306 43.7104C56.3306 45.6892 56.5504 47.6241 56.9902 49.515C57.4739 51.3619 58.2214 53.0329 59.2328 54.528C60.2442 56.0231 61.5635 57.2324 63.1905 58.1558C64.8175 59.0353 66.7963 59.4751 69.127 59.4751C72.5569 59.4751 75.1954 58.6176 77.0423 56.9026C78.9331 55.1436 80.0325 52.6151 80.3403 49.3171H69.9185V41.5997H89.7067V67.0605H83.1107L82.0553 61.7177ZM98.0698 19.9645H108.426V58.3537H131.38V67.0605H98.0698V19.9645ZM151.549 43.4466C151.549 45.4694 150.868 47.1624 149.504 48.5256C148.185 49.8887 146.492 50.5703 144.425 50.5703C142.359 50.5703 140.644 49.8887 139.28 48.5256C137.961 47.1624 137.302 45.4694 137.302 43.4466C137.302 41.3798 137.961 39.6868 139.28 38.3676C140.644 37.0044 142.359 36.3228 144.425 36.3228C146.492 36.3228 148.185 37.0044 149.504 38.3676C150.868 39.6868 151.549 41.3798 151.549 43.4466ZM174.441 39.0272H184.929C186.776 39.0272 188.293 38.5875 189.48 37.708C190.667 36.8285 191.261 35.3994 191.261 33.4205C191.261 32.3212 191.063 31.4197 190.667 30.7161C190.272 30.0126 189.744 29.4629 189.084 29.0671C188.425 28.6713 187.655 28.4075 186.776 28.2756C185.94 28.0997 185.061 28.0117 184.137 28.0117H174.441V39.0272ZM164.085 19.9645H186.248C188.491 19.9645 190.535 20.1624 192.382 20.5582C194.229 20.9539 195.812 21.6135 197.132 22.537C198.451 23.4165 199.462 24.6038 200.166 26.0989C200.913 27.594 201.287 29.4409 201.287 31.6396C201.287 34.0142 200.737 35.993 199.638 37.5761C198.583 39.1591 197 40.4564 194.889 41.4677C197.791 42.3033 199.946 43.7764 201.353 45.8871C202.804 47.9539 203.53 50.4604 203.53 53.4067C203.53 55.7812 203.068 57.848 202.145 59.607C201.221 61.322 199.968 62.7291 198.385 63.8285C196.846 64.9278 195.065 65.7413 193.042 66.269C191.063 66.7967 189.018 67.0605 186.908 67.0605H164.085V19.9645ZM174.441 59.0133H185.522C186.534 59.0133 187.501 58.9254 188.425 58.7495C189.348 58.5296 190.162 58.1998 190.865 57.7601C191.569 57.2764 192.119 56.6387 192.514 55.8472C192.954 55.0557 193.174 54.0443 193.174 52.813C193.174 50.3944 192.492 48.6795 191.129 47.6681C189.766 46.6127 187.963 46.085 185.72 46.085H174.441V59.0133ZM227.831 45.0296H247.685V53.0769H227.831V45.0296ZM284.462 39.0272H294.949C296.796 39.0272 298.313 38.5875 299.501 37.708C300.688 36.8285 301.282 35.3994 301.282 33.4205C301.282 32.3212 301.084 31.4197 300.688 30.7161C300.292 30.0126 299.765 29.4629 299.105 29.0671C298.445 28.6713 297.676 28.4075 296.796 28.2756C295.961 28.0997 295.081 28.0117 294.158 28.0117H284.462V39.0272ZM274.106 19.9645H296.269C298.511 19.9645 300.556 20.1624 302.403 20.5582C304.25 20.9539 305.833 21.6135 307.152 22.537C308.471 23.4165 309.483 24.6038 310.186 26.0989C310.934 27.594 311.308 29.4409 311.308 31.6396C311.308 34.0142 310.758 35.993 309.659 37.5761C308.603 39.1591 307.02 40.4564 304.909 41.4677C307.812 42.3033 309.966 43.7764 311.374 45.8871C312.825 47.9539 313.55 50.4604 313.55 53.4067C313.55 55.7812 313.089 57.848 312.165 59.607C311.242 61.322 309.988 62.7291 308.405 63.8285C306.866 64.9278 305.085 65.7413 303.063 66.269C301.084 66.7967 299.039 67.0605 296.928 67.0605H274.106V19.9645ZM284.462 59.0133H295.543C296.554 59.0133 297.522 58.9254 298.445 58.7495C299.369 58.5296 300.182 58.1998 300.886 57.7601C301.589 57.2764 302.139 56.6387 302.535 55.8472C302.975 55.0557 303.194 54.0443 303.194 52.813C303.194 50.3944 302.513 48.6795 301.15 47.6681C299.787 46.6127 297.984 46.085 295.741 46.085H284.462V59.0133ZM328.86 43.7104C328.86 45.6892 329.08 47.6241 329.52 49.515C330.003 51.3619 330.751 53.0329 331.762 54.528C332.774 56.0231 334.093 57.2324 335.72 58.1558C337.347 59.0353 339.326 59.4751 341.656 59.4751C343.987 59.4751 345.966 59.0353 347.593 58.1558C349.22 57.2324 350.539 56.0231 351.55 54.528C352.562 53.0329 353.287 51.3619 353.727 49.515C354.211 47.6241 354.453 45.6892 354.453 43.7104C354.453 41.6436 354.211 39.6428 353.727 37.708C353.287 35.7731 352.562 34.0582 351.55 32.563C350.539 31.024 349.22 29.8147 347.593 28.9352C345.966 28.0117 343.987 27.55 341.656 27.55C339.326 27.55 337.347 28.0117 335.72 28.9352C334.093 29.8147 332.774 31.024 331.762 32.563C330.751 34.0582 330.003 35.7731 329.52 37.708C329.08 39.6428 328.86 41.6436 328.86 43.7104ZM318.504 43.7104C318.504 40.1925 319.032 36.9384 320.087 33.9482C321.143 30.914 322.66 28.2756 324.638 26.0329C326.617 23.7902 329.036 22.0313 331.894 20.7561C334.796 19.4808 338.05 18.8432 341.656 18.8432C345.306 18.8432 348.56 19.4808 351.419 20.7561C354.277 22.0313 356.695 23.7902 358.674 26.0329C360.653 28.2756 362.17 30.914 363.226 33.9482C364.281 36.9384 364.809 40.1925 364.809 43.7104C364.809 47.1404 364.281 50.3505 363.226 53.3407C362.17 56.2869 360.653 58.8594 358.674 61.0581C356.695 63.2568 354.277 64.9938 351.419 66.269C348.56 67.5003 345.306 68.1159 341.656 68.1159C338.05 68.1159 334.796 67.5003 331.894 66.269C329.036 64.9938 326.617 63.2568 324.638 61.0581C322.66 58.8594 321.143 56.2869 320.087 53.3407C319.032 50.3505 318.504 47.1404 318.504 43.7104ZM378.945 51.4278C378.945 53.0109 379.231 54.3521 379.803 55.4514C380.374 56.5508 381.122 57.4523 382.045 58.1558C383.013 58.8154 384.134 59.3211 385.409 59.6729C386.685 59.9808 388.004 60.1347 389.367 60.1347C390.291 60.1347 391.28 60.0687 392.335 59.9368C393.391 59.7609 394.38 59.4531 395.304 59.0133C396.227 58.5736 396.997 57.9799 397.612 57.2324C398.228 56.4409 398.536 55.4514 398.536 54.2641C398.536 52.9889 398.118 51.9555 397.282 51.164C396.491 50.3725 395.436 49.7129 394.116 49.1852C392.797 48.6575 391.302 48.1958 389.631 47.8C387.96 47.4042 386.267 46.9645 384.552 46.4808C382.793 46.041 381.078 45.5133 379.407 44.8977C377.736 44.2381 376.241 43.4026 374.922 42.3912C373.602 41.3798 372.525 40.1265 371.69 38.6314C370.898 37.0923 370.502 35.2454 370.502 33.0907C370.502 30.6722 371.008 28.5834 372.019 26.8244C373.075 25.0215 374.438 23.5264 376.109 22.3391C377.78 21.1518 379.671 20.2723 381.782 19.7007C383.892 19.129 386.003 18.8432 388.114 18.8432C390.576 18.8432 392.929 19.129 395.172 19.7007C397.458 20.2284 399.481 21.1078 401.24 22.3391C402.999 23.5704 404.384 25.1534 405.396 27.0883C406.451 28.9792 406.979 31.2878 406.979 34.0142H396.953C396.865 32.607 396.557 31.4417 396.029 30.5183C395.545 29.5948 394.886 28.8692 394.05 28.3415C393.215 27.8139 392.247 27.4401 391.148 27.2202C390.093 27.0003 388.927 26.8904 387.652 26.8904C386.817 26.8904 385.981 26.9784 385.146 27.1543C384.31 27.3301 383.541 27.638 382.837 28.0777C382.177 28.5174 381.628 29.0671 381.188 29.7267C380.748 30.3863 380.528 31.2218 380.528 32.2332C380.528 33.1567 380.704 33.9042 381.056 34.4759C381.408 35.0476 382.089 35.5752 383.101 36.059C384.156 36.5427 385.585 37.0264 387.388 37.5101C389.235 37.9938 391.632 38.6094 394.578 39.357C395.458 39.5329 396.667 39.8627 398.206 40.3464C399.789 40.7862 401.35 41.5117 402.889 42.5231C404.428 43.5345 405.747 44.8977 406.847 46.6127C407.99 48.2837 408.562 50.4384 408.562 53.0769C408.562 55.2316 408.144 57.2324 407.308 59.0793C406.473 60.9262 405.22 62.5312 403.549 63.8944C401.922 65.2136 399.877 66.247 397.414 66.9946C394.996 67.7421 392.181 68.1159 388.971 68.1159C386.377 68.1159 383.848 67.7861 381.386 67.1265C378.967 66.5109 376.813 65.5215 374.922 64.1583C373.075 62.7951 371.602 61.0581 370.502 58.9474C369.403 56.8366 368.875 54.3301 368.919 51.4278H378.945ZM425.145 28.6714H411.03V19.9645H449.617V28.6714H435.501V67.0605H425.145V28.6714ZM463.358 43.7104C463.358 45.6892 463.578 47.6241 464.018 49.515C464.501 51.3619 465.249 53.0329 466.26 54.528C467.272 56.0231 468.591 57.2324 470.218 58.1558C471.845 59.0353 473.824 59.4751 476.155 59.4751C478.485 59.4751 480.464 59.0353 482.091 58.1558C483.718 57.2324 485.037 56.0231 486.049 54.528C487.06 53.0329 487.786 51.3619 488.225 49.515C488.709 47.6241 488.951 45.6892 488.951 43.7104C488.951 41.6436 488.709 39.6428 488.225 37.708C487.786 35.7731 487.06 34.0582 486.049 32.563C485.037 31.024 483.718 29.8147 482.091 28.9352C480.464 28.0117 478.485 27.55 476.155 27.55C473.824 27.55 471.845 28.0117 470.218 28.9352C468.591 29.8147 467.272 31.024 466.26 32.563C465.249 34.0582 464.501 35.7731 464.018 37.708C463.578 39.6428 463.358 41.6436 463.358 43.7104ZM453.002 43.7104C453.002 40.1925 453.53 36.9384 454.585 33.9482C455.641 30.914 457.158 28.2756 459.137 26.0329C461.116 23.7902 463.534 22.0313 466.392 20.7561C469.295 19.4808 472.549 18.8432 476.155 18.8432C479.804 18.8432 483.058 19.4808 485.917 20.7561C488.775 22.0313 491.194 23.7902 493.172 26.0329C495.151 28.2756 496.668 30.914 497.724 33.9482C498.779 36.9384 499.307 40.1925 499.307 43.7104C499.307 47.1404 498.779 50.3505 497.724 53.3407C496.668 56.2869 495.151 58.8594 493.172 61.0581C491.194 63.2568 488.775 64.9938 485.917 66.269C483.058 67.5003 479.804 68.1159 476.155 68.1159C472.549 68.1159 469.295 67.5003 466.392 66.269C463.534 64.9938 461.116 63.2568 459.137 61.0581C457.158 58.8594 455.641 56.2869 454.585 53.3407C453.53 50.3505 453.002 47.1404 453.002 43.7104ZM506.386 19.9645H516.676L536.332 51.5598H536.464V19.9645H546.16V67.0605H535.804L516.214 35.5313H516.082V67.0605H506.386V19.9645ZM605.032 35.7951C604.856 34.6078 604.461 33.5305 603.845 32.563C603.229 31.5516 602.46 30.6722 601.536 29.9246C600.613 29.177 599.557 28.6054 598.37 28.2096C597.227 27.7699 596.018 27.55 594.742 27.55C592.412 27.55 590.433 28.0117 588.806 28.9352C587.179 29.8147 585.86 31.024 584.848 32.563C583.837 34.0582 583.089 35.7731 582.606 37.708C582.166 39.6428 581.946 41.6436 581.946 43.7104C581.946 45.6892 582.166 47.6241 582.606 49.515C583.089 51.3619 583.837 53.0329 584.848 54.528C585.86 56.0231 587.179 57.2324 588.806 58.1558C590.433 59.0353 592.412 59.4751 594.742 59.4751C597.908 59.4751 600.371 58.5076 602.13 56.5728C603.933 54.6379 605.032 52.0874 605.428 48.9213H615.454C615.19 51.8676 614.509 54.528 613.409 56.9026C612.31 59.2772 610.859 61.3 609.056 62.971C607.253 64.642 605.142 65.9172 602.724 66.7967C600.305 67.6762 597.645 68.1159 594.742 68.1159C591.136 68.1159 587.882 67.5003 584.98 66.269C582.122 64.9938 579.703 63.2568 577.724 61.0581C575.746 58.8594 574.229 56.2869 573.173 53.3407C572.118 50.3505 571.59 47.1404 571.59 43.7104C571.59 40.1925 572.118 36.9384 573.173 33.9482C574.229 30.914 575.746 28.2756 577.724 26.0329C579.703 23.7902 582.122 22.0313 584.98 20.7561C587.882 19.4808 591.136 18.8432 594.742 18.8432C597.337 18.8432 599.777 19.217 602.064 19.9645C604.395 20.7121 606.461 21.8114 608.264 23.2626C610.111 24.6697 611.628 26.4287 612.816 28.5394C614.003 30.6502 614.75 33.0687 615.058 35.7951H605.032ZM630.837 43.7104C630.837 45.6892 631.057 47.6241 631.496 49.515C631.98 51.3619 632.728 53.0329 633.739 54.528C634.75 56.0231 636.07 57.2324 637.697 58.1558C639.324 59.0353 641.303 59.4751 643.633 59.4751C645.964 59.4751 647.943 59.0353 649.57 58.1558C651.197 57.2324 652.516 56.0231 653.527 54.528C654.539 53.0329 655.264 51.3619 655.704 49.515C656.188 47.6241 656.43 45.6892 656.43 43.7104C656.43 41.6436 656.188 39.6428 655.704 37.708C655.264 35.7731 654.539 34.0582 653.527 32.563C652.516 31.024 651.197 29.8147 649.57 28.9352C647.943 28.0117 645.964 27.55 643.633 27.55C641.303 27.55 639.324 28.0117 637.697 28.9352C636.07 29.8147 634.75 31.024 633.739 32.563C632.728 34.0582 631.98 35.7731 631.496 37.708C631.057 39.6428 630.837 41.6436 630.837 43.7104ZM620.481 43.7104C620.481 40.1925 621.009 36.9384 622.064 33.9482C623.119 30.914 624.636 28.2756 626.615 26.0329C628.594 23.7902 631.013 22.0313 633.871 20.7561C636.773 19.4808 640.027 18.8432 643.633 18.8432C647.283 18.8432 650.537 19.4808 653.395 20.7561C656.254 22.0313 658.672 23.7902 660.651 26.0329C662.63 28.2756 664.147 30.914 665.202 33.9482C666.258 36.9384 666.785 40.1925 666.785 43.7104C666.785 47.1404 666.258 50.3505 665.202 53.3407C664.147 56.2869 662.63 58.8594 660.651 61.0581C658.672 63.2568 656.254 64.9938 653.395 66.269C650.537 67.5003 647.283 68.1159 643.633 68.1159C640.027 68.1159 636.773 67.5003 633.871 66.269C631.013 64.9938 628.594 63.2568 626.615 61.0581C624.636 58.8594 623.119 56.2869 622.064 53.3407C621.009 50.3505 620.481 47.1404 620.481 43.7104ZM673.864 19.9645H684.22V58.3537H707.175V67.0605H673.864V19.9645ZM712.964 19.9645H723.32V58.3537H746.274V67.0605H712.964V19.9645ZM752.064 19.9645H787.287V28.6714H762.42V38.7634H785.242V46.8106H762.42V58.3537H787.815V67.0605H752.064V19.9645ZM828.871 61.7177C827.024 64.0923 824.98 65.7633 822.737 66.7307C820.494 67.6542 818.23 68.1159 815.943 68.1159C812.337 68.1159 809.083 67.5003 806.181 66.269C803.322 64.9938 800.904 63.2568 798.925 61.0581C796.946 58.8594 795.429 56.2869 794.374 53.3407C793.318 50.3505 792.791 47.1404 792.791 43.7104C792.791 40.1925 793.318 36.9384 794.374 33.9482C795.429 30.914 796.946 28.2756 798.925 26.0329C800.904 23.7902 803.322 22.0313 806.181 20.7561C809.083 19.4808 812.337 18.8432 815.943 18.8432C818.362 18.8432 820.692 19.217 822.935 19.9645C825.221 20.6681 827.266 21.7235 829.069 23.1306C830.916 24.5378 832.433 26.2748 833.62 28.3415C834.808 30.4083 835.533 32.7829 835.797 35.4653H825.903C825.287 32.8269 824.1 30.8481 822.341 29.5288C820.582 28.2096 818.449 27.55 815.943 27.55C813.612 27.55 811.633 28.0117 810.006 28.9352C808.379 29.8147 807.06 31.024 806.049 32.563C805.037 34.0582 804.29 35.7731 803.806 37.708C803.366 39.6428 803.147 41.6436 803.147 43.7104C803.147 45.6892 803.366 47.6241 803.806 49.515C804.29 51.3619 805.037 53.0329 806.049 54.528C807.06 56.0231 808.379 57.2324 810.006 58.1558C811.633 59.0353 813.612 59.4751 815.943 59.4751C819.373 59.4751 822.011 58.6176 823.858 56.9026C825.749 55.1436 826.848 52.6151 827.156 49.3171H816.734V41.5997H836.523V67.0605H829.927L828.871 61.7177ZM844.886 19.9645H880.109V28.6714H855.242V38.7634H878.064V46.8106H855.242V58.3537H880.637V67.0605H844.886V19.9645Z" fill="white"/>
</svg>
