<svg width="738" height="96" viewBox="0 0 738 96" fill="none" xmlns="http://www.w3.org/2000/svg">
<rect x="0.75" width="736.5" height="96" rx="48" fill="#00843D"/>
<path d="M91.8739 68.918C89.8579 71.51 87.6259 73.334 85.1779 74.39C82.7299 75.398 80.2579 75.902 77.7619 75.902C73.8259 75.902 70.2739 75.23 67.1059 73.886C63.9859 72.494 61.3459 70.598 59.1859 68.198C57.0259 65.798 55.3699 62.99 54.2179 59.774C53.0659 56.51 52.4899 53.006 52.4899 49.262C52.4899 45.422 53.0659 41.87 54.2179 38.606C55.3699 35.294 57.0259 32.414 59.1859 29.966C61.3459 27.518 63.9859 25.598 67.1059 24.206C70.2739 22.814 73.8259 22.118 77.7619 22.118C80.4019 22.118 82.9459 22.526 85.3939 23.342C87.8899 24.11 90.1219 25.262 92.0899 26.798C94.1059 28.334 95.7619 30.23 97.0579 32.486C98.3539 34.742 99.1459 37.334 99.4339 40.262H88.6339C87.9619 37.382 86.6659 35.222 84.7459 33.782C82.8259 32.342 80.4979 31.622 77.7619 31.622C75.2179 31.622 73.0579 32.126 71.2819 33.134C69.5059 34.094 68.0659 35.414 66.9619 37.094C65.8579 38.726 65.0419 40.598 64.5139 42.71C64.0339 44.822 63.7939 47.006 63.7939 49.262C63.7939 51.422 64.0339 53.534 64.5139 55.598C65.0419 57.614 65.8579 59.438 66.9619 61.07C68.0659 62.702 69.5059 64.022 71.2819 65.03C73.0579 65.99 75.2179 66.47 77.7619 66.47C81.5059 66.47 84.3859 65.534 86.4019 63.662C88.4659 61.742 89.6659 58.982 90.0019 55.382H78.6259V46.958H100.226V74.75H93.0259L91.8739 68.918ZM109.355 23.342H120.659V65.246H145.715V74.75H109.355V23.342ZM167.73 48.974C167.73 51.182 166.986 53.03 165.498 54.518C164.058 56.006 162.21 56.75 159.954 56.75C157.698 56.75 155.826 56.006 154.338 54.518C152.898 53.03 152.178 51.182 152.178 48.974C152.178 46.718 152.898 44.87 154.338 43.43C155.826 41.942 157.698 41.198 159.954 41.198C162.21 41.198 164.058 41.942 165.498 43.43C166.986 44.87 167.73 46.718 167.73 48.974ZM192.51 65.246H202.59C204.222 65.246 205.806 64.982 207.342 64.454C208.878 63.926 210.246 63.062 211.446 61.862C212.646 60.614 213.606 59.006 214.326 57.038C215.046 55.07 215.406 52.67 215.406 49.838C215.406 47.246 215.142 44.918 214.614 42.854C214.134 40.742 213.318 38.942 212.166 37.454C211.014 35.966 209.478 34.838 207.558 34.07C205.686 33.254 203.358 32.846 200.574 32.846H192.51V65.246ZM181.206 23.342H203.382C206.694 23.342 209.766 23.87 212.598 24.926C215.478 25.982 217.95 27.566 220.014 29.678C222.126 31.79 223.758 34.43 224.91 37.598C226.11 40.766 226.71 44.486 226.71 48.758C226.71 52.502 226.23 55.958 225.27 59.126C224.31 62.294 222.846 65.03 220.878 67.334C218.958 69.638 216.534 71.462 213.606 72.806C210.726 74.102 207.318 74.75 203.382 74.75H181.206V23.342ZM257.461 50.702H279.133V59.486H257.461V50.702ZM319.276 46.598H331.66C334.252 46.598 336.196 46.022 337.492 44.87C338.788 43.718 339.436 41.846 339.436 39.254C339.436 36.758 338.788 34.958 337.492 33.854C336.196 32.702 334.252 32.126 331.66 32.126H319.276V46.598ZM307.972 23.342H335.692C337.996 23.342 340.06 23.726 341.884 24.494C343.756 25.214 345.34 26.222 346.636 27.518C347.98 28.814 348.988 30.326 349.66 32.054C350.38 33.734 350.74 35.558 350.74 37.526C350.74 40.55 350.092 43.166 348.796 45.374C347.548 47.582 345.484 49.262 342.604 50.414V50.558C343.996 50.942 345.148 51.542 346.06 52.358C346.972 53.126 347.716 54.062 348.292 55.166C348.868 56.222 349.276 57.398 349.516 58.694C349.804 59.99 349.996 61.286 350.092 62.582C350.14 63.398 350.188 64.358 350.236 65.462C350.284 66.566 350.356 67.694 350.452 68.846C350.596 69.998 350.788 71.102 351.028 72.158C351.316 73.166 351.724 74.03 352.252 74.75H340.948C340.324 73.118 339.94 71.174 339.796 68.918C339.652 66.662 339.436 64.502 339.148 62.438C338.764 59.75 337.948 57.782 336.7 56.534C335.452 55.286 333.412 54.662 330.58 54.662H319.276V74.75H307.972V23.342ZM359.933 23.342H371.237V74.75H359.933V23.342ZM405.071 74.75H392.327L375.695 23.342H387.287L398.735 59.486H398.879L410.471 23.342H422.135L405.071 74.75ZM426.519 23.342H464.967V32.846H437.823V43.862H462.735V52.646H437.823V65.246H465.543V74.75H426.519V23.342ZM484.51 46.598H496.894C499.486 46.598 501.43 46.022 502.726 44.87C504.022 43.718 504.67 41.846 504.67 39.254C504.67 36.758 504.022 34.958 502.726 33.854C501.43 32.702 499.486 32.126 496.894 32.126H484.51V46.598ZM473.206 23.342H500.926C503.23 23.342 505.294 23.726 507.118 24.494C508.99 25.214 510.574 26.222 511.87 27.518C513.214 28.814 514.222 30.326 514.894 32.054C515.614 33.734 515.974 35.558 515.974 37.526C515.974 40.55 515.326 43.166 514.03 45.374C512.782 47.582 510.718 49.262 507.838 50.414V50.558C509.23 50.942 510.382 51.542 511.294 52.358C512.206 53.126 512.95 54.062 513.526 55.166C514.102 56.222 514.51 57.398 514.75 58.694C515.038 59.99 515.23 61.286 515.326 62.582C515.374 63.398 515.422 64.358 515.47 65.462C515.518 66.566 515.59 67.694 515.686 68.846C515.83 69.998 516.022 71.102 516.262 72.158C516.55 73.166 516.958 74.03 517.486 74.75H506.182C505.558 73.118 505.174 71.174 505.03 68.918C504.886 66.662 504.67 64.502 504.382 62.438C503.998 59.75 503.182 57.782 501.934 56.534C500.686 55.286 498.646 54.662 495.814 54.662H484.51V74.75H473.206V23.342ZM532.871 57.686C532.871 59.414 533.183 60.878 533.807 62.078C534.431 63.278 535.247 64.262 536.255 65.03C537.311 65.75 538.535 66.302 539.927 66.686C541.319 67.022 542.759 67.19 544.247 67.19C545.255 67.19 546.335 67.118 547.487 66.974C548.639 66.782 549.719 66.446 550.727 65.966C551.735 65.486 552.575 64.838 553.247 64.022C553.919 63.158 554.255 62.078 554.255 60.782C554.255 59.39 553.799 58.262 552.887 57.398C552.023 56.534 550.871 55.814 549.431 55.238C547.991 54.662 546.359 54.158 544.535 53.726C542.711 53.294 540.863 52.814 538.991 52.286C537.071 51.806 535.199 51.23 533.375 50.558C531.551 49.838 529.919 48.926 528.479 47.822C527.039 46.718 525.863 45.35 524.951 43.718C524.087 42.038 523.655 40.022 523.655 37.67C523.655 35.03 524.207 32.75 525.311 30.83C526.463 28.862 527.951 27.23 529.775 25.934C531.599 24.638 533.663 23.678 535.967 23.054C538.271 22.43 540.575 22.118 542.879 22.118C545.567 22.118 548.135 22.43 550.583 23.054C553.079 23.63 555.287 24.59 557.207 25.934C559.127 27.278 560.639 29.006 561.743 31.118C562.895 33.182 563.471 35.702 563.471 38.678H552.527C552.431 37.142 552.095 35.87 551.519 34.862C550.991 33.854 550.271 33.062 549.359 32.486C548.447 31.91 547.391 31.502 546.191 31.262C545.039 31.022 543.767 30.902 542.375 30.902C541.463 30.902 540.551 30.998 539.639 31.19C538.727 31.382 537.887 31.718 537.119 32.198C536.399 32.678 535.799 33.278 535.319 33.998C534.839 34.718 534.599 35.63 534.599 36.734C534.599 37.742 534.791 38.558 535.175 39.182C535.559 39.806 536.303 40.382 537.407 40.91C538.559 41.438 540.119 41.966 542.087 42.494C544.103 43.022 546.719 43.694 549.935 44.51C550.895 44.702 552.215 45.062 553.895 45.59C555.623 46.07 557.327 46.862 559.007 47.966C560.687 49.07 562.127 50.558 563.327 52.43C564.575 54.254 565.199 56.606 565.199 59.486C565.199 61.838 564.743 64.022 563.831 66.038C562.919 68.054 561.551 69.806 559.727 71.294C557.951 72.734 555.719 73.862 553.031 74.678C550.391 75.494 547.319 75.902 543.815 75.902C540.983 75.902 538.223 75.542 535.535 74.822C532.895 74.15 530.543 73.07 528.479 71.582C526.463 70.094 524.855 68.198 523.655 65.894C522.455 63.59 521.879 60.854 521.927 57.686H532.871ZM571.925 23.342H583.229V74.75H571.925V23.342ZM604.463 65.246H614.543C616.175 65.246 617.759 64.982 619.295 64.454C620.831 63.926 622.199 63.062 623.399 61.862C624.599 60.614 625.559 59.006 626.279 57.038C626.999 55.07 627.359 52.67 627.359 49.838C627.359 47.246 627.095 44.918 626.567 42.854C626.087 40.742 625.271 38.942 624.119 37.454C622.967 35.966 621.431 34.838 619.511 34.07C617.639 33.254 615.311 32.846 612.527 32.846H604.463V65.246ZM593.159 23.342H615.335C618.647 23.342 621.719 23.87 624.551 24.926C627.431 25.982 629.903 27.566 631.967 29.678C634.079 31.79 635.711 34.43 636.863 37.598C638.063 40.766 638.663 44.486 638.663 48.758C638.663 52.502 638.183 55.958 637.223 59.126C636.263 62.294 634.799 65.03 632.831 67.334C630.911 69.638 628.487 71.462 625.559 72.806C622.679 74.102 619.271 74.75 615.335 74.75H593.159V23.342ZM646.527 23.342H684.975V32.846H657.831V43.862H682.743V52.646H657.831V65.246H685.551V74.75H646.527V23.342Z" fill="white"/>
</svg>
