<svg width="712" height="96" viewBox="0 0 712 96" fill="none" xmlns="http://www.w3.org/2000/svg">
<rect x="0.25" width="711.5" height="96" rx="48" fill="#00843D"/>
<path d="M91.3895 68.918C89.3735 71.51 87.1415 73.334 84.6935 74.39C82.2455 75.398 79.7735 75.902 77.2775 75.902C73.3415 75.902 69.7895 75.23 66.6215 73.886C63.5015 72.494 60.8615 70.598 58.7015 68.198C56.5415 65.798 54.8855 62.99 53.7335 59.774C52.5815 56.51 52.0055 53.006 52.0055 49.262C52.0055 45.422 52.5815 41.87 53.7335 38.606C54.8855 35.294 56.5415 32.414 58.7015 29.966C60.8615 27.518 63.5015 25.598 66.6215 24.206C69.7895 22.814 73.3415 22.118 77.2775 22.118C79.9175 22.118 82.4615 22.526 84.9095 23.342C87.4055 24.11 89.6375 25.262 91.6055 26.798C93.6215 28.334 95.2775 30.23 96.5735 32.486C97.8695 34.742 98.6615 37.334 98.9495 40.262H88.1495C87.4775 37.382 86.1815 35.222 84.2615 33.782C82.3415 32.342 80.0135 31.622 77.2775 31.622C74.7335 31.622 72.5735 32.126 70.7975 33.134C69.0215 34.094 67.5815 35.414 66.4775 37.094C65.3735 38.726 64.5575 40.598 64.0295 42.71C63.5495 44.822 63.3095 47.006 63.3095 49.262C63.3095 51.422 63.5495 53.534 64.0295 55.598C64.5575 57.614 65.3735 59.438 66.4775 61.07C67.5815 62.702 69.0215 64.022 70.7975 65.03C72.5735 65.99 74.7335 66.47 77.2775 66.47C81.0215 66.47 83.9015 65.534 85.9175 63.662C87.9815 61.742 89.1815 58.982 89.5175 55.382H78.1415V46.958H99.7415V74.75H92.5415L91.3895 68.918ZM108.87 23.342H120.174V65.246H145.23V74.75H108.87V23.342ZM167.246 48.974C167.246 51.182 166.502 53.03 165.014 54.518C163.574 56.006 161.726 56.75 159.47 56.75C157.214 56.75 155.342 56.006 153.854 54.518C152.414 53.03 151.694 51.182 151.694 48.974C151.694 46.718 152.414 44.87 153.854 43.43C155.342 41.942 157.214 41.198 159.47 41.198C161.726 41.198 163.574 41.942 165.014 43.43C166.502 44.87 167.246 46.718 167.246 48.974ZM192.026 65.246H202.106C203.738 65.246 205.322 64.982 206.858 64.454C208.394 63.926 209.762 63.062 210.962 61.862C212.162 60.614 213.122 59.006 213.842 57.038C214.562 55.07 214.922 52.67 214.922 49.838C214.922 47.246 214.658 44.918 214.13 42.854C213.65 40.742 212.834 38.942 211.682 37.454C210.53 35.966 208.994 34.838 207.074 34.07C205.202 33.254 202.874 32.846 200.09 32.846H192.026V65.246ZM180.722 23.342H202.898C206.21 23.342 209.282 23.87 212.114 24.926C214.994 25.982 217.466 27.566 219.53 29.678C221.642 31.79 223.274 34.43 224.426 37.598C225.626 40.766 226.226 44.486 226.226 48.758C226.226 52.502 225.746 55.958 224.786 59.126C223.826 62.294 222.362 65.03 220.394 67.334C218.474 69.638 216.05 71.462 213.122 72.806C210.242 74.102 206.834 74.75 202.898 74.75H180.722V23.342ZM256.976 50.702H278.648V59.486H256.976V50.702ZM351.12 55.31C351.12 62.27 349.176 67.454 345.288 70.862C341.4 74.222 336.024 75.902 329.16 75.902C322.2 75.902 316.8 74.222 312.96 70.862C309.168 67.502 307.272 62.318 307.272 55.31V23.342H318.576V55.31C318.576 56.702 318.696 58.07 318.936 59.414C319.176 60.758 319.68 61.958 320.448 63.014C321.216 64.022 322.272 64.862 323.616 65.534C325.008 66.158 326.856 66.47 329.16 66.47C333.192 66.47 335.976 65.582 337.512 63.806C339.048 61.982 339.816 59.15 339.816 55.31V23.342H351.12V55.31ZM360.855 23.342H372.087L393.543 57.83H393.687V23.342H404.271V74.75H392.967L371.583 40.334H371.439V74.75H360.855V23.342ZM414.222 23.342H425.526V74.75H414.222V23.342ZM444.528 49.262C444.528 51.422 444.768 53.534 445.248 55.598C445.776 57.614 446.592 59.438 447.696 61.07C448.8 62.702 450.24 64.022 452.016 65.03C453.792 65.99 455.952 66.47 458.496 66.47C461.04 66.47 463.2 65.99 464.976 65.03C466.752 64.022 468.192 62.702 469.296 61.07C470.4 59.438 471.192 57.614 471.672 55.598C472.2 53.534 472.464 51.422 472.464 49.262C472.464 47.006 472.2 44.822 471.672 42.71C471.192 40.598 470.4 38.726 469.296 37.094C468.192 35.414 466.752 34.094 464.976 33.134C463.2 32.126 461.04 31.622 458.496 31.622C455.952 31.622 453.792 32.126 452.016 33.134C450.24 34.094 448.8 35.414 447.696 37.094C446.592 38.726 445.776 40.598 445.248 42.71C444.768 44.822 444.528 47.006 444.528 49.262ZM433.224 49.262C433.224 45.422 433.8 41.87 434.952 38.606C436.104 35.294 437.76 32.414 439.92 29.966C442.08 27.518 444.72 25.598 447.84 24.206C451.008 22.814 454.56 22.118 458.496 22.118C462.48 22.118 466.032 22.814 469.152 24.206C472.272 25.598 474.912 27.518 477.072 29.966C479.232 32.414 480.888 35.294 482.04 38.606C483.192 41.87 483.768 45.422 483.768 49.262C483.768 53.006 483.192 56.51 482.04 59.774C480.888 62.99 479.232 65.798 477.072 68.198C474.912 70.598 472.272 72.494 469.152 73.886C466.032 75.23 462.48 75.902 458.496 75.902C454.56 75.902 451.008 75.23 447.84 73.886C444.72 72.494 442.08 70.598 439.92 68.198C437.76 65.798 436.104 62.99 434.952 59.774C433.8 56.51 433.224 53.006 433.224 49.262ZM491.495 23.342H502.727L524.183 57.83H524.327V23.342H534.911V74.75H523.607L502.223 40.334H502.079V74.75H491.495V23.342ZM572.606 57.686C572.606 59.414 572.918 60.878 573.542 62.078C574.166 63.278 574.982 64.262 575.99 65.03C577.046 65.75 578.27 66.302 579.662 66.686C581.054 67.022 582.494 67.19 583.982 67.19C584.99 67.19 586.07 67.118 587.222 66.974C588.374 66.782 589.454 66.446 590.462 65.966C591.47 65.486 592.31 64.838 592.982 64.022C593.654 63.158 593.99 62.078 593.99 60.782C593.99 59.39 593.534 58.262 592.622 57.398C591.758 56.534 590.606 55.814 589.166 55.238C587.726 54.662 586.094 54.158 584.27 53.726C582.446 53.294 580.598 52.814 578.726 52.286C576.806 51.806 574.934 51.23 573.11 50.558C571.286 49.838 569.654 48.926 568.214 47.822C566.774 46.718 565.598 45.35 564.686 43.718C563.822 42.038 563.39 40.022 563.39 37.67C563.39 35.03 563.942 32.75 565.046 30.83C566.198 28.862 567.686 27.23 569.51 25.934C571.334 24.638 573.398 23.678 575.702 23.054C578.006 22.43 580.31 22.118 582.614 22.118C585.302 22.118 587.87 22.43 590.318 23.054C592.814 23.63 595.022 24.59 596.942 25.934C598.862 27.278 600.374 29.006 601.478 31.118C602.63 33.182 603.206 35.702 603.206 38.678H592.262C592.166 37.142 591.83 35.87 591.254 34.862C590.726 33.854 590.006 33.062 589.094 32.486C588.182 31.91 587.126 31.502 585.926 31.262C584.774 31.022 583.502 30.902 582.11 30.902C581.198 30.902 580.286 30.998 579.374 31.19C578.462 31.382 577.622 31.718 576.854 32.198C576.134 32.678 575.534 33.278 575.054 33.998C574.574 34.718 574.334 35.63 574.334 36.734C574.334 37.742 574.526 38.558 574.91 39.182C575.294 39.806 576.038 40.382 577.142 40.91C578.294 41.438 579.854 41.966 581.822 42.494C583.838 43.022 586.454 43.694 589.67 44.51C590.63 44.702 591.95 45.062 593.63 45.59C595.358 46.07 597.062 46.862 598.742 47.966C600.422 49.07 601.862 50.558 603.062 52.43C604.31 54.254 604.934 56.606 604.934 59.486C604.934 61.838 604.478 64.022 603.566 66.038C602.654 68.054 601.286 69.806 599.462 71.294C597.686 72.734 595.454 73.862 592.766 74.678C590.126 75.494 587.054 75.902 583.55 75.902C580.718 75.902 577.958 75.542 575.27 74.822C572.63 74.15 570.278 73.07 568.214 71.582C566.198 70.094 564.59 68.198 563.39 65.894C562.19 63.59 561.614 60.854 561.662 57.686H572.606ZM645.499 61.07C646.459 59.774 647.227 58.166 647.803 56.246C648.379 54.326 648.667 51.998 648.667 49.262C648.667 47.006 648.403 44.822 647.875 42.71C647.395 40.598 646.603 38.726 645.499 37.094C644.395 35.414 642.955 34.094 641.179 33.134C639.403 32.126 637.243 31.622 634.699 31.622C632.155 31.622 629.995 32.126 628.219 33.134C626.443 34.094 625.003 35.414 623.899 37.094C622.795 38.726 621.979 40.598 621.451 42.71C620.971 44.822 620.731 47.006 620.731 49.262C620.731 51.422 620.971 53.534 621.451 55.598C621.979 57.614 622.795 59.438 623.899 61.07C625.003 62.702 626.443 64.022 628.219 65.03C629.995 65.99 632.155 66.47 634.699 66.47C635.899 66.47 636.811 66.422 637.435 66.326C638.059 66.23 638.659 66.038 639.235 65.75L634.411 61.358L639.667 55.742L645.499 61.07ZM647.155 72.95C643.747 74.918 639.595 75.902 634.699 75.902C630.763 75.902 627.211 75.23 624.043 73.886C620.923 72.494 618.283 70.598 616.123 68.198C613.963 65.798 612.307 62.99 611.155 59.774C610.003 56.51 609.427 53.006 609.427 49.262C609.427 45.422 610.003 41.87 611.155 38.606C612.307 35.294 613.963 32.414 616.123 29.966C618.283 27.518 620.923 25.598 624.043 24.206C627.211 22.814 630.763 22.118 634.699 22.118C638.683 22.118 642.235 22.814 645.355 24.206C648.475 25.598 651.115 27.518 653.275 29.966C655.435 32.414 657.091 35.294 658.243 38.606C659.395 41.87 659.971 45.422 659.971 49.262C659.971 53.006 659.395 56.486 658.243 59.702C657.091 62.918 655.435 65.75 653.275 68.198L659.683 74.03L654.427 79.502L647.155 72.95Z" fill="white"/>
</svg>
