<svg preserveAspectRatio="xMinYMin meet" viewBox="0 0 356 65" fill="none" xmlns="http://www.w3.org/2000/svg">
    <rect y="0.628906" width="356" height="64" rx="32" fill="currentColor" />
    <path
        d="M60.08 45.7409L60.848 49.6289H65.648V31.1009H51.248V36.7169H58.832C58.608 39.1169 57.808 40.9569 56.432 42.2369C55.088 43.4849 53.168 44.1089 50.672 44.1089C48.976 44.1089 47.536 43.7889 46.352 43.1489C45.168 42.4769 44.208 41.5969 43.472 40.5089C42.736 39.4209 42.192 38.2049 41.84 36.8609C41.52 35.4849 41.36 34.0769 41.36 32.6369C41.36 31.1329 41.52 29.6769 41.84 28.2689C42.192 26.8609 42.736 25.6129 43.472 24.5249C44.208 23.4049 45.168 22.5249 46.352 21.8849C47.536 21.2129 48.976 20.8769 50.672 20.8769C52.496 20.8769 54.048 21.3569 55.328 22.3169C56.608 23.2769 57.472 24.7169 57.92 26.6369H65.12C64.928 24.6849 64.4 22.9569 63.536 21.4529C62.672 19.9489 61.568 18.6849 60.224 17.6609C58.912 16.6369 57.424 15.8689 55.76 15.3569C54.128 14.8129 52.432 14.5409 50.672 14.5409C48.048 14.5409 45.68 15.0049 43.568 15.9329C41.488 16.8609 39.728 18.1409 38.288 19.7729C36.848 21.4049 35.744 23.3249 34.976 25.5329C34.208 27.7089 33.824 30.0769 33.824 32.6369C33.824 35.1329 34.208 37.4689 34.976 39.6449C35.744 41.7889 36.848 43.6609 38.288 45.2609C39.728 46.8609 41.488 48.1249 43.568 49.0529C45.68 49.9489 48.048 50.3969 50.672 50.3969C52.336 50.3969 53.984 50.0609 55.616 49.3889C57.248 48.6849 58.736 47.4689 60.08 45.7409ZM79.2699 30.8609V21.2129H87.5259C89.2539 21.2129 90.5499 21.5969 91.4139 22.3649C92.2779 23.1009 92.7099 24.3009 92.7099 25.9649C92.7099 27.6929 92.2779 28.9409 91.4139 29.7089C90.5499 30.4769 89.2539 30.8609 87.5259 30.8609H79.2699ZM71.7339 15.3569V49.6289H79.2699V36.2369H86.8059C88.6939 36.2369 90.0539 36.6529 90.8859 37.4849C91.7179 38.3169 92.2619 39.6289 92.5179 41.4209C92.7099 42.7969 92.8539 44.2369 92.9499 45.7409C93.0459 47.2449 93.3019 48.5409 93.7179 49.6289H101.254C100.902 49.1489 100.63 48.5729 100.438 47.9009C100.278 47.1969 100.15 46.4609 100.054 45.6929C99.9899 44.9249 99.9419 44.1729 99.9099 43.4369C99.8779 42.7009 99.8459 42.0609 99.8139 41.5169C99.7499 40.6529 99.6219 39.7889 99.4299 38.9249C99.2699 38.0609 98.9979 37.2769 98.6139 36.5729C98.2299 35.8369 97.7339 35.2129 97.1259 34.7009C96.5179 34.1569 95.7499 33.7569 94.8219 33.5009V33.4049C96.7419 32.6369 98.1179 31.5169 98.9499 30.0449C99.8139 28.5729 100.246 26.8289 100.246 24.8129C100.246 23.5009 100.006 22.2849 99.5259 21.1649C99.0779 20.0129 98.4059 19.0049 97.5099 18.1409C96.6459 17.2769 95.5899 16.6049 94.3419 16.1249C93.1259 15.6129 91.7499 15.3569 90.2139 15.3569H71.7339ZM106.375 15.3569V49.6289H132.391V43.2929H113.911V34.8929H130.519V29.0369H113.911V21.6929H132.007V15.3569H106.375ZM137.5 15.3569V49.6289H163.516V43.2929H145.036V34.8929H161.644V29.0369H145.036V21.6929H163.132V15.3569H137.5ZM168.625 15.3569V49.6289H175.681V26.6849H175.777L190.033 49.6289H197.569V15.3569H190.513V38.3489H190.417L176.113 15.3569H168.625ZM217.562 15.3569V49.6289H241.802V43.2929H225.098V15.3569H217.562ZM246.015 15.3569V49.6289H253.551V15.3569H246.015ZM260.171 15.3569V49.6289H267.227V26.6849H267.323L281.579 49.6289H289.115V15.3569H282.059V38.3489H281.963L267.659 15.3569H260.171ZM295.75 15.3569V49.6289H321.766V43.2929H303.286V34.8929H319.894V29.0369H303.286V21.6929H321.382V15.3569H295.75Z"
        fill="white" />
</svg>