<svg width="702" height="96" viewBox="0 0 702 96" fill="none" xmlns="http://www.w3.org/2000/svg">
<rect width="701.5" height="96" rx="48" fill="#ED8B00"/>
<path d="M64.7314 49.262C64.7314 51.422 64.9714 53.534 65.4514 55.598C65.9794 57.614 66.7954 59.438 67.8994 61.07C69.0034 62.702 70.4434 64.022 72.2194 65.03C73.9954 65.99 76.1554 66.47 78.6994 66.47C81.2434 66.47 83.4034 65.99 85.1794 65.03C86.9554 64.022 88.3954 62.702 89.4994 61.07C90.6034 59.438 91.3954 57.614 91.8754 55.598C92.4034 53.534 92.6674 51.422 92.6674 49.262C92.6674 47.006 92.4034 44.822 91.8754 42.71C91.3954 40.598 90.6034 38.726 89.4994 37.094C88.3954 35.414 86.9554 34.094 85.1794 33.134C83.4034 32.126 81.2434 31.622 78.6994 31.622C76.1554 31.622 73.9954 32.126 72.2194 33.134C70.4434 34.094 69.0034 35.414 67.8994 37.094C66.7954 38.726 65.9794 40.598 65.4514 42.71C64.9714 44.822 64.7314 47.006 64.7314 49.262ZM53.4274 49.262C53.4274 45.422 54.0034 41.87 55.1554 38.606C56.3074 35.294 57.9634 32.414 60.1234 29.966C62.2834 27.518 64.9234 25.598 68.0434 24.206C71.2114 22.814 74.7634 22.118 78.6994 22.118C82.6834 22.118 86.2354 22.814 89.3554 24.206C92.4754 25.598 95.1154 27.518 97.2754 29.966C99.4354 32.414 101.091 35.294 102.243 38.606C103.395 41.87 103.971 45.422 103.971 49.262C103.971 53.006 103.395 56.51 102.243 59.774C101.091 62.99 99.4354 65.798 97.2754 68.198C95.1154 70.598 92.4754 72.494 89.3554 73.886C86.2354 75.23 82.6834 75.902 78.6994 75.902C74.7634 75.902 71.2114 75.23 68.0434 73.886C64.9234 72.494 62.2834 70.598 60.1234 68.198C57.9634 65.798 56.3074 62.99 55.1554 59.774C54.0034 56.51 53.4274 53.006 53.4274 49.262ZM111.698 23.342H123.002V65.246H148.058V74.75H111.698V23.342ZM173.265 50.702H194.937V59.486H173.265V50.702ZM232.849 49.262C232.849 51.422 233.089 53.534 233.569 55.598C234.097 57.614 234.913 59.438 236.017 61.07C237.121 62.702 238.561 64.022 240.337 65.03C242.113 65.99 244.273 66.47 246.817 66.47C249.361 66.47 251.521 65.99 253.297 65.03C255.073 64.022 256.513 62.702 257.617 61.07C258.721 59.438 259.513 57.614 259.993 55.598C260.521 53.534 260.785 51.422 260.785 49.262C260.785 47.006 260.521 44.822 259.993 42.71C259.513 40.598 258.721 38.726 257.617 37.094C256.513 35.414 255.073 34.094 253.297 33.134C251.521 32.126 249.361 31.622 246.817 31.622C244.273 31.622 242.113 32.126 240.337 33.134C238.561 34.094 237.121 35.414 236.017 37.094C234.913 38.726 234.097 40.598 233.569 42.71C233.089 44.822 232.849 47.006 232.849 49.262ZM221.545 49.262C221.545 45.422 222.121 41.87 223.273 38.606C224.425 35.294 226.081 32.414 228.241 29.966C230.401 27.518 233.041 25.598 236.161 24.206C239.329 22.814 242.881 22.118 246.817 22.118C250.801 22.118 254.353 22.814 257.473 24.206C260.593 25.598 263.233 27.518 265.393 29.966C267.553 32.414 269.209 35.294 270.361 38.606C271.513 41.87 272.089 45.422 272.089 49.262C272.089 53.006 271.513 56.51 270.361 59.774C269.209 62.99 267.553 65.798 265.393 68.198C263.233 70.598 260.593 72.494 257.473 73.886C254.353 75.23 250.801 75.902 246.817 75.902C242.881 75.902 239.329 75.23 236.161 73.886C233.041 72.494 230.401 70.598 228.241 68.198C226.081 65.798 224.425 62.99 223.273 59.774C222.121 56.51 221.545 53.006 221.545 49.262ZM292.776 54.878H306.096L299.616 36.014H299.472L292.776 54.878ZM293.856 23.342H305.448L324.672 74.75H312.936L309.048 63.302H289.824L285.792 74.75H274.416L293.856 23.342ZM329.105 23.342H340.409V44.654L360.497 23.342H374.609L354.521 43.646L376.553 74.75H362.369L346.889 51.638L340.409 58.19V74.75H329.105V23.342ZM438.257 68.918C436.241 71.51 434.009 73.334 431.561 74.39C429.113 75.398 426.641 75.902 424.145 75.902C420.209 75.902 416.657 75.23 413.489 73.886C410.369 72.494 407.729 70.598 405.569 68.198C403.409 65.798 401.753 62.99 400.601 59.774C399.449 56.51 398.873 53.006 398.873 49.262C398.873 45.422 399.449 41.87 400.601 38.606C401.753 35.294 403.409 32.414 405.569 29.966C407.729 27.518 410.369 25.598 413.489 24.206C416.657 22.814 420.209 22.118 424.145 22.118C426.785 22.118 429.329 22.526 431.777 23.342C434.273 24.11 436.505 25.262 438.473 26.798C440.489 28.334 442.145 30.23 443.441 32.486C444.737 34.742 445.529 37.334 445.817 40.262H435.017C434.345 37.382 433.049 35.222 431.129 33.782C429.209 32.342 426.881 31.622 424.145 31.622C421.601 31.622 419.441 32.126 417.665 33.134C415.889 34.094 414.449 35.414 413.345 37.094C412.241 38.726 411.425 40.598 410.897 42.71C410.417 44.822 410.177 47.006 410.177 49.262C410.177 51.422 410.417 53.534 410.897 55.598C411.425 57.614 412.241 59.438 413.345 61.07C414.449 62.702 415.889 64.022 417.665 65.03C419.441 65.99 421.601 66.47 424.145 66.47C427.889 66.47 430.769 65.534 432.785 63.662C434.849 61.742 436.049 58.982 436.385 55.382H425.009V46.958H446.609V74.75H439.409L438.257 68.918ZM467.042 46.598H479.426C482.018 46.598 483.962 46.022 485.258 44.87C486.554 43.718 487.202 41.846 487.202 39.254C487.202 36.758 486.554 34.958 485.258 33.854C483.962 32.702 482.018 32.126 479.426 32.126H467.042V46.598ZM455.738 23.342H483.458C485.762 23.342 487.826 23.726 489.65 24.494C491.522 25.214 493.106 26.222 494.402 27.518C495.746 28.814 496.754 30.326 497.426 32.054C498.146 33.734 498.506 35.558 498.506 37.526C498.506 40.55 497.858 43.166 496.562 45.374C495.314 47.582 493.25 49.262 490.37 50.414V50.558C491.762 50.942 492.914 51.542 493.826 52.358C494.738 53.126 495.482 54.062 496.058 55.166C496.634 56.222 497.042 57.398 497.282 58.694C497.57 59.99 497.762 61.286 497.858 62.582C497.906 63.398 497.954 64.358 498.002 65.462C498.05 66.566 498.122 67.694 498.218 68.846C498.362 69.998 498.554 71.102 498.794 72.158C499.082 73.166 499.49 74.03 500.018 74.75H488.714C488.09 73.118 487.706 71.174 487.562 68.918C487.418 66.662 487.202 64.502 486.914 62.438C486.53 59.75 485.714 57.782 484.466 56.534C483.218 55.286 481.178 54.662 478.346 54.662H467.042V74.75H455.738V23.342ZM516.77 49.262C516.77 51.422 517.01 53.534 517.49 55.598C518.018 57.614 518.834 59.438 519.938 61.07C521.042 62.702 522.482 64.022 524.258 65.03C526.034 65.99 528.194 66.47 530.738 66.47C533.282 66.47 535.442 65.99 537.218 65.03C538.994 64.022 540.434 62.702 541.538 61.07C542.642 59.438 543.434 57.614 543.914 55.598C544.442 53.534 544.706 51.422 544.706 49.262C544.706 47.006 544.442 44.822 543.914 42.71C543.434 40.598 542.642 38.726 541.538 37.094C540.434 35.414 538.994 34.094 537.218 33.134C535.442 32.126 533.282 31.622 530.738 31.622C528.194 31.622 526.034 32.126 524.258 33.134C522.482 34.094 521.042 35.414 519.938 37.094C518.834 38.726 518.018 40.598 517.49 42.71C517.01 44.822 516.77 47.006 516.77 49.262ZM505.466 49.262C505.466 45.422 506.042 41.87 507.194 38.606C508.346 35.294 510.002 32.414 512.162 29.966C514.322 27.518 516.962 25.598 520.082 24.206C523.25 22.814 526.802 22.118 530.738 22.118C534.722 22.118 538.274 22.814 541.394 24.206C544.514 25.598 547.154 27.518 549.314 29.966C551.474 32.414 553.13 35.294 554.282 38.606C555.434 41.87 556.01 45.422 556.01 49.262C556.01 53.006 555.434 56.51 554.282 59.774C553.13 62.99 551.474 65.798 549.314 68.198C547.154 70.598 544.514 72.494 541.394 73.886C538.274 75.23 534.722 75.902 530.738 75.902C526.802 75.902 523.25 75.23 520.082 73.886C516.962 72.494 514.322 70.598 512.162 68.198C510.002 65.798 508.346 62.99 507.194 59.774C506.042 56.51 505.466 53.006 505.466 49.262ZM587.642 74.75H574.898L558.266 23.342H569.858L581.306 59.486H581.45L593.042 23.342H604.706L587.642 74.75ZM609.089 23.342H647.537V32.846H620.393V43.862H645.305V52.646H620.393V65.246H648.113V74.75H609.089V23.342Z" fill="white"/>
</svg>
