<svg preserveAspectRatio="xMinYMin meet" viewBox="0 0 144 74" fill="none" xmlns="http://www.w3.org/2000/svg">
<rect width="143.375" height="74" rx="37" fill="currentColor"/>
<path d="M44.8284 37.6655C44.8284 39.3305 45.0134 40.9585 45.3834 42.5495C45.7904 44.1035 46.4194 45.5095 47.2704 46.7675C48.1214 48.0255 49.2314 49.043 50.6004 49.82C51.9694 50.56 53.6344 50.93 55.5954 50.93C57.5564 50.93 59.2214 50.56 60.5904 49.82C61.9594 49.043 63.0694 48.0255 63.9204 46.7675C64.7714 45.5095 65.3819 44.1035 65.7519 42.5495C66.1589 40.9585 66.3624 39.3305 66.3624 37.6655C66.3624 35.9265 66.1589 34.243 65.7519 32.615C65.3819 30.987 64.7714 29.544 63.9204 28.286C63.0694 26.991 61.9594 25.9735 60.5904 25.2335C59.2214 24.4565 57.5564 24.068 55.5954 24.068C53.6344 24.068 51.9694 24.4565 50.6004 25.2335C49.2314 25.9735 48.1214 26.991 47.2704 28.286C46.4194 29.544 45.7904 30.987 45.3834 32.615C45.0134 34.243 44.8284 35.9265 44.8284 37.6655ZM36.1149 37.6655C36.1149 34.7055 36.5589 31.9675 37.4469 29.4515C38.3349 26.8985 39.6114 24.6785 41.2764 22.7915C42.9414 20.9045 44.9764 19.4245 47.3814 18.3515C49.8234 17.2785 52.5614 16.742 55.5954 16.742C58.6664 16.742 61.4044 17.2785 63.8094 18.3515C66.2144 19.4245 68.2494 20.9045 69.9144 22.7915C71.5794 24.6785 72.8559 26.8985 73.7439 29.4515C74.6319 31.9675 75.0759 34.7055 75.0759 37.6655C75.0759 40.5515 74.6319 43.2525 73.7439 45.7685C72.8559 48.2475 71.5794 50.412 69.9144 52.262C68.2494 54.112 66.2144 55.5735 63.8094 56.6465C61.4044 57.6825 58.6664 58.2005 55.5954 58.2005C52.5614 58.2005 49.8234 57.6825 47.3814 56.6465C44.9764 55.5735 42.9414 54.112 41.2764 52.262C39.6114 50.412 38.3349 48.2475 37.4469 45.7685C36.5589 43.2525 36.1149 40.5515 36.1149 37.6655ZM81.0321 17.6855H89.7456V49.9865H109.06V57.3125H81.0321V17.6855Z" fill="white"/>
</svg>
