<svg width="342" height="64" viewBox="0 0 342 64" fill="none" xmlns="http://www.w3.org/2000/svg">
    <path
        d="M277.463 0C281.012 0 284.426 0.57811 287.617 1.64502C278.445 8.16995 272.464 18.8864 272.464 31V32.6001C272.464 44.8815 278.613 55.726 288 62.223C284.7 63.374 281.155 64 277.463 64H31.9957C14.325 64 0 49.6731 0 32C0 14.3269 14.325 4.26823e-07 31.9957 0H277.463Z"
        fill="black" />
    <path
        d="M342 32C342 14.3269 327.673 0 310 0C292.327 0 278 14.3269 278 32C278 49.6731 292.327 64 310 64C327.673 64 342 49.6731 342 32Z"
        fill="black" />
    <path
        d="M291 15H301.633L309.668 38.381H309.765L317.367 15H328V49H320.927V24.9048H320.831L312.411 49H306.589L298.169 25.1429H298.073V49H291V15Z"
        fill="white" />
    <path
        d="M45.5392 30.381H53.7985C55.5273 30.381 56.8238 30 57.6882 29.2381C58.5525 28.4762 58.9847 27.2381 58.9847 25.5238C58.9847 23.873 58.5525 22.6825 57.6882 21.9524C56.8238 21.1905 55.5273 20.8095 53.7985 20.8095H45.5392V30.381ZM38 15H56.4877C58.0243 15 59.4009 15.254 60.6174 15.7619C61.866 16.2381 62.9224 16.9048 63.7868 17.7619C64.6832 18.619 65.3554 19.619 65.8036 20.7619C66.2838 21.873 66.5239 23.0794 66.5239 24.381C66.5239 26.381 66.0918 28.1111 65.2274 29.5714C64.395 31.0317 63.0184 32.1429 61.0976 32.9048V33C62.026 33.254 62.7944 33.6508 63.4026 34.1905C64.0109 34.6984 64.5071 35.3175 64.8912 36.0476C65.2754 36.746 65.5475 37.5238 65.7076 38.381C65.8997 39.2381 66.0277 40.0952 66.0918 40.9524C66.1238 41.4921 66.1558 42.127 66.1878 42.8571C66.2198 43.5873 66.2678 44.3333 66.3319 45.0952C66.4279 45.8571 66.556 46.5873 66.716 47.2857C66.9081 47.9524 67.1802 48.5238 67.5324 49H59.9932C59.577 47.9206 59.3209 46.6349 59.2248 45.1429C59.1288 43.6508 58.9847 42.2222 58.7926 40.8571C58.5365 39.0794 57.9923 37.7778 57.16 36.9524C56.3276 36.127 54.967 35.7143 53.0782 35.7143H45.5392V49H38V15ZM72.6555 15H98.2985V21.2857H80.1948V28.5714H96.8098V34.381H80.1948V42.7143H98.6826V49H72.6555V15ZM111.333 42.7143H118.056C119.144 42.7143 120.201 42.5397 121.225 42.1905C122.25 41.8413 123.162 41.2698 123.962 40.4762C124.763 39.6508 125.403 38.5873 125.883 37.2857C126.363 35.9841 126.604 34.3968 126.604 32.5238C126.604 30.8095 126.427 29.2698 126.075 27.9048C125.755 26.5079 125.211 25.3175 124.443 24.3333C123.674 23.3492 122.65 22.6032 121.369 22.0952C120.121 21.5556 118.568 21.2857 116.711 21.2857H111.333V42.7143ZM103.794 15H118.584C120.793 15 122.842 15.3492 124.731 16.0476C126.652 16.746 128.3 17.7937 129.677 19.1905C131.085 20.5873 132.174 22.3333 132.942 24.4286C133.743 26.5238 134.143 28.9841 134.143 31.8095C134.143 34.2857 133.823 36.5714 133.182 38.6667C132.542 40.7619 131.566 42.5714 130.253 44.0952C128.973 45.619 127.356 46.8254 125.403 47.7143C123.482 48.5714 121.209 49 118.584 49H103.794V15ZM152.752 15H160.291V42.7143H177.002V49H152.752V15ZM181.217 15H188.756V49H181.217V15ZM195.379 15H202.87L217.181 37.8095H217.277V15H224.336V49H216.796L202.534 26.2381H202.438V49H195.379V15ZM230.973 15H256.616V21.2857H238.512V28.5714H255.127V34.381H238.512V42.7143H257V49H230.973V15Z"
        fill="white" />
</svg>