<svg width="577" height="97" viewBox="0 0 577 97" fill="none" xmlns="http://www.w3.org/2000/svg">
<rect y="0.800781" width="576.5" height="96" rx="48" fill="#DA291C"/>
<path d="M63.8775 45.8988H76.2615C78.8535 45.8988 80.7975 45.3228 82.0935 44.1708C83.3895 43.0188 84.0375 41.1468 84.0375 38.5548C84.0375 36.0588 83.3895 34.2588 82.0935 33.1548C80.7975 32.0028 78.8535 31.4268 76.2615 31.4268H63.8775V45.8988ZM52.5735 22.6428H80.2935C82.5975 22.6428 84.6615 23.0268 86.4855 23.7948C88.3575 24.5148 89.9415 25.5228 91.2375 26.8188C92.5815 28.1148 93.5895 29.6268 94.2615 31.3548C94.9815 33.0348 95.3415 34.8588 95.3415 36.8268C95.3415 39.8508 94.6935 42.4668 93.3975 44.6748C92.1495 46.8828 90.0855 48.5628 87.2055 49.7148V49.8588C88.5975 50.2428 89.7495 50.8428 90.6615 51.6588C91.5735 52.4268 92.3175 53.3628 92.8935 54.4668C93.4695 55.5228 93.8775 56.6988 94.1175 57.9948C94.4055 59.2908 94.5975 60.5868 94.6935 61.8828C94.7415 62.6988 94.7895 63.6588 94.8375 64.7628C94.8855 65.8668 94.9575 66.9948 95.0535 68.1468C95.1975 69.2988 95.3895 70.4028 95.6295 71.4588C95.9175 72.4668 96.3255 73.3308 96.8535 74.0508H85.5495C84.9255 72.4188 84.5415 70.4748 84.3975 68.2188C84.2535 65.9628 84.0375 63.8028 83.7495 61.7388C83.3655 59.0508 82.5495 57.0828 81.3015 55.8348C80.0535 54.5868 78.0135 53.9628 75.1815 53.9628H63.8775V74.0508H52.5735V22.6428ZM104.534 22.6428H115.838V64.5468H140.894V74.0508H104.534V22.6428ZM166.101 50.0028H187.773V58.7868H166.101V50.0028ZM229.573 54.1788H242.893L236.413 35.3148H236.269L229.573 54.1788ZM230.653 22.6428H242.245L261.469 74.0508H249.733L245.845 62.6028H226.621L222.589 74.0508H211.213L230.653 22.6428ZM265.902 22.6428H277.206V64.5468H302.262V74.0508H265.902V22.6428ZM308.581 22.6428H347.029V32.1468H319.885V43.1628H344.797V51.9468H319.885V64.5468H347.605V74.0508H308.581V22.6428ZM404.229 74.0508H392.997L384.285 39.0588H384.141L375.573 74.0508H364.125L350.517 22.6428H361.821L369.957 57.6348H370.101L379.029 22.6428H389.613L398.397 58.0668H398.541L406.965 22.6428H418.053L404.229 74.0508ZM423.261 22.6428H434.565V74.0508H423.261V22.6428ZM444.495 22.6428H480.639V32.1468H455.799V44.0268H477.327V52.8108H455.799V74.0508H444.495V22.6428ZM487.175 22.6428H525.623V32.1468H498.479V43.1628H523.391V51.9468H498.479V64.5468H526.199V74.0508H487.175V22.6428Z" fill="white"/>
</svg>
