<svg width="628" height="97" viewBox="0 0 628 97" fill="none" xmlns="http://www.w3.org/2000/svg">
<rect y="0.800781" width="627.5" height="96" rx="48" fill="#DA291C"/>
<path d="M63.9243 45.8988H76.3083C78.9003 45.8988 80.8443 45.3228 82.1403 44.1708C83.4363 43.0188 84.0843 41.1468 84.0843 38.5548C84.0843 36.0588 83.4363 34.2588 82.1403 33.1548C80.8443 32.0028 78.9003 31.4268 76.3083 31.4268H63.9243V45.8988ZM52.6203 22.6428H80.3403C82.6443 22.6428 84.7083 23.0268 86.5323 23.7948C88.4043 24.5148 89.9883 25.5228 91.2843 26.8188C92.6283 28.1148 93.6363 29.6268 94.3083 31.3548C95.0283 33.0348 95.3883 34.8588 95.3883 36.8268C95.3883 39.8508 94.7403 42.4668 93.4443 44.6748C92.1963 46.8828 90.1323 48.5628 87.2523 49.7148V49.8588C88.6443 50.2428 89.7963 50.8428 90.7083 51.6588C91.6203 52.4268 92.3643 53.3628 92.9403 54.4668C93.5163 55.5228 93.9243 56.6988 94.1643 57.9948C94.4523 59.2908 94.6443 60.5868 94.7403 61.8828C94.7883 62.6988 94.8363 63.6588 94.8843 64.7628C94.9323 65.8668 95.0043 66.9948 95.1003 68.1468C95.2443 69.2988 95.4363 70.4028 95.6763 71.4588C95.9643 72.4668 96.3723 73.3308 96.9003 74.0508H85.5963C84.9723 72.4188 84.5883 70.4748 84.4443 68.2188C84.3003 65.9628 84.0843 63.8028 83.7963 61.7388C83.4123 59.0508 82.5963 57.0828 81.3483 55.8348C80.1003 54.5868 78.0603 53.9628 75.2283 53.9628H63.9243V74.0508H52.6203V22.6428ZM104.581 22.6428H115.885V64.5468H140.941V74.0508H104.581V22.6428ZM166.148 50.0028H187.82V58.7868H166.148V50.0028ZM229.619 54.1788H242.939L236.459 35.3148H236.315L229.619 54.1788ZM230.699 22.6428H242.291L261.515 74.0508H249.779L245.891 62.6028H226.667L222.635 74.0508H211.259L230.699 22.6428ZM273.652 56.9868C273.652 58.7148 273.964 60.1788 274.588 61.3788C275.212 62.5788 276.028 63.5628 277.036 64.3308C278.092 65.0508 279.316 65.6028 280.708 65.9868C282.1 66.3228 283.54 66.4908 285.028 66.4908C286.036 66.4908 287.116 66.4188 288.268 66.2748C289.42 66.0828 290.5 65.7468 291.508 65.2668C292.516 64.7868 293.356 64.1388 294.028 63.3228C294.7 62.4588 295.036 61.3788 295.036 60.0828C295.036 58.6908 294.58 57.5628 293.668 56.6988C292.804 55.8348 291.652 55.1148 290.212 54.5388C288.772 53.9628 287.14 53.4588 285.316 53.0268C283.492 52.5948 281.644 52.1148 279.772 51.5868C277.852 51.1068 275.98 50.5308 274.156 49.8588C272.332 49.1388 270.7 48.2268 269.26 47.1228C267.82 46.0188 266.644 44.6508 265.732 43.0188C264.868 41.3388 264.436 39.3228 264.436 36.9708C264.436 34.3308 264.988 32.0508 266.092 30.1308C267.244 28.1628 268.732 26.5308 270.556 25.2348C272.38 23.9388 274.444 22.9788 276.748 22.3548C279.052 21.7308 281.356 21.4188 283.66 21.4188C286.348 21.4188 288.916 21.7308 291.364 22.3548C293.86 22.9308 296.068 23.8908 297.988 25.2348C299.908 26.5788 301.42 28.3068 302.524 30.4188C303.676 32.4828 304.252 35.0028 304.252 37.9788H293.308C293.212 36.4428 292.876 35.1708 292.3 34.1628C291.772 33.1548 291.052 32.3628 290.14 31.7868C289.228 31.2108 288.172 30.8028 286.972 30.5628C285.82 30.3228 284.548 30.2028 283.156 30.2028C282.244 30.2028 281.332 30.2988 280.42 30.4908C279.508 30.6828 278.668 31.0188 277.9 31.4988C277.18 31.9788 276.58 32.5788 276.1 33.2988C275.62 34.0188 275.38 34.9308 275.38 36.0348C275.38 37.0428 275.572 37.8588 275.956 38.4828C276.34 39.1068 277.084 39.6828 278.188 40.2108C279.34 40.7388 280.9 41.2668 282.868 41.7948C284.884 42.3228 287.5 42.9948 290.716 43.8108C291.676 44.0028 292.996 44.3628 294.676 44.8908C296.404 45.3708 298.108 46.1628 299.788 47.2668C301.468 48.3708 302.908 49.8588 304.108 51.7308C305.356 53.5548 305.98 55.9068 305.98 58.7868C305.98 61.1388 305.524 63.3228 304.612 65.3388C303.7 67.3548 302.332 69.1068 300.508 70.5948C298.732 72.0348 296.5 73.1628 293.812 73.9788C291.172 74.7948 288.1 75.2028 284.596 75.2028C281.764 75.2028 279.004 74.8428 276.316 74.1228C273.676 73.4508 271.324 72.3708 269.26 70.8828C267.244 69.3948 265.636 67.4988 264.436 65.1948C263.236 62.8908 262.66 60.1548 262.708 56.9868H273.652ZM312.706 22.6428H324.01V42.3708H344.818V22.6428H356.122V74.0508H344.818V51.8748H324.01V74.0508H312.706V22.6428ZM366.073 22.6428H381.985L394.009 57.9948H394.153L405.529 22.6428H421.441V74.0508H410.857V37.6188H410.713L398.113 74.0508H389.401L376.801 37.9788H376.657V74.0508H366.073V22.6428ZM440.466 48.5628C440.466 50.7228 440.706 52.8348 441.186 54.8988C441.714 56.9148 442.53 58.7388 443.634 60.3708C444.738 62.0028 446.178 63.3228 447.954 64.3308C449.73 65.2908 451.89 65.7708 454.434 65.7708C456.978 65.7708 459.138 65.2908 460.914 64.3308C462.69 63.3228 464.13 62.0028 465.234 60.3708C466.338 58.7388 467.13 56.9148 467.61 54.8988C468.138 52.8348 468.402 50.7228 468.402 48.5628C468.402 46.3068 468.138 44.1228 467.61 42.0108C467.13 39.8988 466.338 38.0268 465.234 36.3948C464.13 34.7148 462.69 33.3948 460.914 32.4348C459.138 31.4268 456.978 30.9228 454.434 30.9228C451.89 30.9228 449.73 31.4268 447.954 32.4348C446.178 33.3948 444.738 34.7148 443.634 36.3948C442.53 38.0268 441.714 39.8988 441.186 42.0108C440.706 44.1228 440.466 46.3068 440.466 48.5628ZM429.162 48.5628C429.162 44.7228 429.738 41.1708 430.89 37.9068C432.042 34.5948 433.698 31.7148 435.858 29.2668C438.018 26.8188 440.658 24.8988 443.778 23.5068C446.946 22.1148 450.498 21.4188 454.434 21.4188C458.418 21.4188 461.97 22.1148 465.09 23.5068C468.21 24.8988 470.85 26.8188 473.01 29.2668C475.17 31.7148 476.826 34.5948 477.978 37.9068C479.13 41.1708 479.706 44.7228 479.706 48.5628C479.706 52.3068 479.13 55.8108 477.978 59.0748C476.826 62.2908 475.17 65.0988 473.01 67.4988C470.85 69.8988 468.21 71.7948 465.09 73.1868C461.97 74.5308 458.418 75.2028 454.434 75.2028C450.498 75.2028 446.946 74.5308 443.778 73.1868C440.658 71.7948 438.018 69.8988 435.858 67.4988C433.698 65.0988 432.042 62.2908 430.89 59.0748C429.738 55.8108 429.162 52.3068 429.162 48.5628ZM487.433 22.6428H498.665L520.121 57.1308H520.265V22.6428H530.849V74.0508H519.545L498.161 39.6348H498.017V74.0508H487.433V22.6428ZM552.176 32.1468H536.768V22.6428H578.888V32.1468H563.48V74.0508H552.176V32.1468Z" fill="white"/>
</svg>
