<svg width="351" height="128" viewBox="0 0 351 128" fill="none" xmlns="http://www.w3.org/2000/svg">
<path d="M200.368 0C213.447 0 225.61 3.92407 235.744 10.6582C221.791 24.1543 213.118 43.0654 213.118 64C213.118 84.9342 221.792 103.844 235.744 117.34C225.61 124.074 213.448 128 200.368 128H64C28.6538 128 0 99.3462 0 64C1.80416e-06 28.6538 28.6538 1.26253e-06 64 0H200.368Z" fill="#DA291C"/>
<rect x="223" width="128" height="128" rx="64" fill="#DA291C"/>
<path d="M250.077 30.456H271.293L287.325 77.592H287.517L302.685 30.456H323.901V99H309.789V50.424H309.597L292.797 99H281.181L264.381 50.904H264.189V99H250.077V30.456Z" fill="white"/>
<path d="M82.5022 61.464H99.0142C102.47 61.464 105.062 60.696 106.79 59.16C108.518 57.624 109.382 55.128 109.382 51.672C109.382 48.344 108.518 45.944 106.79 44.472C105.062 42.936 102.47 42.168 99.0142 42.168H82.5022V61.464ZM67.4302 30.456H104.39C107.462 30.456 110.214 30.968 112.646 31.992C115.142 32.952 117.254 34.296 118.982 36.024C120.774 37.752 122.118 39.768 123.014 42.072C123.974 44.312 124.454 46.744 124.454 49.368C124.454 53.4 123.59 56.888 121.862 59.832C120.198 62.776 117.446 65.016 113.606 66.552V66.744C115.462 67.256 116.998 68.056 118.214 69.144C119.43 70.168 120.422 71.416 121.19 72.888C121.958 74.296 122.502 75.864 122.822 77.592C123.206 79.32 123.462 81.048 123.59 82.776C123.654 83.864 123.718 85.144 123.782 86.616C123.846 88.088 123.942 89.592 124.07 91.128C124.262 92.664 124.518 94.136 124.838 95.544C125.222 96.888 125.766 98.04 126.47 99H111.398C110.566 96.824 110.054 94.232 109.862 91.224C109.67 88.216 109.382 85.336 108.998 82.584C108.486 79 107.398 76.376 105.734 74.712C104.07 73.048 101.35 72.216 97.5742 72.216H82.5022V99H67.4302V30.456ZM136.711 30.456H151.783V86.328H185.191V99H136.711V30.456Z" fill="white"/>
</svg>
