<svg width="203" height="74" viewBox="0 0 203 74" fill="none" xmlns="http://www.w3.org/2000/svg">
    <path
        d="M115.592 0C123.137 0 130.154 2.2686 136 6.16177C127.951 13.9642 122.947 24.8972 122.947 37C122.947 49.1026 127.951 60.0348 136 67.8372C130.154 71.7303 123.138 74 115.592 74H36.9214C16.5303 74 0 57.4345 0 37C1.04081e-06 16.5655 16.5303 7.299e-07 36.9214 0H115.592Z"
        fill="#DA291C" />
    <path
        d="M203 37C203 16.5655 186.435 0 166 0C145.565 0 129 16.5655 129 37C129 57.4345 145.565 74 166 74C186.435 74 203 57.4345 203 37Z"
        fill="#DA291C" />
    <path
        d="M145 17H157.358L166.696 44.507H166.808L175.642 17H188V57H179.78V28.6527H179.668L169.883 57H163.117L153.332 28.9328H153.22V57H145V17Z"
        fill="white" />
    <path
        d="M46.7031 35.0952H56.2378C58.2332 35.0952 59.7299 34.6471 60.7278 33.7507C61.7256 32.8543 62.2245 31.3978 62.2245 29.381C62.2245 27.4388 61.7256 26.0383 60.7278 25.1793C59.7299 24.2829 58.2332 23.8347 56.2378 23.8347H46.7031V35.0952ZM38 17H59.3419C61.1158 17 62.7049 17.2988 64.1092 17.8964C65.5505 18.4566 66.7701 19.2409 67.7679 20.2493C68.8026 21.2577 69.5787 22.4342 70.0961 23.7787C70.6504 25.0859 70.9276 26.5051 70.9276 28.0364C70.9276 30.3894 70.4287 32.4248 69.4309 34.1429C68.47 35.8609 66.8809 37.1681 64.6636 38.0644V38.1765C65.7353 38.4753 66.6222 38.9421 67.3244 39.577C68.0266 40.1746 68.5994 40.9029 69.0429 41.7619C69.4863 42.5836 69.8005 43.4986 69.9852 44.507C70.207 45.5154 70.3548 46.5238 70.4287 47.5322C70.4657 48.1671 70.5026 48.9141 70.5396 49.7731C70.5765 50.6321 70.632 51.5098 70.7059 52.4062C70.8167 53.3025 70.9646 54.1615 71.1493 54.9832C71.3711 55.7675 71.6852 56.4398 72.0917 57H63.3886C62.9082 55.7302 62.6125 54.2176 62.5016 52.4622C62.3908 50.7068 62.2245 49.0261 62.0027 47.4202C61.7071 45.3287 61.0788 43.7974 60.118 42.8263C59.1571 41.8553 57.5865 41.3698 55.4063 41.3698H46.7031V57H38V17ZM78.0058 17H86.709V49.605H106V57H78.0058V17Z"
        fill="white" />
</svg>