<svg width="647" height="97" viewBox="0 0 647 97" fill="none" xmlns="http://www.w3.org/2000/svg">
    <g clip-path="url(#clip0_10_14)">
        <path
            d="M598.683 0H48.3174C21.6324 0 0 21.7142 0 48.5C0 75.2858 21.6324 97 48.3174 97H598.683C625.368 97 647 75.2858 647 48.5C647 21.7142 625.368 0 598.683 0Z"
            fill="#DA291C" />
        <path
            d="M64.0245 45.8203H76.4901C79.0992 45.8203 81.0561 45.2383 82.3606 44.0743C83.6652 42.9103 84.3175 41.0188 84.3175 38.3998C84.3175 35.8778 83.6652 34.059 82.3606 32.9435C81.0561 31.7795 79.0992 31.1975 76.4901 31.1975H64.0245V45.8203ZM52.6458 22.322H80.5487C82.868 22.322 84.9456 22.71 86.7817 23.486C88.6661 24.2135 90.2605 25.232 91.5651 26.5415C92.918 27.851 93.9327 29.3788 94.6091 31.1248C95.3339 32.8223 95.6962 34.6653 95.6962 36.6538C95.6962 39.7093 95.044 42.3525 93.7394 44.5835C92.4831 46.8145 90.4055 48.512 87.5064 49.676V49.8215C88.9076 50.2095 90.0673 50.8158 90.9853 51.6403C91.9033 52.4163 92.6522 53.362 93.2321 54.4775C93.8119 55.5445 94.2226 56.7328 94.4641 58.0423C94.7541 59.3518 94.9473 60.6613 95.044 61.9708C95.0923 62.7953 95.1406 63.7653 95.1889 64.8808C95.2372 65.9963 95.3097 67.136 95.4063 68.3C95.5513 69.464 95.7446 70.5795 95.9861 71.6465C96.2761 72.665 96.6867 73.538 97.2182 74.2655H85.8395C85.2114 72.6165 84.8248 70.6523 84.6799 68.3728C84.5349 66.0933 84.3175 63.9108 84.0276 61.8253C83.6411 59.1093 82.8197 57.1208 81.5634 55.8598C80.3072 54.5988 78.2537 53.9683 75.4032 53.9683H64.0245V74.2655H52.6458V22.322ZM104.951 22.322H116.329V64.6625H141.551V74.2655H104.951V22.322ZM166.924 49.967H188.74V58.8425H166.924V49.967ZM217.769 22.322H233.787L245.89 58.0423H246.035L257.486 22.322H273.503V74.2655H262.849V37.454H262.705L250.021 74.2655H241.252L228.568 37.8178H228.423V74.2655H217.769V22.322ZM296.567 54.1865H309.976L303.453 35.126H303.308L296.567 54.1865ZM297.655 22.322H309.323L328.674 74.2655H316.861L312.947 62.6983H293.596L289.537 74.2655H278.086L297.655 22.322ZM337.935 31.925H322.425V22.322H364.823V31.925H349.313V74.2655H337.935V31.925ZM382.242 31.925H366.732V22.322H409.13V31.925H393.62V74.2655H382.242V31.925ZM421.49 54.1865H434.898L428.375 35.126H428.23L421.49 54.1865ZM422.577 22.322H434.246L453.597 74.2655H441.783L437.869 62.6983H418.518L414.46 74.2655H403.008L422.577 22.322ZM469.437 46.766H478.279C479.584 46.766 480.84 46.669 482.048 46.475C483.256 46.281 484.319 45.9173 485.237 45.3838C486.155 44.8018 486.88 44.0015 487.411 42.983C487.991 41.9645 488.281 40.6308 488.281 38.9818C488.281 37.3328 487.991 35.999 487.411 34.9805C486.88 33.962 486.155 33.186 485.237 32.6525C484.319 32.0705 483.256 31.6825 482.048 31.4885C480.84 31.2945 479.584 31.1975 478.279 31.1975H469.437V46.766ZM458.059 22.322H481.396C484.633 22.322 487.387 22.807 489.658 23.777C491.929 24.6985 493.765 25.9353 495.166 27.4873C496.616 29.0393 497.655 30.8095 498.283 32.798C498.959 34.7865 499.297 36.8478 499.297 38.9818C499.297 41.0673 498.959 43.1285 498.283 45.1655C497.655 47.154 496.616 48.9243 495.166 50.4763C493.765 52.0283 491.929 53.2893 489.658 54.2593C487.387 55.1808 484.633 55.6415 481.396 55.6415H469.437V74.2655H458.059V22.322ZM514.067 54.1865H527.475L520.952 35.126H520.807L514.067 54.1865ZM515.154 22.322H526.822L546.174 74.2655H534.36L530.446 62.6983H511.095L507.036 74.2655H495.585L515.154 22.322ZM550.635 22.322H561.942L583.54 57.1693H583.684V22.322H594.338V74.2655H582.96L561.434 39.491H561.289V74.2655H550.635V22.322Z"
            fill="white" />
    </g>
    <defs>
        <clipPath id="clip0_10_14">
            <rect width="647" height="97" fill="white" />
        </clipPath>
    </defs>
</svg>