<svg width="496" height="244" viewBox="0 0 496 244" fill="none" xmlns="http://www.w3.org/2000/svg">
<path d="M0 8.00001C0 3.58173 3.58172 0 8 0H370.813C372.936 0 374.972 0.844017 376.473 2.34614L490.352 116.346C493.472 119.47 493.472 124.53 490.352 127.654L376.473 241.654C374.972 243.156 372.936 244 370.813 244H8C3.58172 244 0 240.418 0 236V8.00001Z" fill="#145A06"/>
<path d="M8 4H370.813C371.874 4 372.892 4.42201 373.643 5.17307L487.522 119.173C489.082 120.735 489.082 123.265 487.522 124.827L373.643 238.827C372.892 239.578 371.874 240 370.813 240H8C5.79086 240 4 238.209 4 236V8C4 5.79086 5.79086 4 8 4Z" stroke="black" stroke-opacity="0.25" stroke-width="8"/>
<g filter="url(#filter0_d_1742_1894467)">
<path fill-rule="evenodd" clip-rule="evenodd" d="M168 123.892C168 112.846 176.954 103.892 188 103.892C199.046 103.892 208 112.846 208 123.892V171.892C208 176.862 203.971 180.892 199 180.892H177C172.029 180.892 168 176.862 168 171.892V123.892Z" fill="white"/>
<circle cx="187.781" cy="78.3735" r="14" fill="white"/>
</g>
<defs>
<filter id="filter0_d_1742_1894467" x="162" y="62.3735" width="52" height="128.518" filterUnits="userSpaceOnUse" color-interpolation-filters="sRGB">
<feFlood flood-opacity="0" result="BackgroundImageFix"/>
<feColorMatrix in="SourceAlpha" type="matrix" values="0 0 0 0 0 0 0 0 0 0 0 0 0 0 0 0 0 0 127 0" result="hardAlpha"/>
<feOffset dy="4"/>
<feGaussianBlur stdDeviation="3"/>
<feComposite in2="hardAlpha" operator="out"/>
<feColorMatrix type="matrix" values="0 0 0 0 0 0 0 0 0 0 0 0 0 0 0 0 0 0 0.3 0"/>
<feBlend mode="normal" in2="BackgroundImageFix" result="effect1_dropShadow_1742_1894467"/>
<feBlend mode="normal" in="SourceGraphic" in2="effect1_dropShadow_1742_1894467" result="shape"/>
</filter>
</defs>
</svg>
