<svg width="496" height="244" viewBox="0 0 496 244" fill="none" xmlns="http://www.w3.org/2000/svg">
<path d="M0 8C0 3.58173 3.58172 0 8 0H488C492.418 0 496 3.58172 496 8V122V236C496 240.418 492.418 244 488 244H7.99999C3.58171 244 0 240.418 0 236V8Z" fill="#A6A6A6"/>
<path d="M4 8C4 5.79086 5.79086 4 8 4H488C490.209 4 492 5.79086 492 8V122V236C492 238.209 490.209 240 488 240H7.99999C5.79086 240 4 238.209 4 236V8Z" stroke="black" stroke-opacity="0.25" stroke-width="8"/>
<g opacity="0.85">
<path fill-rule="evenodd" clip-rule="evenodd" d="M191.183 64.4408C187.929 61.1864 182.652 61.1864 179.398 64.4408C176.143 67.6952 176.143 72.9715 179.398 76.2259L208.609 105.437C204.697 105.376 178.743 106.089 178.743 135.809C178.743 147.714 190.648 161.405 209.1 161.405L264.577 161.405L287.731 184.559C290.986 187.814 296.262 187.814 299.516 184.559C302.771 181.305 302.771 176.029 299.516 172.774L287.946 161.204C287.987 161.199 288.028 161.194 288.068 161.188L213.923 87.0429C213.906 87.072 213.889 87.1012 213.872 87.1303L191.183 64.4408ZM313.267 135.809C313.267 142.666 308.923 150.115 302.282 155.199L223.768 76.6847C229.023 73.3181 236.055 71.0745 245.41 70.9284C275.886 70.4522 284.696 94.1426 284.696 105.452C284.696 105.452 313.267 103.666 313.267 135.809Z" fill="#171F26"/>
</g>
</svg>
