<svg width="496" height="244" viewBox="0 0 496 244" fill="none" xmlns="http://www.w3.org/2000/svg">
<path d="M496 8C496 3.58173 492.418 0 488 0H125.187C123.064 0 121.028 0.844017 119.527 2.34614L5.64789 116.346C2.52768 119.47 2.52768 124.53 5.64789 127.654L119.527 241.654C121.028 243.156 123.064 244 125.187 244H488C492.418 244 496 240.418 496 236V8Z" fill="#A6A6A6"/>
<path d="M492 8C492 5.79086 490.209 4 488 4H125.187C124.126 4 123.107 4.42202 122.357 5.17306L8.47781 119.173C6.91769 120.735 6.91769 123.265 8.47781 124.827L122.357 238.827C123.107 239.578 124.126 240 125.187 240H488C490.209 240 492 238.209 492 236V8Z" stroke="black" stroke-opacity="0.25" stroke-width="8"/>
<g opacity="0.85">
<path fill-rule="evenodd" clip-rule="evenodd" d="M251.183 64.4408C247.929 61.1864 242.652 61.1864 239.398 64.4408C236.143 67.6952 236.143 72.9715 239.398 76.2259L268.609 105.437C264.697 105.376 238.743 106.089 238.743 135.809C238.743 147.714 250.648 161.405 269.1 161.405L324.577 161.405L347.731 184.559C350.986 187.814 356.262 187.814 359.516 184.559C362.771 181.305 362.771 176.029 359.516 172.774L347.946 161.204C347.987 161.199 348.028 161.194 348.068 161.188L273.923 87.0429C273.906 87.072 273.889 87.1012 273.872 87.1303L251.183 64.4408ZM373.267 135.809C373.267 142.666 368.923 150.115 362.282 155.199L283.768 76.6847C289.023 73.3181 296.055 71.0745 305.41 70.9284C335.886 70.4522 344.696 94.1426 344.696 105.452C344.696 105.452 373.267 103.666 373.267 135.809Z" fill="#171F26"/>
</g>
</svg>
