<svg width="496" height="244" viewBox="0 0 496 244" fill="none" xmlns="http://www.w3.org/2000/svg">
<path d="M0 8C0 3.58173 3.58172 0 8 0H370.813C372.936 0 374.972 0.844017 376.473 2.34614L490.352 116.346C493.472 119.47 493.472 124.53 490.352 127.654L376.473 241.654C374.972 243.156 372.936 244 370.813 244H8C3.58172 244 0 240.418 0 236V8Z" fill="#A6A6A6"/>
<path d="M4 8C4 5.79086 5.79086 4 8 4H370.813C371.874 4 372.893 4.42202 373.643 5.17306L487.522 119.173C489.082 120.735 489.082 123.265 487.522 124.827L373.643 238.827C372.893 239.578 371.874 240 370.813 240H8C5.79086 240 4 238.209 4 236V8Z" stroke="black" stroke-opacity="0.25" stroke-width="8"/>
<g opacity="0.85">
<path fill-rule="evenodd" clip-rule="evenodd" d="M131.183 64.4408C127.929 61.1864 122.652 61.1864 119.398 64.4408C116.143 67.6952 116.143 72.9715 119.398 76.2259L148.609 105.437C144.697 105.376 118.743 106.089 118.743 135.809C118.743 147.714 130.648 161.405 149.1 161.405L204.577 161.405L227.731 184.559C230.986 187.814 236.262 187.814 239.516 184.559C242.771 181.305 242.771 176.029 239.516 172.774L227.946 161.204C227.987 161.199 228.028 161.194 228.068 161.188L153.923 87.0429C153.906 87.072 153.889 87.1012 153.872 87.1303L131.183 64.4408ZM253.267 135.809C253.267 142.666 248.923 150.115 242.282 155.199L163.768 76.6847C169.023 73.3181 176.055 71.0745 185.41 70.9284C215.886 70.4522 224.696 94.1426 224.696 105.452C224.696 105.452 253.267 103.666 253.267 135.809Z" fill="#171F26"/>
</g>
</svg>
