<svg width="132" height="100" viewBox="0 0 132 100" fill="none" xmlns="http://www.w3.org/2000/svg">
<mask id="path-1-inside-1_1682_318787" fill="white">
<rect width="132" height="100" rx="3.02018"/>
</mask>
<rect width="132" height="100" rx="3.02018" fill="#B3000F" stroke="black" stroke-opacity="0.2" stroke-width="12" mask="url(#path-1-inside-1_1682_318787)"/>
<g filter="url(#filter0_d_1682_318787)">
<path fill-rule="evenodd" clip-rule="evenodd" d="M30 50.4512C30 45.4806 34.0294 41.4512 39 41.4512V41.4512C43.9706 41.4512 48 45.4806 48 50.4512V72.0512C48 74.2879 46.1868 76.1012 43.95 76.1012H34.05C31.8132 76.1012 30 74.2879 30 72.0512V50.4512Z" fill="white"/>
<path fill-rule="evenodd" clip-rule="evenodd" d="M57 50.4512C57 45.4806 61.0294 41.4512 66 41.4512V41.4512C70.9706 41.4512 75 45.4806 75 50.4512V72.0512C75 74.2879 73.1868 76.1012 70.95 76.1012H61.05C58.8132 76.1012 57 74.2879 57 72.0512V50.4512Z" fill="white"/>
<path fill-rule="evenodd" clip-rule="evenodd" d="M84 50.4512C84 45.4806 88.0294 41.4512 93 41.4512V41.4512C97.9706 41.4512 102 45.4806 102 50.4512V72.0512C102 74.2879 100.187 76.1012 97.95 76.1012H88.05C85.8132 76.1012 84 74.2879 84 72.0512V50.4512Z" fill="white"/>
<circle cx="38.9016" cy="29.968" r="6.3" fill="white"/>
<circle cx="65.9016" cy="29.968" r="6.3" fill="white"/>
<circle cx="92.9016" cy="29.968" r="6.3" fill="white"/>
</g>
<defs>
<filter id="filter0_d_1682_318787" x="27.3" y="22.768" width="77.4" height="57.8331" filterUnits="userSpaceOnUse" color-interpolation-filters="sRGB">
<feFlood flood-opacity="0" result="BackgroundImageFix"/>
<feColorMatrix in="SourceAlpha" type="matrix" values="0 0 0 0 0 0 0 0 0 0 0 0 0 0 0 0 0 0 127 0" result="hardAlpha"/>
<feOffset dy="1.8"/>
<feGaussianBlur stdDeviation="1.35"/>
<feComposite in2="hardAlpha" operator="out"/>
<feColorMatrix type="matrix" values="0 0 0 0 0 0 0 0 0 0 0 0 0 0 0 0 0 0 0.3 0"/>
<feBlend mode="normal" in2="BackgroundImageFix" result="effect1_dropShadow_1682_318787"/>
<feBlend mode="normal" in="SourceGraphic" in2="effect1_dropShadow_1682_318787" result="shape"/>
</filter>
</defs>
</svg>
