<svg width="496" height="244" viewBox="0 0 496 244" fill="none" xmlns="http://www.w3.org/2000/svg">
<path d="M0 8C0 3.58173 3.58172 0 8 0H488C492.418 0 496 3.58172 496 8V122V236C496 240.418 492.418 244 488 244H7.99999C3.58171 244 0 240.418 0 236V8Z" fill="#171F26"/>
<path d="M4 8C4 5.79086 5.79086 4 8 4H488C490.209 4 492 5.79086 492 8V122V236C492 238.209 490.209 240 488 240H7.99999C5.79086 240 4 238.209 4 236V8Z" stroke="black" stroke-opacity="0.25" stroke-width="8"/>
<path fill-rule="evenodd" clip-rule="evenodd" d="M223.051 64.4779C223.345 64.1725 223.751 64 224.175 64H271.843C272.256 64 272.653 64.1644 272.946 64.4569L305.543 97.0542C305.836 97.3468 306 97.7435 306 98.1573V144.571C306 144.975 305.844 145.362 305.564 145.653L272.949 179.522C272.655 179.827 272.249 180 271.825 180H224.157C223.744 180 223.347 179.836 223.054 179.543L190.457 146.946C190.164 146.653 190 146.256 190 145.843V99.429C190 99.0255 190.156 98.6376 190.436 98.3469L223.051 64.4779Z" fill="white"/>
<path fill-rule="evenodd" clip-rule="evenodd" d="M213.736 101.676C213.128 101.07 213.123 100.087 213.725 99.4757L225.282 87.7324C225.888 87.1158 226.881 87.1107 227.494 87.721L248.108 108.241L268.722 87.721C269.335 87.1107 270.328 87.1158 270.935 87.7324L282.491 99.4757C283.093 100.087 283.088 101.07 282.48 101.676L261.853 122.208L282.485 143.173C283.089 143.787 283.081 144.775 282.467 145.379L270.946 156.708C270.332 157.312 269.345 157.304 268.741 156.69L248.108 135.724L227.476 156.69C226.872 157.304 225.884 157.312 225.27 156.708L213.75 145.379C213.135 144.775 213.127 143.787 213.732 143.173L234.363 122.208L213.736 101.676Z" fill="#171F26"/>
</svg>
