<svg width="496" height="244" viewBox="0 0 496 244" fill="none" xmlns="http://www.w3.org/2000/svg">
<path d="M496 8C496 3.58173 492.418 0 488 0H125.187C123.064 0 121.028 0.844017 119.527 2.34614L5.64789 116.346C2.52768 119.47 2.52768 124.53 5.64789 127.654L119.527 241.654C121.028 243.156 123.064 244 125.187 244H488C492.418 244 496 240.418 496 236V8Z" fill="#171F26"/>
<path d="M492 8C492 5.79086 490.209 4 488 4H125.187C124.126 4 123.107 4.42202 122.357 5.17306L8.47781 119.173C6.91769 120.735 6.91769 123.265 8.47781 124.827L122.357 238.827C123.107 239.578 124.126 240 125.187 240H488C490.209 240 492 238.209 492 236V8Z" stroke="black" stroke-opacity="0.25" stroke-width="8"/>
<path fill-rule="evenodd" clip-rule="evenodd" d="M283.051 64.4779C283.345 64.1725 283.751 64 284.175 64H331.843C332.256 64 332.653 64.1644 332.946 64.4569L365.543 97.0542C365.836 97.3468 366 97.7435 366 98.1573V144.571C366 144.975 365.844 145.362 365.564 145.653L332.949 179.522C332.655 179.827 332.249 180 331.825 180H284.157C283.744 180 283.347 179.836 283.054 179.543L250.457 146.946C250.164 146.653 250 146.256 250 145.843V99.429C250 99.0255 250.156 98.6376 250.436 98.3469L283.051 64.4779Z" fill="white"/>
<path fill-rule="evenodd" clip-rule="evenodd" d="M273.736 101.676C273.128 101.07 273.123 100.087 273.725 99.4757L285.282 87.7324C285.888 87.1158 286.881 87.1107 287.494 87.721L308.108 108.241L328.722 87.721C329.335 87.1107 330.328 87.1158 330.935 87.7324L342.491 99.4757C343.093 100.087 343.088 101.07 342.48 101.676L321.853 122.208L342.485 143.173C343.089 143.787 343.081 144.775 342.467 145.379L330.946 156.708C330.332 157.312 329.345 157.304 328.741 156.69L308.108 135.724L287.476 156.69C286.872 157.304 285.884 157.312 285.27 156.708L273.75 145.379C273.135 144.775 273.127 143.787 273.732 143.173L294.363 122.208L273.736 101.676Z" fill="#171F26"/>
</svg>
