<svg width="496" height="244" viewBox="0 0 496 244" fill="none" xmlns="http://www.w3.org/2000/svg">
<path d="M0 8C0 3.58173 3.58172 0 8 0H370.813C372.936 0 374.972 0.844017 376.473 2.34614L490.352 116.346C493.472 119.47 493.472 124.53 490.352 127.654L376.473 241.654C374.972 243.156 372.936 244 370.813 244H8C3.58172 244 0 240.418 0 236V8Z" fill="#171F26"/>
<path d="M4 8C4 5.79086 5.79086 4 8 4H370.813C371.874 4 372.893 4.42202 373.643 5.17306L487.522 119.173C489.082 120.735 489.082 123.265 487.522 124.827L373.643 238.827C372.893 239.578 371.874 240 370.813 240H8C5.79086 240 4 238.209 4 236V8Z" stroke="black" stroke-opacity="0.25" stroke-width="8"/>
<path fill-rule="evenodd" clip-rule="evenodd" d="M163.051 64.4779C163.345 64.1725 163.751 64 164.175 64H211.843C212.256 64 212.653 64.1644 212.946 64.4569L245.543 97.0542C245.836 97.3468 246 97.7435 246 98.1573V144.571C246 144.975 245.844 145.362 245.564 145.653L212.949 179.522C212.655 179.827 212.249 180 211.825 180H164.157C163.744 180 163.347 179.836 163.054 179.543L130.457 146.946C130.164 146.653 130 146.256 130 145.843V99.429C130 99.0255 130.156 98.6376 130.436 98.3469L163.051 64.4779Z" fill="white"/>
<path fill-rule="evenodd" clip-rule="evenodd" d="M153.736 101.676C153.128 101.07 153.123 100.087 153.725 99.4757L165.282 87.7324C165.888 87.1158 166.881 87.1107 167.494 87.721L188.108 108.241L208.722 87.721C209.335 87.1107 210.328 87.1158 210.935 87.7324L222.491 99.4757C223.093 100.087 223.088 101.07 222.48 101.676L201.853 122.208L222.485 143.173C223.089 143.787 223.081 144.775 222.467 145.379L210.946 156.708C210.332 157.312 209.345 157.304 208.741 156.69L188.108 135.724L167.476 156.69C166.872 157.304 165.884 157.312 165.27 156.708L153.75 145.379C153.135 144.775 153.127 143.787 153.732 143.173L174.363 122.208L153.736 101.676Z" fill="#171F26"/>
</svg>
