<svg width="617" height="97" viewBox="0 0 617 97" fill="none" xmlns="http://www.w3.org/2000/svg">
<rect y="0.800781" width="616.5" height="96" rx="48" fill="#003DA5"/>
<path d="M63.7681 43.4508H75.2161C77.2321 43.4508 78.8881 42.9708 80.1841 42.0108C81.4801 41.0508 82.1281 39.4908 82.1281 37.3308C82.1281 36.1308 81.9121 35.1468 81.4801 34.3788C81.0481 33.6108 80.4721 33.0108 79.7521 32.5788C79.0321 32.1468 78.1921 31.8588 77.2321 31.7148C76.3201 31.5228 75.3601 31.4268 74.3521 31.4268H63.7681V43.4508ZM52.4641 22.6428H76.6561C79.1041 22.6428 81.3361 22.8588 83.3521 23.2908C85.3681 23.7228 87.0961 24.4428 88.5361 25.4508C89.9761 26.4108 91.0801 27.7068 91.8481 29.3388C92.6641 30.9708 93.0721 32.9868 93.0721 35.3868C93.0721 37.9788 92.4721 40.1388 91.2721 41.8668C90.1201 43.5948 88.3921 45.0108 86.0881 46.1148C89.2561 47.0268 91.6081 48.6348 93.1441 50.9388C94.7281 53.1948 95.5201 55.9308 95.5201 59.1468C95.5201 61.7388 95.0161 63.9948 94.0081 65.9148C93.0001 67.7868 91.6321 69.3228 89.9041 70.5228C88.2241 71.7228 86.2801 72.6108 84.0721 73.1868C81.9121 73.7628 79.6801 74.0508 77.3761 74.0508H52.4641V22.6428ZM63.7681 65.2668H75.8641C76.9681 65.2668 78.0241 65.1708 79.0321 64.9788C80.0401 64.7388 80.9281 64.3788 81.6961 63.8988C82.4641 63.3708 83.0641 62.6748 83.4961 61.8108C83.9761 60.9468 84.2161 59.8428 84.2161 58.4988C84.2161 55.8588 83.4721 53.9868 81.9841 52.8828C80.4961 51.7308 78.5281 51.1548 76.0801 51.1548H63.7681V65.2668ZM103.159 22.6428H114.463V64.5468H139.519V74.0508H103.159V22.6428ZM164.726 50.0028H186.398V58.7868H164.726V50.0028ZM226.542 43.4508H237.99C240.006 43.4508 241.662 42.9708 242.958 42.0108C244.254 41.0508 244.902 39.4908 244.902 37.3308C244.902 36.1308 244.686 35.1468 244.254 34.3788C243.822 33.6108 243.246 33.0108 242.526 32.5788C241.806 32.1468 240.966 31.8588 240.006 31.7148C239.094 31.5228 238.134 31.4268 237.126 31.4268H226.542V43.4508ZM215.238 22.6428H239.43C241.878 22.6428 244.11 22.8588 246.126 23.2908C248.142 23.7228 249.87 24.4428 251.31 25.4508C252.75 26.4108 253.854 27.7068 254.622 29.3388C255.438 30.9708 255.846 32.9868 255.846 35.3868C255.846 37.9788 255.246 40.1388 254.046 41.8668C252.894 43.5948 251.166 45.0108 248.862 46.1148C252.03 47.0268 254.382 48.6348 255.918 50.9388C257.502 53.1948 258.294 55.9308 258.294 59.1468C258.294 61.7388 257.79 63.9948 256.782 65.9148C255.774 67.7868 254.406 69.3228 252.678 70.5228C250.998 71.7228 249.054 72.6108 246.846 73.1868C244.686 73.7628 242.454 74.0508 240.15 74.0508H215.238V22.6428ZM226.542 65.2668H238.638C239.742 65.2668 240.798 65.1708 241.806 64.9788C242.814 64.7388 243.702 64.3788 244.47 63.8988C245.238 63.3708 245.838 62.6748 246.27 61.8108C246.75 60.9468 246.99 59.8428 246.99 58.4988C246.99 55.8588 246.246 53.9868 244.758 52.8828C243.27 51.7308 241.302 51.1548 238.854 51.1548H226.542V65.2668ZM275.005 48.5628C275.005 50.7228 275.245 52.8348 275.725 54.8988C276.253 56.9148 277.069 58.7388 278.173 60.3708C279.277 62.0028 280.717 63.3228 282.493 64.3308C284.269 65.2908 286.429 65.7708 288.973 65.7708C291.517 65.7708 293.677 65.2908 295.453 64.3308C297.229 63.3228 298.669 62.0028 299.773 60.3708C300.877 58.7388 301.669 56.9148 302.149 54.8988C302.677 52.8348 302.941 50.7228 302.941 48.5628C302.941 46.3068 302.677 44.1228 302.149 42.0108C301.669 39.8988 300.877 38.0268 299.773 36.3948C298.669 34.7148 297.229 33.3948 295.453 32.4348C293.677 31.4268 291.517 30.9228 288.973 30.9228C286.429 30.9228 284.269 31.4268 282.493 32.4348C280.717 33.3948 279.277 34.7148 278.173 36.3948C277.069 38.0268 276.253 39.8988 275.725 42.0108C275.245 44.1228 275.005 46.3068 275.005 48.5628ZM263.701 48.5628C263.701 44.7228 264.277 41.1708 265.429 37.9068C266.581 34.5948 268.237 31.7148 270.397 29.2668C272.557 26.8188 275.197 24.8988 278.317 23.5068C281.485 22.1148 285.037 21.4188 288.973 21.4188C292.957 21.4188 296.509 22.1148 299.629 23.5068C302.749 24.8988 305.389 26.8188 307.549 29.2668C309.709 31.7148 311.365 34.5948 312.517 37.9068C313.669 41.1708 314.245 44.7228 314.245 48.5628C314.245 52.3068 313.669 55.8108 312.517 59.0748C311.365 62.2908 309.709 65.0988 307.549 67.4988C305.389 69.8988 302.749 71.7948 299.629 73.1868C296.509 74.5308 292.957 75.2028 288.973 75.2028C285.037 75.2028 281.485 74.5308 278.317 73.1868C275.197 71.7948 272.557 69.8988 270.397 67.4988C268.237 65.0988 266.581 62.2908 265.429 59.0748C264.277 55.8108 263.701 52.3068 263.701 48.5628ZM370.932 74.0508H359.7L350.988 39.0588H350.844L342.276 74.0508H330.828L317.22 22.6428H328.524L336.66 57.6348H336.804L345.732 22.6428H356.316L365.1 58.0668H365.244L373.668 22.6428H384.756L370.932 74.0508ZM401.268 64.5468H411.348C412.98 64.5468 414.564 64.2828 416.1 63.7548C417.636 63.2268 419.004 62.3628 420.204 61.1628C421.404 59.9148 422.364 58.3068 423.084 56.3388C423.804 54.3708 424.164 51.9708 424.164 49.1388C424.164 46.5468 423.9 44.2188 423.372 42.1548C422.892 40.0428 422.076 38.2428 420.924 36.7548C419.772 35.2668 418.236 34.1388 416.316 33.3708C414.444 32.5548 412.116 32.1468 409.332 32.1468H401.268V64.5468ZM389.964 22.6428H412.14C415.452 22.6428 418.524 23.1708 421.356 24.2268C424.236 25.2828 426.708 26.8668 428.772 28.9788C430.884 31.0908 432.516 33.7308 433.668 36.8988C434.868 40.0668 435.468 43.7868 435.468 48.0588C435.468 51.8028 434.988 55.2588 434.028 58.4268C433.068 61.5948 431.604 64.3308 429.636 66.6348C427.716 68.9388 425.292 70.7628 422.364 72.1068C419.484 73.4028 416.076 74.0508 412.14 74.0508H389.964V22.6428ZM452.403 48.5628C452.403 50.7228 452.643 52.8348 453.123 54.8988C453.651 56.9148 454.467 58.7388 455.571 60.3708C456.675 62.0028 458.115 63.3228 459.891 64.3308C461.667 65.2908 463.827 65.7708 466.371 65.7708C468.915 65.7708 471.075 65.2908 472.851 64.3308C474.627 63.3228 476.067 62.0028 477.171 60.3708C478.275 58.7388 479.067 56.9148 479.547 54.8988C480.075 52.8348 480.339 50.7228 480.339 48.5628C480.339 46.3068 480.075 44.1228 479.547 42.0108C479.067 39.8988 478.275 38.0268 477.171 36.3948C476.067 34.7148 474.627 33.3948 472.851 32.4348C471.075 31.4268 468.915 30.9228 466.371 30.9228C463.827 30.9228 461.667 31.4268 459.891 32.4348C458.115 33.3948 456.675 34.7148 455.571 36.3948C454.467 38.0268 453.651 39.8988 453.123 42.0108C452.643 44.1228 452.403 46.3068 452.403 48.5628ZM441.099 48.5628C441.099 44.7228 441.675 41.1708 442.827 37.9068C443.979 34.5948 445.635 31.7148 447.795 29.2668C449.955 26.8188 452.595 24.8988 455.715 23.5068C458.883 22.1148 462.435 21.4188 466.371 21.4188C470.355 21.4188 473.907 22.1148 477.027 23.5068C480.147 24.8988 482.787 26.8188 484.947 29.2668C487.107 31.7148 488.763 34.5948 489.915 37.9068C491.067 41.1708 491.643 44.7228 491.643 48.5628C491.643 52.3068 491.067 55.8108 489.915 59.0748C488.763 62.2908 487.107 65.0988 484.947 67.4988C482.787 69.8988 480.147 71.7948 477.027 73.1868C473.907 74.5308 470.355 75.2028 466.371 75.2028C462.435 75.2028 458.883 74.5308 455.715 73.1868C452.595 71.7948 449.955 69.8988 447.795 67.4988C445.635 65.0988 443.979 62.2908 442.827 59.0748C441.675 55.8108 441.099 52.3068 441.099 48.5628ZM499.37 22.6428H510.674V74.0508H499.37V22.6428ZM520.605 22.6428H531.837L553.293 57.1308H553.437V22.6428H564.021V74.0508H552.717L531.333 39.6348H531.189V74.0508H520.605V22.6428Z" fill="white"/>
</svg>
