<svg width="786" height="97" viewBox="0 0 786 97" fill="none" xmlns="http://www.w3.org/2000/svg">
<rect y="0.800781" width="785.5" height="96" rx="48" fill="#003DA5"/>
<path d="M63.5767 43.4508H75.0247C77.0407 43.4508 78.6967 42.9708 79.9927 42.0108C81.2887 41.0508 81.9367 39.4908 81.9367 37.3308C81.9367 36.1308 81.7207 35.1468 81.2887 34.3788C80.8567 33.6108 80.2807 33.0108 79.5607 32.5788C78.8407 32.1468 78.0007 31.8588 77.0407 31.7148C76.1287 31.5228 75.1687 31.4268 74.1607 31.4268H63.5767V43.4508ZM52.2727 22.6428H76.4647C78.9127 22.6428 81.1447 22.8588 83.1607 23.2908C85.1767 23.7228 86.9047 24.4428 88.3447 25.4508C89.7847 26.4108 90.8887 27.7068 91.6567 29.3388C92.4727 30.9708 92.8807 32.9868 92.8807 35.3868C92.8807 37.9788 92.2807 40.1388 91.0807 41.8668C89.9287 43.5948 88.2007 45.0108 85.8967 46.1148C89.0647 47.0268 91.4167 48.6348 92.9527 50.9388C94.5367 53.1948 95.3287 55.9308 95.3287 59.1468C95.3287 61.7388 94.8247 63.9948 93.8167 65.9148C92.8087 67.7868 91.4407 69.3228 89.7127 70.5228C88.0327 71.7228 86.0887 72.6108 83.8807 73.1868C81.7207 73.7628 79.4887 74.0508 77.1847 74.0508H52.2727V22.6428ZM63.5767 65.2668H75.6727C76.7767 65.2668 77.8327 65.1708 78.8407 64.9788C79.8487 64.7388 80.7367 64.3788 81.5047 63.8988C82.2727 63.3708 82.8727 62.6748 83.3047 61.8108C83.7847 60.9468 84.0247 59.8428 84.0247 58.4988C84.0247 55.8588 83.2807 53.9868 81.7927 52.8828C80.3047 51.7308 78.3367 51.1548 75.8887 51.1548H63.5767V65.2668ZM102.968 22.6428H114.272V64.5468H139.328V74.0508H102.968V22.6428ZM164.535 50.0028H186.207V58.7868H164.535V50.0028ZM264.006 74.0508H252.774L244.062 39.0588H243.918L235.35 74.0508H223.902L210.294 22.6428H221.598L229.734 57.6348H229.878L238.806 22.6428H249.39L258.174 58.0668H258.318L266.742 22.6428H277.83L264.006 74.0508ZM292.11 48.5628C292.11 50.7228 292.35 52.8348 292.83 54.8988C293.358 56.9148 294.174 58.7388 295.278 60.3708C296.382 62.0028 297.822 63.3228 299.598 64.3308C301.374 65.2908 303.534 65.7708 306.078 65.7708C308.622 65.7708 310.782 65.2908 312.558 64.3308C314.334 63.3228 315.774 62.0028 316.878 60.3708C317.982 58.7388 318.774 56.9148 319.254 54.8988C319.782 52.8348 320.046 50.7228 320.046 48.5628C320.046 46.3068 319.782 44.1228 319.254 42.0108C318.774 39.8988 317.982 38.0268 316.878 36.3948C315.774 34.7148 314.334 33.3948 312.558 32.4348C310.782 31.4268 308.622 30.9228 306.078 30.9228C303.534 30.9228 301.374 31.4268 299.598 32.4348C297.822 33.3948 296.382 34.7148 295.278 36.3948C294.174 38.0268 293.358 39.8988 292.83 42.0108C292.35 44.1228 292.11 46.3068 292.11 48.5628ZM280.806 48.5628C280.806 44.7228 281.382 41.1708 282.534 37.9068C283.686 34.5948 285.342 31.7148 287.502 29.2668C289.662 26.8188 292.302 24.8988 295.422 23.5068C298.59 22.1148 302.142 21.4188 306.078 21.4188C310.062 21.4188 313.614 22.1148 316.734 23.5068C319.854 24.8988 322.494 26.8188 324.654 29.2668C326.814 31.7148 328.47 34.5948 329.622 37.9068C330.774 41.1708 331.35 44.7228 331.35 48.5628C331.35 52.3068 330.774 55.8108 329.622 59.0748C328.47 62.2908 326.814 65.0988 324.654 67.4988C322.494 69.8988 319.854 71.7948 316.734 73.1868C313.614 74.5308 310.062 75.2028 306.078 75.2028C302.142 75.2028 298.59 74.5308 295.422 73.1868C292.302 71.7948 289.662 69.8988 287.502 67.4988C285.342 65.0988 283.686 62.2908 282.534 59.0748C281.382 55.8108 280.806 52.3068 280.806 48.5628ZM339.077 22.6428H350.309L371.765 57.1308H371.909V22.6428H382.493V74.0508H371.189L349.805 39.6348H349.661V74.0508H339.077V22.6428ZM403.749 64.5468H413.829C415.461 64.5468 417.045 64.2828 418.581 63.7548C420.117 63.2268 421.485 62.3628 422.685 61.1628C423.885 59.9148 424.845 58.3068 425.565 56.3388C426.285 54.3708 426.645 51.9708 426.645 49.1388C426.645 46.5468 426.381 44.2188 425.853 42.1548C425.373 40.0428 424.557 38.2428 423.405 36.7548C422.253 35.2668 420.717 34.1388 418.797 33.3708C416.925 32.5548 414.597 32.1468 411.813 32.1468H403.749V64.5468ZM392.445 22.6428H414.621C417.933 22.6428 421.005 23.1708 423.837 24.2268C426.717 25.2828 429.189 26.8668 431.253 28.9788C433.365 31.0908 434.997 33.7308 436.149 36.8988C437.349 40.0668 437.949 43.7868 437.949 48.0588C437.949 51.8028 437.469 55.2588 436.509 58.4268C435.549 61.5948 434.085 64.3308 432.117 66.6348C430.197 68.9388 427.773 70.7628 424.845 72.1068C421.965 73.4028 418.557 74.0508 414.621 74.0508H392.445V22.6428ZM445.812 22.6428H484.26V32.1468H457.116V43.1628H482.028V51.9468H457.116V64.5468H484.836V74.0508H445.812V22.6428ZM503.803 45.8988H516.187C518.779 45.8988 520.723 45.3228 522.019 44.1708C523.315 43.0188 523.963 41.1468 523.963 38.5548C523.963 36.0588 523.315 34.2588 522.019 33.1548C520.723 32.0028 518.779 31.4268 516.187 31.4268H503.803V45.8988ZM492.499 22.6428H520.219C522.523 22.6428 524.587 23.0268 526.411 23.7948C528.283 24.5148 529.867 25.5228 531.163 26.8188C532.507 28.1148 533.515 29.6268 534.187 31.3548C534.907 33.0348 535.267 34.8588 535.267 36.8268C535.267 39.8508 534.619 42.4668 533.323 44.6748C532.075 46.8828 530.011 48.5628 527.131 49.7148V49.8588C528.523 50.2428 529.675 50.8428 530.587 51.6588C531.499 52.4268 532.243 53.3628 532.819 54.4668C533.395 55.5228 533.803 56.6988 534.043 57.9948C534.331 59.2908 534.523 60.5868 534.619 61.8828C534.667 62.6988 534.715 63.6588 534.763 64.7628C534.811 65.8668 534.883 66.9948 534.979 68.1468C535.123 69.2988 535.315 70.4028 535.555 71.4588C535.843 72.4668 536.251 73.3308 536.779 74.0508H525.475C524.851 72.4188 524.467 70.4748 524.323 68.2188C524.179 65.9628 523.963 63.8028 523.675 61.7388C523.291 59.0508 522.475 57.0828 521.227 55.8348C519.979 54.5868 517.939 53.9628 515.107 53.9628H503.803V74.0508H492.499V22.6428ZM544.46 22.6428H555.764V64.5468H580.82V74.0508H544.46V22.6428ZM600.1 54.1788H613.42L606.94 35.3148H606.796L600.1 54.1788ZM601.18 22.6428H612.772L631.996 74.0508H620.26L616.372 62.6028H597.148L593.116 74.0508H581.74L601.18 22.6428ZM636.429 22.6428H647.661L669.117 57.1308H669.261V22.6428H679.845V74.0508H668.541L647.157 39.6348H647.013V74.0508H636.429V22.6428ZM701.1 64.5468H711.18C712.812 64.5468 714.396 64.2828 715.932 63.7548C717.468 63.2268 718.836 62.3628 720.036 61.1628C721.236 59.9148 722.196 58.3068 722.916 56.3388C723.636 54.3708 723.996 51.9708 723.996 49.1388C723.996 46.5468 723.732 44.2188 723.204 42.1548C722.724 40.0428 721.908 38.2428 720.756 36.7548C719.604 35.2668 718.068 34.1388 716.148 33.3708C714.276 32.5548 711.948 32.1468 709.164 32.1468H701.1V64.5468ZM689.796 22.6428H711.972C715.284 22.6428 718.356 23.1708 721.188 24.2268C724.068 25.2828 726.54 26.8668 728.604 28.9788C730.716 31.0908 732.348 33.7308 733.5 36.8988C734.7 40.0668 735.3 43.7868 735.3 48.0588C735.3 51.8028 734.82 55.2588 733.86 58.4268C732.9 61.5948 731.436 64.3308 729.468 66.6348C727.548 68.9388 725.124 70.7628 722.196 72.1068C719.316 73.4028 715.908 74.0508 711.972 74.0508H689.796V22.6428Z" fill="white"/>
</svg>
