<svg width="523" height="82" viewBox="0 0 523 82" fill="none" xmlns="http://www.w3.org/2000/svg">
<rect width="523" height="82" rx="41" fill="#80276C"/>
<path d="M74.7826 33.7709H84.1306C83.8436 31.2289 83.1466 28.9739 82.0396 27.0059C80.9326 25.0379 79.5181 23.3979 77.7961 22.0859C76.1151 20.7329 74.1881 19.7079 72.0151 19.0109C69.8831 18.3139 67.6076 17.9654 65.1886 17.9654C61.8266 17.9654 58.7926 18.5599 56.0866 19.7489C53.4216 20.9379 51.1666 22.5779 49.3216 24.6689C47.4766 26.7599 46.0621 29.2199 45.0781 32.0489C44.0941 34.8369 43.6021 37.8709 43.6021 41.1509C43.6021 44.3489 44.0941 47.3419 45.0781 50.1299C46.0621 52.8769 47.4766 55.2754 49.3216 57.3254C51.1666 59.3754 53.4216 60.9949 56.0866 62.1839C58.7926 63.3319 61.8266 63.9059 65.1886 63.9059C67.8946 63.9059 70.3751 63.4959 72.6301 62.6759C74.8851 61.8559 76.8531 60.6669 78.5341 59.1089C80.2151 57.5509 81.5681 55.6649 82.5931 53.4509C83.6181 51.2369 84.2536 48.7564 84.4996 46.0094H75.1516C74.7826 48.9614 73.7576 51.3394 72.0766 53.1434C70.4366 54.9474 68.1406 55.8494 65.1886 55.8494C63.0156 55.8494 61.1706 55.4394 59.6536 54.6194C58.1366 53.7584 56.9066 52.6309 55.9636 51.2369C55.0206 49.8429 54.3236 48.2849 53.8726 46.5629C53.4626 44.7999 53.2576 42.9959 53.2576 41.1509C53.2576 39.2239 53.4626 37.3584 53.8726 35.5544C54.3236 33.7504 55.0206 32.1514 55.9636 30.7574C56.9066 29.3224 58.1366 28.1949 59.6536 27.3749C61.1706 26.5139 63.0156 26.0834 65.1886 26.0834C66.3776 26.0834 67.5051 26.2884 68.5711 26.6984C69.6781 27.0674 70.6621 27.6004 71.5231 28.2974C72.3841 28.9944 73.1016 29.8144 73.6756 30.7574C74.2496 31.6594 74.6186 32.6639 74.7826 33.7709ZM97.9196 47.0549C97.9196 45.7839 98.0426 44.5334 98.2886 43.3034C98.5346 42.0734 98.9446 40.9869 99.5186 40.0439C100.134 39.1009 100.933 38.3424 101.917 37.7684C102.901 37.1534 104.131 36.8459 105.607 36.8459C107.083 36.8459 108.313 37.1534 109.297 37.7684C110.322 38.3424 111.122 39.1009 111.696 40.0439C112.311 40.9869 112.741 42.0734 112.987 43.3034C113.233 44.5334 113.356 45.7839 113.356 47.0549C113.356 48.3259 113.233 49.5764 112.987 50.8064C112.741 51.9954 112.311 53.0819 111.696 54.0659C111.122 55.0089 110.322 55.7674 109.297 56.3414C108.313 56.9154 107.083 57.2024 105.607 57.2024C104.131 57.2024 102.901 56.9154 101.917 56.3414C100.933 55.7674 100.134 55.0089 99.5186 54.0659C98.9446 53.0819 98.5346 51.9954 98.2886 50.8064C98.0426 49.5764 97.9196 48.3259 97.9196 47.0549ZM89.1866 47.0549C89.1866 49.5969 89.5761 51.8929 90.3551 53.9429C91.1341 55.9929 92.2411 57.7559 93.6761 59.2319C95.1111 60.6669 96.8331 61.7739 98.8421 62.5529C100.851 63.3319 103.106 63.7214 105.607 63.7214C108.108 63.7214 110.363 63.3319 112.372 62.5529C114.422 61.7739 116.165 60.6669 117.6 59.2319C119.035 57.7559 120.142 55.9929 120.921 53.9429C121.7 51.8929 122.089 49.5969 122.089 47.0549C122.089 44.5129 121.7 42.2169 120.921 40.1669C120.142 38.0759 119.035 36.3129 117.6 34.8779C116.165 33.4019 114.422 32.2744 112.372 31.4954C110.363 30.6754 108.108 30.2654 105.607 30.2654C103.106 30.2654 100.851 30.6754 98.8421 31.4954C96.8331 32.2744 95.1111 33.4019 93.6761 34.8779C92.2411 36.3129 91.1341 38.0759 90.3551 40.1669C89.5761 42.2169 89.1866 44.5129 89.1866 47.0549ZM128.013 31.1264V62.9219H136.746V44.4719C136.746 42.9139 136.972 41.6634 137.423 40.7204C137.874 39.7364 138.407 38.9984 139.022 38.5064C139.678 37.9734 140.334 37.6249 140.99 37.4609C141.687 37.2559 142.24 37.1534 142.65 37.1534C144.044 37.1534 145.09 37.3994 145.787 37.8914C146.525 38.3424 147.037 38.9574 147.324 39.7364C147.652 40.5154 147.837 41.3764 147.878 42.3194C147.919 43.2214 147.939 44.1439 147.939 45.0869V62.9219H156.672V45.2099C156.672 44.2259 156.734 43.2624 156.857 42.3194C157.021 41.3354 157.308 40.4744 157.718 39.7364C158.169 38.9574 158.763 38.3424 159.501 37.8914C160.28 37.3994 161.285 37.1534 162.515 37.1534C163.745 37.1534 164.708 37.3584 165.405 37.7684C166.143 38.1784 166.697 38.7319 167.066 39.4289C167.435 40.1259 167.66 40.9459 167.742 41.8889C167.824 42.8319 167.865 43.8364 167.865 44.9024V62.9219H176.598V41.6429C176.598 39.5929 176.311 37.8504 175.737 36.4154C175.163 34.9394 174.364 33.7504 173.339 32.8484C172.314 31.9464 171.084 31.2904 169.649 30.8804C168.214 30.4704 166.656 30.2654 164.975 30.2654C162.761 30.2654 160.834 30.7984 159.194 31.8644C157.595 32.9304 156.324 34.1604 155.381 35.5544C154.52 33.5864 153.249 32.2129 151.568 31.4339C149.928 30.6549 148.103 30.2654 146.094 30.2654C144.003 30.2654 142.138 30.7164 140.498 31.6184C138.899 32.5204 137.525 33.7914 136.377 35.4314H136.254V31.1264H128.013ZM183.748 31.1264V62.9219H192.481V44.4719C192.481 42.9139 192.706 41.6634 193.157 40.7204C193.608 39.7364 194.141 38.9984 194.756 38.5064C195.412 37.9734 196.068 37.6249 196.724 37.4609C197.421 37.2559 197.975 37.1534 198.385 37.1534C199.779 37.1534 200.824 37.3994 201.521 37.8914C202.259 38.3424 202.772 38.9574 203.059 39.7364C203.387 40.5154 203.571 41.3764 203.612 42.3194C203.653 43.2214 203.674 44.1439 203.674 45.0869V62.9219H212.407V45.2099C212.407 44.2259 212.468 43.2624 212.591 42.3194C212.755 41.3354 213.042 40.4744 213.452 39.7364C213.903 38.9574 214.498 38.3424 215.236 37.8914C216.015 37.3994 217.019 37.1534 218.249 37.1534C219.479 37.1534 220.443 37.3584 221.14 37.7684C221.878 38.1784 222.431 38.7319 222.8 39.4289C223.169 40.1259 223.395 40.9459 223.477 41.8889C223.559 42.8319 223.6 43.8364 223.6 44.9024V62.9219H232.333V41.6429C232.333 39.5929 232.046 37.8504 231.472 36.4154C230.898 34.9394 230.098 33.7504 229.073 32.8484C228.048 31.9464 226.818 31.2904 225.383 30.8804C223.948 30.4704 222.39 30.2654 220.709 30.2654C218.495 30.2654 216.568 30.7984 214.928 31.8644C213.329 32.9304 212.058 34.1604 211.115 35.5544C210.254 33.5864 208.983 32.2129 207.302 31.4339C205.662 30.6549 203.838 30.2654 201.829 30.2654C199.738 30.2654 197.872 30.7164 196.232 31.6184C194.633 32.5204 193.26 33.7914 192.112 35.4314H191.989V31.1264H183.748ZM269.064 62.9219V31.1264H260.331V47.7929C260.331 51.0319 259.798 53.3689 258.732 54.8039C257.666 56.1979 255.944 56.8949 253.566 56.8949C251.475 56.8949 250.019 56.2594 249.199 54.9884C248.379 53.6764 247.969 51.7084 247.969 49.0844V31.1264H239.236V50.6834C239.236 52.6514 239.4 54.4554 239.728 56.0954C240.097 57.6944 240.712 59.0679 241.573 60.2159C242.434 61.3229 243.603 62.1839 245.079 62.7989C246.596 63.4139 248.523 63.7214 250.86 63.7214C252.705 63.7214 254.509 63.3114 256.272 62.4914C258.035 61.6714 259.47 60.3389 260.577 58.4939H260.761V62.9219H269.064ZM286.762 31.1264V21.5939H278.029V31.1264H272.74V36.9689H278.029V55.7264C278.029 57.3254 278.295 58.6169 278.828 59.6009C279.361 60.5849 280.079 61.3434 280.981 61.8764C281.924 62.4094 282.99 62.7579 284.179 62.9219C285.409 63.1269 286.7 63.2294 288.053 63.2294C288.914 63.2294 289.796 63.2089 290.698 63.1679C291.6 63.1269 292.42 63.0449 293.158 62.9219V56.1569C292.748 56.2389 292.317 56.3004 291.866 56.3414C291.415 56.3824 290.944 56.4029 290.452 56.4029C288.976 56.4029 287.992 56.1569 287.5 55.6649C287.008 55.1729 286.762 54.1889 286.762 52.7129V36.9689H293.158V31.1264H286.762ZM318.715 43.6109H304.508C304.549 42.9959 304.672 42.2989 304.877 41.5199C305.123 40.7409 305.513 40.0029 306.046 39.3059C306.62 38.6089 307.358 38.0349 308.26 37.5839C309.203 37.0919 310.371 36.8459 311.765 36.8459C313.897 36.8459 315.476 37.4199 316.501 38.5679C317.567 39.7159 318.305 41.3969 318.715 43.6109ZM304.508 49.1459H327.448C327.612 46.6859 327.407 44.3284 326.833 42.0734C326.259 39.8184 325.316 37.8094 324.004 36.0464C322.733 34.2834 321.093 32.8894 319.084 31.8644C317.075 30.7984 314.717 30.2654 312.011 30.2654C309.592 30.2654 307.378 30.6959 305.369 31.5569C303.401 32.4179 301.7 33.6069 300.265 35.1239C298.83 36.5999 297.723 38.3629 296.944 40.4129C296.165 42.4629 295.775 44.6769 295.775 47.0549C295.775 49.5149 296.144 51.7699 296.882 53.8199C297.661 55.8699 298.748 57.6329 300.142 59.1089C301.536 60.5849 303.237 61.7329 305.246 62.5529C307.255 63.3319 309.51 63.7214 312.011 63.7214C315.619 63.7214 318.694 62.9014 321.236 61.2614C323.778 59.6214 325.664 56.8949 326.894 53.0819H319.207C318.92 54.0659 318.141 55.0089 316.87 55.9109C315.599 56.7719 314.082 57.2024 312.319 57.2024C309.859 57.2024 307.973 56.5669 306.661 55.2959C305.349 54.0249 304.631 51.9749 304.508 49.1459ZM332.627 31.1264V62.9219H341.36V48.5924C341.36 47.1574 341.504 45.8249 341.791 44.5949C342.078 43.3649 342.549 42.2989 343.205 41.3969C343.902 40.4539 344.804 39.7159 345.911 39.1829C347.018 38.6499 348.371 38.3834 349.97 38.3834C350.503 38.3834 351.057 38.4244 351.631 38.5064C352.205 38.5474 352.697 38.6089 353.107 38.6909V30.5729C352.41 30.3679 351.774 30.2654 351.2 30.2654C350.093 30.2654 349.027 30.4294 348.002 30.7574C346.977 31.0854 346.014 31.5569 345.112 32.1719C344.21 32.7459 343.41 33.4634 342.713 34.3244C342.016 35.1444 341.463 36.0464 341.053 37.0304H340.93V31.1264H332.627ZM384.225 38.8754V26.5139H394.803C397.017 26.5139 398.678 27.0059 399.785 27.9899C400.892 28.9329 401.445 30.4704 401.445 32.6024C401.445 34.8164 400.892 36.4154 399.785 37.3994C398.678 38.3834 397.017 38.8754 394.803 38.8754H384.225ZM374.57 19.0109V62.9219H384.225V45.7634H393.881C396.3 45.7634 398.042 46.2964 399.108 47.3624C400.174 48.4284 400.871 50.1094 401.199 52.4054C401.445 54.1684 401.63 56.0134 401.753 57.9404C401.876 59.8674 402.204 61.5279 402.737 62.9219H412.392C411.941 62.3069 411.593 61.5689 411.347 60.7079C411.142 59.8059 410.978 58.8629 410.855 57.8789C410.773 56.8949 410.711 55.9314 410.67 54.9884C410.629 54.0454 410.588 53.2254 410.547 52.5284C410.465 51.4214 410.301 50.3144 410.055 49.2074C409.85 48.1004 409.502 47.0959 409.01 46.1939C408.518 45.2509 407.882 44.4514 407.103 43.7954C406.324 43.0984 405.34 42.5859 404.151 42.2579V42.1349C406.611 41.1509 408.374 39.7159 409.44 37.8299C410.547 35.9439 411.101 33.7094 411.101 31.1264C411.101 29.4454 410.793 27.8874 410.178 26.4524C409.604 24.9764 408.743 23.6849 407.595 22.5779C406.488 21.4709 405.135 20.6099 403.536 19.9949C401.978 19.3389 400.215 19.0109 398.247 19.0109H374.57ZM417.661 40.9049C417.784 38.8549 418.297 37.1534 419.199 35.8004C420.101 34.4474 421.249 33.3609 422.643 32.5409C424.037 31.7209 425.595 31.1469 427.317 30.8189C429.08 30.4499 430.843 30.2654 432.606 30.2654C434.205 30.2654 435.824 30.3884 437.464 30.6344C439.104 30.8394 440.601 31.2699 441.954 31.9259C443.307 32.5819 444.414 33.5044 445.275 34.6934C446.136 35.8414 446.566 37.3789 446.566 39.3059V55.8494C446.566 57.2844 446.648 58.6579 446.812 59.9699C446.976 61.2819 447.263 62.2659 447.673 62.9219H438.817C438.653 62.4299 438.51 61.9379 438.387 61.4459C438.305 60.9129 438.243 60.3799 438.202 59.8469C436.808 61.2819 435.168 62.2864 433.282 62.8604C431.396 63.4344 429.469 63.7214 427.501 63.7214C425.984 63.7214 424.57 63.5369 423.258 63.1679C421.946 62.7989 420.798 62.2249 419.814 61.4459C418.83 60.6669 418.051 59.6829 417.477 58.4939C416.944 57.3049 416.677 55.8904 416.677 54.2504C416.677 52.4464 416.985 50.9704 417.6 49.8224C418.256 48.6334 419.076 47.6904 420.06 46.9934C421.085 46.2964 422.233 45.7839 423.504 45.4559C424.816 45.0869 426.128 44.7999 427.44 44.5949C428.752 44.3899 430.043 44.2259 431.314 44.1029C432.585 43.9799 433.713 43.7954 434.697 43.5494C435.681 43.3034 436.46 42.9549 437.034 42.5039C437.608 42.0119 437.874 41.3149 437.833 40.4129C437.833 39.4699 437.669 38.7319 437.341 38.1989C437.054 37.6249 436.644 37.1944 436.111 36.9074C435.619 36.5794 435.025 36.3744 434.328 36.2924C433.672 36.1694 432.954 36.1079 432.175 36.1079C430.453 36.1079 429.1 36.4769 428.116 37.2149C427.132 37.9529 426.558 39.1829 426.394 40.9049H417.661ZM437.833 47.3624C437.464 47.6904 436.993 47.9569 436.419 48.1619C435.886 48.3259 435.291 48.4694 434.635 48.5924C434.02 48.7154 433.364 48.8179 432.667 48.8999C431.97 48.9819 431.273 49.0844 430.576 49.2074C429.92 49.3304 429.264 49.4944 428.608 49.6994C427.993 49.9044 427.44 50.1914 426.948 50.5604C426.497 50.8884 426.128 51.3189 425.841 51.8519C425.554 52.3849 425.41 53.0614 425.41 53.8814C425.41 54.6604 425.554 55.3164 425.841 55.8494C426.128 56.3824 426.517 56.8129 427.009 57.1409C427.501 57.4279 428.075 57.6329 428.731 57.7559C429.387 57.8789 430.064 57.9404 430.761 57.9404C432.483 57.9404 433.815 57.6534 434.758 57.0794C435.701 56.5054 436.398 55.8289 436.849 55.0499C437.3 54.2299 437.567 53.4099 437.649 52.5899C437.772 51.7699 437.833 51.1139 437.833 50.6219V47.3624ZM462.324 26.2064V19.0109H453.591V26.2064H462.324ZM453.591 31.1264V62.9219H462.324V31.1264H453.591ZM469.446 19.0109V62.9219H478.179V19.0109H469.446Z" fill="white"/>
</svg>
