<svg width="75" height="74" viewBox="0 0 75 74" fill="none" xmlns="http://www.w3.org/2000/svg">
<g clip-path="url(#clip0_509_24417)">
<rect width="74" height="74" rx="37" fill="#00843D"/>
<path d="M47.3676 29.9392C47.2097 28.8736 46.8545 27.9067 46.302 27.0384C45.7495 26.1307 45.0588 25.3413 44.23 24.6704C43.4012 23.9995 42.454 23.4864 41.3884 23.1312C40.3623 22.7365 39.2769 22.5392 38.1324 22.5392C36.0407 22.5392 34.2647 22.9536 32.8044 23.7824C31.3441 24.5717 30.1601 25.6571 29.2524 27.0384C28.3447 28.3803 27.6737 29.9195 27.2396 31.656C26.8449 33.3925 26.6476 35.1883 26.6476 37.0432C26.6476 38.8192 26.8449 40.5557 27.2396 42.2528C27.6737 43.9104 28.3447 45.4101 29.2524 46.752C30.1601 48.0939 31.3441 49.1792 32.8044 50.008C34.2647 50.7973 36.0407 51.192 38.1324 51.192C40.974 51.192 43.1841 50.3237 44.7628 48.5872C46.3809 46.8507 47.3676 44.5616 47.7228 41.72H56.7212C56.4844 44.3643 55.8727 46.752 54.886 48.8832C53.8993 51.0144 52.5969 52.8299 50.9788 54.3296C49.3607 55.8293 47.4663 56.9739 45.2956 57.7632C43.1249 58.5525 40.7372 58.9472 38.1324 58.9472C34.8961 58.9472 31.9756 58.3947 29.3708 57.2896C26.8055 56.1451 24.6348 54.5861 22.8588 52.6128C21.0828 50.6395 19.7212 48.3307 18.774 45.6864C17.8268 43.0027 17.3532 40.1216 17.3532 37.0432C17.3532 33.8859 17.8268 30.9653 18.774 28.2816C19.7212 25.5584 21.0828 23.1904 22.8588 21.1776C24.6348 19.1648 26.8055 17.5861 29.3708 16.4416C31.9756 15.2971 34.8961 14.7248 38.1324 14.7248C40.4609 14.7248 42.6513 15.0603 44.7036 15.7312C46.7953 16.4021 48.6503 17.3888 50.2684 18.6912C51.926 19.9541 53.2876 21.5328 54.3532 23.4272C55.4188 25.3216 56.0897 27.4923 56.366 29.9392H47.3676Z" fill="white"/>
</g>
<defs>
<clipPath id="clip0_509_24417">
<rect width="74.0435" height="74" fill="white"/>
</clipPath>
</defs>
</svg>
