<svg width="144" height="74" viewBox="0 0 144 74" fill="none" xmlns="http://www.w3.org/2000/svg">
<rect width="143.375" height="74" rx="37" fill="#00843D"/>
<path d="M66.0935 52.817C64.5395 54.815 62.819 56.221 60.932 57.035C59.045 57.812 57.1395 58.2005 55.2155 58.2005C52.1815 58.2005 49.4435 57.6825 47.0015 56.6465C44.5965 55.5735 42.5615 54.112 40.8965 52.262C39.2315 50.412 37.955 48.2475 37.067 45.7685C36.179 43.2525 35.735 40.5515 35.735 37.6655C35.735 34.7055 36.179 31.9675 37.067 29.4515C37.955 26.8985 39.2315 24.6785 40.8965 22.7915C42.5615 20.9045 44.5965 19.4245 47.0015 18.3515C49.4435 17.2785 52.1815 16.742 55.2155 16.742C57.2505 16.742 59.2115 17.0565 61.0985 17.6855C63.0225 18.2775 64.743 19.1655 66.26 20.3495C67.814 21.5335 69.0905 22.995 70.0895 24.734C71.0885 26.473 71.699 28.471 71.921 30.728H63.596C63.078 28.508 62.079 26.843 60.599 25.733C59.119 24.623 57.3245 24.068 55.2155 24.068C53.2545 24.068 51.5895 24.4565 50.2205 25.2335C48.8515 25.9735 47.7415 26.991 46.8905 28.286C46.0395 29.544 45.4105 30.987 45.0035 32.615C44.6335 34.243 44.4485 35.9265 44.4485 37.6655C44.4485 39.3305 44.6335 40.9585 45.0035 42.5495C45.4105 44.1035 46.0395 45.5095 46.8905 46.7675C47.7415 48.0255 48.8515 49.043 50.2205 49.82C51.5895 50.56 53.2545 50.93 55.2155 50.93C58.1015 50.93 60.3215 50.2085 61.8755 48.7655C63.4665 47.2855 64.3915 45.158 64.6505 42.383H55.8815V35.8895H72.5315V57.3125H66.9815L66.0935 52.817ZM79.5683 17.6855H88.2818V49.9865H107.596V57.3125H79.5683V17.6855Z" fill="white"/>
</svg>
