<svg width="75" height="74" viewBox="0 0 75 74" fill="none" xmlns="http://www.w3.org/2000/svg">
<g clip-path="url(#clip0_509_24420)">
<rect x="0.043457" width="74" height="74" rx="37" fill="#00843D"/>
<path d="M28.5263 50.1856V23.5456H35.1567C37.4457 23.5456 39.3599 23.8811 40.8991 24.552C42.4777 25.1835 43.7407 26.1109 44.6879 27.3344C45.6351 28.5579 46.306 30.0379 46.7007 31.7744C47.1348 33.4715 47.3519 35.3856 47.3519 37.5168C47.3519 39.8453 47.0559 41.8187 46.4639 43.4368C45.8719 45.0549 45.0825 46.3771 44.0959 47.4032C43.1092 48.3899 41.9844 49.1003 40.7215 49.5344C39.4585 49.9685 38.1561 50.1856 36.8143 50.1856H28.5263ZM19.2319 15.7312V58H37.4655C40.7017 58 43.5039 57.4672 45.8719 56.4016C48.2793 55.2965 50.2724 53.7968 51.8511 51.9024C53.4692 50.008 54.6729 47.7584 55.4623 45.1536C56.2516 42.5488 56.6463 39.7072 56.6463 36.6288C56.6463 33.1163 56.1529 30.0576 55.1663 27.4528C54.2191 24.848 52.8772 22.6773 51.1407 20.9408C49.4436 19.2043 47.4111 17.9019 45.0431 17.0336C42.7145 16.1653 40.1887 15.7312 37.4655 15.7312H19.2319Z" fill="white"/>
</g>
<defs>
<clipPath id="clip0_509_24420">
<rect width="74.0435" height="74" fill="white" transform="translate(0.043457)"/>
</clipPath>
</defs>
</svg>
