<svg width="74" height="74" viewBox="0 0 74 74" fill="none" xmlns="http://www.w3.org/2000/svg">
<g clip-path="url(#clip0_630_1550)">
<rect width="74" height="74" rx="37" fill="#00843D"/>
<path d="M29.5378 32.84H38.9506C40.6082 32.84 41.9698 32.4453 43.0354 31.656C44.101 30.8667 44.6338 29.584 44.6338 27.808C44.6338 26.8213 44.4562 26.0123 44.101 25.3808C43.7458 24.7493 43.2722 24.256 42.6802 23.9008C42.0882 23.5456 41.3975 23.3088 40.6082 23.1904C39.8583 23.0325 39.069 22.9536 38.2402 22.9536H29.5378V32.84ZM20.2434 15.7312H40.1346C42.1474 15.7312 43.9826 15.9088 45.6402 16.264C47.2978 16.6192 48.7186 17.2112 49.9026 18.04C51.0866 18.8293 51.9943 19.8949 52.6258 21.2368C53.2967 22.5787 53.6322 24.2363 53.6322 26.2096C53.6322 28.3408 53.1389 30.1168 52.1522 31.5376C51.205 32.9584 49.7842 34.1227 47.8898 35.0304C50.4946 35.7803 52.4285 37.1024 53.6914 38.9968C54.9938 40.8517 55.645 43.1013 55.645 45.7456C55.645 47.8768 55.2306 49.7317 54.4018 51.3104C53.573 52.8496 52.4482 54.1125 51.0274 55.0992C49.6461 56.0859 48.0477 56.816 46.2322 57.2896C44.4562 57.7632 42.621 58 40.7266 58H20.2434V15.7312ZM29.5378 50.7776H39.4834C40.3911 50.7776 41.2594 50.6987 42.0882 50.5408C42.917 50.3435 43.6471 50.0475 44.2786 49.6528C44.9101 49.2187 45.4034 48.6464 45.7586 47.936C46.1533 47.2256 46.3506 46.3179 46.3506 45.2128C46.3506 43.0421 45.7389 41.5029 44.5154 40.5952C43.2919 39.648 41.6738 39.1744 39.661 39.1744H29.5378V50.7776Z" fill="white"/>
</g>
<defs>
<clipPath id="clip0_630_1550">
<rect width="74" height="74" fill="white"/>
</clipPath>
</defs>
</svg>
