<svg width="149" height="74" viewBox="0 0 149 74" fill="none" xmlns="http://www.w3.org/2000/svg">
<rect y="0.636719" width="149" height="72.7262" rx="36.3631" fill="#ED8B00"/>
<path d="M47.6779 37.8055C47.6779 36.0964 47.8597 34.4419 48.2233 32.8419C48.6233 31.2419 49.2415 29.8238 50.0778 28.5874C50.9142 27.3147 52.0051 26.3147 53.3505 25.5875C54.6959 24.8238 56.3323 24.442 58.2595 24.442C60.1868 24.442 61.8231 24.8238 63.1685 25.5875C64.514 26.3147 65.6049 27.3147 66.4412 28.5874C67.2776 29.8238 67.8776 31.2419 68.2412 32.8419C68.6412 34.4419 68.8412 36.0964 68.8412 37.8055C68.8412 39.4418 68.6412 41.0418 68.2412 42.6054C67.8776 44.1326 67.2776 45.5144 66.4412 46.7508C65.6049 47.9871 64.514 48.9871 63.1685 49.7507C61.8231 50.478 60.1868 50.8416 58.2595 50.8416C56.3323 50.8416 54.6959 50.478 53.3505 49.7507C52.0051 48.9871 50.9142 47.9871 50.0778 46.7508C49.2415 45.5144 48.6233 44.1326 48.2233 42.6054C47.8597 41.0418 47.6779 39.4418 47.6779 37.8055ZM39.1144 37.8055C39.1144 40.6418 39.5507 43.2963 40.4234 45.769C41.2961 48.2053 42.5507 50.3325 44.187 52.1507C45.8234 53.9689 47.8233 55.4052 50.1869 56.4597C52.5869 57.4779 55.2778 57.987 58.2595 57.987C61.2777 57.987 63.9685 57.4779 66.3321 56.4597C68.6957 55.4052 70.6957 53.9689 72.332 52.1507C73.9684 50.3325 75.2229 48.2053 76.0956 45.769C76.9683 43.2963 77.4047 40.6418 77.4047 37.8055C77.4047 34.8964 76.9683 32.2055 76.0956 29.7328C75.2229 27.2238 73.9684 25.042 72.332 23.1875C70.6957 21.333 68.6957 19.8784 66.3321 18.8239C63.9685 17.7694 61.2777 17.2421 58.2595 17.2421C55.2778 17.2421 52.5869 17.7694 50.1869 18.8239C47.8233 19.8784 45.8234 21.333 44.187 23.1875C42.5507 25.042 41.2961 27.2238 40.4234 29.7328C39.5507 32.2055 39.1144 34.8964 39.1144 37.8055ZM83.2584 18.1694V57.1143H110.803V49.9144H91.822V18.1694H83.2584Z" fill="white"/>
</svg>
