<svg width="144" height="74" viewBox="0 0 144 74" fill="none" xmlns="http://www.w3.org/2000/svg">
<rect width="143.375" height="74" rx="37" fill="#DA291C"/>
<path d="M47.855 35.612H57.401C59.399 35.612 60.8975 35.168 61.8965 34.28C62.8955 33.392 63.395 31.949 63.395 29.951C63.395 28.027 62.8955 26.6395 61.8965 25.7885C60.8975 24.9005 59.399 24.4565 57.401 24.4565H47.855V35.612ZM39.1415 17.6855H60.509C62.285 17.6855 63.876 17.9815 65.282 18.5735C66.725 19.1285 67.946 19.9055 68.945 20.9045C69.981 21.9035 70.758 23.069 71.276 24.401C71.831 25.696 72.1085 27.102 72.1085 28.619C72.1085 30.95 71.609 32.9665 70.61 34.6685C69.648 36.3705 68.057 37.6655 65.837 38.5535V38.6645C66.91 38.9605 67.798 39.423 68.501 40.052C69.204 40.644 69.7775 41.3655 70.2215 42.2165C70.6655 43.0305 70.98 43.937 71.165 44.936C71.387 45.935 71.535 46.934 71.609 47.933C71.646 48.562 71.683 49.302 71.72 50.153C71.757 51.004 71.8125 51.8735 71.8865 52.7615C71.9975 53.6495 72.1455 54.5005 72.3305 55.3145C72.5525 56.0915 72.867 56.7575 73.274 57.3125H64.5605C64.0795 56.0545 63.7835 54.556 63.6725 52.817C63.5615 51.078 63.395 49.413 63.173 47.822C62.877 45.75 62.248 44.233 61.286 43.271C60.324 42.309 58.7515 41.828 56.5685 41.828H47.855V57.3125H39.1415V17.6855ZM79.1947 17.6855H87.9082V49.9865H107.222V57.3125H79.1947V17.6855Z" fill="white"/>
</svg>
