<svg width="675" height="96" viewBox="0 0 675 96" fill="none" xmlns="http://www.w3.org/2000/svg">
<rect width="674.5" height="96" rx="48" fill="#DA291C"/>
<path d="M63.5533 45.098H75.9373C78.5293 45.098 80.4733 44.522 81.7693 43.37C83.0653 42.218 83.7133 40.346 83.7133 37.754C83.7133 35.258 83.0653 33.458 81.7693 32.354C80.4733 31.202 78.5293 30.626 75.9373 30.626H63.5533V45.098ZM52.2493 21.842H79.9693C82.2733 21.842 84.3373 22.226 86.1613 22.994C88.0333 23.714 89.6173 24.722 90.9133 26.018C92.2573 27.314 93.2653 28.826 93.9373 30.554C94.6573 32.234 95.0173 34.058 95.0173 36.026C95.0173 39.05 94.3693 41.666 93.0733 43.874C91.8253 46.082 89.7613 47.762 86.8813 48.914V49.058C88.2733 49.442 89.4253 50.042 90.3373 50.858C91.2493 51.626 91.9933 52.562 92.5693 53.666C93.1453 54.722 93.5533 55.898 93.7933 57.194C94.0813 58.49 94.2733 59.786 94.3693 61.082C94.4173 61.898 94.4653 62.858 94.5133 63.962C94.5613 65.066 94.6333 66.194 94.7293 67.346C94.8733 68.498 95.0653 69.602 95.3053 70.658C95.5933 71.666 96.0013 72.53 96.5293 73.25H85.2253C84.6013 71.618 84.2173 69.674 84.0733 67.418C83.9293 65.162 83.7133 63.002 83.4253 60.938C83.0413 58.25 82.2253 56.282 80.9773 55.034C79.7293 53.786 77.6893 53.162 74.8573 53.162H63.5533V73.25H52.2493V21.842ZM104.21 21.842H115.514V63.746H140.57V73.25H104.21V21.842ZM165.777 49.202H187.449V57.986H165.777V49.202ZM227.592 42.65H239.04C241.056 42.65 242.712 42.17 244.008 41.21C245.304 40.25 245.952 38.69 245.952 36.53C245.952 35.33 245.736 34.346 245.304 33.578C244.872 32.81 244.296 32.21 243.576 31.778C242.856 31.346 242.016 31.058 241.056 30.914C240.144 30.722 239.184 30.626 238.176 30.626H227.592V42.65ZM216.288 21.842H240.48C242.928 21.842 245.16 22.058 247.176 22.49C249.192 22.922 250.92 23.642 252.36 24.65C253.8 25.61 254.904 26.906 255.672 28.538C256.488 30.17 256.896 32.186 256.896 34.586C256.896 37.178 256.296 39.338 255.096 41.066C253.944 42.794 252.216 44.21 249.912 45.314C253.08 46.226 255.432 47.834 256.968 50.138C258.552 52.394 259.344 55.13 259.344 58.346C259.344 60.938 258.84 63.194 257.832 65.114C256.824 66.986 255.456 68.522 253.728 69.722C252.048 70.922 250.104 71.81 247.896 72.386C245.736 72.962 243.504 73.25 241.2 73.25H216.288V21.842ZM227.592 64.466H239.688C240.792 64.466 241.848 64.37 242.856 64.178C243.864 63.938 244.752 63.578 245.52 63.098C246.288 62.57 246.888 61.874 247.32 61.01C247.8 60.146 248.04 59.042 248.04 57.698C248.04 55.058 247.296 53.186 245.808 52.082C244.32 50.93 242.352 50.354 239.904 50.354H227.592V64.466ZM278.288 45.098H290.672C293.264 45.098 295.208 44.522 296.504 43.37C297.8 42.218 298.448 40.346 298.448 37.754C298.448 35.258 297.8 33.458 296.504 32.354C295.208 31.202 293.264 30.626 290.672 30.626H278.288V45.098ZM266.984 21.842H294.704C297.008 21.842 299.072 22.226 300.896 22.994C302.768 23.714 304.352 24.722 305.648 26.018C306.992 27.314 308 28.826 308.672 30.554C309.392 32.234 309.752 34.058 309.752 36.026C309.752 39.05 309.104 41.666 307.808 43.874C306.56 46.082 304.496 47.762 301.616 48.914V49.058C303.008 49.442 304.16 50.042 305.072 50.858C305.984 51.626 306.728 52.562 307.304 53.666C307.88 54.722 308.288 55.898 308.528 57.194C308.816 58.49 309.008 59.786 309.104 61.082C309.152 61.898 309.2 62.858 309.248 63.962C309.296 65.066 309.368 66.194 309.464 67.346C309.608 68.498 309.8 69.602 310.04 70.658C310.328 71.666 310.736 72.53 311.264 73.25H299.96C299.336 71.618 298.952 69.674 298.808 67.418C298.664 65.162 298.448 63.002 298.16 60.938C297.776 58.25 296.96 56.282 295.712 55.034C294.464 53.786 292.424 53.162 289.592 53.162H278.288V73.25H266.984V21.842ZM331.905 53.378H345.225L338.745 34.514H338.601L331.905 53.378ZM332.985 21.842H344.577L363.801 73.25H352.065L348.177 61.802H328.953L324.921 73.25H313.545L332.985 21.842ZM368.234 21.842H379.538V73.25H368.234V21.842ZM389.468 21.842H400.7L422.156 56.33H422.3V21.842H432.884V73.25H421.58L400.196 38.834H400.052V73.25H389.468V21.842ZM454.211 31.346H438.803V21.842H480.923V31.346H465.515V73.25H454.211V31.346ZM498.155 45.098H510.539C513.131 45.098 515.075 44.522 516.371 43.37C517.667 42.218 518.315 40.346 518.315 37.754C518.315 35.258 517.667 33.458 516.371 32.354C515.075 31.202 513.131 30.626 510.539 30.626H498.155V45.098ZM486.851 21.842H514.571C516.875 21.842 518.939 22.226 520.763 22.994C522.635 23.714 524.219 24.722 525.515 26.018C526.859 27.314 527.867 28.826 528.539 30.554C529.259 32.234 529.619 34.058 529.619 36.026C529.619 39.05 528.971 41.666 527.675 43.874C526.427 46.082 524.363 47.762 521.483 48.914V49.058C522.875 49.442 524.027 50.042 524.939 50.858C525.851 51.626 526.595 52.562 527.171 53.666C527.747 54.722 528.155 55.898 528.395 57.194C528.683 58.49 528.875 59.786 528.971 61.082C529.019 61.898 529.067 62.858 529.115 63.962C529.163 65.066 529.235 66.194 529.331 67.346C529.475 68.498 529.667 69.602 529.907 70.658C530.195 71.666 530.603 72.53 531.131 73.25H519.827C519.203 71.618 518.819 69.674 518.675 67.418C518.531 65.162 518.315 63.002 518.027 60.938C517.643 58.25 516.827 56.282 515.579 55.034C514.331 53.786 512.291 53.162 509.459 53.162H498.155V73.25H486.851V21.842ZM538.812 21.842H577.26V31.346H550.116V42.362H575.028V51.146H550.116V63.746H577.836V73.25H538.812V21.842ZM585.499 21.842H623.947V31.346H596.803V42.362H621.715V51.146H596.803V63.746H624.523V73.25H585.499V21.842Z" fill="white"/>
</svg>
